<?xml version="1.0" standalone="no"?>
<!DOCTYPE svg PUBLIC "-//W3C//DTD SVG 1.1//EN" "http://www.w3.org/Graphics/SVG/1.1/DTD/svg11.dtd" >
<svg>
<metadata>
Created by FontForge 20090914 at Sun Jul 27 21:23:55 2014
 By www-data
Copyright (c) 2002, 2005 Parachute&#194;&#168;, www.parachute.gr.  All rights reserved.
</metadata>
<defs>
<font id="PFDinTextCompPro-Thin" horiz-adv-x="1818" >
  <font-face 
    font-family="PF Din Text Comp Pro Thin"
    font-weight="200"
    font-stretch="normal"
    units-per-em="1000"
    panose-1="2 0 0 0 0 0 0 0 0 0"
    ascent="750"
    descent="-250"
    x-height="488"
    cap-height="696"
    bbox="-117 -212 1760 913.002"
    underline-thickness="50"
    underline-position="-50"
    unicode-range="U+0020-U+FB05"
  />
<missing-glyph horiz-adv-x="432" 
d="M0 700h432v-700h-432v700zM376 669h-320l160 -291zM402 49v604l-166 -303zM376 31l-160 291l-160 -291h320zM30 51l166 299l-166 300v-599z" />
    <glyph glyph-name="fj" unicode="fj" horiz-adv-x="347" 
d="M291 488v-583.001c0 -35.333 -8 -62 -24 -80s-41.333 -27 -76 -27h-13v40h8c26.667 0 43.667 6.33301 51 19s11 31.334 11 56.001v541h-139v-454h-43v454h-55v34h55v118c0 36 9.66699 65.167 29 87.5s47.666 33.5 84.999 33.5c20 0 39.333 -2.83301 58 -8.5
s35.667 -15.5 51 -29.5l-26 -31c-13.333 12.667 -27.5 20.667 -42.5 24s-28.167 5 -39.5 5c-25.333 0 -43.666 -6.5 -54.999 -19.5s-17 -30.167 -17 -51.5v-128h182z" />
    <glyph glyph-name="ffj" unicode="ffj" horiz-adv-x="529" 
d="M473 489l-0.00292969 -584c0 -71.333 -33.667 -107 -101 -107h-12v40h7c26.667 0 43.834 6.66699 51.501 20s11.5 33.666 11.5 60.999v535h-139v-454h-44v454h-138v-454h-43v454h-55v35h55v117c0 34 10.667 61.833 32 83.5s49 32.5 83 32.5
c13.333 0 27.833 -1.5 43.5 -4.5s31.167 -9.16699 46.5 -18.5c11.333 14 24.833 24.167 40.5 30.5s32.834 9.5 51.501 9.5c20.667 0 39.834 -2.66699 57.501 -8s34.167 -15.666 49.5 -30.999c-4 -5.33301 -8.16699 -10.333 -12.5 -15l-13.5 -15
c-14 12.667 -28.167 20.667 -42.5 24s-26.833 5 -37.5 5c-22.667 0 -40.5 -6.5 -53.5 -19.5s-19.5 -30.167 -19.5 -51.5v-139h182zM246.997 489l-0.000976562 139.001c0 5.33301 0.333008 11.166 1 17.499s2.33398 12.5 5.00098 18.5c-12.667 7.33301 -26 12.166 -40 14.499
s-24.333 3.5 -31 3.5c-24.667 0 -43 -7.16699 -55 -21.5s-18 -32.166 -18 -53.499v-118h138z" />
    <glyph glyph-name="ff" unicode="ff" horiz-adv-x="378" 
d="M182 725c12.667 0 26.3311 -1.33301 40.998 -4s29.334 -8 44.001 -16c9.33301 13.333 21.333 23 36 29s31.334 9 50.001 9h24v-39h-19c-25.333 0 -43 -6.66699 -53 -20s-15 -30.333 -15 -51v-144h83v-35h-83v-454h-43v454h-137v-454h-44v454h-54v35h54v125
c0 36 11.167 63.5 33.5 82.5s49.833 28.5 82.5 28.5zM246.997 489v137c0 5.33301 0.333008 11.5 1 18.5s2 14.833 4 23.5c-12.667 7.33301 -25.667 12 -39 14s-23.333 3 -30 3c-25.333 0 -43.833 -6.5 -55.5 -19.5s-17.5 -30.167 -17.5 -51.5v-125h137z" />
    <glyph glyph-name="fi" unicode="fi" horiz-adv-x="347" 
d="M249 0l-0.000976562 454.001h-139v-454h-44v454h-54v35h54v127c0 36 10.5 63.667 31.5 83s48.5 29 82.5 29c20.667 0 40.167 -2.83301 58.5 -8.5s35.166 -15.834 50.499 -30.501l-25 -30c-13.333 12.667 -27.666 20.5 -42.999 23.5s-28.666 4.5 -39.999 4.5
c-24.667 0 -42.667 -6.5 -54 -19.5s-17 -29.833 -17 -50.5v-128h182v-489h-43z" />
    <glyph glyph-name="fl" unicode="fl" horiz-adv-x="370" 
d="M250 684c-14.667 3.33301 -27.5 5.66602 -38.5 6.99902s-21.167 2 -30.5 2c-27.333 0 -46 -7.5 -56 -22.5s-15 -36.5 -15 -64.5v-117h91v-35h-91v-454h-44v454h-56v35h56v123c0 40.667 10 71.334 30 92.001s48 31 84 31c12 0 27.5 -1 46.5 -3s41.167 -6.66699 66.5 -14
v-603c0 -25.333 4 -45.5 12 -60.5s24.667 -22.5 50 -22.5h12v-39h-14c-34 0 -59.667 8 -77 24s-26 45.333 -26 88v579z" />
    <glyph glyph-name="ffi" unicode="ffi" horiz-adv-x="529" 
d="M182 723c13.333 0 27.833 -1.49902 43.5 -4.49902s31.167 -9.16699 46.5 -18.5c22.667 26.667 53 40 91 40c21.333 0 41.166 -2.83301 59.499 -8.5s35.166 -15.834 50.499 -30.501l-26 -30c-13.333 12 -27.666 19.667 -42.999 23s-28.666 5.33301 -39.999 6
c-22.667 0 -40.5 -6.66699 -53.5 -20s-19.5 -30.333 -19.5 -51v-140h182v-489h-43v454h-139v-454h-43v454h-138v-454h-44v454h-54v35h54v118c0 36 10.667 64.333 32 85s49.333 31 84 31zM248 489.001l0.00195312 139.001c0 5.33301 0.333008 11.166 1 17.499
s2 12.166 4 17.499c-12.667 8 -25.834 13.167 -39.501 15.5s-23.834 3.5 -30.501 3.5c-26.667 0 -45.5 -7.16699 -56.5 -21.5s-16.5 -32.166 -16.5 -53.499v-118h138z" />
    <glyph glyph-name="ffl" unicode="ffl" horiz-adv-x="553" 
d="M182 720c11.333 0 25.499 -1.5 42.499 -4.5s33.167 -9.16699 48.5 -18.5c11.333 15.333 24.5 26 39.5 32s31.5 9 49.5 9c12 0 28.5 -1.33301 49.5 -4s42.5 -8 64.5 -16v-603c0 -25.333 4 -45.5 12 -60.5s24.667 -22.5 50 -22.5h12v-39h-15c-33.333 0 -58.833 8 -76.5 24
s-26.5 45.333 -26.5 88v583c-14.667 4 -27.5 6.66699 -38.5 8s-21.167 2 -30.5 2c-25.333 0 -43.666 -7.83301 -54.999 -23.5s-17 -37.5 -17 -65.5v-120h96v-35h-96v-454h-43v454h-138v-454h-44v454h-54v35h54v119c0 36 11.167 63.667 33.5 83s49.833 29 82.5 29z
M247.999 615c0 8.66699 0.332031 16.668 0.999023 24.001s2.33398 14.666 5.00098 21.999c-13.333 8 -27 13 -41 15s-24 3 -30 3c-25.333 0 -43.833 -6.5 -55.5 -19.5s-17.5 -29.833 -17.5 -50.5v-120h138v126z" />
    <glyph glyph-name="ft" unicode="ft" horiz-adv-x="393" 
d="M292 489l73.999 -0.000976562v-35h-74v-339c0 -24 5.33301 -42.667 16 -56s28.334 -20 53.001 -20h10v-39h-16c-34 0 -60.167 9.33301 -78.5 28s-27.5 46 -27.5 82v344h-139v-454h-44v454h-54v35h54v126c0 40 10 68.5 30 85.5s45.333 25.5 76 25.5h25v-39h-20
c-24.667 0 -42 -6.66699 -52 -20s-15 -30.666 -15 -51.999v-126h139v137h43v-137z" />
    <glyph glyph-name=".notdef" horiz-adv-x="432" 
d="M0 700h432v-700h-432v700zM376 669h-320l160 -291zM402 49v604l-166 -303zM376 31l-160 291l-160 -291h320zM30 51l166 299l-166 300v-599z" />
    <glyph glyph-name="space" unicode=" " horiz-adv-x="172" 
 />
    <glyph glyph-name="exclam" unicode="!" horiz-adv-x="199" 
d="M81 160l-5 536h46l-5 -536h-36zM75 0v49h49v-49h-49z" />
    <glyph glyph-name="quotedbl" unicode="&#x22;" horiz-adv-x="190" 
d="M116 526v170h35v-170h-35zM39 526v170h36v-170h-36z" />
    <glyph glyph-name="numbersign" unicode="#" horiz-adv-x="353" 
d="M210 223h-117l-41 -223h-33l42 223h-58v30h64l36 194h-54v31h60l43 224h33l-43 -224h116l42 224h33l-43 -224h59v-31h-65l-36 -194h53v-30h-59l-42 -223h-32zM99 253h116l37 194h-116z" />
    <glyph glyph-name="dollar" unicode="$" horiz-adv-x="353" 
d="M331 182c0 -27.333 -2.33301 -52.166 -7 -74.499s-12.5 -41.833 -23.5 -58.5s-25.5 -29.834 -43.5 -39.501s-40.333 -15.167 -67 -16.5v-97h-28v97c-51.333 2.66699 -88 17.834 -110 45.501s-33.333 62.167 -34 103.5l44 9c0 -14.667 1.66699 -28.834 5 -42.501
s9 -25.667 17 -36s18.333 -19 31 -26s28.334 -11.167 47.001 -12.5v315c-30.667 14 -55.167 27.833 -73.5 41.5s-32.333 27.5 -42 41.5s-16 28.833 -19 44.5s-4.5 32.834 -4.5 51.501c0 24 2.66699 46.167 8 66.5s13.666 38.166 24.999 53.499s25.833 27.5 43.5 36.5
s38.5 14.5 62.5 16.5v90h28v-89c27.333 -1.33301 50 -6.5 68 -15.5s32.5 -20.333 43.5 -34s18.667 -28.834 23 -45.501s6.5 -33 6.5 -49l-43 -11c0 30 -7.33301 55.833 -22 77.5s-40 33.834 -76 36.501v-277l12 -5c30 -12.667 53.667 -25.5 71 -38.5s30.333 -27 39 -42
s14 -32 16 -51s3 -40.833 3 -65.5zM287 181c0 22 -1 40.502 -3 55.502s-6.16699 28.167 -12.5 39.5s-16 21.666 -29 30.999s-30.5 19.333 -52.5 30v-303c21.333 2 38.333 7.16699 51 15.5s22.5 19.166 29.5 32.499s11.5 28.5 13.5 45.5s3 34.833 3 53.5zM67 529.002
c0 -15.333 1.33203 -28.833 3.99902 -40.5s7.33398 -22.5 14.001 -32.5s16.167 -19.833 28.5 -29.5s28.5 -19.5 48.5 -29.5v263c-20 -2 -36.167 -7.33301 -48.5 -16s-22 -19.167 -29 -31.5s-11.667 -25.833 -14 -40.5s-3.5 -29 -3.5 -43z" />
    <glyph glyph-name="percent" unicode="%" horiz-adv-x="550" 
d="M517 72c0 -25.333 -8.83301 -44.333 -26.5 -57s-38.167 -19 -61.5 -19s-43.833 6.33301 -61.5 19s-26.5 31.667 -26.5 57v271c0 26 8.83301 45.167 26.5 57.5s38.167 18.5 61.5 18.5s43.833 -6.16699 61.5 -18.5s26.5 -31.5 26.5 -57.5v-271zM479 344
c0 13.333 -4.5 23.666 -13.5 30.999s-21.167 11 -36.5 11s-27.666 -3.66699 -36.999 -11s-14 -17.666 -14 -30.999v-273c0 -13.333 4.66699 -23.5 14 -30.5s21.666 -10.5 36.999 -10.5s27.5 3.5 36.5 10.5s13.5 17.167 13.5 30.5v273zM208 352
c0 -25.333 -8.83301 -44.333 -26.5 -57s-38.167 -19 -61.5 -19s-43.833 6.33301 -61.5 19s-26.5 31.667 -26.5 57v271c0 25.333 8.83301 44.333 26.5 57s38.167 19 61.5 19s43.833 -6.33301 61.5 -19s26.5 -31.667 26.5 -57v-271zM170 624
c0 13.333 -4.5 23.666 -13.5 30.999s-21.167 11 -36.5 11s-27.666 -3.66699 -36.999 -11s-14 -17.666 -14 -30.999v-274c0 -12.667 4.66699 -22.667 14 -30s21.666 -11 36.999 -11s27.5 3.66699 36.5 11s13.5 17.333 13.5 30v274zM134 -17h-33l314 731h33z" />
    <glyph glyph-name="ampersand" unicode="&#x26;" horiz-adv-x="454" 
d="M214 701c30 0 54.1631 -4.16504 72.4961 -12.498s33.5 -22.5 45.5 -42.5l-38 -22c-8 14 -19 23.667 -33 29s-29 8 -45 8c-14 0 -26.167 -3 -36.5 -9s-18.833 -13.833 -25.5 -23.5s-11.667 -20.5 -15 -32.5s-5 -23.667 -5 -35c0 -18.667 2.83301 -38.167 8.5 -58.5
s15.5 -42.833 29.5 -67.5l167 -287c9.33301 22 16.333 43.833 21 65.5s7.66699 43.167 9 64.5h40c-1.33301 -26.667 -6 -55.334 -14 -86.001s-18 -58.667 -30 -84l64 -108h-51l-42 71c-13.333 -16.667 -26.166 -30 -38.499 -40s-24.666 -17.833 -36.999 -23.5
s-24.5 -9.5 -36.5 -11.5s-24 -3 -36 -3c-20 0 -38.667 3.5 -56 10.5s-32.5 17.5 -45.5 31.5s-23.333 31.5 -31 52.5s-11.5 45.833 -11.5 74.5c0 80 37 152 111 216c-4 7.33301 -8.66699 15.333 -14 24s-9.66602 16.667 -12.999 24c-13.333 23.333 -22.833 46.5 -28.5 69.5
s-8.5 45.167 -8.5 66.5c0 19.333 2.83301 37.5 8.5 54.5s13.834 31.667 24.501 44s23.667 22.166 39 29.499s32.333 11 51 11zM175.996 343.002c-34 -32 -57.499 -63 -70.499 -93s-19.5 -59 -19.5 -87c0 -37.333 9.33301 -68.5 28 -93.5s46.667 -37.5 84 -37.5
c18 0 37.667 5.5 59 16.5s40.666 29.167 57.999 54.5z" />
    <glyph glyph-name="quotesingle" unicode="'" horiz-adv-x="139" 
d="M52 526v170h36v-170h-36z" />
    <glyph glyph-name="parenleft" unicode="(" horiz-adv-x="216" 
d="M176 -115c-17.333 26 -33.335 54.6709 -48.002 86.0039s-27.5 64.666 -38.5 99.999s-19.667 72.166 -26 110.499s-9.5 77.5 -9.5 117.5c0 38 2.83301 76 8.5 114s13.834 74.833 24.501 110.5s23.334 69.5 38.001 101.5s31 61.667 49 89l20 -9
c-31.333 -58.667 -56 -123 -74 -193s-27 -139.333 -27 -208c0 -74.667 9.33301 -147.334 28 -218.001s43 -134.334 73 -191.001l-18 -10v0z" />
    <glyph glyph-name="parenright" unicode=")" horiz-adv-x="216" 
d="M54 -104c30 56.667 54.167 119.996 72.5 189.996s27.5 142.333 27.5 217c0 68.667 -9 138.167 -27 208.5s-42.333 134.833 -73 193.5l20 9c18 -27.333 34.333 -57.166 49 -89.499s27.167 -66.333 37.5 -102s18.5 -72.5 24.5 -110.5s9 -76 9 -114
c0 -39.333 -3.16699 -78.166 -9.5 -116.499s-15 -75.166 -26 -110.499s-24 -68.666 -39 -99.999s-30.833 -60 -47.5 -86z" />
    <glyph glyph-name="asterisk" unicode="*" horiz-adv-x="329" 
d="M262 445l-34 -22l-65 107l-64 -108l-33 23l75 99l-115 35l13 39l110 -48l-7 124h41l-8 -124l112 48l13 -39l-116 -35z" />
    <glyph glyph-name="plus" unicode="+" horiz-adv-x="353" 
d="M193 275v-158h-35v158h-142v36h142v157h35v-157h143v-36h-143z" />
    <glyph glyph-name="comma" unicode="," horiz-adv-x="135" 
d="M62 -94h-26l19 92h-13v55h53v-54z" />
    <glyph glyph-name="hyphen" unicode="-" horiz-adv-x="321" 
d="M49 266v41h234v-41h-234z" />
    <glyph glyph-name="period" unicode="." horiz-adv-x="135" 
d="M41 0v55h53v-55h-53z" />
    <glyph glyph-name="slash" unicode="/" horiz-adv-x="231" 
d="M41 -42h-35l186 767h35z" />
    <glyph glyph-name="zero" unicode="0" horiz-adv-x="353" 
d="M306 114c0 -20.667 -3.50098 -38.5 -10.501 -53.5s-16.333 -27.5 -28 -37.5s-25.334 -17.5 -41.001 -22.5s-32.167 -7.5 -49.5 -7.5s-33.833 2.5 -49.5 7.5s-29.334 12.5 -41.001 22.5s-21 22.5 -28 37.5s-10.5 32.833 -10.5 53.5v467c0 20 3.5 37.5 10.5 52.5
s16.333 27.667 28 38s25.334 18 41.001 23s32.167 7.5 49.5 7.5c18 0 34.833 -2.5 50.5 -7.5s29.334 -12.667 41.001 -23s20.834 -23 27.501 -38s10 -32.5 10 -52.5v-467zM262.999 582c0 24.667 -8 44.167 -24 58.5s-36.667 21.5 -62 21.5s-46.166 -7.16699 -62.499 -21.5
s-24.5 -33.833 -24.5 -58.5v-469c0 -24.667 8.16699 -44.167 24.5 -58.5s37.166 -21.5 62.499 -21.5s46 7.16699 62 21.5s24 33.833 24 58.5v469z" />
    <glyph glyph-name="one" unicode="1" horiz-adv-x="353" 
d="M195 1v648l-107 -76v48l105 75h45v-695h-43z" />
    <glyph glyph-name="two" unicode="2" horiz-adv-x="353" 
d="M178 662c-23.333 0 -43.835 -8.66699 -61.502 -26s-26.5 -46.666 -26.5 -87.999l-42 7c1.33301 49.333 13.5 86.166 36.5 110.499s54.833 36.5 95.5 36.5c46.667 0 80.167 -13.5 100.5 -40.5s30.5 -62.5 30.5 -106.5c0 -32 -3 -59.667 -9 -83s-15.333 -47.333 -28 -72
l-179 -360h210v-40h-257v40l192 386c10.667 21.333 17.667 42.333 21 63s5 42.667 5 66c0 13.333 -1.16699 26.5 -3.5 39.5s-6.66602 24.5 -12.999 34.5s-15.166 18 -26.499 24s-26.333 9 -45 9z" />
    <glyph glyph-name="three" unicode="3" horiz-adv-x="353" 
d="M180 702c24 0 44.0029 -3.16797 60.0029 -9.50098s28.833 -15.333 38.5 -27s16.5 -25.667 20.5 -42s6 -34.166 6 -53.499v-92c-0.666992 -12 -1.83398 -23.667 -3.50098 -35s-4.83398 -22.166 -9.50098 -32.499s-11 -19.5 -19 -27.5s-18.667 -14.333 -32 -19v-1
c14.667 -5.33301 26.334 -12.333 35.001 -21s15.167 -18.834 19.5 -30.501s7 -24.5 8 -38.5s1.5 -28.333 1.5 -43v-103c0 -42 -11 -74.833 -33 -98.5s-54.667 -35.5 -98 -35.5c-37.333 0 -67.833 10.833 -91.5 32.5s-35.5 56.5 -35.5 104.5l43 12
c0 -33.333 6.16699 -59.833 18.5 -79.5s34.5 -29.5 66.5 -29.5c25.333 0 46.333 7 63 21s25 38 25 72v116c0 37.333 -7.83301 63.333 -23.5 78s-35.5 22 -59.5 22h-27v41h29c23.333 0 42.666 6.83301 57.999 20.5s23 38.167 23 73.5v99c0 24.667 -6.66699 45 -20 61
s-35.333 24 -66 24s-52.834 -10 -66.501 -30s-20.5 -45.333 -20.5 -76c-7.33301 1.33301 -14.5 2.5 -21.5 3.5s-14.167 2.16699 -21.5 3.5c0.666992 42 12 75.833 34 101.5s55 38.5 99 38.5z" />
    <glyph glyph-name="four" unicode="4" horiz-adv-x="353" 
d="M274 121v-120h-43v120h-205v39l145 536h43l-147 -536h164v195h43v-195h57v-39h-57z" />
    <glyph glyph-name="five" unicode="5" horiz-adv-x="353" 
d="M178 -7c-38.667 0 -69.666 11.333 -92.999 34s-35.333 58.667 -36 108l43 7c0 -32.667 6.16699 -59 18.5 -79s35.166 -30 68.499 -30c25.333 0 46 7.16699 62 21.5s24 38.5 24 72.5l1 192c0 30.667 -8 52.667 -24 66s-36.667 20 -62 20
c-17.333 0 -33.5 -3.66699 -48.5 -11s-25.5 -17.666 -31.5 -30.999h-40v333h246v-38h-207v-248h3c21.333 21.333 51.666 32 90.999 32c36.667 0 65.167 -10.167 85.5 -30.5s30.5 -47.5 30.5 -81.5l-1 -202c-0.666992 -42.667 -11.667 -75.834 -33 -99.501
s-53.666 -35.5 -96.999 -35.5z" />
    <glyph glyph-name="six" unicode="6" horiz-adv-x="353" 
d="M263 274c0 24.667 -7.99902 44 -23.999 58s-36.667 21 -62 21c-14 0 -26.5 -2.83301 -37.5 -8.5s-20.167 -13 -27.5 -22s-12.833 -19.333 -16.5 -31s-5.5 -23.5 -5.5 -35.5v-144c0 -24.667 8.16699 -44 24.5 -58s37.166 -21 62.499 -21s46 7 62 21s24 33.333 24 58v162z
M122.001 367c7.33301 7.33301 17.1699 13.499 29.5029 18.499s24.5 7.5 36.5 7.5c36 0 64.667 -10.5 86 -31.5s32 -50.5 32 -88.5v-158c0 -20.667 -3.5 -38.5 -10.5 -53.5s-16.333 -27.5 -28 -37.5s-25.334 -17.5 -41.001 -22.5s-32.167 -7.5 -49.5 -7.5
s-33.833 2.5 -49.5 7.5s-29.334 12.5 -41.001 22.5s-21 22.5 -28 37.5s-10.5 32.833 -10.5 53.5v129c0 22 1.5 40.833 4.5 56.5s7.16699 30.167 12.5 43.5l135 352h43c-4.66699 -11.333 -10.834 -27.166 -18.501 -47.499l-25 -66.5l-27.5 -73l-25.5 -67.5l-19 -51
c-5 -13.667 -7.83301 -21.167 -8.5 -22.5z" />
    <glyph glyph-name="seven" unicode="7" horiz-adv-x="353" 
d="M123 0h-42l187 658h-187v-86h-38v124h268v-36z" />
    <glyph glyph-name="eight" unicode="8" horiz-adv-x="353" 
d="M306 467c0 -26.667 -5.66699 -48.667 -17 -66s-25.666 -30.666 -42.999 -39.999c17.333 -9.33301 31.666 -22.666 42.999 -39.999s17 -39 17 -65v-142c0 -20.667 -3.5 -38.5 -10.5 -53.5s-16.333 -27.5 -28 -37.5s-25.334 -17.5 -41.001 -22.5s-32.167 -7.5 -49.5 -7.5
s-33.833 2.5 -49.5 7.5s-29.334 12.5 -41.001 22.5s-21 22.5 -28 37.5s-10.5 32.833 -10.5 53.5v142c0 26 5.5 47.667 16.5 65s25.5 30.666 43.5 39.999c-18 9.33301 -32.5 22.666 -43.5 39.999s-16.5 39.333 -16.5 66v114c0 20 3.5 37.5 10.5 52.5s16.333 27.667 28 38
s25.334 18 41.001 23s32.167 7.5 49.5 7.5s33.833 -2.5 49.5 -7.5s29.334 -12.667 41.001 -23s21 -23 28 -38s10.5 -32.5 10.5 -52.5v-114zM263 262c0 24 -8 43.333 -24 58s-36.667 22.334 -62 23.001c-25.333 0 -46.166 -7.33301 -62.499 -22s-24.5 -34.334 -24.5 -59.001
v-150c0 -24.667 8.16699 -44 24.5 -58s37.166 -21 62.499 -21s46 7 62 21s24 33.333 24 58v150zM263 583c0 24.667 -8 44 -24 58s-36.667 21 -62 21s-46.166 -7 -62.499 -21s-24.5 -33.333 -24.5 -58v-122c0 -24.667 8.16699 -44.167 24.5 -58.5s37.166 -21.5 62.499 -21.5
s46 7.16699 62 21.5s24 33.833 24 58.5v122z" />
    <glyph glyph-name="nine" unicode="9" horiz-adv-x="353" 
d="M90 422c0 -24.667 7.99902 -44 23.999 -58s36.667 -21 62 -21c14 0 26.5 2.83301 37.5 8.5s20.167 13 27.5 22s12.833 19.333 16.5 31s5.5 23.5 5.5 35.5v144c0 24.667 -8 44 -24 58s-36.667 21 -62 21s-46.166 -7 -62.499 -21s-24.5 -33.333 -24.5 -58v-162z
M230.999 329c-7.33301 -7.33301 -17.1699 -13.499 -29.5029 -18.499s-24.5 -7.5 -36.5 -7.5c-36 0 -64.5 10.5 -85.5 31.5s-31.5 50.5 -31.5 88.5v158c0 20.667 3.5 38.5 10.5 53.5s16.333 27.5 28 37.5s25.334 17.5 41.001 22.5s32.167 7.5 49.5 7.5
c36.667 0 67.334 -9.83301 92.001 -29.5s37 -50.167 37 -91.5v-129c0 -22 -1.66699 -40.833 -5 -56.5s-7.33301 -30.167 -12 -43.5l-135 -352h-44c4.66699 11.333 10.834 27.166 18.501 47.499l25 66.5l27.5 73l25.5 67.5l19 51c5 13.667 7.83301 21.167 8.5 22.5z" />
    <glyph glyph-name="colon" unicode=":" horiz-adv-x="135" 
d="M42 306v56h53v-56h-53zM42 0v55h53v-55h-53z" />
    <glyph glyph-name="semicolon" unicode=";" horiz-adv-x="135" 
d="M62 -94h-26l19 92h-13v55h53v-54zM41 306v55h53v-55h-53z" />
    <glyph glyph-name="less" unicode="&#x3c;" horiz-adv-x="353" 
d="M16 277v33l319 177v-38l-284 -156l284 -154v-39z" />
    <glyph glyph-name="equal" unicode="=" horiz-adv-x="353" 
d="M16 344v36h320v-36h-320zM16 199v37h320v-37h-320z" />
    <glyph glyph-name="greater" unicode="&#x3e;" horiz-adv-x="353" 
d="M17 100v39l284 154l-284 156v38l319 -177v-33z" />
    <glyph glyph-name="question" unicode="?" horiz-adv-x="343" 
d="M172 702c28 0 51.6699 -4.00195 71.0029 -12.002s34.666 -19.167 45.999 -33.5s19.5 -31.166 24.5 -50.499s7.5 -40.333 7.5 -63c0 -16.667 -0.666992 -31 -2 -43s-3 -22.667 -5 -32s-4.66699 -17.666 -8 -24.999s-7 -14.666 -11 -21.999
c-4 -8.66699 -9.16699 -18.167 -15.5 -28.5l-19 -31l-18 -28.5c-5.66699 -8.66699 -9.83398 -15.667 -12.501 -21c-6 -10 -11.167 -22.167 -15.5 -36.5s-6.5 -28.5 -6.5 -42.5v-73h-42v81c0 11.333 2 25.166 6 41.499s9.66699 30.166 17 41.499l37 61
c11.333 18 21.666 35.667 30.999 53c9.33301 16 15 32.333 17 49s3 34.334 3 53.001c0 38 -8 67.667 -24 89s-43.333 32 -82 32c-25.333 0 -48 -9 -68 -27s-30.667 -46 -32 -84c-7.33301 1.33301 -14.5 2.5 -21.5 3.5s-14.167 2.16699 -21.5 3.5
c1.33301 46 15.5 81.667 42.5 107s60.833 38 101.5 38zM163.003 -0.00195312v49h49v-49h-49z" />
    <glyph glyph-name="at" unicode="@" horiz-adv-x="739" 
d="M467 261c0 -25.333 6.82617 -44.5039 20.4932 -57.5039s29.167 -19.5 46.5 -19.5c13.333 0 26.666 2.5 39.999 7.5s25.5 14.667 36.5 29s20 34.5 27 60.5s10.5 60 10.5 102c0 44.667 -6.66699 84.667 -20 120s-31.666 65.333 -54.999 90s-51 43.334 -83 56.001
s-67 19 -105 19c-50 0 -93.333 -8.66699 -130 -26s-67 -41 -91 -71s-41.833 -65.167 -53.5 -105.5s-17.5 -83.833 -17.5 -130.5c0 -51.333 6.16699 -97.666 18.5 -138.999s30.833 -76.666 55.5 -105.999s55.334 -52 92.001 -68s79.334 -24 128.001 -24
c28 0 56.667 2.66699 86 8s57 15.666 83 30.999c2 -5.33301 4.16699 -10.833 6.5 -16.5s4.83301 -11.167 7.5 -16.5c-27.333 -11.333 -56.166 -21 -86.499 -29s-60.833 -12 -91.5 -12c-52.667 0 -99.834 7.83301 -141.501 23.5s-77 39 -106 70s-51.167 69.667 -66.5 116
s-23 100.5 -23 162.5c0 54.667 7.16699 104.667 21.5 150s35.333 84.166 63 116.499s61.834 57.333 102.501 75s87.334 26.5 140.001 26.5c49.333 0 92.833 -8 130.5 -24s69.334 -38.167 95.001 -66.5s45 -62.166 58 -101.499s19.5 -82 19.5 -128
c0 -46.667 -4.5 -85 -13.5 -115s-20.833 -53.833 -35.5 -71.5s-30.834 -30 -48.501 -37s-35.5 -10.5 -53.5 -10.5c-4.66699 0 -11.167 0.833008 -19.5 2.5s-17.166 4.83398 -26.499 9.50098s-18.166 11 -26.499 19s-14.5 18.667 -18.5 32h-1
c-6 -11.333 -13.333 -20.5 -22 -27.5s-17.667 -12.5 -27 -16.5s-18.5 -6.66699 -27.5 -8s-17.167 -2 -24.5 -2c-17.333 0 -32 3 -44 9s-21.667 14 -29 24s-12.666 21.5 -15.999 34.5s-5 26.5 -5 40.5s1.83301 28.333 5.5 43s9.83398 27.834 18.501 39.501
s20.167 21.167 34.5 28.5s31.833 11 52.5 11h70v52c0 20 -4.83301 36.5 -14.5 49.5s-28.167 19.5 -55.5 19.5c-16.667 0 -30.834 -3.83301 -42.501 -11.5s-19.5 -18.167 -23.5 -31.5c-6 1.33301 -12 3.16602 -18 5.49902s-12 4.5 -18 6.5
c7.33301 18.667 19.833 34.334 37.5 47.001s39.834 19 66.501 19c14.667 0 28.667 -1.66699 42 -5s24.666 -9 33.999 -17s16.833 -18.5 22.5 -31.5s8.5 -29.167 8.5 -48.5v-181zM362.993 354.996c-22.667 0 -41.5 -6.83105 -56.5 -20.498s-22.5 -36.834 -22.5 -69.501
c0 -8.66699 1.5 -17.334 4.5 -26.001s7.33301 -16.5 13 -23.5s13 -12.667 22 -17s19.5 -6.5 31.5 -6.5c21.333 0 38.833 6.83301 52.5 20.5s20.5 31.5 20.5 53.5v89h-65z" />
    <glyph glyph-name="A" unicode="A" horiz-adv-x="376" 
d="M325 0l-40 182h-194l-40 -182h-41l153 696h49l156 -696h-43zM187 634l-37 -174l-52 -238h179l-52 240l-36 172h-2z" />
    <glyph glyph-name="B" unicode="B" horiz-adv-x="410" 
d="M286 366c32 -10.667 53.832 -30.667 65.499 -60s17.5 -64 17.5 -104c0 -36.667 -4 -67.834 -12 -93.501s-19.5 -46.5 -34.5 -62.5s-33 -27.667 -54 -35s-44.833 -11 -71.5 -11h-145v696h146c30 0 55.5 -3.83301 76.5 -11.5s37.833 -19 50.5 -34
s21.834 -33.167 27.501 -54.5s8.5 -45.666 8.5 -72.999c0 -36 -5 -67.333 -15 -94s-30 -47 -60 -61v-2zM326.999 205c0 46 -9.16699 81.5 -27.5 106.5s-47.5 37.5 -87.5 37.5h-117v-309h103c26 0 47.5 4.5 64.5 13.5s30.167 21 39.5 36s15.833 32.5 19.5 52.5s5.5 41 5.5 63
zM318.999 523c0 43.333 -9.66797 76.5 -29.001 99.5s-52.666 34.5 -99.999 34.5h-95v-271h112c42 0 71.167 11.833 87.5 35.5s24.5 57.5 24.5 101.5z" />
    <glyph glyph-name="C" unicode="C" horiz-adv-x="383" 
d="M199 702c21.333 0 41.3311 -2.99902 59.998 -8.99902s34.834 -15.167 48.501 -27.5s24.334 -27.833 32.001 -46.5s11.5 -40.667 11.5 -66l-43 -9c0 41.333 -10.167 71.333 -30.5 90s-46.5 28 -78.5 28c-36.667 0 -64.167 -11.5 -82.5 -34.5s-27.5 -52.167 -27.5 -87.5
v-392c0 -34 9.16699 -61.667 27.5 -83s45.833 -32 82.5 -32c14.667 0 28.5 2.16699 41.5 6.5s24.5 11.166 34.5 20.499s18 21.5 24 36.5s9 33.167 9 54.5l43 -8c0 -26 -4.16699 -48.5 -12.5 -67.5s-19.333 -34.667 -33 -47s-29.667 -21.333 -48 -27s-37.833 -8.5 -58.5 -8.5
c-48 0 -85.5 12.833 -112.5 38.5s-40.5 64.167 -40.5 115.5v390c0 50 12.5 90 37.5 120s63.5 45 115.5 45z" />
    <glyph glyph-name="D" unicode="D" horiz-adv-x="404" 
d="M202 696c42 0 75.001 -7.33398 99.001 -22.001s40.667 -39 50 -73c7.33301 -25.333 10.833 -59.166 10.5 -101.499s-0.5 -92.5 -0.5 -150.5v-151.5c0 -43.667 -3.66699 -77.5 -11 -101.5c-6 -20 -14.333 -36.167 -25 -48.5s-22.834 -22 -36.501 -29
s-28.5 -11.833 -44.5 -14.5s-33 -4 -51 -4h-141v696h150zM317.001 517.999c0 20 -1.66895 38.501 -5.00195 55.501s-9.5 31.667 -18.5 44s-21.167 22 -36.5 29s-34.666 10.5 -57.999 10.5h-104v-617h105c40.667 0 70.334 10.667 89.001 32s28 55.666 28 102.999v343z" />
    <glyph glyph-name="E" unicode="E" horiz-adv-x="355" 
d="M52 0v696h284v-40h-241v-279h212v-39h-212v-298h241v-40h-284z" />
    <glyph glyph-name="F" unicode="F" horiz-adv-x="353" 
d="M53 0v696h283v-40h-240v-279h212v-39h-212v-338h-43z" />
    <glyph glyph-name="G" unicode="G" horiz-adv-x="395" 
d="M200 -7c-48 0 -85.5 12.6719 -112.5 38.0049s-40.5 63.666 -40.5 114.999v351v29.5c0 9.66699 0.333008 19.5 1 29.5c2 46 15.833 81.833 41.5 107.5s62.5 38.5 110.5 38.5c43.333 0 79.166 -11.833 107.499 -35.5s42.833 -61.167 43.5 -112.5l-43 -10v3
c0 40 -10.167 69.167 -30.5 87.5s-46.5 27.5 -78.5 27.5c-36.667 0 -64 -11.667 -82 -35s-27 -52.333 -27 -87v-393c0 -34 9.16699 -61.5 27.5 -82.5s45.833 -31.5 82.5 -31.5c15.333 0 29.833 2.5 43.5 7.5s25.834 12.167 36.501 21.5s19 20.666 25 33.999s9 28.333 9 45
v180h-86v39h129v-216c0 -24.667 -4.16699 -46.334 -12.5 -65.001s-19.833 -34.334 -34.5 -47.001s-31.5 -22.334 -50.5 -29.001s-38.833 -10 -59.5 -10z" />
    <glyph glyph-name="H" unicode="H" horiz-adv-x="412" 
d="M317 0v337h-222v-337h-43v696h43v-320h222v320h43v-696h-43z" />
    <glyph glyph-name="I" unicode="I" horiz-adv-x="174" 
d="M65 0v696h44v-696h-44z" />
    <glyph glyph-name="J" unicode="J" horiz-adv-x="321" 
d="M252 696v-546.002c0 -50 -13.333 -88.667 -40 -116s-66 -41 -118 -41c-17.333 0 -35.5 2.33301 -54.5 7s-34.167 13.334 -45.5 26.001l25 33c10 -8 22 -14.333 36 -19s27.667 -7 41 -7c12.667 0 25.667 1.83301 39 5.5s25.5 9.83398 36.5 18.501s20 20.5 27 35.5
s10.5 33.833 10.5 56.5v547h43z" />
    <glyph glyph-name="K" unicode="K" horiz-adv-x="397" 
d="M345 0l-154 374l-97 -179v-195h-42v696h42v-418h2l221 418h45l-144 -274l174 -422h-47z" />
    <glyph glyph-name="L" unicode="L" horiz-adv-x="333" 
d="M53 0v696h43v-656h228v-40h-271z" />
    <glyph glyph-name="M" unicode="M" horiz-adv-x="532" 
d="M435 575l-37 -100.5l-38 -100.5l-81 -212h-30l-39.5 105l-39.5 104l-73 199h-4v-570h-43v696h44l44.5 -118.5l43.5 -118.5l81 -223h3l83 224c2 4.66699 5.33301 13.167 10 25.5l15.5 42l18.5 50.5l19 50.5c6 15.667 11.167 29.667 15.5 42s7.5 20.833 9.5 25.5h43v-696
h-42v575h-3z" />
    <glyph glyph-name="N" unicode="N" horiz-adv-x="431" 
d="M92 577v-577h-42v696h40l76 -178.5l76 -178.5l93 -222h4v579h42v-696h-41l-75.5 177.5l-75.5 177.5l-47.5 111l-46.5 111h-3z" />
    <glyph glyph-name="O" unicode="O" horiz-adv-x="403" 
d="M358 156c0 -54 -14.165 -94.667 -42.498 -122s-66.5 -41 -114.5 -41s-85.833 13 -113.5 39s-41.5 64.333 -41.5 115v391c0 50 13.167 89.833 39.5 119.5s65.166 44.5 116.499 44.5s90.166 -13.667 116.499 -41s39.5 -67 39.5 -119v-386zM315.002 546
c0 34.667 -9.83301 62.833 -29.5 84.5s-47.5 32.5 -83.5 32.5c-19.333 0 -36 -3.5 -50 -10.5s-25.833 -16.333 -35.5 -28s-16.834 -25.167 -21.501 -40.5s-7 -31.333 -7 -48v-390c0 -34 9.83301 -61.5 29.5 -82.5s47.5 -31.5 83.5 -31.5c38.667 0 67.334 11 86.001 33
s28 51.333 28 88v393z" />
    <glyph glyph-name="P" unicode="P" horiz-adv-x="386" 
d="M188 696c34.667 0 63.501 -4.83301 86.501 -14.5s41 -23 54 -40s22.167 -37.667 27.5 -62s8 -50.833 8 -79.5c0 -30 -2.83301 -57.5 -8.5 -82.5s-15.334 -46.333 -29.001 -64s-32 -31.5 -55 -41.5s-51.833 -15 -86.5 -15h-90v-296h-43v695h136zM95.001 336h87
c52.667 0 89.167 13.833 109.5 41.5s30.5 68.167 30.5 121.5c0 22.667 -2 43.667 -6 63s-11.167 36 -21.5 50s-24.5 25 -42.5 33s-40.667 12 -68 12h-89v-321z" />
    <glyph glyph-name="Q" unicode="Q" horiz-adv-x="402" 
d="M358 156c0 -38 -7.66406 -70.333 -22.9971 -97l62 -46l-23 -29l-62 46c-26.667 -24.667 -63.334 -37 -110.001 -37c-48 0 -86 13 -114 39s-42 64.333 -42 115v391c0 50 13.167 89.833 39.5 119.5s65.166 44.5 116.499 44.5s90.166 -13.667 116.499 -41
s39.5 -67 39.5 -119v-386zM315.003 546c0 34.667 -9.83203 62.833 -29.499 84.5s-47.5 32.5 -83.5 32.5c-19.333 0 -36 -3.5 -50 -10.5s-25.833 -16.333 -35.5 -28s-16.834 -25.167 -21.501 -40.5s-7 -31.333 -7 -48v-390c0 -34 9.83301 -61.5 29.5 -82.5
s47.5 -31.5 83.5 -31.5c33.333 0 59 8 77 24l-67 52l23 29l66 -51c10 18 15 40.333 15 67v393z" />
    <glyph glyph-name="R" unicode="R" horiz-adv-x="397" 
d="M187 696c32.667 0 60.332 -4.16602 82.999 -12.499s40.667 -20.5 54 -36.5s23 -35.5 29 -58.5s9 -49.167 9 -78.5c0 -14 -1 -26.333 -3 -37c-3.33301 -36 -13.166 -66.333 -29.499 -91s-41.5 -42.334 -75.5 -53.001l26.5 -80l28.5 -85l28.5 -84.5
c9.66699 -27.667 18.5 -54.167 26.5 -79.5h-46l-105 320c-6 -0.666992 -12.333 -1 -19 -1h-20h-79v-319h-43v696h135zM94.998 657.001l0.00390625 -300.001h86c49.333 0 84.666 12 105.999 36s32 63 32 117c0 22.667 -2.33301 43.167 -7 61.5s-12.334 33.833 -23.001 46.5
s-24.834 22.334 -42.501 29.001s-39.834 10 -66.501 10h-85z" />
    <glyph glyph-name="S" unicode="S" horiz-adv-x="378" 
d="M347 182c0 -28.667 -2.66113 -54.668 -7.99414 -78.001s-14 -43.166 -26 -59.499s-28 -29 -48 -38s-45 -13.5 -75 -13.5c-28 0 -51.833 3.83301 -71.5 11.5s-35.834 18.167 -48.501 31.5s-21.834 29 -27.501 47s-8.83398 37.667 -9.50098 59l44 9
c0 -15.333 2 -30.166 6 -44.499s10.5 -26.833 19.5 -37.5s20.667 -19.167 35 -25.5s31.833 -9.5 52.5 -9.5c24.667 0 44.5 4 59.5 12s26.5 18.667 34.5 32s13.167 29 15.5 47s3.5 36.667 3.5 56c0 23.333 -1.16699 42.833 -3.5 58.5s-7.33301 29.334 -15 41.001
s-19 22.334 -34 32.001s-35.5 20.167 -61.5 31.5c-33.333 14.667 -60 29 -80 43s-35.167 28.167 -45.5 42.5s-17 29.5 -20 45.5s-4.5 33.667 -4.5 53c0 25.333 3 48.666 9 69.999s15.333 39.666 28 54.999s28.667 27.333 48 36s42.666 13 69.999 13
c30 0 54.833 -4.33301 74.5 -13s35.334 -20 47.001 -34s19.834 -29.5 24.501 -46.5s7 -33.833 7 -50.5l-44 -11c0 16 -1.83301 30.833 -5.5 44.5s-9.83398 25.667 -18.501 36s-20.167 18.5 -34.5 24.5s-31.833 9 -52.5 9c-22.667 0 -41.167 -4.16699 -55.5 -12.5
s-25.5 -19 -33.5 -32s-13.333 -27.167 -16 -42.5s-4 -30.333 -4 -45c0 -17.333 1.66699 -32.5 5 -45.5s9.66602 -25.167 18.999 -36.5s22.666 -22.333 39.999 -33s40.666 -22.334 69.999 -35.001c30 -12.667 53.667 -25.5 71 -38.5s30.333 -27 39 -42s14.167 -32 16.5 -51
s3.5 -40.833 3.5 -65.5z" />
    <glyph glyph-name="T" unicode="T" horiz-adv-x="319" 
d="M181 657v-657h-44v657h-132v39h308v-39h-132z" />
    <glyph glyph-name="U" unicode="U" horiz-adv-x="393" 
d="M352 695v-539c0 -54 -14 -94.667 -42 -122s-66 -41 -114 -41s-86 13 -114 39s-42 64.333 -42 115v548h43v-549c0 -34 9.83301 -61.5 29.5 -82.5s47.5 -31.5 83.5 -31.5c38 0 66.333 11 85 33s28 51.333 28 88v542h43z" />
    <glyph glyph-name="V" unicode="V" horiz-adv-x="378" 
d="M213 0h-53l-148 696h43l91 -442l39 -201h2l40 200l92 443h44z" />
    <glyph glyph-name="W" unicode="W" horiz-adv-x="582" 
d="M452 0h-51l-76 407l-33 191h-3l-33 -193l-76 -405h-50l-117 696h43l65 -398l34 -233h3l39 231l74 400h41l73 -404l40 -227h2l33 227l66 404h43z" />
    <glyph glyph-name="X" unicode="X" horiz-adv-x="347" 
d="M293 0l-120 304l-121 -304h-46l144 354l-140 341h47l116 -294l116 294h47l-142 -341l146 -354h-47z" />
    <glyph glyph-name="Y" unicode="Y" horiz-adv-x="350" 
d="M174 353l48 141l35 101l35 101h45l-143 -403v-293h-42v293l-143 403h44l70 -203l48 -140h3z" />
    <glyph glyph-name="Z" unicode="Z" horiz-adv-x="304" 
d="M289 657l-234 -617h223v-40h-266v39l234 618h-215v39h258v-39z" />
    <glyph glyph-name="bracketleft" unicode="[" horiz-adv-x="197" 
d="M62 -108v804h117v-32h-76v-740h76v-32h-117z" />
    <glyph glyph-name="backslash" unicode="\" horiz-adv-x="216" 
d="M174 -30l-166 747h36l165 -747h-35z" />
    <glyph glyph-name="bracketright" unicode="]" horiz-adv-x="197" 
d="M46 -108v32h76v740h-76v32h116v-804h-116z" />
    <glyph glyph-name="asciicircum" unicode="^" horiz-adv-x="353" 
d="M161 694h34l153 -318h-38l-133 280l-131 -280h-38z" />
    <glyph glyph-name="underscore" unicode="_" horiz-adv-x="500" 
d="M0 -120v37h500v-37h-500z" />
    <glyph glyph-name="grave" unicode="`" horiz-adv-x="342" 
d="M213 556l-88 144l45 17l67 -151z" />
    <glyph glyph-name="a" unicode="a" horiz-adv-x="343" 
d="M171 248c-14.667 0 -28.335 -2.00098 -41.002 -6.00098s-23.667 -10.667 -33 -20s-16.666 -21.5 -21.999 -36.5s-8 -33.167 -8 -54.5c0 -26.667 6.83301 -49.5 20.5 -68.5s37.5 -28.5 71.5 -28.5c28.667 0 52.334 7.83301 71.001 23.5s28 38.834 28 69.501v121h-87z
M37.999 413.999c9.33301 25.333 24.9961 45.332 46.9961 59.999s50.333 22 85 22c42 0 74.333 -9.5 97 -28.5s34 -52.833 34 -101.5v-366h-43v44h-1c-16 -22 -34.167 -35.833 -54.5 -41.5s-40.166 -8.5 -59.499 -8.5c-22 0 -40.5 3.83301 -55.5 11.5
s-27.167 17.834 -36.5 30.501s-16.166 27.167 -20.499 43.5s-6.5 33.5 -6.5 51.5c0 18.667 2.16699 37.167 6.5 55.5s11.833 35 22.5 50s24.834 27.167 42.501 36.5s39.834 14 66.501 14h96v78c0 13.333 -1.33301 25.5 -4 36.5s-7.33398 20.5 -14.001 28.5
s-15.834 14.333 -27.501 19s-26.5 7 -44.5 7c-19.333 0 -37.666 -4.66699 -54.999 -14s-28.666 -23.333 -33.999 -42z" />
    <glyph glyph-name="b" unicode="b" horiz-adv-x="347" 
d="M180 34c19.333 0 36.332 4.5 50.999 13.5s25.667 25.167 33 48.5c3.33301 11.333 5.5 29.166 6.5 53.499s1.5 52.166 1.5 83.499c0 16.667 -0.166992 33.5 -0.5 50.5s-0.833008 33.167 -1.5 48.5s-1.66699 29 -3 41s-3.33301 21.667 -6 29c-6 18 -15.667 31.333 -29 40
s-29.666 13 -48.999 13c-16.667 0 -31.334 -3.5 -44.001 -10.5s-23.167 -16.167 -31.5 -27.5s-14.666 -24.166 -18.999 -38.499s-6.5 -28.833 -6.5 -43.5v-196c0 -31.333 9 -56.666 27 -75.999s41.667 -29 71 -29zM190.999 -6c-27.333 0 -49.167 4.50098 -65.5 13.501
s-30.166 21.833 -41.499 38.5h-2v-46h-42v726h42v-294h2c11.333 20 27.166 35.667 47.499 47s41.166 17 62.499 17c31.333 0 55.166 -6.33301 71.499 -19s28.5 -28.334 36.5 -47.001c5.33301 -16 9 -36 11 -60s3 -49.333 3 -76v-70c0 -18 -0.333008 -36.5 -1 -55.5
s-2 -38.833 -4 -59.5c-2 -23.333 -7.33301 -42.5 -16 -57.5s-18.667 -26.833 -30 -35.5s-23.666 -14.5 -36.999 -17.5s-25.666 -4.5 -36.999 -4.5z" />
    <glyph glyph-name="c" unicode="c" horiz-adv-x="329" 
d="M175 496c42 0 73.9941 -10.999 95.9941 -32.999s33 -54 33 -96c-7.33301 -1.33301 -14.666 -2.5 -21.999 -3.5s-14.666 -2.16699 -21.999 -3.5c0.666992 30.667 -6.66602 54.5 -21.999 71.5s-37.333 25.5 -66 25.5c-18 0 -34.167 -4 -48.5 -12s-25.833 -21.667 -34.5 -41
c-5.33301 -12.667 -8.66602 -34.334 -9.99902 -65.001s-2 -66 -2 -106v-13c0 -12 0.166992 -24.333 0.5 -37s0.833008 -25 1.5 -37s1.5 -23 2.5 -33s2.5 -18 4.5 -24c6 -18 16 -32 30 -42s32 -15 54 -15c27.333 0 49.166 7.5 65.499 22.5s24.5 39.167 24.5 72.5l44 -8
c-1.33301 -42 -13.666 -73.5 -36.999 -94.5s-55.666 -31.5 -96.999 -31.5c-20 0 -37.5 2.5 -52.5 7.5s-27.5 11.5 -37.5 19.5s-18 17.167 -24 27.5s-10.333 21.166 -13 32.499c-2 8 -3.66699 18.333 -5 31s-2.16602 26.334 -2.49902 41.001l-1 44.5
c-0.333008 15 -0.5 29.167 -0.5 42.5c0 18 0.166992 36 0.5 54s1 35 2 51s2.5 30.5 4.5 43.5s4.33301 23.5 7 31.5c8.66699 23.333 23 42 43 56s48 21 84 21z" />
    <glyph glyph-name="d" unicode="d" horiz-adv-x="348" 
d="M167 34c30 0 53.8301 9.66504 71.4971 28.998s26.5 44.666 26.5 75.999v202c0 14.667 -2 28.834 -6 42.501s-10 25.667 -18 36s-18 18.666 -30 24.999s-26 9.5 -42 9.5c-20 0 -37.5 -5.33301 -52.5 -16s-25.167 -26.334 -30.5 -47.001
c-2 -7.33301 -3.66699 -16.666 -5 -27.999s-2.16602 -24.166 -2.49902 -38.499l-1 -45c-0.333008 -15.667 -0.5 -31.167 -0.5 -46.5c0 -31.333 0.5 -59.166 1.5 -83.499s3.16699 -42.166 6.5 -53.499c6.66699 -23.333 16.834 -39.5 30.501 -48.5s30.834 -13.5 51.501 -13.5z
M156.997 -6.00195c-12.667 0 -25.501 1.49902 -38.501 4.49902s-25.333 8.83301 -37 17.5s-21.5 20.5 -29.5 35.5s-13.333 34.167 -16 57.5c-2 21.333 -3 42 -3 62v57v14c0 38 0.5 72.5 1.5 103.5s5.16699 56.167 12.5 75.5c7.33301 20.667 19.833 38.334 37.5 53.001
s43.834 22 78.501 22c26.667 0 48.667 -6.33301 66 -19s28.666 -25 33.999 -37h2v286h43v-726h-43v46h-2c-11.333 -16.667 -25.166 -29.5 -41.499 -38.5s-37.833 -13.5 -64.5 -13.5z" />
    <glyph glyph-name="e" unicode="e" horiz-adv-x="342" 
d="M174 496c40 0 71.166 -10.1641 93.499 -30.4971s34.5 -49.5 36.5 -87.5c0.666992 -7.33301 1 -14.5 1 -21.5v-21.5v-97h-228v-32c0 -21.333 0.5 -43.5 1.5 -66.5s3.5 -40.167 7.5 -51.5c6 -17.333 15.667 -31 29 -41s31.333 -15 54 -15c30 0 52.167 8.66699 66.5 26
s22.5 38.666 24.5 63.999l43 -8c-3.33301 -39.333 -17 -69.333 -41 -90s-55 -31 -93 -31c-20 0 -37.5 2.5 -52.5 7.5s-27.5 11.5 -37.5 19.5s-18 17.167 -24 27.5s-10.333 21.166 -13 32.499c-2 8 -3.66699 18.333 -5 31s-2.16602 26.167 -2.49902 40.5l-1 44.5
c-0.333008 15.333 -0.5 29.666 -0.5 42.999c0 18 0.166992 36 0.5 54s1 35 2 51s2.5 30.667 4.5 44s4.33301 24 7 32c8.66699 23.333 23 41.833 43 55.5s48 20.5 84 20.5zM87.999 404.003c-4.66699 -11.333 -7.5 -28.167 -8.5 -50.5s-1.83301 -48.833 -2.5 -79.5h185v61
c0 15.333 -0.833008 30.333 -2.5 45s-5.66699 27.667 -12 39s-15.5 20.333 -27.5 27s-28 10 -48 10c-16.667 0 -32.667 -3.66699 -48 -11s-27.333 -21 -36 -41z" />
    <glyph glyph-name="f" unicode="f" horiz-adv-x="197" 
d="M110 452v-452.001h-44v452h-54v37h54v126c0 40 10 68.5 30 85.5s45.333 25.5 76 25.5h25v-39h-20c-24.667 0 -42 -6.66699 -52 -20s-15 -30.666 -15 -51.999v-126h83v-37h-83z" />
    <glyph glyph-name="g" unicode="g" horiz-adv-x="356" 
d="M160 496c27.333 0 49.165 -4.66797 65.498 -14.001s30.166 -22.333 41.499 -39h2v46h42v-561c0 -41.333 -12.333 -73.166 -37 -95.499s-58 -33.5 -100 -33.5c-37.333 0 -67.833 10.167 -91.5 30.5s-36.167 50.5 -37.5 90.5l44 8c0 -28 7.33301 -50 22 -66
s36.667 -24 66 -24s52 9.5 68 28.5s24 42.5 24 70.5v120h-2c-11.333 -20 -27.166 -35.5 -47.499 -46.5s-41.166 -16.5 -62.499 -16.5c-32 0 -56.167 6.5 -72.5 19.5s-28.166 28.833 -35.499 47.5c-6.66699 17.333 -10.667 39 -12 65s-2 52.333 -2 79v54
c0 19.333 0.166992 38.833 0.5 58.5s1.5 40.5 3.5 62.5c2 23.333 7.33301 42.5 16 57.5s18.834 26.833 30.501 35.5s24.167 14.667 37.5 18s25.666 5 36.999 5zM169.999 454.999c-18.667 0 -35.332 -4.50098 -49.999 -13.501s-25.667 -25.167 -33 -48.5
c-3.33301 -11.333 -5.5 -29.166 -6.5 -53.499s-1.5 -52.166 -1.5 -83.499c0 -16.667 0.166992 -33.5 0.5 -50.5s0.833008 -33.167 1.5 -48.5s1.66699 -29.166 3 -41.499s3.33301 -21.833 6 -28.5c6 -18 15.667 -31.333 29 -40s29.666 -13 48.999 -13
c16.667 0 31.334 3.5 44.001 10.5s23.167 16.167 31.5 27.5s14.666 24.166 18.999 38.499s6.5 28.833 6.5 43.5v196c0 31.333 -9 56.666 -27 75.999s-42 29 -72 29z" />
    <glyph glyph-name="h" unicode="h" horiz-adv-x="358" 
d="M86 435l1 -0.000976562c11.333 19.333 26.666 34.333 45.999 45s40.333 16 63 16s41.667 -3.33301 57 -10s27.666 -16 36.999 -28s16 -26 20 -42s6 -33.333 6 -52v-364h-44v351c0 14 -1.33301 27.333 -4 40s-7.5 23.5 -14.5 32.5s-16.167 16.167 -27.5 21.5
s-25.666 8 -42.999 8c-16 0 -30 -3 -42 -9s-22.167 -14.167 -30.5 -24.5s-14.666 -22.166 -18.999 -35.499s-6.5 -27 -6.5 -41v-343h-42v727h43v-292z" />
    <glyph glyph-name="i" unicode="i" horiz-adv-x="155" 
d="M54 608v48h45v-48h-45zM55 0v489h43v-489h-43z" />
    <glyph glyph-name="j" unicode="j" horiz-adv-x="149" 
d="M55 489h42v-562c0 -19.333 -1.33301 -36.833 -4 -52.5s-7.66699 -29.167 -15 -40.5s-17.333 -20.166 -30 -26.499s-29.334 -9.5 -50.001 -9.5h-13v38h7c26.667 0 43.834 7.16699 51.501 21.5s11.5 35.166 11.5 62.499v569zM54 656h45v-48h-45v48z" />
    <glyph glyph-name="k" unicode="k" horiz-adv-x="346" 
d="M84 200h1l181 288h48l-114 -180l141 -308h-48l-120 268l-89 -141v-127h-42v726h42v-526z" />
    <glyph glyph-name="l" unicode="l" horiz-adv-x="168" 
d="M49 726h42v-611c0 -25.333 4.16699 -45.5 12.5 -60.5s25.166 -22.5 50.499 -22.5h12v-39h-15c-33.333 0 -58.666 8 -75.999 24s-26 45.333 -26 88v621z" />
    <glyph glyph-name="m" unicode="m" horiz-adv-x="577" 
d="M193 496c30.667 0 54.3291 -6.50293 70.9961 -19.5029s28.667 -29.833 36 -50.5c10.667 21.333 26.334 38.333 47.001 51s43 19 67 19c22 0 40.5 -3.5 55.5 -10.5s27 -16.5 36 -28.5s15.5 -26 19.5 -42s6 -33 6 -51v-364h-43v350c0 12.667 -1.33301 25.334 -4 38.001
s-7.16699 23.667 -13.5 33s-15.166 17 -26.499 23s-25.666 9 -42.999 9c-15.333 0 -28.666 -2.83301 -39.999 -8.5s-20.833 -13.5 -28.5 -23.5s-13.5 -21.667 -17.5 -35s-6 -27.333 -6 -42v-344h-42v350c0 12.667 -1.16699 25.334 -3.5 38.001s-6.5 23.667 -12.5 33
s-14.5 17 -25.5 23s-24.833 9 -41.5 9s-31 -3 -43 -9s-22 -14.167 -30 -24.5s-13.833 -22.166 -17.5 -35.499s-5.5 -27.333 -5.5 -42v-342h-43v489h43v-55h3c11.333 19.333 25.333 34.5 42 45.5s36.667 16.5 60 16.5z" />
    <glyph glyph-name="n" unicode="n" horiz-adv-x="357" 
d="M85 435l2.00195 -0.00195312c11.333 19.333 26.5 34.333 45.5 45s39.833 16 62.5 16s41.667 -3.33301 57 -10s27.666 -16 36.999 -28s16 -26 20 -42s6 -33.333 6 -52v-364h-44v351c0 14 -1.33301 27.333 -4 40s-7.33398 23.5 -14.001 32.5s-15.667 16.167 -27 21.5
s-25.333 8 -42 8c-16 0 -30.167 -3.16699 -42.5 -9.5s-22.833 -14.666 -31.5 -24.999s-15.167 -22.166 -19.5 -35.499s-6.5 -27 -6.5 -41v-342h-42v489h43v-54z" />
    <glyph glyph-name="o" unicode="o" horiz-adv-x="349" 
d="M176 496c36.667 0 64.667 -6.99902 84 -20.999s32.666 -31.667 39.999 -53c3.33301 -8.66699 5.83301 -20.167 7.5 -34.5s3 -30 4 -47s1.5 -34.333 1.5 -52v-49.5v-15c0 -17.333 -0.166992 -35 -0.5 -53s-1.5 -37.667 -3.5 -59c-2 -23.333 -7.5 -42.666 -16.5 -57.999
s-20 -27.5 -33 -36.5s-27.167 -15.333 -42.5 -19s-30.333 -5.5 -45 -5.5c-40 0 -69.833 8.16699 -89.5 24.5s-33.167 37.166 -40.5 62.499c-2 8 -3.66699 18.167 -5 30.5s-2.33301 25.833 -3 40.5s-1 29.667 -1 45v43c0 18 0.166992 35.833 0.5 53.5s1 34.5 2 50.5
s2.5 30.5 4.5 43.5s4.33301 23.5 7 31.5c8.66699 23.333 23.334 42.166 44.001 56.499s49 21.5 85 21.5zM175 457.001c-17.333 0 -34.001 -3.50195 -50.001 -10.502s-28 -20.5 -36 -40.5c-5.33301 -13.333 -8.66602 -34.166 -9.99902 -62.499s-2 -61.166 -2 -98.499v-25
c0 -32 0.5 -59 1.5 -81s3.5 -39 7.5 -51c6 -18 16.167 -31.833 30.5 -41.5s33.833 -14.5 58.5 -14.5c22 0 41 6 57 18s26.667 28.667 32 50c2.66699 11.333 4.5 29.333 5.5 54s1.5 51 1.5 79c0 14.667 -0.166992 30.334 -0.5 47.001l-1 48
c-0.333008 15.333 -1.16602 29.166 -2.49902 41.499s-3 21.833 -5 28.5c-6 20 -16.833 34.833 -32.5 44.5s-33.834 14.5 -54.501 14.5z" />
    <glyph glyph-name="p" unicode="p" horiz-adv-x="349" 
d="M178 454c-30 0 -53.999 -9.66797 -71.999 -29.001s-27 -44.666 -27 -75.999v-202c0 -14.667 2 -28.834 6 -42.501s10 -25.667 18 -36s18 -18.666 30 -24.999s26 -9.5 42 -9.5c20 0 37.667 5.33301 53 16s25.666 26.334 30.999 47.001c2 6.66699 3.5 15.834 4.5 27.501
s1.83301 24.667 2.5 39s1 29.333 1 45v46.5c0 31.333 -0.5 59.166 -1.5 83.499s-3.16699 42.166 -6.5 53.499c-6.66699 23.333 -16.667 39.5 -30 48.5s-30.333 13.5 -51 13.5zM188.001 494.999c12 0 24.6699 -1.66602 38.0029 -4.99902s25.666 -9.33301 36.999 -18
s21.166 -20.5 29.499 -35.5s13.5 -34.167 15.5 -57.5c2 -21.333 3.16699 -41.833 3.5 -61.5s0.5 -38.834 0.5 -57.501v-14c0 -38 -0.666992 -72 -2 -102s-5.66602 -55.667 -12.999 -77c-7.33301 -20.667 -19.833 -38.167 -37.5 -52.5s-43.834 -21.5 -78.501 -21.5
c-26.667 0 -48.667 6.16699 -66 18.5s-28.666 24.5 -33.999 36.5h-2v-242h-42v682h42v-46h2c11.333 16.667 25.166 29.667 41.499 39s38.166 14 65.499 14z" />
    <glyph glyph-name="q" unicode="q" horiz-adv-x="355" 
d="M170 455c-18.667 0 -35.332 -4.50098 -49.999 -13.501s-25.667 -25.167 -33 -48.5c-3.33301 -11.333 -5.5 -29.166 -6.5 -53.499s-1.5 -52.166 -1.5 -83.499c0 -16.667 0.166992 -33.5 0.5 -50.5s0.833008 -33.167 1.5 -48.5s1.66699 -29.166 3 -41.499
s3.33301 -21.833 6 -28.5c6 -18 15.667 -31.333 29 -40s29.666 -13 48.999 -13c16.667 0 31.334 3.5 44.001 10.5s23.167 16.167 31.5 27.5s14.666 24.166 18.999 38.499s6.5 28.833 6.5 43.5v196c0 31.333 -9 56.666 -27 75.999s-42 29 -72 29zM160.002 495.999
c27.333 0 49.166 -4.66699 65.499 -14s30.166 -22.333 41.499 -39h2v46h42v-685h-42v253h-2c-11.333 -20 -27.166 -35.5 -47.499 -46.5s-41.166 -16.5 -62.499 -16.5c-32.667 0.666992 -57.334 7.66699 -74.001 21s-28.667 30.333 -36 51
c-5.33301 16.667 -8.66602 37.5 -9.99902 62.5s-2 50.5 -2 76.5v68c0 16.667 0.166992 33.667 0.5 51s1.5 36 3.5 56c2 23.333 7.33301 42.5 16 57.5s18.834 26.833 30.501 35.5s24.167 14.667 37.5 18s25.666 5 36.999 5z" />
    <glyph glyph-name="r" unicode="r" horiz-adv-x="234" 
d="M228 446c-4 0.666992 -8.16699 1.16699 -12.5 1.5s-8.5 0.5 -12.5 0.5c-33.333 0 -59.166 -11.333 -77.499 -34s-27.5 -55 -27.5 -97v-317h-43v489h43v-67h2c10.667 26 25 44.833 43 56.5s39.667 17.5 65 17.5h10c3.33301 0 6.66602 -0.333008 9.99902 -1v-49z" />
    <glyph glyph-name="s" unicode="s" horiz-adv-x="322" 
d="M69 125c0 -28 7.83105 -50.3281 23.498 -66.9951s37.5 -25 65.5 -25c35.333 0 59.666 8.33301 72.999 25s20 40 20 70c0 14.667 -1.16699 27.167 -3.5 37.5s-6.83301 19.666 -13.5 27.999s-16 16 -28 23s-28 14.167 -48 21.5c-26 10 -47.333 20 -64 30
s-29.5 20.5 -38.5 31.5s-15.167 22.5 -18.5 34.5s-5 24.667 -5 38c0 36.667 10.667 66.667 32 90s55 35 101 35c42 0 74.5 -10.833 97.5 -32.5s34.5 -52.834 34.5 -93.501l-45 -7c0 30 -7.83301 53 -23.5 69s-37.5 24 -65.5 24c-17.333 0 -31.666 -2.5 -42.999 -7.5
s-20.166 -11.5 -26.499 -19.5s-10.833 -17 -13.5 -27s-4 -20.333 -4 -31s1.33301 -20.334 4 -29.001s7.83398 -16.834 15.501 -24.501s18.5 -15.167 32.5 -22.5s32 -15 54 -23c25.333 -9.33301 45.333 -19 60 -29s25.834 -20.833 33.501 -32.5s12.667 -24.334 15 -38.001
s3.5 -28.5 3.5 -44.5c0 -20 -2.33301 -38.333 -7 -55s-12.334 -31 -23.001 -43s-24.5 -21.333 -41.5 -28s-37.833 -10 -62.5 -10c-42.667 0 -75.5 10.333 -98.5 31s-35.167 52 -36.5 94z" />
    <glyph glyph-name="t" unicode="t" horiz-adv-x="219" 
d="M18 489h56v134h43v-134h74v-35h-74v-339c0 -24.667 5.16699 -43.5 15.5 -56.5s27.833 -19.5 52.5 -19.5h11v-39h-19c-68.667 0 -103 36.667 -103 110v344h-56v35z" />
    <glyph glyph-name="u" unicode="u" horiz-adv-x="358" 
d="M273 55l-2.99609 0.00195312c-11.333 -19.333 -26.333 -34.5 -45 -45.5s-39.667 -16.5 -63 -16.5c-22.667 0 -41.667 3.5 -57 10.5s-27.5 16.5 -36.5 28.5s-15.5 26 -19.5 42s-6 33 -6 51v365h44v-351c0 -15.333 1.33301 -29.333 4 -42s7.16699 -23.5 13.5 -32.5
s15.166 -16.167 26.499 -21.5s25.666 -8 42.999 -8c15.333 0 29.166 3.16699 41.499 9.5s22.666 14.666 30.999 24.999s14.833 22.166 19.5 35.499s7 27 7 41v344h43v-490h-43v55z" />
    <glyph glyph-name="v" unicode="v" horiz-adv-x="310" 
d="M130 0l-63 244.5l-62 244.5h45l27 -107l26 -107l24.5 -105l25.5 -105h3l24.5 105.5c8.33301 36.333 16.833 71.5 25.5 105.5c9.33301 36 18 71.5 26 106.5l25 106.5h46l-126 -489h-47z" />
    <glyph glyph-name="w" unicode="w" horiz-adv-x="525" 
d="M262 410l-92 -409.999h-45l-57.5 244.5l-57.5 244.5h45c1.33301 -6.66699 4.5 -20.834 9.5 -42.501l17 -76l20.5 -92l20.5 -92l16.5 -76c4.66699 -21.667 7.66699 -35.834 9 -42.501h2c2 10.667 5.5 27.334 10.5 50.001l17 76.5l20 89.5l19.5 88.5l15.5 73
c4.33301 21 7.5 35.5 9.5 43.5h45l34 -155l28.5 -133.5l29.5 -133.5h2l23.5 108.5l22.5 108.5l46 205h45l-115 -489h-45l-34 147l-30 131l-29 132h-3z" />
    <glyph glyph-name="x" unicode="x" horiz-adv-x="295" 
d="M242 0l-94 212l-95 -212h-47l116 251l-109 238h48l87 -201l88 201h49l-111 -238l116 -251h-48z" />
    <glyph glyph-name="y" unicode="y" horiz-adv-x="315" 
d="M158 68c9.33301 34 18.332 69.168 26.999 105.501l26 106.5l55 209h44l-147 -549c-5.33301 -21.333 -11.333 -41 -18 -59c-7.33301 -22.667 -19.166 -41.5 -35.499 -56.5s-38.166 -22.5 -65.499 -22.5h-15v38h12c21.333 0 37.666 7.66699 48.999 23
s20.333 36.666 27 63.999l9.5 37.5l9.5 37.5l-65.5 243l-64.5 244h46l52 -210l52 -211h2z" />
    <glyph glyph-name="z" unicode="z" horiz-adv-x="281" 
d="M267 451l-206 -412h201v-39h-248v39l206 412h-186v37h233v-37z" />
    <glyph glyph-name="braceleft" unicode="{" horiz-adv-x="213" 
d="M93 133c0 43.333 -3.49805 77.165 -10.498 101.498s-24.5 40.166 -52.5 47.499v25c13.333 3.33301 24.166 9.33301 32.499 18s14.666 19 18.999 31s7.33301 25.333 9 40s2.5 29.334 2.5 44.001v135c0 5.33301 0.166992 10.5 0.5 15.5s0.833008 10.167 1.5 15.5
c2 29.333 10.333 51.666 25 66.999s34 23 58 23h18v-28h-14c-12 0 -21.5 -3 -28.5 -9s-12.333 -13.833 -16 -23.5s-6 -20 -7 -31s-1.5 -21.5 -1.5 -31.5v-134c0 -41.333 -6 -74.166 -18 -98.499s-25.667 -39.166 -41 -44.499v-2c17.333 -5.33301 31.5 -19.666 42.5 -42.999
s16.5 -54.333 16.5 -93v-145c0 -9.33301 0.5 -19.5 1.5 -30.5s3.33301 -21.167 7 -30.5s9 -17 16 -23s16.5 -9 28.5 -9h14v-29h-18c-26 0 -46.667 9 -62 27s-23 43.333 -23 76v139v0z" />
    <glyph glyph-name="bar" unicode="|" horiz-adv-x="176" 
d="M74 -162v878h33v-878h-33z" />
    <glyph glyph-name="braceright" unicode="}" horiz-adv-x="213" 
d="M134 -6c0 -32.667 -7.83398 -58 -23.501 -76s-36.5 -27 -62.5 -27h-18v29h14c12 0 21.5 3 28.5 9s12.333 13.667 16 23s6.16699 19.5 7.5 30.5s2 21.167 2 30.5v145c0 38.667 5.33301 69.667 16 93s24.667 37.666 42 42.999v2
c-15.333 5.33301 -28.833 20.166 -40.5 44.499s-17.5 57.166 -17.5 98.499v134c0 10 -0.666992 20.5 -2 31.5s-3.83301 21.333 -7.5 31s-9 17.5 -16 23.5s-16.5 9 -28.5 9h-14v28h25c15.333 0 28 -3.5 38 -10.5s18 -16.167 24 -27.5s10.167 -24.166 12.5 -38.499
s3.5 -29.166 3.5 -44.499v-135c0 -14.667 0.833008 -29.334 2.5 -44.001s4.83398 -28 9.50098 -40s11.167 -22.333 19.5 -31s18.833 -14.667 31.5 -18v-25c-28 -7.33301 -45.333 -23.166 -52 -47.499s-10 -58.166 -10 -101.499v-139z" />
    <glyph glyph-name="asciitilde" unicode="~" horiz-adv-x="353" 
d="M100 282c15.333 0 29.833 -2.33203 43.5 -6.99902s27 -10 40 -16s25.333 -11.333 37 -16s23.167 -7 34.5 -7c12 0 22.5 2.16699 31.5 6.5s19.5 14.166 31.5 29.499l25 -17c-10 -17.333 -22.333 -31.166 -37 -41.499s-31.667 -15.5 -51 -15.5
c-12.667 0 -25.334 2.33301 -38.001 7s-25.5 10 -38.5 16s-26.167 11.333 -39.5 16s-26.666 7 -39.999 7c-11.333 0 -21.666 -2.33301 -30.999 -7s-19.333 -13.334 -30 -26.001l-23 19c9.33301 15.333 21.166 27.833 35.499 37.5s30.833 14.5 49.5 14.5z" />
    <glyph glyph-name="exclamdown" unicode="&#xa1;" horiz-adv-x="199" 
d="M117 330l5 -534h-46l5 534h36zM124 491v-50h-49v50h49z" />
    <glyph glyph-name="cent" unicode="&#xa2;" horiz-adv-x="353" 
d="M153 453c-11.333 -2 -22.5 -6.83105 -33.5 -14.498s-19.167 -19.167 -24.5 -34.5c-5.33301 -14.667 -8.5 -36.834 -9.5 -66.501s-1.5 -64.5 -1.5 -104.5v-13c0 -12 0.166992 -24.333 0.5 -37l1 -37c0.333008 -12 1.16602 -23 2.49902 -33s3 -18 5 -24
c5.33301 -16 13.666 -29 24.999 -39s26.333 -16 45 -18v-38c-36 2 -62.667 11.5 -80 28.5s-28.666 36.167 -33.999 57.5c-3.33301 13.333 -5.5 32.166 -6.5 56.499s-1.5 48.5 -1.5 72.5c0 19.333 0.166992 39.333 0.5 60s0.833008 40.334 1.5 59.001s1.83398 36 3.50098 52
s4.16699 29 7.5 39c6.66699 21.333 19 38.666 37 51.999s42 21.333 72 24v-39zM178 457.002c1.33301 0 2.83301 -0.166992 4.5 -0.5s3.16699 -0.5 4.5 -0.5v-424h-10h-14v424c3.33301 0.666992 8.33301 1 15 1zM311 367.002l-45 -6.99902c0 30 -6.5 53.167 -19.5 69.5
s-32.833 25.166 -59.5 26.499v40c40 -1.33301 70.667 -13 92 -35s32 -53.333 32 -94zM206 36.0029c38.667 8 58.666 38.333 59.999 91l44 -8c-1.33301 -40 -12.666 -70.5 -33.999 -91.5s-51 -32.5 -89 -34.5v39c3.33301 0 6.5 0.333008 9.5 1s6.16699 1.66699 9.5 3z
M180.999 496.003c-3.33301 0 -6.33301 -0.166992 -9 -0.5s-5.66699 -0.5 -9 -0.5v111h24v-110h-6zM162.999 -113.997v108c2.66699 -0.666992 7 -1 13 -1h11v-107h-24z" />
    <glyph glyph-name="sterling" unicode="&#xa3;" horiz-adv-x="353" 
d="M181 703c20 0 39 -2.83203 57 -8.49902s33.667 -14.5 47 -26.5s23.666 -27.333 30.999 -46s11 -41 11 -67l-43 -10c0.666992 40.667 -8.33301 70.5 -27 89.5s-44 28.5 -76 28.5c-31.333 0 -55.5 -9.33301 -72.5 -28s-25.5 -43 -25.5 -73c0 -16 1.66699 -31.667 5 -47
s7.33301 -31 12 -47l14 -50.5c4.66699 -17.667 8.66699 -36.834 12 -57.501h107v-37h-103c0.666992 -5.33301 1.16699 -11.333 1.5 -18s0.5 -12.667 0.5 -18c0 -51.333 -5.16699 -96 -15.5 -134s-24.5 -75.667 -42.5 -113h242v-40h-290v40c20 37.333 35.5 76.333 46.5 117
s16.5 84.334 16.5 131.001c0 11.333 -1 23 -3 35h-62v37h59c-3.33301 19.333 -7.66602 38.166 -12.999 56.499l-15 52c-4.66699 16.333 -8.66699 32 -12 47s-5 29.167 -5 42.5c0 44 12.5 79.167 37.5 105.5s60.167 39.5 105.5 39.5z" />
    <glyph glyph-name="currency" unicode="&#xa4;" horiz-adv-x="493" 
d="M65 476l27.002 27.999l53 -54c28.667 24.667 62.667 37 102 37c37.333 0 71 -12 101 -36l52 53l27 -28l-52 -52c24 -30 36 -64 36 -102c0 -37.333 -12 -70.666 -36 -99.999l10 -10l16.5 -17c5.66699 -6 11.167 -11.5 16.5 -16.5s8.66602 -8.16699 9.99902 -9.5l-14 -14
l-14 -14l-52 53c-28.667 -23.333 -62.334 -35 -101.001 -35c-19.333 0 -37.5 3 -54.5 9s-32.833 14.667 -47.5 26l-10 -10l-17 -17l-16.5 -17l-9.5 -10l-17 17.5c-6 6.33301 -9.66699 9.83301 -11 10.5l54 54c-23.333 28.667 -35 62 -35 100c0 38.667 11.667 72.667 35 102z
M123.002 321.999c0 -17.333 3.16797 -33.5 9.50098 -48.5s15.333 -28.167 27 -39.5s25 -20.333 40 -27s31.167 -10 48.5 -10c16.667 0 32.667 3.33301 48 10s28.666 15.667 39.999 27s20.333 24.5 27 39.5s10 31.167 10 48.5s-3.33301 33.666 -10 48.999
s-15.667 28.666 -27 39.999s-24.5 20.333 -39.5 27s-31.167 10 -48.5 10s-33.5 -3.33301 -48.5 -10s-28.333 -15.667 -40 -27s-20.667 -24.666 -27 -39.999s-9.5 -31.666 -9.5 -48.999z" />
    <glyph glyph-name="yen" unicode="&#xa5;" horiz-adv-x="353" 
d="M204 315h114v-30h-121v-73h121v-31h-121v-181h-40v181h-115v31h115v73h-115v30h107l-126 381h42l110 -346h3l110 346h43z" />
    <glyph glyph-name="brokenbar" unicode="&#xa6;" horiz-adv-x="176" 
d="M74 303v413h33v-413h-33zM107 249v-411h-33v411h33z" />
    <glyph glyph-name="section" unicode="&#xa7;" horiz-adv-x="411" 
d="M366 290c0 -23.333 -7.16504 -45.6689 -21.498 -67.002s-33.166 -39.666 -56.499 -54.999c19.333 -19.333 33 -37.833 41 -55.5s12 -35.5 12 -53.5c0 -2.66699 -0.166992 -5 -0.5 -7s-0.833008 -4.33301 -1.5 -7c-2.66699 -38 -18.334 -67.667 -47.001 -89
s-65 -32 -109 -32c-21.333 0 -43.333 4 -66 12s-43 18.667 -61 32c6.66699 10 14.334 19.667 23.001 29c17.333 -12.667 34.166 -22 50.499 -28s34.166 -9 53.499 -9c36.667 0 65.167 8.83301 85.5 26.5s30.5 40.167 30.5 67.5c0 25.333 -9.83301 49.166 -29.5 71.499
s-52.5 46.833 -98.5 73.5c-40.667 23.333 -71 46 -91 68s-30 48.333 -30 79c0 27.333 7.33301 51 22 71s33.667 36.667 57 50c-20.667 16.667 -35 33.167 -43 49.5s-12 34.166 -12 53.499c0 18.667 3.16699 36 9.5 52s15.5 30 27.5 42s26.333 21.333 43 28s35.667 10 57 10
c26 0 49.333 -3.66699 70 -11s40.667 -18.666 60 -33.999c-4.66699 -5.33301 -9.5 -10.333 -14.5 -15s-9.83301 -9.66699 -14.5 -15c-16.667 13.333 -32.667 23 -48 29s-33 9 -53 9c-15.333 0 -28.833 -2.66699 -40.5 -8s-21.5 -12.333 -29.5 -21s-14 -18.5 -18 -29.5
s-6 -22.167 -6 -33.5c0 -14 2.66699 -26.167 8 -36.5s12.666 -19.833 21.999 -28.5s20.5 -17.167 33.5 -25.5s27.5 -17.166 43.5 -26.499c20 -11.333 38.5 -22.833 55.5 -34.5s32 -24.167 45 -37.5s23.167 -27.666 30.5 -42.999s11 -32.333 11 -51zM325.002 286.997
c0 30 -13.332 56.501 -39.999 79.501s-66.667 48.167 -120 75.5c-19.333 -7.33301 -36.5 -18.833 -51.5 -34.5s-22.5 -35.5 -22.5 -59.5c0 -13.333 3.5 -25.833 10.5 -37.5s15.833 -22.334 26.5 -32.001s22.667 -18.834 36 -27.501s26.666 -16.667 39.999 -24l53 -32
c18.667 8.66699 34.667 21.834 48 39.501s20 35.167 20 52.5z" />
    <glyph glyph-name="dieresis" unicode="&#xa8;" horiz-adv-x="343" 
d="M222 585v48h42v-48h-42zM76 585v48h42v-48h-42z" />
    <glyph glyph-name="copyright" unicode="&#xa9;" horiz-adv-x="703" 
d="M358 -8c-49.333 0 -92.666 8.83301 -129.999 26.5s-68.666 42.167 -93.999 73.5s-44.5 68.166 -57.5 110.499s-19.5 88.5 -19.5 138.5s6.5 96.333 19.5 139s32.167 79.834 57.5 111.501s56.666 56.334 93.999 74.001s80.666 26.5 129.999 26.5
c48.667 0 91.667 -8.83301 129 -26.5s68.833 -42.334 94.5 -74.001s45.167 -68.834 58.5 -111.501s20 -89 20 -139s-6.66699 -96.167 -20 -138.5s-32.833 -79.166 -58.5 -110.499s-57.167 -55.833 -94.5 -73.5s-80.333 -26.5 -129 -26.5zM358 660
c-44 0 -82.666 -8.33105 -115.999 -24.998s-61.166 -39.5 -83.499 -68.5s-39 -62.833 -50 -101.5s-16.5 -80 -16.5 -124c0 -45.333 6 -87.333 18 -126s29.333 -72.167 52 -100.5s50.5 -50.5 83.5 -66.5s70.5 -24 112.5 -24c42.667 0 80.667 8 114 24
s61.166 38.333 83.499 67s39.333 62.167 51 100.5s17.5 80.166 17.5 125.499s-5.83301 87.5 -17.5 126.5s-28.834 72.667 -51.501 101s-50.5 50.666 -83.5 66.999s-70.833 24.5 -113.5 24.5zM359.001 538.002c14.667 0 28.499 -2.16699 41.499 -6.5s24.333 -10.833 34 -19.5
s17.334 -19.667 23.001 -33s8.5 -28.666 8.5 -45.999l-34 -7c0 25.333 -6.66699 44.833 -20 58.5s-31.333 20.5 -54 20.5c-21.333 0 -38.666 -6.83301 -51.999 -20.5s-20 -30.167 -20 -49.5v-202c0 -20 6.66699 -36.5 20 -49.5s30.666 -19.5 51.999 -19.5
c22 0 39.5 6.66699 52.5 20s19.833 32.333 20.5 57l35 -6c0 -34 -10.5 -59.833 -31.5 -77.5s-46.167 -26.5 -75.5 -26.5c-14.667 0 -28.5 2.16699 -41.5 6.5s-24.5 10.833 -34.5 19.5s-18 19.667 -24 33s-9 29 -9 47v193c0 35.333 10.667 62.166 32 80.499s47 27.5 77 27.5z
" />
    <glyph glyph-name="ordfeminine" unicode="&#xaa;" horiz-adv-x="236" 
d="M20 546c7.33301 18.667 19.168 33.6689 35.501 45.002s37.166 17 62.499 17c30 0 53.167 -6.33301 69.5 -19s24.5 -35.667 24.5 -69v-240h-40v22c-10 -11.333 -21.667 -18.5 -35 -21.5s-26.333 -4.5 -39 -4.5c-15.333 0 -28.5 2.66699 -39.5 8
s-19.833 12.166 -26.5 20.499s-11.5 18.166 -14.5 29.499s-4.5 23 -4.5 35c0 12.667 1.66699 25.167 5 37.5s8.66602 23.5 15.999 33.5s17.333 18 30 24s28.334 9 47.001 9h61v45c0 16 -3.5 29.167 -10.5 39.5s-22.167 15.5 -45.5 15.5
c-13.333 0 -25.333 -3.83301 -36 -11.5s-18 -17.167 -22 -28.5zM172.002 438.002l-53 -0.000976562c-19.333 0 -35.333 -5.16699 -48 -15.5s-19 -28.166 -19 -53.499c0 -16 4.33301 -29.667 13 -41s23.667 -17 45 -17c18.667 0 33.667 4.83301 45 14.5s17 23.167 17 40.5v72
z" />
    <glyph glyph-name="guillemotleft" unicode="&#xab;" horiz-adv-x="338" 
d="M267 46l-107 186l107 186h44l-105 -186l105 -186h-44zM144 46l-107 186l107 186h44l-106 -186l106 -186h-44z" />
    <glyph glyph-name="logicalnot" unicode="&#xac;" horiz-adv-x="353" 
d="M335 117h-35v158h-284v36h319v-194z" />
    <glyph glyph-name="sfthyphen" unicode="&#xad;" horiz-adv-x="321" 
d="M49 266v41h234v-41h-234z" />
    <glyph glyph-name="registered" unicode="&#xae;" horiz-adv-x="486" 
d="M246 274c-30.667 0 -57.833 5.5 -81.5 16.5s-43.5 26.333 -59.5 46s-28.167 42.667 -36.5 69s-12.5 54.833 -12.5 85.5c0 32 4 61.333 12 88s20 49.667 36 69s35.833 34.5 59.5 45.5s51.167 16.5 82.5 16.5c30 0 56.667 -5.5 80 -16.5s43 -26.167 59 -45.5
s28.167 -42.333 36.5 -69s12.5 -56 12.5 -88c0 -30.667 -4.16699 -59.167 -12.5 -85.5s-20.5 -49.333 -36.5 -69s-35.667 -35 -59 -46s-50 -16.5 -80 -16.5zM246.001 685c-26.667 0 -49.999 -5 -69.999 -15s-36.833 -23.667 -50.5 -41s-23.834 -37.666 -30.501 -60.999
s-10 -48.333 -10 -75c0 -28 3.66699 -53.5 11 -76.5s17.833 -43 31.5 -60s30.5 -30.167 50.5 -39.5s42.667 -14 68 -14c26.667 0 50 5 70 15s36.5 23.5 49.5 40.5s22.667 37.167 29 60.5s9.5 48 9.5 74c0 26.667 -3.5 51.667 -10.5 75s-17.167 43.666 -30.5 60.999
s-29.833 31 -49.5 41s-42.167 15 -67.5 15zM287.002 360l-39.001 111h-36v-111h-30v260h61c23.333 0 41.333 -6.16699 54 -18.5s19 -31.833 19 -58.5c0 -13.333 -2.66699 -26.333 -8 -39s-15.666 -22.667 -30.999 -30l22 -57l21 -57h-33zM285.001 543
c0 15.333 -3.5 27.333 -10.5 36s-18.5 13 -34.5 13h-28v-96h31c16 0 27 4.33301 33 13s9 20 9 34z" />
    <glyph glyph-name="macron" unicode="&#xaf;" horiz-adv-x="343" 
d="M75 589v39h207v-39h-207z" />
    <glyph glyph-name="degree" unicode="&#xb0;" horiz-adv-x="281" 
d="M237 603c0 -26 -8.83203 -48.001 -26.499 -66.001s-39.5 -27 -65.5 -27c-12.667 0 -24.5 2.33301 -35.5 7s-20.667 11.334 -29 20.001s-14.833 18.5 -19.5 29.5s-7 23.167 -7 36.5c0 12.667 2.33301 24.667 7 36s11.167 21.166 19.5 29.499s18 14.833 29 19.5
s22.833 7 35.5 7s24.667 -2.33301 36 -7s21.166 -11.167 29.499 -19.5s14.833 -18.166 19.5 -29.499s7 -23.333 7 -36zM145.001 665.999c-17.333 0 -32 -6.16699 -44 -18.5s-18 -27.166 -18 -44.499c0 -18 6 -33 18 -45s26.667 -18 44 -18s32 6 44 18s18 27 18 45
c0 17.333 -6 32.166 -18 44.499s-26.667 18.5 -44 18.5z" />
    <glyph glyph-name="plusminus" unicode="&#xb1;" horiz-adv-x="353" 
d="M16 41v35h320v-35h-320zM193 275v-158h-35v158h-142v36h142v157h35v-157h143v-36h-143z" />
    <glyph glyph-name="twosuperior" unicode="&#xb2;" horiz-adv-x="230" 
d="M116 755c-14 0 -25.999 -5.33594 -35.999 -16.0029s-15 -26.667 -15 -48l-39 6c0 28 8.16699 50.333 24.5 67s38.5 25 66.5 25c32 0 55.333 -8.16699 70 -24.5s22 -38.166 22 -65.499c0 -18.667 -2.33301 -35.167 -7 -49.5s-11.334 -29.166 -20.001 -44.499l-111 -200
h133v-35h-177v30l123 224c7.33301 12 12.333 24 15 36s4 24.667 4 38c0 14.667 -3.66699 27.834 -11 39.501s-21.333 17.5 -42 17.5z" />
    <glyph glyph-name="threesuperior" unicode="&#xb3;" horiz-adv-x="230" 
d="M203 454c0 -23.333 -6.83301 -43.833 -20.5 -61.5s-36.5 -26.5 -68.5 -26.5c-27.333 0 -48.833 7.5 -64.5 22.5s-23.167 37.833 -22.5 68.5l39 4c-0.666992 -18.667 2.66602 -33.667 9.99902 -45s20.333 -17 39 -17c18 0 30.833 5.5 38.5 16.5s11.5 23.833 11.5 38.5v62
c0 19.333 -4.5 33 -13.5 41s-20.5 12 -34.5 12h-23v34h24c13.333 0 24.5 3.83301 33.5 11.5s13.5 20.5 13.5 38.5v50c0 13.333 -3.5 25.333 -10.5 36s-19.833 16 -38.5 16c-18 0 -31.167 -5.66699 -39.5 -17s-12.5 -25.666 -12.5 -42.999l-38 6
c1.33301 25.333 9.33301 46.166 24 62.499s37.334 24.5 68.001 24.5c32.667 0 55 -8.5 67 -25.5s18 -37.833 18 -62.5v-33c0 -14.667 -1.16699 -29.334 -3.5 -44.001s-11.833 -26.667 -28.5 -36c14 -7.33301 22.833 -17.166 26.5 -29.499s5.5 -26.5 5.5 -42.5v-61z" />
    <glyph glyph-name="acute" unicode="&#xb4;" horiz-adv-x="342" 
d="M146 566l67 151l45 -17l-88 -144z" />
    <glyph glyph-name="mu" unicode="&#xb5;" horiz-adv-x="364" 
d="M276 54l-1.99707 -0.000976562c-10.667 -19.333 -25.334 -34.166 -44.001 -44.499s-38.667 -15.5 -60 -15.5c-19.333 0 -35.5 2.66699 -48.5 8s-23.833 12.666 -32.5 21.999v-221h-43v686h44v-350c0 -14.667 1.33301 -28.167 4 -40.5s7.5 -23.166 14.5 -32.499
s16.167 -16.666 27.5 -21.999s25.666 -8 42.999 -8c16 0 30 3 42 9s22.167 14.167 30.5 24.5s14.666 22.166 18.999 35.499s6.5 27 6.5 41v343h42v-489h-43v54z" />
    <glyph glyph-name="mu" unicode="&#x3bc;" horiz-adv-x="364" 
d="M276 54l-1.99707 -0.000976562c-10.667 -19.333 -25.334 -34.166 -44.001 -44.499s-38.667 -15.5 -60 -15.5c-19.333 0 -35.5 2.66699 -48.5 8s-23.833 12.666 -32.5 21.999v-221h-43v686h44v-350c0 -14.667 1.33301 -28.167 4 -40.5s7.5 -23.166 14.5 -32.499
s16.167 -16.666 27.5 -21.999s25.666 -8 42.999 -8c16 0 30 3 42 9s22.167 14.167 30.5 24.5s14.666 22.166 18.999 35.499s6.5 27 6.5 41v343h42v-489h-43v54z" />
    <glyph glyph-name="paragraph" unicode="&#xb6;" horiz-adv-x="404" 
d="M217 676v-757h-44v440c-16.667 0 -32.334 2.66699 -47.001 8c-31.333 7.33301 -55.833 26.833 -73.5 58.5s-26.5 70.167 -26.5 115.5c0 24 2.33301 47.167 7 69.5s12.834 41.833 24.501 58.5s27 30 46 40s42.833 15 71.5 15h201v-48h-50v-757h-44v757h-65z" />
    <glyph glyph-name="periodcentered" unicode="&#xb7;" horiz-adv-x="135" 
d="M42 234v56h53v-56h-53z" />
    <glyph glyph-name="cedilla" unicode="&#xb8;" horiz-adv-x="431" 
d="M197 8l-18 -71.001c15.333 -1.33301 28.166 -4.5 38.499 -9.5s18.5 -11 24.5 -18s10.167 -14.5 12.5 -22.5s3.5 -15.333 3.5 -22c0 -17.333 -6 -33.5 -18 -48.5s-31.333 -22.5 -58 -22.5c-10 0 -21.667 0.833008 -35 2.5s-26.666 6.16699 -39.999 13.5l10 24
c11.333 -5.33301 21.833 -8.66602 31.5 -9.99902s18.5 -2 26.5 -2c14 0 25.667 3.5 35 10.5s14 17.5 14 31.5c0 13.333 -5 24.5 -15 33.5s-25.667 13.5 -47 13.5l-16 12l24 87z" />
    <glyph glyph-name="onesuperior" unicode="&#xb9;" horiz-adv-x="190" 
d="M108 370v374l-69 -45v41l71 45h34v-415h-36z" />
    <glyph glyph-name="ordmasculine" unicode="&#xba;" horiz-adv-x="241" 
d="M121 608c26 0 45.9971 -4.83203 59.9971 -14.499s23.667 -21.834 29 -36.501c4.66699 -11.333 7.5 -27.833 8.5 -49.5s1.5 -42.167 1.5 -61.5v-19c0 -11.333 -0.166992 -22.666 -0.5 -33.999s-1.16602 -23.666 -2.49902 -36.999
c-1.33301 -16 -5.16602 -29.167 -11.499 -39.5s-14.166 -18.666 -23.499 -24.999s-19.5 -10.833 -30.5 -13.5s-21.833 -4 -32.5 -4c-28.667 0 -50 5.66699 -64 17s-23.667 25.666 -29 42.999c-1.33301 4.66699 -2.5 11.167 -3.5 19.5s-1.66699 17.166 -2 26.499
s-0.5 19 -0.5 29v28c0 22.667 0.5 45 1.5 67s3.5 38.667 7.5 50c5.33301 15.333 16 28.166 32 38.499s36 15.5 60 15.5zM119.997 572.001c-11.333 0 -21.6689 -1.99902 -31.002 -5.99902s-16.666 -11.667 -21.999 -23c-3.33301 -8.66699 -5.5 -21.667 -6.5 -39
s-1.83301 -37.666 -2.5 -60.999v-14c0 -20.667 0.333008 -38.5 1 -53.5s2.33398 -26.167 5.00098 -33.5c3.33301 -10.667 9.5 -18.834 18.5 -24.501s21.5 -8.5 37.5 -8.5c10 0 19.167 1.5 27.5 4.5s14.833 8.16699 19.5 15.5c3.33301 4 6 9.33301 8 16
c2.66699 8 4.33398 20.333 5.00098 37s1 33.667 1 51v30.5c0 10.333 -0.333008 20.333 -1 30s-1.33398 18.5 -2.00098 26.5s-1.66699 14.333 -3 19c-3.33301 11.333 -10 19.666 -20 24.999s-21.667 8 -35 8z" />
    <glyph glyph-name="guillemotright" unicode="&#xbb;" horiz-adv-x="338" 
d="M38 46l105 186l-105 186h43l107 -186l-107 -186h-43zM161 46l106 186l-106 186h44l107 -186l-107 -186h-44z" />
    <glyph glyph-name="onequarter" unicode="&#xbc;" horiz-adv-x="550" 
d="M478 69v-69h-36v69h-132v31l94 315h38l-94 -311h94v113h36v-113h37v-35h-37zM116 -17h-33l314 731h33zM104 280v374l-69 -45v41l71 45h34v-415h-36z" />
    <glyph glyph-name="onehalf" unicode="&#xbd;" horiz-adv-x="550" 
d="M419 385c-14 0 -25.999 -5.16992 -35.999 -15.5029s-15 -26.5 -15 -48.5l-39 6c0 28 8.16699 50.333 24.5 67s38.5 25 66.5 25c32 0 55.333 -8.16699 70 -24.5s22 -38.166 22 -65.499c0 -18.667 -2.33301 -35 -7 -49s-11.334 -28.667 -20.001 -44l-111 -201h133v-35h-177
v31l123 223c7.33301 12.667 12.333 24.834 15 36.501s4 24.167 4 37.5c0 14.667 -3.66699 27.834 -11 39.501s-21.333 17.5 -42 17.5zM99.001 -17.0029h-33l314 731h33zM106.001 279.997v374l-69 -45v41l71 45h34v-415h-36z" />
    <glyph glyph-name="threequarters" unicode="&#xbe;" horiz-adv-x="550" 
d="M201 364c0 -23.333 -6.83301 -43.833 -20.5 -61.5s-36.5 -26.5 -68.5 -26.5c-27.333 0 -48.833 7.5 -64.5 22.5s-23.167 37.833 -22.5 68.5l39 4c-0.666992 -18.667 2.66602 -33.667 9.99902 -45s20.333 -17 39 -17c18 0 30.833 5.5 38.5 16.5s11.5 23.833 11.5 38.5v62
c0 19.333 -4.5 33 -13.5 41s-20.5 12 -34.5 12h-23v34h24c13.333 0 24.5 3.83301 33.5 11.5s13.5 20.5 13.5 38.5v50c0 13.333 -3.5 25.333 -10.5 36s-19.833 16 -38.5 16c-18 0 -31.167 -5.66699 -39.5 -17s-12.5 -25.666 -12.5 -42.999l-38 6
c1.33301 25.333 9.33301 46.166 24 62.499s37.334 24.5 68.001 24.5c32.667 0 55 -8.5 67 -25.5s18 -37.833 18 -62.5v-33c0 -14.667 -1.16699 -29.334 -3.5 -44.001s-11.833 -26.667 -28.5 -36c14 -7.33301 22.833 -17.166 26.5 -29.499s5.5 -26.5 5.5 -42.5v-61zM134 -17
h-33l314 731h33zM488 69v-69h-36v69h-132v31l94 315h38l-94 -311h94v113h36v-113h37v-35h-37z" />
    <glyph glyph-name="questiondown" unicode="&#xbf;" horiz-adv-x="343" 
d="M186 -212c-28 0 -51.6631 4.00293 -70.9961 12.0029s-34.833 19 -46.5 33s-20 30.667 -25 50s-7.5 40.333 -7.5 63c0 16.667 0.666992 31 2 43s3.16602 22.667 5.49902 32s5 17.666 8 24.999s6.5 14.666 10.5 21.999c14.667 24.667 27.667 45.334 39 62.001
s20.5 31.667 27.5 45s12.333 26.166 16 38.499s5.5 26.5 5.5 42.5v72h41v-81c0 -18 -3.33301 -36 -10 -54s-14.834 -35.5 -24.501 -52.5s-19.667 -33.167 -30 -48.5s-19.166 -29 -26.499 -41c-9.33301 -16 -14.833 -32.333 -16.5 -49s-2.5 -34.334 -2.5 -53.001
c0 -38 8 -67.5 24 -88.5s43 -31.5 81 -31.5c25.333 0 48.166 9 68.499 27s31.166 45.667 32.499 83l43 -6c-2 -46 -16.333 -81.667 -43 -107s-60.334 -38 -101.001 -38zM194.004 489.003v-50h-48v50h48z" />
    <glyph glyph-name="Agrave" unicode="&#xc0;" horiz-adv-x="376" 
d="M325 0l-40 182h-194l-40 -182h-41l153 696h49l156 -696h-43zM187 634l-37 -174l-52 -238h179l-52 240l-36 172h-2zM187 728l-144 90l33 36l128 -106z" />
    <glyph glyph-name="Aacute" unicode="&#xc1;" horiz-adv-x="376" 
d="M325 0l-40 182h-194l-40 -182h-41l153 696h49l156 -696h-43zM187 634l-37 -174l-52 -238h179l-52 240l-36 172h-2zM166 748l128 105l32 -36l-143 -89z" />
    <glyph glyph-name="Acircumflex" unicode="&#xc2;" horiz-adv-x="376" 
d="M325 0l-40 182h-194l-40 -182h-41l153 696h49l156 -696h-43zM187 634l-37 -174l-52 -238h179l-52 240l-36 172h-2zM187 811l-110 -77l-19 16l115 103h32l110 -101l-19 -17z" />
    <glyph glyph-name="Atilde" unicode="&#xc3;" horiz-adv-x="376" 
d="M325 0l-40 182h-194l-40 -182h-41l153 696h49l156 -696h-43zM187 634l-37 -174l-52 -238h179l-52 240l-36 172h-2zM323 805c-8 -21.333 -19.1689 -37.001 -33.502 -47.001s-28.166 -15 -41.499 -15c-10 0 -19.833 2 -29.5 6s-19.167 8.33301 -28.5 13s-18.5 9 -27.5 13
s-17.833 6 -26.5 6c-8 0 -16.167 -3.16699 -24.5 -9.5s-16.166 -14.833 -23.499 -25.5l-24 15c8 16.667 18.333 30.334 31 41.001s26 16 40 16c10 0 19.667 -2 29 -6s18.5 -8.33301 27.5 -13s18.167 -9 27.5 -13s19.333 -6 30 -6c18.667 0 35.667 13 51 39z" />
    <glyph glyph-name="Adieresis" unicode="&#xc4;" horiz-adv-x="376" 
d="M325 0l-40 182h-194l-40 -182h-41l153 696h49l156 -696h-43zM187 634l-37 -174l-52 -238h179l-52 240l-36 172h-2zM239 745v47h41v-47h-41zM93 745v47h42v-47h-42z" />
    <glyph glyph-name="Aring" unicode="&#xc5;" horiz-adv-x="376" 
d="M325 0l-40 182h-194l-40 -182h-41l153 696h49l156 -696h-43zM187 634l-37 -174l-52 -238h179l-52 240l-36 172h-2zM187 715c-22 0 -40.833 8 -56.5 24s-23.5 35 -23.5 57c0 23.333 7.83301 42.833 23.5 58.5s34.5 23.5 56.5 23.5s40.833 -7.83301 56.5 -23.5
s23.5 -35.167 23.5 -58.5c0 -22 -7.83301 -41 -23.5 -57s-34.5 -24 -56.5 -24zM187 851c-14.667 0 -27.167 -5.33301 -37.5 -16s-15.5 -23.667 -15.5 -39s5.16699 -28.333 15.5 -39s22.833 -16 37.5 -16s27.167 5.33301 37.5 16s15.5 23.667 15.5 39
s-5.16699 28.333 -15.5 39s-22.833 16 -37.5 16z" />
    <glyph glyph-name="AE" unicode="&#xc6;" horiz-adv-x="623" 
d="M321 191h-193l-80 -191h-44l290 696h311v-40h-241v-279h212v-39h-212v-298h241v-40h-284v191zM144 231h177v424h-2z" />
    <glyph glyph-name="Ccedilla" unicode="&#xc7;" horiz-adv-x="383" 
d="M199 702c21.333 0 41.332 -2.99902 59.999 -8.99902s34.834 -15.167 48.501 -27.5s24.334 -27.833 32.001 -46.5s11.5 -40.667 11.5 -66l-43 -9c0 41.333 -10.167 71.333 -30.5 90s-46.5 28 -78.5 28c-36.667 0 -64.167 -11.5 -82.5 -34.5s-27.5 -52.167 -27.5 -87.5
v-392c0 -34 9.16699 -61.667 27.5 -83s45.833 -32 82.5 -32c14.667 0 28.5 2.16699 41.5 6.5s24.5 11.166 34.5 20.499s18 21.5 24 36.5s9 33.167 9 54.5l43 -8c-0.666992 -48.667 -13.834 -84.834 -39.501 -108.501s-57.167 -37.167 -94.5 -40.5l-14 -57
c15.333 -1.33301 28.166 -4.5 38.499 -9.5s18.5 -11 24.5 -18s10.167 -14.5 12.5 -22.5s3.5 -15.333 3.5 -22c0 -17.333 -6 -33.5 -18 -48.5s-31.333 -22.5 -58 -22.5c-10 0 -21.667 0.833008 -35 2.5s-26.666 6.16699 -39.999 13.5l10 24
c11.333 -5.33301 21.833 -8.66602 31.5 -9.99902s18.5 -2 26.5 -2c14 0 25.667 3.5 35 10.5s14 17.5 14 31.5c0 13.333 -5 24.5 -15 33.5s-25.667 13.5 -47 13.5l-16 12l19 70c-44.667 2 -79.667 15.667 -105 41s-38 63 -38 113v390c0 50 12.5 90 37.5 120s63.5 45 115.5 45
z" />
    <glyph glyph-name="Egrave" unicode="&#xc8;" horiz-adv-x="355" 
d="M52 0v696h284v-40h-241v-279h212v-39h-212v-298h241v-40h-284zM205 728l-144 90l33 36l128 -106z" />
    <glyph glyph-name="Eacute" unicode="&#xc9;" horiz-adv-x="355" 
d="M52 0v696h284v-40h-241v-279h212v-39h-212v-298h241v-40h-284zM134 748l128 105l32 -36l-143 -89z" />
    <glyph glyph-name="Ecircumflex" unicode="&#xca;" horiz-adv-x="355" 
d="M52 0v696h284v-40h-241v-279h212v-39h-212v-298h241v-40h-284zM188 811l-110 -77l-19 16l115 103h32l110 -101l-19 -17z" />
    <glyph glyph-name="Edieresis" unicode="&#xcb;" horiz-adv-x="355" 
d="M52 0v696h284v-40h-241v-279h212v-39h-212v-298h241v-40h-284zM237 745v47h41v-47h-41zM91 745v47h42v-47h-42z" />
    <glyph glyph-name="Igrave" unicode="&#xcc;" horiz-adv-x="174" 
d="M65 0v696h44v-696h-44zM92 728l-144 90l33 36l128 -106z" />
    <glyph glyph-name="Iacute" unicode="&#xcd;" horiz-adv-x="174" 
d="M65 0v696h44v-696h-44zM66 748l128 105l32 -36l-143 -89z" />
    <glyph glyph-name="Icircumflex" unicode="&#xce;" horiz-adv-x="174" 
d="M65 0v696h44v-696h-44zM89 811l-110 -77l-19 16l115 103h32l110 -101l-19 -17z" />
    <glyph glyph-name="Idieresis" unicode="&#xcf;" horiz-adv-x="174" 
d="M65 0v696h44v-696h-44zM140 745v47h41v-47h-41zM-6 745v47h42v-47h-42z" />
    <glyph glyph-name="Eth" unicode="&#xd0;" horiz-adv-x="404" 
d="M5 389l47.001 -0.000976562v307h150c42 0 75 -7.33301 99 -22s40.667 -39 50 -73c7.33301 -25.333 10.833 -59.166 10.5 -101.499s-0.5 -92.5 -0.5 -150.5v-151.5c0 -43.667 -3.66699 -77.5 -11 -101.5c-6 -20 -14.333 -36.167 -25 -48.5s-22.834 -22 -36.501 -29
s-28.5 -11.833 -44.5 -14.5s-33 -4 -51 -4h-141v354h-47v35zM317.001 517.999c0 20 -1.66895 38.501 -5.00195 55.501s-9.5 31.667 -18.5 44s-21.167 22 -36.5 29s-34.666 10.5 -57.999 10.5h-104v-268h110v-35h-110v-314h105c40.667 0 70.334 10.667 89.001 32
s28 55.666 28 102.999v343z" />
    <glyph glyph-name="Ntilde" unicode="&#xd1;" horiz-adv-x="431" 
d="M92 577v-577h-42v696h40l76 -178.5l76 -178.5l93 -222h4v579h42v-696h-41l-75.5 177.5l-75.5 177.5l-47.5 111l-46.5 111h-3zM350 802c-8 -21.333 -19.1689 -37.001 -33.502 -47.001s-28.166 -15 -41.499 -15c-10 0 -19.833 2 -29.5 6s-19.167 8.33301 -28.5 13
s-18.5 9 -27.5 13s-17.833 6 -26.5 6c-8 0 -16.167 -3.16699 -24.5 -9.5s-16.166 -14.833 -23.499 -25.5l-24 15c8 16.667 18.333 30.334 31 41.001s26 16 40 16c10 0 19.667 -2 29 -6s18.5 -8.33301 27.5 -13s18.167 -9 27.5 -13s19.333 -6 30 -6c18.667 0 35.667 13 51 39
z" />
    <glyph glyph-name="Ograve" unicode="&#xd2;" horiz-adv-x="403" 
d="M358 156c0 -54 -14.165 -94.667 -42.498 -122s-66.5 -41 -114.5 -41s-85.833 13 -113.5 39s-41.5 64.333 -41.5 115v391c0 50 13.167 89.833 39.5 119.5s65.166 44.5 116.499 44.5s90.166 -13.667 116.499 -41s39.5 -67 39.5 -119v-386zM315.002 546
c0 34.667 -9.83301 62.833 -29.5 84.5s-47.5 32.5 -83.5 32.5c-19.333 0 -36 -3.5 -50 -10.5s-25.833 -16.333 -35.5 -28s-16.834 -25.167 -21.501 -40.5s-7 -31.333 -7 -48v-390c0 -34 9.83301 -61.5 29.5 -82.5s47.5 -31.5 83.5 -31.5c38.667 0 67.334 11 86.001 33
s28 51.333 28 88v393zM216.002 727.999l-144 90l33 36l128 -106z" />
    <glyph glyph-name="Oacute" unicode="&#xd3;" horiz-adv-x="403" 
d="M358 156c0 -54 -14.165 -94.667 -42.498 -122s-66.5 -41 -114.5 -41s-85.833 13 -113.5 39s-41.5 64.333 -41.5 115v391c0 50 13.167 89.833 39.5 119.5s65.166 44.5 116.499 44.5s90.166 -13.667 116.499 -41s39.5 -67 39.5 -119v-386zM315.002 546
c0 34.667 -9.83301 62.833 -29.5 84.5s-47.5 32.5 -83.5 32.5c-19.333 0 -36 -3.5 -50 -10.5s-25.833 -16.333 -35.5 -28s-16.834 -25.167 -21.501 -40.5s-7 -31.333 -7 -48v-390c0 -34 9.83301 -61.5 29.5 -82.5s47.5 -31.5 83.5 -31.5c38.667 0 67.334 11 86.001 33
s28 51.333 28 88v393zM160.002 747.999l128 105l32 -36l-143 -89z" />
    <glyph glyph-name="Ocircumflex" unicode="&#xd4;" horiz-adv-x="403" 
d="M358 156c0 -54 -14.165 -94.667 -42.498 -122s-66.5 -41 -114.5 -41s-85.833 13 -113.5 39s-41.5 64.333 -41.5 115v391c0 50 13.167 89.833 39.5 119.5s65.166 44.5 116.499 44.5s90.166 -13.667 116.499 -41s39.5 -67 39.5 -119v-386zM315.002 546
c0 34.667 -9.83301 62.833 -29.5 84.5s-47.5 32.5 -83.5 32.5c-19.333 0 -36 -3.5 -50 -10.5s-25.833 -16.333 -35.5 -28s-16.834 -25.167 -21.501 -40.5s-7 -31.333 -7 -48v-390c0 -34 9.83301 -61.5 29.5 -82.5s47.5 -31.5 83.5 -31.5c38.667 0 67.334 11 86.001 33
s28 51.333 28 88v393zM202.002 810.999l-110 -77l-19 16l115 103h32l110 -101l-19 -17z" />
    <glyph glyph-name="Otilde" unicode="&#xd5;" horiz-adv-x="403" 
d="M358 156c0 -54 -14.165 -94.667 -42.498 -122s-66.5 -41 -114.5 -41s-85.833 13 -113.5 39s-41.5 64.333 -41.5 115v391c0 50 13.167 89.833 39.5 119.5s65.166 44.5 116.499 44.5s90.166 -13.667 116.499 -41s39.5 -67 39.5 -119v-386zM315.002 546
c0 34.667 -9.83301 62.833 -29.5 84.5s-47.5 32.5 -83.5 32.5c-19.333 0 -36 -3.5 -50 -10.5s-25.833 -16.333 -35.5 -28s-16.834 -25.167 -21.501 -40.5s-7 -31.333 -7 -48v-390c0 -34 9.83301 -61.5 29.5 -82.5s47.5 -31.5 83.5 -31.5c38.667 0 67.334 11 86.001 33
s28 51.333 28 88v393zM336.002 804.999c-8 -21.333 -19.1689 -37.001 -33.502 -47.001s-28.166 -15 -41.499 -15c-10 0 -19.833 2 -29.5 6s-19.167 8.33301 -28.5 13s-18.5 9 -27.5 13s-17.833 6 -26.5 6c-8 0 -16.167 -3.16699 -24.5 -9.5s-16.166 -14.833 -23.499 -25.5
l-24 15c8 16.667 18.333 30.334 31 41.001s26 16 40 16c10 0 19.667 -2 29 -6s18.5 -8.33301 27.5 -13s18.167 -9 27.5 -13s19.333 -6 30 -6c18.667 0 35.667 13 51 39z" />
    <glyph glyph-name="Odieresis" unicode="&#xd6;" horiz-adv-x="403" 
d="M358 156c0 -54 -14.165 -94.667 -42.498 -122s-66.5 -41 -114.5 -41s-85.833 13 -113.5 39s-41.5 64.333 -41.5 115v391c0 50 13.167 89.833 39.5 119.5s65.166 44.5 116.499 44.5s90.166 -13.667 116.499 -41s39.5 -67 39.5 -119v-386zM315.002 546
c0 34.667 -9.83301 62.833 -29.5 84.5s-47.5 32.5 -83.5 32.5c-19.333 0 -36 -3.5 -50 -10.5s-25.833 -16.333 -35.5 -28s-16.834 -25.167 -21.501 -40.5s-7 -31.333 -7 -48v-390c0 -34 9.83301 -61.5 29.5 -82.5s47.5 -31.5 83.5 -31.5c38.667 0 67.334 11 86.001 33
s28 51.333 28 88v393zM253.002 744.999v47h41v-47h-41zM107.002 744.999v47h42v-47h-42z" />
    <glyph glyph-name="multiply" unicode="&#xd7;" horiz-adv-x="380" 
d="M189 270l-134 -134l-25 26l134 133l-122 122l25 25l123 -122l131 133l25 -26l-132 -131l127 -127l-25 -26z" />
    <glyph glyph-name="Oslash" unicode="&#xd8;" horiz-adv-x="403" 
d="M358 156c0 -54 -14.166 -94.668 -42.499 -122.001s-66.5 -41 -114.5 -41c-25.333 0 -48 3.5 -68 10.5s-36.667 17.833 -50 32.5l-21 -49l-26 13l27 64c-11.333 24 -17 51.667 -17 83v391c0 50 13.167 89.833 39.5 119.5s65.166 44.5 116.499 44.5c50 0 89 -14 117 -42
l21 49l28 -13l-29 -66c12.667 -25.333 19 -54.666 19 -87.999v-386zM315.001 545.999c0 4 -0.166016 8 -0.499023 12s-0.833008 7.66699 -1.5 11l-210 -487c9.33301 -15.333 22.166 -27.5 38.499 -36.5s36.166 -13.5 59.499 -13.5c38.667 0 67.334 11 86.001 33
s28 51.333 28 88v393zM88.002 145.999l0.000976562 -11.001c0 -3.33301 0.333008 -6.66602 1 -9.99902l209 487c-9.33301 16 -22 28.5 -38 37.5s-35.333 13.5 -58 13.5c-19.333 0 -36 -3.5 -50 -10.5s-25.833 -16.333 -35.5 -28s-16.834 -25.167 -21.501 -40.5
s-7 -31.333 -7 -48v-390z" />
    <glyph glyph-name="Ugrave" unicode="&#xd9;" horiz-adv-x="393" 
d="M352 695v-539c0 -54 -14 -94.667 -42 -122s-66 -41 -114 -41s-86 13 -114 39s-42 64.333 -42 115v548h43v-549c0 -34 9.83301 -61.5 29.5 -82.5s47.5 -31.5 83.5 -31.5c38 0 66.333 11 85 33s28 51.333 28 88v542h43zM211 728l-144 90l33 36l128 -106z" />
    <glyph glyph-name="Uacute" unicode="&#xda;" horiz-adv-x="393" 
d="M352 695v-539c0 -54 -14 -94.667 -42 -122s-66 -41 -114 -41s-86 13 -114 39s-42 64.333 -42 115v548h43v-549c0 -34 9.83301 -61.5 29.5 -82.5s47.5 -31.5 83.5 -31.5c38 0 66.333 11 85 33s28 51.333 28 88v542h43zM156 748l128 105l32 -36l-143 -89z" />
    <glyph glyph-name="Ucircumflex" unicode="&#xdb;" horiz-adv-x="393" 
d="M352 695v-539c0 -54 -14 -94.667 -42 -122s-66 -41 -114 -41s-86 13 -114 39s-42 64.333 -42 115v548h43v-549c0 -34 9.83301 -61.5 29.5 -82.5s47.5 -31.5 83.5 -31.5c38 0 66.333 11 85 33s28 51.333 28 88v542h43zM195 811l-110 -77l-19 16l115 103h32l110 -101
l-19 -17z" />
    <glyph glyph-name="Udieresis" unicode="&#xdc;" horiz-adv-x="393" 
d="M352 695v-539c0 -54 -14 -94.667 -42 -122s-66 -41 -114 -41s-86 13 -114 39s-42 64.333 -42 115v548h43v-549c0 -34 9.83301 -61.5 29.5 -82.5s47.5 -31.5 83.5 -31.5c38 0 66.333 11 85 33s28 51.333 28 88v542h43zM251 745v47h41v-47h-41zM105 745v47h42v-47h-42z" />
    <glyph glyph-name="Yacute" unicode="&#xdd;" horiz-adv-x="350" 
d="M174 353l48 141l35 101l35 101h45l-143 -403v-293h-42v293l-143 403h44l70 -203l48 -140h3zM148 748l128 105l32 -36l-143 -89z" />
    <glyph glyph-name="Thorn" unicode="&#xde;" horiz-adv-x="386" 
d="M52 696h42.001v-139h94c34.667 0 63.5 -4.83301 86.5 -14.5s41 -23 54 -40s22.167 -37.667 27.5 -62s8 -50.833 8 -79.5c0 -30 -2.83301 -57.5 -8.5 -82.5s-15.334 -46.333 -29.001 -64s-32 -31.5 -55 -41.5s-51.833 -15 -86.5 -15h-90v-157h-43v695zM95.001 197h87
c52.667 0 89.167 13.833 109.5 41.5s30.5 68.167 30.5 121.5c0 22.667 -2 43.667 -6 63s-11.167 36 -21.5 50s-24.5 25 -42.5 33s-40.667 12 -68 12h-89v-321z" />
    <glyph glyph-name="germandbls" unicode="&#xdf;" horiz-adv-x="356" 
d="M241 430c16.667 -4 30.001 -10.1641 40.001 -18.4971s17.5 -18 22.5 -29s8.16699 -23.167 9.5 -36.5s2 -27 2 -41v-165c0 -20 -2.16699 -38.833 -6.5 -56.5s-11.166 -33.167 -20.499 -46.5s-21.5 -24 -36.5 -32s-33.5 -12 -55.5 -12h-32v35h16
c35.333 0 59.333 9.33301 72 28s19 45.334 19 80.001v175c0 13.333 -1.83301 26.166 -5.5 38.499s-9.33398 23.166 -17.001 32.499s-17 16.333 -28 21s-23.5 6.33398 -37.5 5.00098v40c23.333 1.33301 42.333 10.166 57 26.499s22 36.166 22 59.499v60
c0 12 -1.5 23.333 -4.5 34s-8.16699 20.334 -15.5 29.001s-16.833 15.5 -28.5 20.5s-26.167 7.5 -43.5 7.5c-28 0 -50.167 -8.83301 -66.5 -26.5s-24.5 -39.167 -24.5 -64.5v-594h-43v594c0 41.333 13 73.666 39 96.999s58.333 35 97 35c18 0 35.167 -2.83301 51.5 -8.5
s30.666 -13.834 42.999 -24.501s22 -24.167 29 -40.5s10.5 -34.833 10.5 -55.5v-60c0 -22 -4.83301 -42.833 -14.5 -62.5s-26.5 -33.5 -50.5 -41.5v-3z" />
    <glyph glyph-name="agrave" unicode="&#xe0;" horiz-adv-x="343" 
d="M171 248c-14.667 0 -28.335 -2.00098 -41.002 -6.00098s-23.667 -10.667 -33 -20s-16.666 -21.5 -21.999 -36.5s-8 -33.167 -8 -54.5c0 -26.667 6.83301 -49.5 20.5 -68.5s37.5 -28.5 71.5 -28.5c28.667 0 52.334 7.83301 71.001 23.5s28 38.834 28 69.501v121h-87z
M37.999 413.999c9.33301 25.333 24.9961 45.332 46.9961 59.999s50.333 22 85 22c42 0 74.333 -9.5 97 -28.5s34 -52.833 34 -101.5v-366h-43v44h-1c-16 -22 -34.167 -35.833 -54.5 -41.5s-40.166 -8.5 -59.499 -8.5c-22 0 -40.5 3.83301 -55.5 11.5
s-27.167 17.834 -36.5 30.501s-16.166 27.167 -20.499 43.5s-6.5 33.5 -6.5 51.5c0 18.667 2.16699 37.167 6.5 55.5s11.833 35 22.5 50s24.834 27.167 42.501 36.5s39.834 14 66.501 14h96v78c0 13.333 -1.33301 25.5 -4 36.5s-7.33398 20.5 -14.001 28.5
s-15.834 14.333 -27.501 19s-26.5 7 -44.5 7c-19.333 0 -37.666 -4.66699 -54.999 -14s-28.666 -23.333 -33.999 -42zM176.995 555.998l-88 144l45 17l67 -151z" />
    <glyph glyph-name="aacute" unicode="&#xe1;" horiz-adv-x="343" 
d="M171 248c-14.667 0 -28.335 -2.00098 -41.002 -6.00098s-23.667 -10.667 -33 -20s-16.666 -21.5 -21.999 -36.5s-8 -33.167 -8 -54.5c0 -26.667 6.83301 -49.5 20.5 -68.5s37.5 -28.5 71.5 -28.5c28.667 0 52.334 7.83301 71.001 23.5s28 38.834 28 69.501v121h-87z
M37.999 413.999c9.33301 25.333 24.9961 45.332 46.9961 59.999s50.333 22 85 22c42 0 74.333 -9.5 97 -28.5s34 -52.833 34 -101.5v-366h-43v44h-1c-16 -22 -34.167 -35.833 -54.5 -41.5s-40.166 -8.5 -59.499 -8.5c-22 0 -40.5 3.83301 -55.5 11.5
s-27.167 17.834 -36.5 30.501s-16.166 27.167 -20.499 43.5s-6.5 33.5 -6.5 51.5c0 18.667 2.16699 37.167 6.5 55.5s11.833 35 22.5 50s24.834 27.167 42.501 36.5s39.834 14 66.501 14h96v78c0 13.333 -1.33301 25.5 -4 36.5s-7.33398 20.5 -14.001 28.5
s-15.834 14.333 -27.501 19s-26.5 7 -44.5 7c-19.333 0 -37.666 -4.66699 -54.999 -14s-28.666 -23.333 -33.999 -42zM149.995 565.998l67 151l45 -17l-88 -144z" />
    <glyph glyph-name="acircumflex" unicode="&#xe2;" horiz-adv-x="343" 
d="M171 248c-14.667 0 -28.335 -2.00098 -41.002 -6.00098s-23.667 -10.667 -33 -20s-16.666 -21.5 -21.999 -36.5s-8 -33.167 -8 -54.5c0 -26.667 6.83301 -49.5 20.5 -68.5s37.5 -28.5 71.5 -28.5c28.667 0 52.334 7.83301 71.001 23.5s28 38.834 28 69.501v121h-87z
M37.999 413.999c9.33301 25.333 24.9961 45.332 46.9961 59.999s50.333 22 85 22c42 0 74.333 -9.5 97 -28.5s34 -52.833 34 -101.5v-366h-43v44h-1c-16 -22 -34.167 -35.833 -54.5 -41.5s-40.166 -8.5 -59.499 -8.5c-22 0 -40.5 3.83301 -55.5 11.5
s-27.167 17.834 -36.5 30.501s-16.166 27.167 -20.499 43.5s-6.5 33.5 -6.5 51.5c0 18.667 2.16699 37.167 6.5 55.5s11.833 35 22.5 50s24.834 27.167 42.501 36.5s39.834 14 66.501 14h96v78c0 13.333 -1.33301 25.5 -4 36.5s-7.33398 20.5 -14.001 28.5
s-15.834 14.333 -27.501 19s-26.5 7 -44.5 7c-19.333 0 -37.666 -4.66699 -54.999 -14s-28.666 -23.333 -33.999 -42zM172.995 647.998l-110 -97l-19 16l115 123h31l111 -121l-20 -17z" />
    <glyph glyph-name="atilde" unicode="&#xe3;" horiz-adv-x="343" 
d="M171 248c-14.667 0 -28.335 -2.00098 -41.002 -6.00098s-23.667 -10.667 -33 -20s-16.666 -21.5 -21.999 -36.5s-8 -33.167 -8 -54.5c0 -26.667 6.83301 -49.5 20.5 -68.5s37.5 -28.5 71.5 -28.5c28.667 0 52.334 7.83301 71.001 23.5s28 38.834 28 69.501v121h-87z
M37.999 413.999c9.33301 25.333 24.9961 45.332 46.9961 59.999s50.333 22 85 22c42 0 74.333 -9.5 97 -28.5s34 -52.833 34 -101.5v-366h-43v44h-1c-16 -22 -34.167 -35.833 -54.5 -41.5s-40.166 -8.5 -59.499 -8.5c-22 0 -40.5 3.83301 -55.5 11.5
s-27.167 17.834 -36.5 30.501s-16.166 27.167 -20.499 43.5s-6.5 33.5 -6.5 51.5c0 18.667 2.16699 37.167 6.5 55.5s11.833 35 22.5 50s24.834 27.167 42.501 36.5s39.834 14 66.501 14h96v78c0 13.333 -1.33301 25.5 -4 36.5s-7.33398 20.5 -14.001 28.5
s-15.834 14.333 -27.501 19s-26.5 7 -44.5 7c-19.333 0 -37.666 -4.66699 -54.999 -14s-28.666 -23.333 -33.999 -42zM309.995 634.998c-8 -21.333 -19.1689 -37.001 -33.502 -47.001s-28.166 -15 -41.499 -15c-10 0 -19.833 2 -29.5 6s-19.167 8.33301 -28.5 13
s-18.5 9 -27.5 13s-17.833 6 -26.5 6c-8 0 -16.167 -3.16699 -24.5 -9.5s-16.166 -14.833 -23.499 -25.5l-24 15c8 16.667 18.333 30.334 31 41.001s26 16 40 16c10 0 19.667 -2 29 -6s18.5 -8.33301 27.5 -13s18.167 -9 27.5 -13s19.333 -6 30 -6c18.667 0 35.667 13 51 39
z" />
    <glyph glyph-name="adieresis" unicode="&#xe4;" horiz-adv-x="343" 
d="M171 248c-14.667 0 -28.335 -2.00098 -41.002 -6.00098s-23.667 -10.667 -33 -20s-16.666 -21.5 -21.999 -36.5s-8 -33.167 -8 -54.5c0 -26.667 6.83301 -49.5 20.5 -68.5s37.5 -28.5 71.5 -28.5c28.667 0 52.334 7.83301 71.001 23.5s28 38.834 28 69.501v121h-87z
M37.999 413.999c9.33301 25.333 24.9961 45.332 46.9961 59.999s50.333 22 85 22c42 0 74.333 -9.5 97 -28.5s34 -52.833 34 -101.5v-366h-43v44h-1c-16 -22 -34.167 -35.833 -54.5 -41.5s-40.166 -8.5 -59.499 -8.5c-22 0 -40.5 3.83301 -55.5 11.5
s-27.167 17.834 -36.5 30.501s-16.166 27.167 -20.499 43.5s-6.5 33.5 -6.5 51.5c0 18.667 2.16699 37.167 6.5 55.5s11.833 35 22.5 50s24.834 27.167 42.501 36.5s39.834 14 66.501 14h96v78c0 13.333 -1.33301 25.5 -4 36.5s-7.33398 20.5 -14.001 28.5
s-15.834 14.333 -27.501 19s-26.5 7 -44.5 7c-19.333 0 -37.666 -4.66699 -54.999 -14s-28.666 -23.333 -33.999 -42zM223.995 584.998v48h42v-48h-42zM77.9951 584.998v48h42v-48h-42z" />
    <glyph glyph-name="aring" unicode="&#xe5;" horiz-adv-x="343" 
d="M171 248c-14.667 0 -28.335 -2.00098 -41.002 -6.00098s-23.667 -10.667 -33 -20s-16.666 -21.5 -21.999 -36.5s-8 -33.167 -8 -54.5c0 -26.667 6.83301 -49.5 20.5 -68.5s37.5 -28.5 71.5 -28.5c28.667 0 52.334 7.83301 71.001 23.5s28 38.834 28 69.501v121h-87z
M37.999 413.999c9.33301 25.333 24.9961 45.332 46.9961 59.999s50.333 22 85 22c42 0 74.333 -9.5 97 -28.5s34 -52.833 34 -101.5v-366h-43v44h-1c-16 -22 -34.167 -35.833 -54.5 -41.5s-40.166 -8.5 -59.499 -8.5c-22 0 -40.5 3.83301 -55.5 11.5
s-27.167 17.834 -36.5 30.501s-16.166 27.167 -20.499 43.5s-6.5 33.5 -6.5 51.5c0 18.667 2.16699 37.167 6.5 55.5s11.833 35 22.5 50s24.834 27.167 42.501 36.5s39.834 14 66.501 14h96v78c0 13.333 -1.33301 25.5 -4 36.5s-7.33398 20.5 -14.001 28.5
s-15.834 14.333 -27.501 19s-26.5 7 -44.5 7c-19.333 0 -37.666 -4.66699 -54.999 -14s-28.666 -23.333 -33.999 -42zM178.995 549.998c-22 0 -40.833 8 -56.5 24s-23.5 35 -23.5 57c0 23.333 7.83301 42.833 23.5 58.5s34.5 23.5 56.5 23.5s40.833 -7.83301 56.5 -23.5
s23.5 -35.167 23.5 -58.5c0 -22 -7.83301 -41 -23.5 -57s-34.5 -24 -56.5 -24zM178.995 685.998c-14.667 0 -27.167 -5.33301 -37.5 -16s-15.5 -23.667 -15.5 -39s5.16699 -28.333 15.5 -39s22.833 -16 37.5 -16s27.167 5.33301 37.5 16s15.5 23.667 15.5 39
s-5.16699 28.333 -15.5 39s-22.833 16 -37.5 16z" />
    <glyph glyph-name="ae" unicode="&#xe6;" horiz-adv-x="561" 
d="M396 -7c-28.667 0 -53.332 5.49707 -73.999 16.4971s-36.334 26.5 -47.001 46.5c-11.333 -15.333 -22.666 -27.166 -33.999 -35.499s-22.5 -14.5 -33.5 -18.5s-21.5 -6.33301 -31.5 -7s-19 -1 -27 -1c-24 0 -44 3.83301 -60 11.5s-28.833 17.834 -38.5 30.501
s-16.5 27.334 -20.5 44.001s-6 34 -6 52c0 18.667 2.33301 37.167 7 55.5s12.167 34.833 22.5 49.5s24.333 26.667 42 36s39.5 14 65.5 14h96v78c0 26.667 -6.66699 48.667 -20 66s-37.666 26 -72.999 26c-22 0 -40.5 -5.16699 -55.5 -15.5s-25.167 -24.166 -30.5 -41.499
l-41 14c9.33301 25.333 24.666 45.5 45.999 60.5s49 22.5 83 22.5c60 0 98.333 -18.667 115 -56c12 18.667 28.167 32.667 48.5 42s43.5 14 69.5 14c42.667 0 76 -11.5 100 -34.5s36 -55.833 36 -98.5v-116h-233v-25.5v-43.5c0 -15.333 0.166992 -29.333 0.5 -42
s0.833008 -20 1.5 -22c1.33301 -22.667 10.166 -42 26.499 -58s38.5 -24 66.5 -24c29.333 0 51.5 8.66699 66.5 26s23.833 37.666 26.5 60.999l42 -9c-4 -36.667 -17.833 -65.5 -41.5 -86.5s-55.167 -31.5 -94.5 -31.5zM257.002 248.997l-86.999 0.000976562
c-29.333 0 -54 -8.83301 -74 -26.5s-30 -47.834 -30 -90.501c0 -12.667 1.66699 -25 5 -37s8.66602 -22.5 15.999 -31.5s17 -16.167 29 -21.5s26.667 -8 44 -8c28 0 51.167 8 69.5 24s27.5 39 27.5 69v122zM491.003 285.998l-0.00195312 71.999c0 28 -7.5 51.333 -22.5 70
s-39.167 28 -72.5 28c-26.667 0 -47.667 -7.16699 -63 -21.5s-24.666 -33.833 -27.999 -58.5c-0.666992 -1.33301 -1.16699 -6.16602 -1.5 -14.499s-0.666016 -17.5 -0.999023 -27.5s-0.5 -19.5 -0.5 -28.5v-19.5h189z" />
    <glyph glyph-name="ccedilla" unicode="&#xe7;" horiz-adv-x="329" 
d="M175 496c42 0 73.998 -11.001 95.998 -33.001s33 -54 33 -96c-7.33301 -1.33301 -14.666 -2.5 -21.999 -3.5s-14.666 -2.16699 -21.999 -3.5c0.666992 30.667 -6.66602 54.5 -21.999 71.5s-37.333 25.5 -66 25.5c-18 0 -34.167 -4 -48.5 -12s-25.833 -21.667 -34.5 -41
c-5.33301 -12.667 -8.66602 -34.334 -9.99902 -65.001s-2 -66 -2 -106v-13c0 -12 0.166992 -24.333 0.5 -37s0.833008 -25 1.5 -37s1.5 -23 2.5 -33s2.5 -18 4.5 -24c6 -18 16 -32 30 -42s32 -15 54 -15c27.333 0 49.166 7.5 65.499 22.5s24.5 39.167 24.5 72.5l44 -8
c-1.33301 -40 -12.333 -70.167 -33 -90.5s-49.334 -31.833 -86.001 -34.5l-14 -57c15.333 -1.33301 28.166 -4.5 38.499 -9.5s18.5 -11 24.5 -18s10.167 -14.5 12.5 -22.5s3.5 -15.333 3.5 -22c0 -17.333 -6 -33.5 -18 -48.5s-31.333 -22.5 -58 -22.5
c-10 0 -21.667 0.833008 -35 2.5s-26.666 6.16699 -39.999 13.5l10 24c11.333 -5.33301 21.833 -8.66602 31.5 -9.99902s18.5 -2 26.5 -2c14 0 25.667 3.5 35 10.5s14 17.5 14 31.5c0 13.333 -5 24.5 -15 33.5s-25.667 13.5 -47 13.5l-16 12l19 71
c-36 2 -62.833 11.5 -80.5 28.5s-28.834 36.167 -33.501 57.5c-2 8 -3.66699 18.333 -5 31s-2.16602 26.334 -2.49902 41.001l-1 44.5c-0.333008 15 -0.5 29.167 -0.5 42.5c0 18 0.166992 36 0.5 54s1 35 2 51s2.5 30.5 4.5 43.5s4.33301 23.5 7 31.5
c8.66699 23.333 23 42 43 56s48 21 84 21z" />
    <glyph glyph-name="egrave" unicode="&#xe8;" horiz-adv-x="342" 
d="M174 496c40 0 71.166 -10.1641 93.499 -30.4971s34.5 -49.5 36.5 -87.5c0.666992 -7.33301 1 -14.5 1 -21.5v-21.5v-97h-228v-32c0 -21.333 0.5 -43.5 1.5 -66.5s3.5 -40.167 7.5 -51.5c6 -17.333 15.667 -31 29 -41s31.333 -15 54 -15c30 0 52.167 8.66699 66.5 26
s22.5 38.666 24.5 63.999l43 -8c-3.33301 -39.333 -17 -69.333 -41 -90s-55 -31 -93 -31c-20 0 -37.5 2.5 -52.5 7.5s-27.5 11.5 -37.5 19.5s-18 17.167 -24 27.5s-10.333 21.166 -13 32.499c-2 8 -3.66699 18.333 -5 31s-2.16602 26.167 -2.49902 40.5l-1 44.5
c-0.333008 15.333 -0.5 29.666 -0.5 42.999c0 18 0.166992 36 0.5 54s1 35 2 51s2.5 30.667 4.5 44s4.33301 24 7 32c8.66699 23.333 23 41.833 43 55.5s48 20.5 84 20.5zM87.999 404.003c-4.66699 -11.333 -7.5 -28.167 -8.5 -50.5s-1.83301 -48.833 -2.5 -79.5h185v61
c0 15.333 -0.833008 30.333 -2.5 45s-5.66699 27.667 -12 39s-15.5 20.333 -27.5 27s-28 10 -48 10c-16.667 0 -32.667 -3.66699 -48 -11s-27.333 -21 -36 -41zM180.999 556.002l-88 144l45 17l67 -151z" />
    <glyph glyph-name="eacute" unicode="&#xe9;" horiz-adv-x="342" 
d="M174 496c40 0 71.166 -10.1641 93.499 -30.4971s34.5 -49.5 36.5 -87.5c0.666992 -7.33301 1 -14.5 1 -21.5v-21.5v-97h-228v-32c0 -21.333 0.5 -43.5 1.5 -66.5s3.5 -40.167 7.5 -51.5c6 -17.333 15.667 -31 29 -41s31.333 -15 54 -15c30 0 52.167 8.66699 66.5 26
s22.5 38.666 24.5 63.999l43 -8c-3.33301 -39.333 -17 -69.333 -41 -90s-55 -31 -93 -31c-20 0 -37.5 2.5 -52.5 7.5s-27.5 11.5 -37.5 19.5s-18 17.167 -24 27.5s-10.333 21.166 -13 32.499c-2 8 -3.66699 18.333 -5 31s-2.16602 26.167 -2.49902 40.5l-1 44.5
c-0.333008 15.333 -0.5 29.666 -0.5 42.999c0 18 0.166992 36 0.5 54s1 35 2 51s2.5 30.667 4.5 44s4.33301 24 7 32c8.66699 23.333 23 41.833 43 55.5s48 20.5 84 20.5zM87.999 404.003c-4.66699 -11.333 -7.5 -28.167 -8.5 -50.5s-1.83301 -48.833 -2.5 -79.5h185v61
c0 15.333 -0.833008 30.333 -2.5 45s-5.66699 27.667 -12 39s-15.5 20.333 -27.5 27s-28 10 -48 10c-16.667 0 -32.667 -3.66699 -48 -11s-27.333 -21 -36 -41zM148.999 566.002l67 151l45 -17l-88 -144z" />
    <glyph glyph-name="ecircumflex" unicode="&#xea;" horiz-adv-x="342" 
d="M174 496c40 0 71.166 -10.1641 93.499 -30.4971s34.5 -49.5 36.5 -87.5c0.666992 -7.33301 1 -14.5 1 -21.5v-21.5v-97h-228v-32c0 -21.333 0.5 -43.5 1.5 -66.5s3.5 -40.167 7.5 -51.5c6 -17.333 15.667 -31 29 -41s31.333 -15 54 -15c30 0 52.167 8.66699 66.5 26
s22.5 38.666 24.5 63.999l43 -8c-3.33301 -39.333 -17 -69.333 -41 -90s-55 -31 -93 -31c-20 0 -37.5 2.5 -52.5 7.5s-27.5 11.5 -37.5 19.5s-18 17.167 -24 27.5s-10.333 21.166 -13 32.499c-2 8 -3.66699 18.333 -5 31s-2.16602 26.167 -2.49902 40.5l-1 44.5
c-0.333008 15.333 -0.5 29.666 -0.5 42.999c0 18 0.166992 36 0.5 54s1 35 2 51s2.5 30.667 4.5 44s4.33301 24 7 32c8.66699 23.333 23 41.833 43 55.5s48 20.5 84 20.5zM87.999 404.003c-4.66699 -11.333 -7.5 -28.167 -8.5 -50.5s-1.83301 -48.833 -2.5 -79.5h185v61
c0 15.333 -0.833008 30.333 -2.5 45s-5.66699 27.667 -12 39s-15.5 20.333 -27.5 27s-28 10 -48 10c-16.667 0 -32.667 -3.66699 -48 -11s-27.333 -21 -36 -41zM170.999 648.002l-110 -97l-19 16l115 123h31l111 -121l-20 -17z" />
    <glyph glyph-name="edieresis" unicode="&#xeb;" horiz-adv-x="342" 
d="M174 496c40 0 71.166 -10.1641 93.499 -30.4971s34.5 -49.5 36.5 -87.5c0.666992 -7.33301 1 -14.5 1 -21.5v-21.5v-97h-228v-32c0 -21.333 0.5 -43.5 1.5 -66.5s3.5 -40.167 7.5 -51.5c6 -17.333 15.667 -31 29 -41s31.333 -15 54 -15c30 0 52.167 8.66699 66.5 26
s22.5 38.666 24.5 63.999l43 -8c-3.33301 -39.333 -17 -69.333 -41 -90s-55 -31 -93 -31c-20 0 -37.5 2.5 -52.5 7.5s-27.5 11.5 -37.5 19.5s-18 17.167 -24 27.5s-10.333 21.166 -13 32.499c-2 8 -3.66699 18.333 -5 31s-2.16602 26.167 -2.49902 40.5l-1 44.5
c-0.333008 15.333 -0.5 29.666 -0.5 42.999c0 18 0.166992 36 0.5 54s1 35 2 51s2.5 30.667 4.5 44s4.33301 24 7 32c8.66699 23.333 23 41.833 43 55.5s48 20.5 84 20.5zM87.999 404.003c-4.66699 -11.333 -7.5 -28.167 -8.5 -50.5s-1.83301 -48.833 -2.5 -79.5h185v61
c0 15.333 -0.833008 30.333 -2.5 45s-5.66699 27.667 -12 39s-15.5 20.333 -27.5 27s-28 10 -48 10c-16.667 0 -32.667 -3.66699 -48 -11s-27.333 -21 -36 -41zM220.999 585.002v48h42v-48h-42zM74.999 585.002v48h42v-48h-42z" />
    <glyph glyph-name="igrave" unicode="&#xec;" horiz-adv-x="155" 
d="M55 0v489h43v-489h-43zM66 556l-88 144l45 17l67 -151z" />
    <glyph glyph-name="iacute" unicode="&#xed;" horiz-adv-x="155" 
d="M55 0v489h43v-489h-43zM61 566l67 151l45 -17l-88 -144z" />
    <glyph glyph-name="icircumflex" unicode="&#xee;" horiz-adv-x="217" 
d="M85 0v489h43v-489h-43zM109 648l-110 -97l-19 16l115 123h31l111 -121l-20 -17z" />
    <glyph glyph-name="idieresis" unicode="&#xef;" horiz-adv-x="168" 
d="M63 0v489h43v-489h-43zM136 585v48h42v-48h-42zM-10 585v48h42v-48h-42z" />
    <glyph glyph-name="eth" unicode="&#xf0;" horiz-adv-x="353" 
d="M173 476c6 0 13.335 -0.666016 22.002 -1.99902s17.667 -3.83301 27 -7.5s18.5 -8.83398 27.5 -15.501s16.5 -15 22.5 -25h1c0 9.33301 -0.166992 18.5 -0.5 27.5s-0.5 18.167 -0.5 27.5c0 20 -1.5 39.667 -4.5 59s-7.83301 36.666 -14.5 51.999l-37.5 -26l-38.5 -26
l-17 25l79 55c-6.66699 10 -15.334 19.667 -26.001 29c-12 11.333 -27.333 21 -46 29s-39.334 13.667 -62.001 17l5 37c31.333 -3.33301 58 -9.83301 80 -19.5s39.667 -20.5 53 -32.5c6 -5.33301 11.667 -11 17 -17s10 -12.333 14 -19l62 43l18 -24l-65 -45
c9.33301 -21.333 15.666 -45.833 18.999 -73.5s5 -60.167 5 -97.5l2 -165v-60.5c0 -17 -0.333008 -31.833 -1 -44.5s-1.5 -24 -2.5 -34s-1.83301 -20 -2.5 -30c-2 -23.333 -7.5 -42.666 -16.5 -57.999s-20 -27.666 -33 -36.999s-27.167 -15.833 -42.5 -19.5
s-30.333 -5.5 -45 -5.5c-40 0 -69.667 9 -89 27s-32.666 39.667 -39.999 65c-2 6.66699 -3.5 15.834 -4.5 27.501s-1.83301 24.5 -2.5 38.5s-1.16699 28.5 -1.5 43.5s-0.5 29.167 -0.5 42.5v25c0.666992 29.333 2 55.166 4 77.499s5.66699 41.166 11 56.499
c8 22 22.333 40.667 43 56s47.667 23.333 81 24zM176.002 437.001c-41.333 0 -70.666 -19.334 -87.999 -58.001c-2 -6 -3.66699 -12.333 -5 -19s-2.33301 -14.667 -3 -24s-1.33398 -20.166 -2.00098 -32.499s-1 -27.166 -1 -44.499v-40c0 -32 0.5 -58.833 1.5 -80.5
s3.5 -38.5 7.5 -50.5c6 -18 16.167 -32 30.5 -42s33.833 -15 58.5 -15c22 0 40.833 6.16699 56.5 18.5s26.5 29.166 32.5 50.499c2.66699 11.333 4.5 29 5.5 53s1.5 50 1.5 78v72c0 12.667 -0.333008 24.834 -1 36.501s-2.66699 22.167 -6 31.5
c-5.33301 19.333 -14.833 35.166 -28.5 47.499s-33.5 18.5 -59.5 18.5z" />
    <glyph glyph-name="ntilde" unicode="&#xf1;" horiz-adv-x="357" 
d="M85 435l2.00195 -0.00195312c11.333 19.333 26.5 34.333 45.5 45s39.833 16 62.5 16s41.667 -3.33301 57 -10s27.666 -16 36.999 -28s16 -26 20 -42s6 -33.333 6 -52v-364h-44v351c0 14 -1.33301 27.333 -4 40s-7.33398 23.5 -14.001 32.5s-15.667 16.167 -27 21.5
s-25.333 8 -42 8c-16 0 -30.167 -3.16699 -42.5 -9.5s-22.833 -14.666 -31.5 -24.999s-15.167 -22.166 -19.5 -35.499s-6.5 -27 -6.5 -41v-342h-42v489h43v-54zM304.002 634.998c-8 -21.333 -19.1689 -37.001 -33.502 -47.001s-28.166 -15 -41.499 -15
c-10 0 -19.833 2 -29.5 6s-19.167 8.33301 -28.5 13s-18.5 9 -27.5 13s-17.833 6 -26.5 6c-8 0 -16.167 -3.16699 -24.5 -9.5s-16.166 -14.833 -23.499 -25.5l-24 15c8 16.667 18.333 30.334 31 41.001s26 16 40 16c10 0 19.667 -2 29 -6s18.5 -8.33301 27.5 -13
s18.167 -9 27.5 -13s19.333 -6 30 -6c18.667 0 35.667 13 51 39z" />
    <glyph glyph-name="ograve" unicode="&#xf2;" horiz-adv-x="349" 
d="M176 496c36.667 0 64.667 -6.99902 84 -20.999s32.666 -31.667 39.999 -53c3.33301 -8.66699 5.83301 -20.167 7.5 -34.5s3 -30 4 -47s1.5 -34.333 1.5 -52v-49.5v-15c0 -17.333 -0.166992 -35 -0.5 -53s-1.5 -37.667 -3.5 -59c-2 -23.333 -7.5 -42.666 -16.5 -57.999
s-20 -27.5 -33 -36.5s-27.167 -15.333 -42.5 -19s-30.333 -5.5 -45 -5.5c-40 0 -69.833 8.16699 -89.5 24.5s-33.167 37.166 -40.5 62.499c-2 8 -3.66699 18.167 -5 30.5s-2.33301 25.833 -3 40.5s-1 29.667 -1 45v43c0 18 0.166992 35.833 0.5 53.5s1 34.5 2 50.5
s2.5 30.5 4.5 43.5s4.33301 23.5 7 31.5c8.66699 23.333 23.334 42.166 44.001 56.499s49 21.5 85 21.5zM175 457.001c-17.333 0 -34.001 -3.50195 -50.001 -10.502s-28 -20.5 -36 -40.5c-5.33301 -13.333 -8.66602 -34.166 -9.99902 -62.499s-2 -61.166 -2 -98.499v-25
c0 -32 0.5 -59 1.5 -81s3.5 -39 7.5 -51c6 -18 16.167 -31.833 30.5 -41.5s33.833 -14.5 58.5 -14.5c22 0 41 6 57 18s26.667 28.667 32 50c2.66699 11.333 4.5 29.333 5.5 54s1.5 51 1.5 79c0 14.667 -0.166992 30.334 -0.5 47.001l-1 48
c-0.333008 15.333 -1.16602 29.166 -2.49902 41.499s-3 21.833 -5 28.5c-6 20 -16.833 34.833 -32.5 44.5s-33.834 14.5 -54.501 14.5zM173.999 555.999l-88 144l45 17l67 -151z" />
    <glyph glyph-name="oacute" unicode="&#xf3;" horiz-adv-x="349" 
d="M176 496c36.667 0 64.667 -6.99902 84 -20.999s32.666 -31.667 39.999 -53c3.33301 -8.66699 5.83301 -20.167 7.5 -34.5s3 -30 4 -47s1.5 -34.333 1.5 -52v-49.5v-15c0 -17.333 -0.166992 -35 -0.5 -53s-1.5 -37.667 -3.5 -59c-2 -23.333 -7.5 -42.666 -16.5 -57.999
s-20 -27.5 -33 -36.5s-27.167 -15.333 -42.5 -19s-30.333 -5.5 -45 -5.5c-40 0 -69.833 8.16699 -89.5 24.5s-33.167 37.166 -40.5 62.499c-2 8 -3.66699 18.167 -5 30.5s-2.33301 25.833 -3 40.5s-1 29.667 -1 45v43c0 18 0.166992 35.833 0.5 53.5s1 34.5 2 50.5
s2.5 30.5 4.5 43.5s4.33301 23.5 7 31.5c8.66699 23.333 23.334 42.166 44.001 56.499s49 21.5 85 21.5zM175 457.001c-17.333 0 -34.001 -3.50195 -50.001 -10.502s-28 -20.5 -36 -40.5c-5.33301 -13.333 -8.66602 -34.166 -9.99902 -62.499s-2 -61.166 -2 -98.499v-25
c0 -32 0.5 -59 1.5 -81s3.5 -39 7.5 -51c6 -18 16.167 -31.833 30.5 -41.5s33.833 -14.5 58.5 -14.5c22 0 41 6 57 18s26.667 28.667 32 50c2.66699 11.333 4.5 29.333 5.5 54s1.5 51 1.5 79c0 14.667 -0.166992 30.334 -0.5 47.001l-1 48
c-0.333008 15.333 -1.16602 29.166 -2.49902 41.499s-3 21.833 -5 28.5c-6 20 -16.833 34.833 -32.5 44.5s-33.834 14.5 -54.501 14.5zM145.999 565.999l67 151l45 -17l-88 -144z" />
    <glyph glyph-name="ocircumflex" unicode="&#xf4;" horiz-adv-x="349" 
d="M176 496c36.667 0 64.667 -6.99902 84 -20.999s32.666 -31.667 39.999 -53c3.33301 -8.66699 5.83301 -20.167 7.5 -34.5s3 -30 4 -47s1.5 -34.333 1.5 -52v-49.5v-15c0 -17.333 -0.166992 -35 -0.5 -53s-1.5 -37.667 -3.5 -59c-2 -23.333 -7.5 -42.666 -16.5 -57.999
s-20 -27.5 -33 -36.5s-27.167 -15.333 -42.5 -19s-30.333 -5.5 -45 -5.5c-40 0 -69.833 8.16699 -89.5 24.5s-33.167 37.166 -40.5 62.499c-2 8 -3.66699 18.167 -5 30.5s-2.33301 25.833 -3 40.5s-1 29.667 -1 45v43c0 18 0.166992 35.833 0.5 53.5s1 34.5 2 50.5
s2.5 30.5 4.5 43.5s4.33301 23.5 7 31.5c8.66699 23.333 23.334 42.166 44.001 56.499s49 21.5 85 21.5zM175 457.001c-17.333 0 -34.001 -3.50195 -50.001 -10.502s-28 -20.5 -36 -40.5c-5.33301 -13.333 -8.66602 -34.166 -9.99902 -62.499s-2 -61.166 -2 -98.499v-25
c0 -32 0.5 -59 1.5 -81s3.5 -39 7.5 -51c6 -18 16.167 -31.833 30.5 -41.5s33.833 -14.5 58.5 -14.5c22 0 41 6 57 18s26.667 28.667 32 50c2.66699 11.333 4.5 29.333 5.5 54s1.5 51 1.5 79c0 14.667 -0.166992 30.334 -0.5 47.001l-1 48
c-0.333008 15.333 -1.16602 29.166 -2.49902 41.499s-3 21.833 -5 28.5c-6 20 -16.833 34.833 -32.5 44.5s-33.834 14.5 -54.501 14.5zM176.999 647.999l-110 -97l-19 16l115 123h31l111 -121l-20 -17z" />
    <glyph glyph-name="otilde" unicode="&#xf5;" horiz-adv-x="349" 
d="M176 496c36.667 0 64.667 -6.99902 84 -20.999s32.666 -31.667 39.999 -53c3.33301 -8.66699 5.83301 -20.167 7.5 -34.5s3 -30 4 -47s1.5 -34.333 1.5 -52v-49.5v-15c0 -17.333 -0.166992 -35 -0.5 -53s-1.5 -37.667 -3.5 -59c-2 -23.333 -7.5 -42.666 -16.5 -57.999
s-20 -27.5 -33 -36.5s-27.167 -15.333 -42.5 -19s-30.333 -5.5 -45 -5.5c-40 0 -69.833 8.16699 -89.5 24.5s-33.167 37.166 -40.5 62.499c-2 8 -3.66699 18.167 -5 30.5s-2.33301 25.833 -3 40.5s-1 29.667 -1 45v43c0 18 0.166992 35.833 0.5 53.5s1 34.5 2 50.5
s2.5 30.5 4.5 43.5s4.33301 23.5 7 31.5c8.66699 23.333 23.334 42.166 44.001 56.499s49 21.5 85 21.5zM175 457.001c-17.333 0 -34.001 -3.50195 -50.001 -10.502s-28 -20.5 -36 -40.5c-5.33301 -13.333 -8.66602 -34.166 -9.99902 -62.499s-2 -61.166 -2 -98.499v-25
c0 -32 0.5 -59 1.5 -81s3.5 -39 7.5 -51c6 -18 16.167 -31.833 30.5 -41.5s33.833 -14.5 58.5 -14.5c22 0 41 6 57 18s26.667 28.667 32 50c2.66699 11.333 4.5 29.333 5.5 54s1.5 51 1.5 79c0 14.667 -0.166992 30.334 -0.5 47.001l-1 48
c-0.333008 15.333 -1.16602 29.166 -2.49902 41.499s-3 21.833 -5 28.5c-6 20 -16.833 34.833 -32.5 44.5s-33.834 14.5 -54.501 14.5zM311.999 634.999c-8 -21.333 -19.1689 -37.001 -33.502 -47.001s-28.166 -15 -41.499 -15c-10 0 -19.833 2 -29.5 6
s-19.167 8.33301 -28.5 13s-18.5 9 -27.5 13s-17.833 6 -26.5 6c-8 0 -16.167 -3.16699 -24.5 -9.5s-16.166 -14.833 -23.499 -25.5l-24 15c8 16.667 18.333 30.334 31 41.001s26 16 40 16c10 0 19.667 -2 29 -6s18.5 -8.33301 27.5 -13s18.167 -9 27.5 -13s19.333 -6 30 -6
c18.667 0 35.667 13 51 39z" />
    <glyph glyph-name="odieresis" unicode="&#xf6;" horiz-adv-x="349" 
d="M176 496c36.667 0 64.667 -6.99902 84 -20.999s32.666 -31.667 39.999 -53c3.33301 -8.66699 5.83301 -20.167 7.5 -34.5s3 -30 4 -47s1.5 -34.333 1.5 -52v-49.5v-15c0 -17.333 -0.166992 -35 -0.5 -53s-1.5 -37.667 -3.5 -59c-2 -23.333 -7.5 -42.666 -16.5 -57.999
s-20 -27.5 -33 -36.5s-27.167 -15.333 -42.5 -19s-30.333 -5.5 -45 -5.5c-40 0 -69.833 8.16699 -89.5 24.5s-33.167 37.166 -40.5 62.499c-2 8 -3.66699 18.167 -5 30.5s-2.33301 25.833 -3 40.5s-1 29.667 -1 45v43c0 18 0.166992 35.833 0.5 53.5s1 34.5 2 50.5
s2.5 30.5 4.5 43.5s4.33301 23.5 7 31.5c8.66699 23.333 23.334 42.166 44.001 56.499s49 21.5 85 21.5zM175 457.001c-17.333 0 -34.001 -3.50195 -50.001 -10.502s-28 -20.5 -36 -40.5c-5.33301 -13.333 -8.66602 -34.166 -9.99902 -62.499s-2 -61.166 -2 -98.499v-25
c0 -32 0.5 -59 1.5 -81s3.5 -39 7.5 -51c6 -18 16.167 -31.833 30.5 -41.5s33.833 -14.5 58.5 -14.5c22 0 41 6 57 18s26.667 28.667 32 50c2.66699 11.333 4.5 29.333 5.5 54s1.5 51 1.5 79c0 14.667 -0.166992 30.334 -0.5 47.001l-1 48
c-0.333008 15.333 -1.16602 29.166 -2.49902 41.499s-3 21.833 -5 28.5c-6 20 -16.833 34.833 -32.5 44.5s-33.834 14.5 -54.501 14.5zM225.999 584.999v48h42v-48h-42zM79.999 584.999v48h42v-48h-42z" />
    <glyph glyph-name="divide" unicode="&#xf7;" horiz-adv-x="353" 
d="M212 440c0 -10 -3.5 -18.5 -10.5 -25.5s-15.167 -10.5 -24.5 -10.5s-17.5 3.5 -24.5 10.5s-10.5 15.5 -10.5 25.5c0 9.33301 3.5 17.5 10.5 24.5s15.167 10.5 24.5 10.5s17.5 -3.5 24.5 -10.5s10.5 -15.167 10.5 -24.5zM16 275v37h319v-37h-319zM177 176
c9.33301 0 17.5 -3.5 24.5 -10.5s10.5 -15.167 10.5 -24.5c0 -10 -3.5 -18.667 -10.5 -26s-15.167 -11 -24.5 -11s-17.5 3.66699 -24.5 11s-10.5 16 -10.5 26c0 9.33301 3.5 17.5 10.5 24.5s15.167 10.5 24.5 10.5z" />
    <glyph glyph-name="oslash" unicode="&#xf8;" horiz-adv-x="349" 
d="M176 496c21.333 0 39.5 -2.5 54.5 -7.5s27.833 -11.833 38.5 -20.5l17 34l25 -13l-22 -44c4.66699 -8 8.33398 -15.667 11.001 -23c3.33301 -8.66699 5.83301 -20.167 7.5 -34.5s3 -30 4 -47s1.5 -34.333 1.5 -52v-49.5v-15c0 -17.333 -0.166992 -35 -0.5 -53
s-1.5 -37.667 -3.5 -59c-2 -23.333 -7.5 -42.666 -16.5 -57.999s-20 -27.5 -33 -36.5s-27.167 -15.333 -42.5 -19s-30.333 -5.5 -45 -5.5c-22.667 0 -41.834 2.5 -57.501 7.5s-28.834 12.167 -39.501 21.5l-16 -32l-22 12l21 41c-3.33301 5.33301 -6.5 11 -9.5 17
s-5.16699 12.667 -6.5 20c-2 8 -3.66699 18.167 -5 30.5s-2.33301 25.833 -3 40.5s-1 29.667 -1 45v43c0 18 0.166992 35.833 0.5 53.5s1 34.5 2 50.5s2.5 30.5 4.5 43.5s4.33301 23.5 7 31.5c8.66699 23.333 23.334 42.166 44.001 56.499s49 21.5 85 21.5zM263 393
l-83.001 -163.998l-83 -164c14.667 -22 40.667 -33 78 -33c22 0 41 6 57 18s26.667 28.667 32 50c2.66699 11.333 4.5 29.333 5.5 54s1.5 51 1.5 79c0 14 -0.166992 29 -0.5 45s-0.666016 31.167 -0.999023 45.5s-1 27.666 -2 39.999s-2.5 22.166 -4.5 29.499z
M174.999 457.002c-17.333 0 -34.002 -3.50098 -50.002 -10.501s-28 -20.5 -36 -40.5c-5.33301 -13.333 -8.66602 -34.166 -9.99902 -62.499s-2 -61.166 -2 -98.499v-25c0 -29.333 0.333008 -54.333 1 -75s2.66699 -37.334 6 -50.001l81.5 165l82.5 165
c-8.66699 11.333 -19.167 19.5 -31.5 24.5s-26.166 7.5 -41.499 7.5z" />
    <glyph glyph-name="ugrave" unicode="&#xf9;" horiz-adv-x="358" 
d="M273 55l-2.99609 0.00195312c-11.333 -19.333 -26.333 -34.5 -45 -45.5s-39.667 -16.5 -63 -16.5c-22.667 0 -41.667 3.5 -57 10.5s-27.5 16.5 -36.5 28.5s-15.5 26 -19.5 42s-6 33 -6 51v365h44v-351c0 -15.333 1.33301 -29.333 4 -42s7.16699 -23.5 13.5 -32.5
s15.166 -16.167 26.499 -21.5s25.666 -8 42.999 -8c15.333 0 29.166 3.16699 41.499 9.5s22.666 14.666 30.999 24.999s14.833 22.166 19.5 35.499s7 27 7 41v344h43v-490h-43v55zM185.004 556.002l-88 144l45 17l67 -151z" />
    <glyph glyph-name="uacute" unicode="&#xfa;" horiz-adv-x="358" 
d="M273 55l-2.99609 0.00195312c-11.333 -19.333 -26.333 -34.5 -45 -45.5s-39.667 -16.5 -63 -16.5c-22.667 0 -41.667 3.5 -57 10.5s-27.5 16.5 -36.5 28.5s-15.5 26 -19.5 42s-6 33 -6 51v365h44v-351c0 -15.333 1.33301 -29.333 4 -42s7.16699 -23.5 13.5 -32.5
s15.166 -16.167 26.499 -21.5s25.666 -8 42.999 -8c15.333 0 29.166 3.16699 41.499 9.5s22.666 14.666 30.999 24.999s14.833 22.166 19.5 35.499s7 27 7 41v344h43v-490h-43v55zM175.004 566.002l67 151l45 -17l-88 -144z" />
    <glyph glyph-name="ucircumflex" unicode="&#xfb;" horiz-adv-x="358" 
d="M273 55l-2.99609 0.00195312c-11.333 -19.333 -26.333 -34.5 -45 -45.5s-39.667 -16.5 -63 -16.5c-22.667 0 -41.667 3.5 -57 10.5s-27.5 16.5 -36.5 28.5s-15.5 26 -19.5 42s-6 33 -6 51v365h44v-351c0 -15.333 1.33301 -29.333 4 -42s7.16699 -23.5 13.5 -32.5
s15.166 -16.167 26.499 -21.5s25.666 -8 42.999 -8c15.333 0 29.166 3.16699 41.499 9.5s22.666 14.666 30.999 24.999s14.833 22.166 19.5 35.499s7 27 7 41v344h43v-490h-43v55zM180.004 648.002l-110 -97l-19 16l115 123h31l111 -121l-20 -17z" />
    <glyph glyph-name="udieresis" unicode="&#xfc;" horiz-adv-x="358" 
d="M273 55l-2.99609 0.00195312c-11.333 -19.333 -26.333 -34.5 -45 -45.5s-39.667 -16.5 -63 -16.5c-22.667 0 -41.667 3.5 -57 10.5s-27.5 16.5 -36.5 28.5s-15.5 26 -19.5 42s-6 33 -6 51v365h44v-351c0 -15.333 1.33301 -29.333 4 -42s7.16699 -23.5 13.5 -32.5
s15.166 -16.167 26.499 -21.5s25.666 -8 42.999 -8c15.333 0 29.166 3.16699 41.499 9.5s22.666 14.666 30.999 24.999s14.833 22.166 19.5 35.499s7 27 7 41v344h43v-490h-43v55zM225.004 585.002v48h42v-48h-42zM79.0039 585.002v48h42v-48h-42z" />
    <glyph glyph-name="yacute" unicode="&#xfd;" horiz-adv-x="315" 
d="M158 68c9.33301 34 18.332 69.168 26.999 105.501l26 106.5l55 209h44l-147 -549c-5.33301 -21.333 -11.333 -41 -18 -59c-7.33301 -22.667 -19.166 -41.5 -35.499 -56.5s-38.166 -22.5 -65.499 -22.5h-15v38h12c21.333 0 37.666 7.66699 48.999 23
s20.333 36.666 27 63.999l9.5 37.5l9.5 37.5l-65.5 243l-64.5 244h46l52 -210l52 -211h2zM137.999 566.001l67 151l45 -17l-88 -144z" />
    <glyph glyph-name="thorn" unicode="&#xfe;" horiz-adv-x="349" 
d="M178 454c-30 0 -53.999 -9.66797 -71.999 -29.001s-27 -44.666 -27 -75.999v-202c0 -14.667 2 -28.834 6 -42.501s10 -25.667 18 -36s18 -18.666 30 -24.999s26 -9.5 42 -9.5c20 0 37.667 5.33301 53 16s25.666 26.334 30.999 47.001c2 6.66699 3.5 15.834 4.5 27.501
s1.83301 24.667 2.5 39s1 29.333 1 45v46.5c0 31.333 -0.5 59.166 -1.5 83.499s-3.16699 42.166 -6.5 53.499c-6.66699 23.333 -16.667 39.5 -30 48.5s-30.333 13.5 -51 13.5zM188.001 494.999c12 0 24.6699 -1.66895 38.0029 -5.00195s25.666 -9.33301 36.999 -18
s21.166 -20.5 29.499 -35.5s13.5 -34.167 15.5 -57.5c2 -21.333 3 -41.833 3 -61.5v-57.5v-14c0 -39.333 -0.5 -74.666 -1.5 -105.999s-5.83301 -57.666 -14.5 -78.999c-8 -19.333 -20.667 -35.5 -38 -48.5s-42.666 -19.5 -75.999 -19.5c-14.667 0 -27.5 1.83301 -38.5 5.5
s-20.333 8.16699 -28 13.5s-14.167 11.333 -19.5 18l-14 18h-2v-242h-42v889h42v-253h2c11.333 16.667 25.166 29.667 41.499 39s38.166 14 65.499 14z" />
    <glyph glyph-name="ydieresis" unicode="&#xff;" horiz-adv-x="315" 
d="M158 68c9.33301 34 18.332 69.168 26.999 105.501l26 106.5l55 209h44l-147 -549c-5.33301 -21.333 -11.333 -41 -18 -59c-7.33301 -22.667 -19.166 -41.5 -35.499 -56.5s-38.166 -22.5 -65.499 -22.5h-15v38h12c21.333 0 37.666 7.66699 48.999 23
s20.333 36.666 27 63.999l9.5 37.5l9.5 37.5l-65.5 243l-64.5 244h46l52 -210l52 -211h2zM64.999 585.001v48h42v-48h-42zM210.999 585.001v48h42v-48h-42z" />
    <glyph glyph-name="Amacron" unicode="&#x100;" horiz-adv-x="376" 
d="M325 0l-40 182h-194l-40 -182h-41l153 696h49l156 -696h-43zM187 634l-37 -174l-52 -238h179l-52 240l-36 172h-2zM84 751v38h207v-38h-207z" />
    <glyph glyph-name="amacron" unicode="&#x101;" horiz-adv-x="343" 
d="M171 248c-14.667 0 -28.335 -2.00098 -41.002 -6.00098s-23.667 -10.667 -33 -20s-16.666 -21.5 -21.999 -36.5s-8 -33.167 -8 -54.5c0 -26.667 6.83301 -49.5 20.5 -68.5s37.5 -28.5 71.5 -28.5c28.667 0 52.334 7.83301 71.001 23.5s28 38.834 28 69.501v121h-87z
M37.999 413.999c9.33301 25.333 24.9961 45.332 46.9961 59.999s50.333 22 85 22c42 0 74.333 -9.5 97 -28.5s34 -52.833 34 -101.5v-366h-43v44h-1c-16 -22 -34.167 -35.833 -54.5 -41.5s-40.166 -8.5 -59.499 -8.5c-22 0 -40.5 3.83301 -55.5 11.5
s-27.167 17.834 -36.5 30.501s-16.166 27.167 -20.499 43.5s-6.5 33.5 -6.5 51.5c0 18.667 2.16699 37.167 6.5 55.5s11.833 35 22.5 50s24.834 27.167 42.501 36.5s39.834 14 66.501 14h96v78c0 13.333 -1.33301 25.5 -4 36.5s-7.33398 20.5 -14.001 28.5
s-15.834 14.333 -27.501 19s-26.5 7 -44.5 7c-19.333 0 -37.666 -4.66699 -54.999 -14s-28.666 -23.333 -33.999 -42zM68.9951 588.998v39h207v-39h-207z" />
    <glyph glyph-name="Abreve" unicode="&#x102;" horiz-adv-x="376" 
d="M325 0l-40 182h-194l-40 -182h-41l153 696h49l156 -696h-43zM187 634l-37 -174l-52 -238h179l-52 240l-36 172h-2zM104 849c3.33301 -21.333 12.8311 -39.5 28.498 -54.5s33.834 -22.5 54.501 -22.5c21.333 0 39.833 7 55.5 21s25.167 32.667 28.5 56h37
c-2 -12.667 -5.66699 -25.5 -11 -38.5s-13 -25 -23 -36s-22.167 -20 -36.5 -27s-31.166 -10.5 -50.499 -10.5c-20 0 -37.167 3.5 -51.5 10.5s-26.333 16 -36 27s-17 23 -22 36s-8.16699 25.833 -9.5 38.5h36z" />
    <glyph glyph-name="abreve" unicode="&#x103;" horiz-adv-x="343" 
d="M171 248c-14.667 0 -28.335 -2.00098 -41.002 -6.00098s-23.667 -10.667 -33 -20s-16.666 -21.5 -21.999 -36.5s-8 -33.167 -8 -54.5c0 -26.667 6.83301 -49.5 20.5 -68.5s37.5 -28.5 71.5 -28.5c28.667 0 52.334 7.83301 71.001 23.5s28 38.834 28 69.501v121h-87z
M37.999 413.999c9.33301 25.333 24.9961 45.332 46.9961 59.999s50.333 22 85 22c42 0 74.333 -9.5 97 -28.5s34 -52.833 34 -101.5v-366h-43v44h-1c-16 -22 -34.167 -35.833 -54.5 -41.5s-40.166 -8.5 -59.499 -8.5c-22 0 -40.5 3.83301 -55.5 11.5
s-27.167 17.834 -36.5 30.501s-16.166 27.167 -20.499 43.5s-6.5 33.5 -6.5 51.5c0 18.667 2.16699 37.167 6.5 55.5s11.833 35 22.5 50s24.834 27.167 42.501 36.5s39.834 14 66.501 14h96v78c0 13.333 -1.33301 25.5 -4 36.5s-7.33398 20.5 -14.001 28.5
s-15.834 14.333 -27.501 19s-26.5 7 -44.5 7c-19.333 0 -37.666 -4.66699 -54.999 -14s-28.666 -23.333 -33.999 -42zM91.9951 668.998c3.33301 -21.333 12.8301 -39.333 28.4971 -54s33.834 -22 54.501 -22c21.333 0 39.833 6.83301 55.5 20.5s25.167 32.167 28.5 55.5h36
c-1.33301 -12.667 -4.66602 -25.5 -9.99902 -38.5s-13 -25 -23 -36s-22.167 -20 -36.5 -27s-31.166 -10.5 -50.499 -10.5c-20 0 -37.167 3.5 -51.5 10.5s-26.333 16 -36 27s-17 23.167 -22 36.5s-8.16699 26 -9.5 38h36z" />
    <glyph glyph-name="Aogonek" unicode="&#x104;" horiz-adv-x="376" 
d="M287 -93c0 12.667 2.83398 27.1689 8.50098 43.502s15.167 33.166 28.5 50.499l-39 181h-194l-40 -182h-41l153 696h49l156 -696h-10c-11.333 -14 -20.333 -29 -27 -45s-10 -29.667 -10 -41c0 -19.333 4.16699 -32.833 12.5 -40.5s18.833 -11.5 31.5 -11.5
c7.33301 0 15.166 1 23.499 3s16.833 6 25.5 12l11 -30c-8 -6 -18 -11 -30 -15s-23.667 -6 -35 -6c-22 0 -39.667 7.66699 -53 23s-20 34.666 -20 57.999zM187.001 634.002l-37 -174l-52 -238h179l-52 240l-36 172h-2z" />
    <glyph glyph-name="aogonek" unicode="&#x105;" horiz-adv-x="343" 
d="M221 -93c0 12.667 2.83008 27.167 8.49707 43.5s15.167 32.833 28.5 49.5v44h-1c-16 -22 -34.167 -35.833 -54.5 -41.5s-40.166 -8.5 -59.499 -8.5c-22 0 -40.5 3.83301 -55.5 11.5s-27.167 17.834 -36.5 30.501s-16.166 27.167 -20.499 43.5s-6.5 33.5 -6.5 51.5
c0 18.667 2.16699 37.167 6.5 55.5s11.833 35 22.5 50s24.834 27.167 42.501 36.5s39.834 14 66.501 14h96v78c0 13.333 -1.33301 25.5 -4 36.5s-7.33398 20.5 -14.001 28.5s-15.834 14.333 -27.501 19s-26.5 7 -44.5 7c-19.333 0 -37.666 -4.66699 -54.999 -14
s-28.666 -23.333 -33.999 -42l-41 14c9.33301 25.333 25 45.333 47 60s50.333 22 85 22c42 0 74.333 -9.5 97 -28.5s34 -52.833 34 -101.5v-366h-9c-11.333 -14 -20.333 -29 -27 -45s-10 -29.667 -10 -41c0 -19.333 4.16699 -32.833 12.5 -40.5s18.833 -11.5 31.5 -11.5
c7.33301 0 15.166 1 23.499 3s16.833 6 25.5 12l11 -30c-8 -6 -18 -11 -30 -15s-23.667 -6 -35 -6c-22 0 -39.667 7.66699 -53 23s-20 34.666 -20 57.999zM170.997 248c-14.667 0 -28.335 -2.00098 -41.002 -6.00098s-23.667 -10.667 -33 -20s-16.666 -21.5 -21.999 -36.5
s-8 -33.167 -8 -54.5c0 -26.667 6.83301 -49.5 20.5 -68.5s37.5 -28.5 71.5 -28.5c28.667 0 52.334 7.83301 71.001 23.5s28 38.834 28 69.501v121h-87z" />
    <glyph glyph-name="Cacute" unicode="&#x106;" horiz-adv-x="383" 
d="M199 702c21.333 0 41.3311 -2.99902 59.998 -8.99902s34.834 -15.167 48.501 -27.5s24.334 -27.833 32.001 -46.5s11.5 -40.667 11.5 -66l-43 -9c0 41.333 -10.167 71.333 -30.5 90s-46.5 28 -78.5 28c-36.667 0 -64.167 -11.5 -82.5 -34.5s-27.5 -52.167 -27.5 -87.5
v-392c0 -34 9.16699 -61.667 27.5 -83s45.833 -32 82.5 -32c14.667 0 28.5 2.16699 41.5 6.5s24.5 11.166 34.5 20.499s18 21.5 24 36.5s9 33.167 9 54.5l43 -8c0 -26 -4.16699 -48.5 -12.5 -67.5s-19.333 -34.667 -33 -47s-29.667 -21.333 -48 -27s-37.833 -8.5 -58.5 -8.5
c-48 0 -85.5 12.833 -112.5 38.5s-40.5 64.167 -40.5 115.5v390c0 50 12.5 90 37.5 120s63.5 45 115.5 45zM142.998 748.001l128 105l32 -36l-143 -89z" />
    <glyph glyph-name="cacute" unicode="&#x107;" horiz-adv-x="329" 
d="M175 496c42 0 73.9941 -10.999 95.9941 -32.999s33 -54 33 -96c-7.33301 -1.33301 -14.666 -2.5 -21.999 -3.5s-14.666 -2.16699 -21.999 -3.5c0.666992 30.667 -6.66602 54.5 -21.999 71.5s-37.333 25.5 -66 25.5c-18 0 -34.167 -4 -48.5 -12s-25.833 -21.667 -34.5 -41
c-5.33301 -12.667 -8.66602 -34.334 -9.99902 -65.001s-2 -66 -2 -106v-13c0 -12 0.166992 -24.333 0.5 -37s0.833008 -25 1.5 -37s1.5 -23 2.5 -33s2.5 -18 4.5 -24c6 -18 16 -32 30 -42s32 -15 54 -15c27.333 0 49.166 7.5 65.499 22.5s24.5 39.167 24.5 72.5l44 -8
c-1.33301 -42 -13.666 -73.5 -36.999 -94.5s-55.666 -31.5 -96.999 -31.5c-20 0 -37.5 2.5 -52.5 7.5s-27.5 11.5 -37.5 19.5s-18 17.167 -24 27.5s-10.333 21.166 -13 32.499c-2 8 -3.66699 18.333 -5 31s-2.16602 26.334 -2.49902 41.001l-1 44.5
c-0.333008 15 -0.5 29.167 -0.5 42.5c0 18 0.166992 36 0.5 54s1 35 2 51s2.5 30.5 4.5 43.5s4.33301 23.5 7 31.5c8.66699 23.333 23 42 43 56s48 21 84 21zM147.994 566.001l67 151l45 -17l-88 -144z" />
    <glyph glyph-name="Ccircumflex" unicode="&#x108;" horiz-adv-x="383" 
d="M199 702c21.333 0 41.3311 -2.99902 59.998 -8.99902s34.834 -15.167 48.501 -27.5s24.334 -27.833 32.001 -46.5s11.5 -40.667 11.5 -66l-43 -9c0 41.333 -10.167 71.333 -30.5 90s-46.5 28 -78.5 28c-36.667 0 -64.167 -11.5 -82.5 -34.5s-27.5 -52.167 -27.5 -87.5
v-392c0 -34 9.16699 -61.667 27.5 -83s45.833 -32 82.5 -32c14.667 0 28.5 2.16699 41.5 6.5s24.5 11.166 34.5 20.499s18 21.5 24 36.5s9 33.167 9 54.5l43 -8c0 -26 -4.16699 -48.5 -12.5 -67.5s-19.333 -34.667 -33 -47s-29.667 -21.333 -48 -27s-37.833 -8.5 -58.5 -8.5
c-48 0 -85.5 12.833 -112.5 38.5s-40.5 64.167 -40.5 115.5v390c0 50 12.5 90 37.5 120s63.5 45 115.5 45zM200.998 811.001l-110 -77l-19 16l115 103h32l110 -101l-19 -17z" />
    <glyph glyph-name="ccircumflex" unicode="&#x109;" horiz-adv-x="329" 
d="M175 496c42 0 73.9941 -10.999 95.9941 -32.999s33 -54 33 -96c-7.33301 -1.33301 -14.666 -2.5 -21.999 -3.5s-14.666 -2.16699 -21.999 -3.5c0.666992 30.667 -6.66602 54.5 -21.999 71.5s-37.333 25.5 -66 25.5c-18 0 -34.167 -4 -48.5 -12s-25.833 -21.667 -34.5 -41
c-5.33301 -12.667 -8.66602 -34.334 -9.99902 -65.001s-2 -66 -2 -106v-13c0 -12 0.166992 -24.333 0.5 -37s0.833008 -25 1.5 -37s1.5 -23 2.5 -33s2.5 -18 4.5 -24c6 -18 16 -32 30 -42s32 -15 54 -15c27.333 0 49.166 7.5 65.499 22.5s24.5 39.167 24.5 72.5l44 -8
c-1.33301 -42 -13.666 -73.5 -36.999 -94.5s-55.666 -31.5 -96.999 -31.5c-20 0 -37.5 2.5 -52.5 7.5s-27.5 11.5 -37.5 19.5s-18 17.167 -24 27.5s-10.333 21.166 -13 32.499c-2 8 -3.66699 18.333 -5 31s-2.16602 26.334 -2.49902 41.001l-1 44.5
c-0.333008 15 -0.5 29.167 -0.5 42.5c0 18 0.166992 36 0.5 54s1 35 2 51s2.5 30.5 4.5 43.5s4.33301 23.5 7 31.5c8.66699 23.333 23 42 43 56s48 21 84 21zM174.994 648.001l-110 -97l-19 16l115 123h31l111 -121l-20 -17z" />
    <glyph glyph-name="Cdotaccent" unicode="&#x10a;" horiz-adv-x="383" 
d="M199 702c21.333 0 41.3311 -2.99902 59.998 -8.99902s34.834 -15.167 48.501 -27.5s24.334 -27.833 32.001 -46.5s11.5 -40.667 11.5 -66l-43 -9c0 41.333 -10.167 71.333 -30.5 90s-46.5 28 -78.5 28c-36.667 0 -64.167 -11.5 -82.5 -34.5s-27.5 -52.167 -27.5 -87.5
v-392c0 -34 9.16699 -61.667 27.5 -83s45.833 -32 82.5 -32c14.667 0 28.5 2.16699 41.5 6.5s24.5 11.166 34.5 20.499s18 21.5 24 36.5s9 33.167 9 54.5l43 -8c0 -26 -4.16699 -48.5 -12.5 -67.5s-19.333 -34.667 -33 -47s-29.667 -21.333 -48 -27s-37.833 -8.5 -58.5 -8.5
c-48 0 -85.5 12.833 -112.5 38.5s-40.5 64.167 -40.5 115.5v390c0 50 12.5 90 37.5 120s63.5 45 115.5 45zM178.998 752.001v48h41v-48h-41z" />
    <glyph glyph-name="cdotaccent" unicode="&#x10b;" horiz-adv-x="329" 
d="M175 496c42 0 73.9941 -10.999 95.9941 -32.999s33 -54 33 -96c-7.33301 -1.33301 -14.666 -2.5 -21.999 -3.5s-14.666 -2.16699 -21.999 -3.5c0.666992 30.667 -6.66602 54.5 -21.999 71.5s-37.333 25.5 -66 25.5c-18 0 -34.167 -4 -48.5 -12s-25.833 -21.667 -34.5 -41
c-5.33301 -12.667 -8.66602 -34.334 -9.99902 -65.001s-2 -66 -2 -106v-13c0 -12 0.166992 -24.333 0.5 -37s0.833008 -25 1.5 -37s1.5 -23 2.5 -33s2.5 -18 4.5 -24c6 -18 16 -32 30 -42s32 -15 54 -15c27.333 0 49.166 7.5 65.499 22.5s24.5 39.167 24.5 72.5l44 -8
c-1.33301 -42 -13.666 -73.5 -36.999 -94.5s-55.666 -31.5 -96.999 -31.5c-20 0 -37.5 2.5 -52.5 7.5s-27.5 11.5 -37.5 19.5s-18 17.167 -24 27.5s-10.333 21.166 -13 32.499c-2 8 -3.66699 18.333 -5 31s-2.16602 26.334 -2.49902 41.001l-1 44.5
c-0.333008 15 -0.5 29.167 -0.5 42.5c0 18 0.166992 36 0.5 54s1 35 2 51s2.5 30.5 4.5 43.5s4.33301 23.5 7 31.5c8.66699 23.333 23 42 43 56s48 21 84 21zM155.994 589.001v48h41v-48h-41z" />
    <glyph glyph-name="Ccaron" unicode="&#x10c;" horiz-adv-x="383" 
d="M199 702c21.333 0 41.3311 -2.99902 59.998 -8.99902s34.834 -15.167 48.501 -27.5s24.334 -27.833 32.001 -46.5s11.5 -40.667 11.5 -66l-43 -9c0 41.333 -10.167 71.333 -30.5 90s-46.5 28 -78.5 28c-36.667 0 -64.167 -11.5 -82.5 -34.5s-27.5 -52.167 -27.5 -87.5
v-392c0 -34 9.16699 -61.667 27.5 -83s45.833 -32 82.5 -32c14.667 0 28.5 2.16699 41.5 6.5s24.5 11.166 34.5 20.499s18 21.5 24 36.5s9 33.167 9 54.5l43 -8c0 -26 -4.16699 -48.5 -12.5 -67.5s-19.333 -34.667 -33 -47s-29.667 -21.333 -48 -27s-37.833 -8.5 -58.5 -8.5
c-48 0 -85.5 12.833 -112.5 38.5s-40.5 64.167 -40.5 115.5v390c0 50 12.5 90 37.5 120s63.5 45 115.5 45zM307.998 852.001l19 -17l-110 -100h-32l-114 102l18 16l110 -77z" />
    <glyph glyph-name="ccaron" unicode="&#x10d;" horiz-adv-x="329" 
d="M175 496c42 0 73.9941 -10.999 95.9941 -32.999s33 -54 33 -96c-7.33301 -1.33301 -14.666 -2.5 -21.999 -3.5s-14.666 -2.16699 -21.999 -3.5c0.666992 30.667 -6.66602 54.5 -21.999 71.5s-37.333 25.5 -66 25.5c-18 0 -34.167 -4 -48.5 -12s-25.833 -21.667 -34.5 -41
c-5.33301 -12.667 -8.66602 -34.334 -9.99902 -65.001s-2 -66 -2 -106v-13c0 -12 0.166992 -24.333 0.5 -37s0.833008 -25 1.5 -37s1.5 -23 2.5 -33s2.5 -18 4.5 -24c6 -18 16 -32 30 -42s32 -15 54 -15c27.333 0 49.166 7.5 65.499 22.5s24.5 39.167 24.5 72.5l44 -8
c-1.33301 -42 -13.666 -73.5 -36.999 -94.5s-55.666 -31.5 -96.999 -31.5c-20 0 -37.5 2.5 -52.5 7.5s-27.5 11.5 -37.5 19.5s-18 17.167 -24 27.5s-10.333 21.166 -13 32.499c-2 8 -3.66699 18.333 -5 31s-2.16602 26.334 -2.49902 41.001l-1 44.5
c-0.333008 15 -0.5 29.167 -0.5 42.5c0 18 0.166992 36 0.5 54s1 35 2 51s2.5 30.5 4.5 43.5s4.33301 23.5 7 31.5c8.66699 23.333 23 42 43 56s48 21 84 21zM284.994 689.001l19 -17l-110 -120h-32l-115 122l19 16l110 -97z" />
    <glyph glyph-name="Dcaron" unicode="&#x10e;" horiz-adv-x="404" 
d="M202 696c42 0 75.001 -7.33398 99.001 -22.001s40.667 -39 50 -73c7.33301 -25.333 10.833 -59.166 10.5 -101.499s-0.5 -92.5 -0.5 -150.5v-151.5c0 -43.667 -3.66699 -77.5 -11 -101.5c-6 -20 -14.333 -36.167 -25 -48.5s-22.834 -22 -36.501 -29
s-28.5 -11.833 -44.5 -14.5s-33 -4 -51 -4h-141v696h150zM317.001 517.999c0 20 -1.66895 38.501 -5.00195 55.501s-9.5 31.667 -18.5 44s-21.167 22 -36.5 29s-34.666 10.5 -57.999 10.5h-104v-617h105c40.667 0 70.334 10.667 89.001 32s28 55.666 28 102.999v343z
M296.999 852l19 -17l-110 -100h-32l-114 102l18 16l110 -77z" />
    <glyph glyph-name="dcaron" unicode="&#x10f;" horiz-adv-x="426" 
d="M175 -6c-12.667 0 -25.501 1.49902 -38.501 4.49902s-25.333 8.83301 -37 17.5s-21.5 20.5 -29.5 35.5s-13.333 34.167 -16 57.5c-2 21.333 -3 42 -3 62v57v14c0 38 0.5 72.5 1.5 103.5s5.16699 56.167 12.5 75.5c7.33301 20.667 19.833 38.334 37.5 53.001
s43.834 22 78.501 22c26.667 0 48.667 -6.33301 66 -19s28.666 -25 33.999 -37h2v286h43v-726h-43v46h-2c-11.333 -16.667 -25.166 -29.5 -41.499 -38.5s-37.833 -13.5 -64.5 -13.5zM184.999 33.999c30 0 53.8301 9.66504 71.4971 28.998s26.5 44.666 26.5 75.999v202
c0 14.667 -2 28.834 -6 42.501s-10 25.667 -18 36s-18 18.666 -30 24.999s-26 9.5 -42 9.5c-20 0 -37.5 -5.33301 -52.5 -16s-25.167 -26.334 -30.5 -47.001c-2 -7.33301 -3.66699 -16.666 -5 -27.999s-2.16602 -24.166 -2.49902 -38.499l-1 -45
c-0.333008 -15.667 -0.5 -31.167 -0.5 -46.5c0 -31.333 0.5 -59.166 1.5 -83.499s3.16699 -42.166 6.5 -53.499c6.66699 -23.333 16.834 -39.5 30.501 -48.5s30.834 -13.5 51.501 -13.5zM393.996 584.997h-26c3.33301 14 6.5 28.167 9.5 42.5s6.16699 28.5 9.5 42.5h-13v56
h53v-56z" />
    <glyph glyph-name="Dcroat" unicode="&#x110;" horiz-adv-x="404" 
d="M5 389l47.001 -0.000976562v307h150c42 0 75 -7.33301 99 -22s40.667 -39 50 -73c7.33301 -25.333 10.833 -59.166 10.5 -101.499s-0.5 -92.5 -0.5 -150.5v-151.5c0 -43.667 -3.66699 -77.5 -11 -101.5c-6 -20 -14.333 -36.167 -25 -48.5s-22.834 -22 -36.501 -29
s-28.5 -11.833 -44.5 -14.5s-33 -4 -51 -4h-141v356h-47v33zM317.001 517.999c0 20 -1.66895 38.501 -5.00195 55.501s-9.5 31.667 -18.5 44s-21.167 22 -36.5 29s-34.666 10.5 -57.999 10.5h-104v-268h110v-33h-110v-316h105c40.667 0 70.334 10.667 89.001 32
s28 55.666 28 102.999v343z" />
    <glyph glyph-name="dcroat" unicode="&#x111;" horiz-adv-x="380" 
d="M165 620l117.999 -0.000976562v106h43v-106h38v-33h-38v-587h-43v46h-2c-11.333 -16.667 -25.166 -29.5 -41.499 -38.5s-37.833 -13.5 -64.5 -13.5c-12.667 0 -25.5 1.5 -38.5 4.5s-25.333 8.83301 -37 17.5s-21.5 20.5 -29.5 35.5s-13.333 34.167 -16 57.5
c-2 21.333 -3 42 -3 62v57v14c0 38 0.5 72.5 1.5 103.5s5.16699 56.167 12.5 75.5c7.33301 20.667 19.833 38.334 37.5 53.001s43.834 22 78.501 22c26.667 0 48.667 -6.33301 66 -19s28.666 -25 33.999 -37h2v147h-118v33zM184.999 33.999
c30 0 53.8301 9.66504 71.4971 28.998s26.5 44.666 26.5 75.999v202c0 14.667 -2 28.834 -6 42.501s-10 25.667 -18 36s-18 18.666 -30 24.999s-26 9.5 -42 9.5c-20 0 -37.5 -5.33301 -52.5 -16s-25.167 -26.334 -30.5 -47.001c-2 -7.33301 -3.66699 -16.666 -5 -27.999
s-2.16602 -24.166 -2.49902 -38.499l-1 -45c-0.333008 -15.667 -0.5 -31.167 -0.5 -46.5c0 -31.333 0.5 -59.166 1.5 -83.499s3.16699 -42.166 6.5 -53.499c6.66699 -23.333 16.834 -39.5 30.501 -48.5s30.834 -13.5 51.501 -13.5z" />
    <glyph glyph-name="Emacron" unicode="&#x112;" horiz-adv-x="355" 
d="M52 0v696h284v-40h-241v-279h212v-39h-212v-298h241v-40h-284zM88 751v38h207v-38h-207z" />
    <glyph glyph-name="emacron" unicode="&#x113;" horiz-adv-x="342" 
d="M174 496c40 0 71.166 -10.1641 93.499 -30.4971s34.5 -49.5 36.5 -87.5c0.666992 -7.33301 1 -14.5 1 -21.5v-21.5v-97h-228v-32c0 -21.333 0.5 -43.5 1.5 -66.5s3.5 -40.167 7.5 -51.5c6 -17.333 15.667 -31 29 -41s31.333 -15 54 -15c30 0 52.167 8.66699 66.5 26
s22.5 38.666 24.5 63.999l43 -8c-3.33301 -39.333 -17 -69.333 -41 -90s-55 -31 -93 -31c-20 0 -37.5 2.5 -52.5 7.5s-27.5 11.5 -37.5 19.5s-18 17.167 -24 27.5s-10.333 21.166 -13 32.499c-2 8 -3.66699 18.333 -5 31s-2.16602 26.167 -2.49902 40.5l-1 44.5
c-0.333008 15.333 -0.5 29.666 -0.5 42.999c0 18 0.166992 36 0.5 54s1 35 2 51s2.5 30.667 4.5 44s4.33301 24 7 32c8.66699 23.333 23 41.833 43 55.5s48 20.5 84 20.5zM87.999 404.003c-4.66699 -11.333 -7.5 -28.167 -8.5 -50.5s-1.83301 -48.833 -2.5 -79.5h185v61
c0 15.333 -0.833008 30.333 -2.5 45s-5.66699 27.667 -12 39s-15.5 20.333 -27.5 27s-28 10 -48 10c-16.667 0 -32.667 -3.66699 -48 -11s-27.333 -21 -36 -41zM76.999 589.002v39h207v-39h-207z" />
    <glyph glyph-name="Ebreve" unicode="&#x114;" horiz-adv-x="355" 
d="M52 0v696h284v-40h-241v-279h212v-39h-212v-298h241v-40h-284zM108 849c3.33301 -21.333 12.8311 -39.5 28.498 -54.5s33.834 -22.5 54.501 -22.5c21.333 0 39.833 7 55.5 21s25.167 32.667 28.5 56h37c-2 -12.667 -5.66699 -25.5 -11 -38.5s-13 -25 -23 -36
s-22.167 -20 -36.5 -27s-31.166 -10.5 -50.499 -10.5c-20 0 -37.167 3.5 -51.5 10.5s-26.333 16 -36 27s-17 23 -22 36s-8.16699 25.833 -9.5 38.5h36z" />
    <glyph glyph-name="ebreve" unicode="&#x115;" horiz-adv-x="342" 
d="M174 496c40 0 71.166 -10.1641 93.499 -30.4971s34.5 -49.5 36.5 -87.5c0.666992 -7.33301 1 -14.5 1 -21.5v-21.5v-97h-228v-32c0 -21.333 0.5 -43.5 1.5 -66.5s3.5 -40.167 7.5 -51.5c6 -17.333 15.667 -31 29 -41s31.333 -15 54 -15c30 0 52.167 8.66699 66.5 26
s22.5 38.666 24.5 63.999l43 -8c-3.33301 -39.333 -17 -69.333 -41 -90s-55 -31 -93 -31c-20 0 -37.5 2.5 -52.5 7.5s-27.5 11.5 -37.5 19.5s-18 17.167 -24 27.5s-10.333 21.166 -13 32.499c-2 8 -3.66699 18.333 -5 31s-2.16602 26.167 -2.49902 40.5l-1 44.5
c-0.333008 15.333 -0.5 29.666 -0.5 42.999c0 18 0.166992 36 0.5 54s1 35 2 51s2.5 30.667 4.5 44s4.33301 24 7 32c8.66699 23.333 23 41.833 43 55.5s48 20.5 84 20.5zM87.999 404.003c-4.66699 -11.333 -7.5 -28.167 -8.5 -50.5s-1.83301 -48.833 -2.5 -79.5h185v61
c0 15.333 -0.833008 30.333 -2.5 45s-5.66699 27.667 -12 39s-15.5 20.333 -27.5 27s-28 10 -48 10c-16.667 0 -32.667 -3.66699 -48 -11s-27.333 -21 -36 -41zM88.999 669.002c3.33301 -21.333 12.8301 -39.333 28.4971 -54s33.834 -22 54.501 -22
c21.333 0 39.833 6.83301 55.5 20.5s25.167 32.167 28.5 55.5h36c-1.33301 -12.667 -4.66602 -25.5 -9.99902 -38.5s-13 -25 -23 -36s-22.167 -20 -36.5 -27s-31.166 -10.5 -50.499 -10.5c-20 0 -37.167 3.5 -51.5 10.5s-26.333 16 -36 27s-17 23.167 -22 36.5
s-8.16699 26 -9.5 38h36z" />
    <glyph glyph-name="Edotaccent" unicode="&#x116;" horiz-adv-x="355" 
d="M52 0v696h284v-40h-241v-279h212v-39h-212v-298h241v-40h-284zM173 759v48h41v-48h-41z" />
    <glyph glyph-name="edotaccent" unicode="&#x117;" horiz-adv-x="342" 
d="M174 496c40 0 71.166 -10.1641 93.499 -30.4971s34.5 -49.5 36.5 -87.5c0.666992 -7.33301 1 -14.5 1 -21.5v-21.5v-97h-228v-32c0 -21.333 0.5 -43.5 1.5 -66.5s3.5 -40.167 7.5 -51.5c6 -17.333 15.667 -31 29 -41s31.333 -15 54 -15c30 0 52.167 8.66699 66.5 26
s22.5 38.666 24.5 63.999l43 -8c-3.33301 -39.333 -17 -69.333 -41 -90s-55 -31 -93 -31c-20 0 -37.5 2.5 -52.5 7.5s-27.5 11.5 -37.5 19.5s-18 17.167 -24 27.5s-10.333 21.166 -13 32.499c-2 8 -3.66699 18.333 -5 31s-2.16602 26.167 -2.49902 40.5l-1 44.5
c-0.333008 15.333 -0.5 29.666 -0.5 42.999c0 18 0.166992 36 0.5 54s1 35 2 51s2.5 30.667 4.5 44s4.33301 24 7 32c8.66699 23.333 23 41.833 43 55.5s48 20.5 84 20.5zM87.999 404.003c-4.66699 -11.333 -7.5 -28.167 -8.5 -50.5s-1.83301 -48.833 -2.5 -79.5h185v61
c0 15.333 -0.833008 30.333 -2.5 45s-5.66699 27.667 -12 39s-15.5 20.333 -27.5 27s-28 10 -48 10c-16.667 0 -32.667 -3.66699 -48 -11s-27.333 -21 -36 -41zM158.999 589.002v48h41v-48h-41z" />
    <glyph glyph-name="Eogonek" unicode="&#x118;" horiz-adv-x="355" 
d="M264 -93c0 12 2.83301 26.1689 8.5 42.502s14.834 33.166 27.501 50.499h-248v696h284v-40h-241v-279h212v-39h-212v-298h241v-40h-1c-11.333 -14 -20.333 -29 -27 -45s-10 -29.667 -10 -41c0 -19.333 4.16699 -32.833 12.5 -40.5s18.833 -11.5 31.5 -11.5
c7.33301 0 15.166 1 23.499 3s16.833 6 25.5 12l11 -30c-8 -6 -18 -11 -30 -15s-23.667 -6 -35 -6c-22 0 -39.667 7.66699 -53 23s-20 34.666 -20 57.999z" />
    <glyph glyph-name="eogonek" unicode="&#x119;" horiz-adv-x="342" 
d="M195 -65c0 8.66699 1.33398 18.5039 4.00098 29.5039s7.33398 22.5 14.001 34.5c-14 -4 -28.667 -6 -44 -6c-20 0 -37.5 2.5 -52.5 7.5s-27.5 11.5 -37.5 19.5s-18 17.167 -24 27.5s-10.333 21.166 -13 32.499c-2 8 -3.66699 18.333 -5 31s-2.16602 26.167 -2.49902 40.5
l-1 44.5c-0.333008 15.333 -0.5 29.666 -0.5 42.999c0 18 0.166992 36 0.5 54s1 35 2 51s2.5 30.667 4.5 44s4.33301 24 7 32c8.66699 23.333 23 41.833 43 55.5s48 20.5 84 20.5c40 0 71.167 -10.167 93.5 -30.5s34.5 -49.5 36.5 -87.5c0.666992 -7.33301 1 -14.5 1 -21.5
v-21.5v-97h-228v-32c0 -21.333 0.5 -43.5 1.5 -66.5s3.5 -40.167 7.5 -51.5c6 -17.333 15.667 -31 29 -41s31.333 -15 54 -15c30 0 52.167 8.66699 66.5 26s22.5 38.666 24.5 63.999l43 -8c-2.66699 -38 -15.334 -67 -38.001 -87c-10.667 -14 -19.334 -28.833 -26.001 -44.5
s-10 -29.167 -10 -40.5c0 -19.333 4.16699 -32.833 12.5 -40.5s18.833 -11.5 31.5 -11.5c7.33301 0 15.166 1 23.499 3s16.833 6 25.5 12l11 -30c-8 -6 -18 -11 -30 -15s-23.667 -6 -35 -6c-22 0 -39.667 7.66699 -53 23s-20 34.666 -20 57.999zM88.001 404.004
c-4.66699 -11.333 -7.5 -28.167 -8.5 -50.5s-1.83301 -48.833 -2.5 -79.5h185v61c0 15.333 -0.833008 30.333 -2.5 45s-5.66699 27.667 -12 39s-15.5 20.333 -27.5 27s-28 10 -48 10c-16.667 0 -32.667 -3.66699 -48 -11s-27.333 -21 -36 -41z" />
    <glyph glyph-name="Ecaron" unicode="&#x11a;" horiz-adv-x="355" 
d="M52 0v696h284v-40h-241v-279h212v-39h-212v-298h241v-40h-284zM297 852l19 -17l-110 -100h-32l-114 102l18 16l110 -77z" />
    <glyph glyph-name="ecaron" unicode="&#x11b;" horiz-adv-x="342" 
d="M174 496c40 0 71.166 -10.1641 93.499 -30.4971s34.5 -49.5 36.5 -87.5c0.666992 -7.33301 1 -14.5 1 -21.5v-21.5v-97h-228v-32c0 -21.333 0.5 -43.5 1.5 -66.5s3.5 -40.167 7.5 -51.5c6 -17.333 15.667 -31 29 -41s31.333 -15 54 -15c30 0 52.167 8.66699 66.5 26
s22.5 38.666 24.5 63.999l43 -8c-3.33301 -39.333 -17 -69.333 -41 -90s-55 -31 -93 -31c-20 0 -37.5 2.5 -52.5 7.5s-27.5 11.5 -37.5 19.5s-18 17.167 -24 27.5s-10.333 21.166 -13 32.499c-2 8 -3.66699 18.333 -5 31s-2.16602 26.167 -2.49902 40.5l-1 44.5
c-0.333008 15.333 -0.5 29.666 -0.5 42.999c0 18 0.166992 36 0.5 54s1 35 2 51s2.5 30.667 4.5 44s4.33301 24 7 32c8.66699 23.333 23 41.833 43 55.5s48 20.5 84 20.5zM87.999 404.003c-4.66699 -11.333 -7.5 -28.167 -8.5 -50.5s-1.83301 -48.833 -2.5 -79.5h185v61
c0 15.333 -0.833008 30.333 -2.5 45s-5.66699 27.667 -12 39s-15.5 20.333 -27.5 27s-28 10 -48 10c-16.667 0 -32.667 -3.66699 -48 -11s-27.333 -21 -36 -41zM284.999 689.002l19 -17l-110 -120h-32l-115 122l19 16l110 -97z" />
    <glyph glyph-name="Gcircumflex" unicode="&#x11c;" horiz-adv-x="395" 
d="M200 -7c-48 0 -85.5 12.6719 -112.5 38.0049s-40.5 63.666 -40.5 114.999v351v29.5c0 9.66699 0.333008 19.5 1 29.5c2 46 15.833 81.833 41.5 107.5s62.5 38.5 110.5 38.5c43.333 0 79.166 -11.833 107.499 -35.5s42.833 -61.167 43.5 -112.5l-43 -10v3
c0 40 -10.167 69.167 -30.5 87.5s-46.5 27.5 -78.5 27.5c-36.667 0 -64 -11.667 -82 -35s-27 -52.333 -27 -87v-393c0 -34 9.16699 -61.5 27.5 -82.5s45.833 -31.5 82.5 -31.5c15.333 0 29.833 2.5 43.5 7.5s25.834 12.167 36.501 21.5s19 20.666 25 33.999s9 28.333 9 45
v180h-86v39h129v-216c0 -24.667 -4.16699 -46.334 -12.5 -65.001s-19.833 -34.334 -34.5 -47.001s-31.5 -22.334 -50.5 -29.001s-38.833 -10 -59.5 -10zM203 811.005l-110 -77l-19 16l115 103h32l110 -101l-19 -17z" />
    <glyph glyph-name="gcircumflex" unicode="&#x11d;" horiz-adv-x="356" 
d="M160 496c27.333 0 49.165 -4.66797 65.498 -14.001s30.166 -22.333 41.499 -39h2v46h42v-561c0 -41.333 -12.333 -73.166 -37 -95.499s-58 -33.5 -100 -33.5c-37.333 0 -67.833 10.167 -91.5 30.5s-36.167 50.5 -37.5 90.5l44 8c0 -28 7.33301 -50 22 -66
s36.667 -24 66 -24s52 9.5 68 28.5s24 42.5 24 70.5v120h-2c-11.333 -20 -27.166 -35.5 -47.499 -46.5s-41.166 -16.5 -62.499 -16.5c-32 0 -56.167 6.5 -72.5 19.5s-28.166 28.833 -35.499 47.5c-6.66699 17.333 -10.667 39 -12 65s-2 52.333 -2 79v54
c0 19.333 0.166992 38.833 0.5 58.5s1.5 40.5 3.5 62.5c2 23.333 7.33301 42.5 16 57.5s18.834 26.833 30.501 35.5s24.167 14.667 37.5 18s25.666 5 36.999 5zM169.999 454.999c-18.667 0 -35.332 -4.50098 -49.999 -13.501s-25.667 -25.167 -33 -48.5
c-3.33301 -11.333 -5.5 -29.166 -6.5 -53.499s-1.5 -52.166 -1.5 -83.499c0 -16.667 0.166992 -33.5 0.5 -50.5s0.833008 -33.167 1.5 -48.5s1.66699 -29.166 3 -41.499s3.33301 -21.833 6 -28.5c6 -18 15.667 -31.333 29 -40s29.666 -13 48.999 -13
c16.667 0 31.334 3.5 44.001 10.5s23.167 16.167 31.5 27.5s14.666 24.166 18.999 38.499s6.5 28.833 6.5 43.5v196c0 31.333 -9 56.666 -27 75.999s-42 29 -72 29zM176.001 647.998l-110 -97l-19 16l115 123h31l111 -121l-20 -17z" />
    <glyph glyph-name="Gbreve" unicode="&#x11e;" horiz-adv-x="395" 
d="M200 -7c-48 0 -85.5 12.6719 -112.5 38.0049s-40.5 63.666 -40.5 114.999v351v29.5c0 9.66699 0.333008 19.5 1 29.5c2 46 15.833 81.833 41.5 107.5s62.5 38.5 110.5 38.5c43.333 0 79.166 -11.833 107.499 -35.5s42.833 -61.167 43.5 -112.5l-43 -10v3
c0 40 -10.167 69.167 -30.5 87.5s-46.5 27.5 -78.5 27.5c-36.667 0 -64 -11.667 -82 -35s-27 -52.333 -27 -87v-393c0 -34 9.16699 -61.5 27.5 -82.5s45.833 -31.5 82.5 -31.5c15.333 0 29.833 2.5 43.5 7.5s25.834 12.167 36.501 21.5s19 20.666 25 33.999s9 28.333 9 45
v180h-86v39h129v-216c0 -24.667 -4.16699 -46.334 -12.5 -65.001s-19.833 -34.334 -34.5 -47.001s-31.5 -22.334 -50.5 -29.001s-38.833 -10 -59.5 -10zM117 849.005c3.33301 -21.333 12.8311 -39.5 28.498 -54.5s33.834 -22.5 54.501 -22.5c21.333 0 39.833 7 55.5 21
s25.167 32.667 28.5 56h37c-2 -12.667 -5.66699 -25.5 -11 -38.5s-13 -25 -23 -36s-22.167 -20 -36.5 -27s-31.166 -10.5 -50.499 -10.5c-20 0 -37.167 3.5 -51.5 10.5s-26.333 16 -36 27s-17 23 -22 36s-8.16699 25.833 -9.5 38.5h36z" />
    <glyph glyph-name="gbreve" unicode="&#x11f;" horiz-adv-x="356" 
d="M160 496c27.333 0 49.165 -4.66797 65.498 -14.001s30.166 -22.333 41.499 -39h2v46h42v-561c0 -41.333 -12.333 -73.166 -37 -95.499s-58 -33.5 -100 -33.5c-37.333 0 -67.833 10.167 -91.5 30.5s-36.167 50.5 -37.5 90.5l44 8c0 -28 7.33301 -50 22 -66
s36.667 -24 66 -24s52 9.5 68 28.5s24 42.5 24 70.5v120h-2c-11.333 -20 -27.166 -35.5 -47.499 -46.5s-41.166 -16.5 -62.499 -16.5c-32 0 -56.167 6.5 -72.5 19.5s-28.166 28.833 -35.499 47.5c-6.66699 17.333 -10.667 39 -12 65s-2 52.333 -2 79v54
c0 19.333 0.166992 38.833 0.5 58.5s1.5 40.5 3.5 62.5c2 23.333 7.33301 42.5 16 57.5s18.834 26.833 30.501 35.5s24.167 14.667 37.5 18s25.666 5 36.999 5zM169.999 454.999c-18.667 0 -35.332 -4.50098 -49.999 -13.501s-25.667 -25.167 -33 -48.5
c-3.33301 -11.333 -5.5 -29.166 -6.5 -53.499s-1.5 -52.166 -1.5 -83.499c0 -16.667 0.166992 -33.5 0.5 -50.5s0.833008 -33.167 1.5 -48.5s1.66699 -29.166 3 -41.499s3.33301 -21.833 6 -28.5c6 -18 15.667 -31.333 29 -40s29.666 -13 48.999 -13
c16.667 0 31.334 3.5 44.001 10.5s23.167 16.167 31.5 27.5s14.666 24.166 18.999 38.499s6.5 28.833 6.5 43.5v196c0 31.333 -9 56.666 -27 75.999s-42 29 -72 29zM92.001 668.998c3.33301 -21.333 12.8301 -39.333 28.4971 -54s33.834 -22 54.501 -22
c21.333 0 39.833 6.83301 55.5 20.5s25.167 32.167 28.5 55.5h36c-1.33301 -12.667 -4.66602 -25.5 -9.99902 -38.5s-13 -25 -23 -36s-22.167 -20 -36.5 -27s-31.166 -10.5 -50.499 -10.5c-20 0 -37.167 3.5 -51.5 10.5s-26.333 16 -36 27s-17 23.167 -22 36.5
s-8.16699 26 -9.5 38h36z" />
    <glyph glyph-name="Gdotaccent" unicode="&#x120;" horiz-adv-x="395" 
d="M200 -7c-48 0 -85.5 12.6719 -112.5 38.0049s-40.5 63.666 -40.5 114.999v351v29.5c0 9.66699 0.333008 19.5 1 29.5c2 46 15.833 81.833 41.5 107.5s62.5 38.5 110.5 38.5c43.333 0 79.166 -11.833 107.499 -35.5s42.833 -61.167 43.5 -112.5l-43 -10v3
c0 40 -10.167 69.167 -30.5 87.5s-46.5 27.5 -78.5 27.5c-36.667 0 -64 -11.667 -82 -35s-27 -52.333 -27 -87v-393c0 -34 9.16699 -61.5 27.5 -82.5s45.833 -31.5 82.5 -31.5c15.333 0 29.833 2.5 43.5 7.5s25.834 12.167 36.501 21.5s19 20.666 25 33.999s9 28.333 9 45
v180h-86v39h129v-216c0 -24.667 -4.16699 -46.334 -12.5 -65.001s-19.833 -34.334 -34.5 -47.001s-31.5 -22.334 -50.5 -29.001s-38.833 -10 -59.5 -10zM184 759.005v48h41v-48h-41z" />
    <glyph glyph-name="gdotaccent" unicode="&#x121;" horiz-adv-x="356" 
d="M160 496c27.333 0 49.165 -4.66797 65.498 -14.001s30.166 -22.333 41.499 -39h2v46h42v-561c0 -41.333 -12.333 -73.166 -37 -95.499s-58 -33.5 -100 -33.5c-37.333 0 -67.833 10.167 -91.5 30.5s-36.167 50.5 -37.5 90.5l44 8c0 -28 7.33301 -50 22 -66
s36.667 -24 66 -24s52 9.5 68 28.5s24 42.5 24 70.5v120h-2c-11.333 -20 -27.166 -35.5 -47.499 -46.5s-41.166 -16.5 -62.499 -16.5c-32 0 -56.167 6.5 -72.5 19.5s-28.166 28.833 -35.499 47.5c-6.66699 17.333 -10.667 39 -12 65s-2 52.333 -2 79v54
c0 19.333 0.166992 38.833 0.5 58.5s1.5 40.5 3.5 62.5c2 23.333 7.33301 42.5 16 57.5s18.834 26.833 30.501 35.5s24.167 14.667 37.5 18s25.666 5 36.999 5zM169.999 454.999c-18.667 0 -35.332 -4.50098 -49.999 -13.501s-25.667 -25.167 -33 -48.5
c-3.33301 -11.333 -5.5 -29.166 -6.5 -53.499s-1.5 -52.166 -1.5 -83.499c0 -16.667 0.166992 -33.5 0.5 -50.5s0.833008 -33.167 1.5 -48.5s1.66699 -29.166 3 -41.499s3.33301 -21.833 6 -28.5c6 -18 15.667 -31.333 29 -40s29.666 -13 48.999 -13
c16.667 0 31.334 3.5 44.001 10.5s23.167 16.167 31.5 27.5s14.666 24.166 18.999 38.499s6.5 28.833 6.5 43.5v196c0 31.333 -9 56.666 -27 75.999s-42 29 -72 29zM158.001 588.998v48h41v-48h-41z" />
    <glyph glyph-name="Gcommaaccent" unicode="&#x122;" horiz-adv-x="395" 
d="M200 -7c-48 0 -85.5 12.6719 -112.5 38.0049s-40.5 63.666 -40.5 114.999v351v29.5c0 9.66699 0.333008 19.5 1 29.5c2 46 15.833 81.833 41.5 107.5s62.5 38.5 110.5 38.5c43.333 0 79.166 -11.833 107.499 -35.5s42.833 -61.167 43.5 -112.5l-43 -10v3
c0 40 -10.167 69.167 -30.5 87.5s-46.5 27.5 -78.5 27.5c-36.667 0 -64 -11.667 -82 -35s-27 -52.333 -27 -87v-393c0 -34 9.16699 -61.5 27.5 -82.5s45.833 -31.5 82.5 -31.5c15.333 0 29.833 2.5 43.5 7.5s25.834 12.167 36.501 21.5s19 20.666 25 33.999s9 28.333 9 45
v180h-86v39h129v-216c0 -24.667 -4.16699 -46.334 -12.5 -65.001s-19.833 -34.334 -34.5 -47.001s-31.5 -22.334 -50.5 -29.001s-38.833 -10 -59.5 -10zM195 -201.995h-26c3.33301 14 6.5 28.167 9.5 42.5s6.16699 28.5 9.5 42.5h-13v56h53v-56z" />
    <glyph glyph-name="gcommaaccent" unicode="&#x123;" horiz-adv-x="356" 
d="M160 496c27.333 0 49.165 -4.66797 65.498 -14.001s30.166 -22.333 41.499 -39h2v46h42v-561c0 -41.333 -12.333 -73.166 -37 -95.499s-58 -33.5 -100 -33.5c-37.333 0 -67.833 10.167 -91.5 30.5s-36.167 50.5 -37.5 90.5l44 8c0 -28 7.33301 -50 22 -66
s36.667 -24 66 -24s52 9.5 68 28.5s24 42.5 24 70.5v120h-2c-11.333 -20 -27.166 -35.5 -47.499 -46.5s-41.166 -16.5 -62.499 -16.5c-32 0 -56.167 6.5 -72.5 19.5s-28.166 28.833 -35.499 47.5c-6.66699 17.333 -10.667 39 -12 65s-2 52.333 -2 79v54
c0 19.333 0.166992 38.833 0.5 58.5s1.5 40.5 3.5 62.5c2 23.333 7.33301 42.5 16 57.5s18.834 26.833 30.501 35.5s24.167 14.667 37.5 18s25.666 5 36.999 5zM169.999 454.999c-18.667 0 -35.332 -4.50098 -49.999 -13.501s-25.667 -25.167 -33 -48.5
c-3.33301 -11.333 -5.5 -29.166 -6.5 -53.499s-1.5 -52.166 -1.5 -83.499c0 -16.667 0.166992 -33.5 0.5 -50.5s0.833008 -33.167 1.5 -48.5s1.66699 -29.166 3 -41.499s3.33301 -21.833 6 -28.5c6 -18 15.667 -31.333 29 -40s29.666 -13 48.999 -13
c16.667 0 31.334 3.5 44.001 10.5s23.167 16.167 31.5 27.5s14.666 24.166 18.999 38.499s6.5 28.833 6.5 43.5v196c0 31.333 -9 56.666 -27 75.999s-42 29 -72 29zM193.001 702.998h27l-20 -84h13v-56h-52v55z" />
    <glyph glyph-name="Hcircumflex" unicode="&#x124;" horiz-adv-x="412" 
d="M317 0v337h-222v-337h-43v696h43v-320h222v320h43v-696h-43zM207 811l-110 -77l-19 16l115 103h32l110 -101l-19 -17z" />
    <glyph glyph-name="hcircumflex" unicode="&#x125;" horiz-adv-x="358" 
d="M86 435l1 -0.000976562c11.333 19.333 26.666 34.333 45.999 45s40.333 16 63 16s41.667 -3.33301 57 -10s27.666 -16 36.999 -28s16 -26 20 -42s6 -33.333 6 -52v-364h-44v351c0 14 -1.33301 27.333 -4 40s-7.5 23.5 -14.5 32.5s-16.167 16.167 -27.5 21.5
s-25.666 8 -42.999 8c-16 0 -30 -3 -42 -9s-22.167 -14.167 -30.5 -24.5s-14.666 -22.166 -18.999 -35.499s-6.5 -27 -6.5 -41v-343h-42v727h43v-292zM65 810.999l-110 -77l-19 16l115 103h32l110 -101l-19 -17z" />
    <glyph glyph-name="Hbar" unicode="&#x126;" horiz-adv-x="412" 
d="M317 0v337h-222v-337h-43v563h-43v32h43v101h43v-101h222v101h43v-101h44v-32h-44v-563h-43zM317 376v187h-222v-187h222z" />
    <glyph glyph-name="hbar" unicode="&#x127;" horiz-adv-x="358" 
d="M86 614l185 -0.000976562v-32h-185v-147h1c11.333 19.333 26.666 34.333 45.999 45s40.333 16 63 16s41.667 -3.33301 57 -10s27.666 -16 36.999 -28s16 -26 20 -42s6 -33.333 6 -52v-364h-44v351c0 14 -1.33301 27.333 -4 40s-7.5 23.5 -14.5 32.5
s-16.167 16.167 -27.5 21.5s-25.666 8 -42.999 8c-16 0 -30 -3 -42 -9s-22.167 -14.167 -30.5 -24.5s-14.666 -22.166 -18.999 -35.499s-6.5 -27 -6.5 -41v-343h-42v582h-42v32h42v113h43v-113z" />
    <glyph glyph-name="Itilde" unicode="&#x128;" horiz-adv-x="174" 
d="M65 0v696h44v-696h-44zM218 791c-8 -21.333 -19.1689 -37.001 -33.502 -47.001s-28.166 -15 -41.499 -15c-10 0 -19.833 2 -29.5 6s-19.167 8.33301 -28.5 13s-18.5 9 -27.5 13s-17.833 6 -26.5 6c-8 0 -16.167 -3.16699 -24.5 -9.5s-16.166 -14.833 -23.499 -25.5
l-24 15c8 16.667 18.333 30.334 31 41.001s26 16 40 16c10 0 19.667 -2 29 -6s18.5 -8.33301 27.5 -13s18.167 -9 27.5 -13s19.333 -6 30 -6c18.667 0 35.667 13 51 39z" />
    <glyph glyph-name="itilde" unicode="&#x129;" horiz-adv-x="227" 
d="M88 0v489h43v-489h-43zM241 635c-8 -21.333 -19.1689 -37.001 -33.502 -47.001s-28.166 -15 -41.499 -15c-10 0 -19.833 2 -29.5 6s-19.167 8.33301 -28.5 13s-18.5 9 -27.5 13s-17.833 6 -26.5 6c-8 0 -16.167 -3.16699 -24.5 -9.5s-16.166 -14.833 -23.499 -25.5
l-24 15c8 16.667 18.333 30.334 31 41.001s26 16 40 16c10 0 19.667 -2 29 -6s18.5 -8.33301 27.5 -13s18.167 -9 27.5 -13s19.333 -6 30 -6c18.667 0 35.667 13 51 39z" />
    <glyph glyph-name="Imacron" unicode="&#x12a;" horiz-adv-x="174" 
d="M65 0v696h44v-696h-44zM-16 751v38h207v-38h-207z" />
    <glyph glyph-name="imacron" unicode="&#x12b;" horiz-adv-x="187" 
d="M71 0v489h43v-489h-43zM-10 589v39h207v-39h-207z" />
    <glyph glyph-name="Ibreve" unicode="&#x12c;" horiz-adv-x="219" 
d="M87 0v696h44v-696h-44zM26 845c3.33301 -21.333 12.8301 -39.333 28.4971 -54s33.834 -22 54.501 -22c21.333 0 39.833 6.83301 55.5 20.5s25.167 32.167 28.5 55.5h36c-1.33301 -12.667 -4.66602 -25.5 -9.99902 -38.5s-13 -25 -23 -36s-22.167 -20 -36.5 -27
s-31.166 -10.5 -50.499 -10.5c-20 0 -37.167 3.5 -51.5 10.5s-26.333 16 -36 27s-17 23.167 -22 36.5s-8.16699 26 -9.5 38h36z" />
    <glyph glyph-name="ibreve" unicode="&#x12d;" horiz-adv-x="219" 
d="M88 0v489h43v-489h-43zM26 675c3.33301 -21.333 12.8301 -39.333 28.4971 -54s33.834 -22 54.501 -22c21.333 0 39.833 6.83301 55.5 20.5s25.167 32.167 28.5 55.5h36c-1.33301 -12.667 -4.66602 -25.5 -9.99902 -38.5s-13 -25 -23 -36s-22.167 -20 -36.5 -27
s-31.166 -10.5 -50.499 -10.5c-20 0 -37.167 3.5 -51.5 10.5s-26.333 16 -36 27s-17 23.167 -22 36.5s-8.16699 26 -9.5 38h36z" />
    <glyph glyph-name="Iogonek" unicode="&#x12e;" horiz-adv-x="174" 
d="M33 -93c0 12 2.83301 26.1689 8.5 42.502s14.834 33.166 27.501 50.499h-4v696h44v-696h-5c-11.333 -14 -20.333 -29 -27 -45s-10 -29.667 -10 -41c0 -19.333 4.16699 -32.833 12.5 -40.5s18.833 -11.5 31.5 -11.5c7.33301 0 15.166 1 23.499 3s16.833 6 25.5 12l11 -30
c-8 -6 -18 -11 -30 -15s-23.667 -6 -35 -6c-22 0 -39.667 7.66699 -53 23s-20 34.666 -20 57.999z" />
    <glyph glyph-name="iogonek" unicode="&#x12f;" horiz-adv-x="155" 
d="M23 -93c0 12 2.83301 26.1689 8.5 42.502s14.834 33.166 27.501 50.499h-4v489h43v-489h-4c-11.333 -14 -20.333 -29 -27 -45s-10 -29.667 -10 -41c0 -19.333 4.16699 -32.833 12.5 -40.5s18.833 -11.5 31.5 -11.5c7.33301 0 15.166 1 23.499 3s16.833 6 25.5 12l11 -30
c-8 -6 -18 -11 -30 -15s-23.667 -6 -35 -6c-22 0 -39.667 7.66699 -53 23s-20 34.666 -20 57.999zM54 608.002v48h45v-48h-45z" />
    <glyph glyph-name="Idotaccent" unicode="&#x130;" horiz-adv-x="174" 
d="M65 0v696h44v-696h-44zM67 745v48h41v-48h-41z" />
    <glyph glyph-name="dotlessi" unicode="&#x131;" horiz-adv-x="155" 
d="M55 0v489h43v-489h-43z" />
    <glyph glyph-name="IJ" unicode="&#x132;" horiz-adv-x="478" 
d="M65 0v696h44v-696h-44zM418 696v-546.002c0 -50 -13.333 -88.667 -40 -116s-66 -41 -118 -41c-17.333 0 -35.5 2.33301 -54.5 7s-34.167 13.334 -45.5 26.001l25 33c10 -8 22 -14.333 36 -19s27.667 -7 41 -7c12.667 0 25.667 1.83301 39 5.5s25.5 9.83398 36.5 18.501
s20 20.5 27 35.5s10.5 33.833 10.5 56.5v547h43z" />
    <glyph glyph-name="ij" unicode="&#x133;" horiz-adv-x="316" 
d="M54 608v48h45v-48h-45zM55 0v489h43v-489h-43zM220 489h42v-562c0 -19.333 -1.33301 -36.833 -4 -52.5s-7.66699 -29.167 -15 -40.5s-17.333 -20.166 -30 -26.499s-29.334 -9.5 -50.001 -9.5h-13v38h7c26.667 0 43.834 7.16699 51.501 21.5s11.5 35.166 11.5 62.499v569z
M219 656h45v-48h-45v48z" />
    <glyph glyph-name="Jcircumflex" unicode="&#x134;" horiz-adv-x="321" 
d="M252 697v-546.002c0 -50 -13.333 -88.667 -40 -116s-66 -41 -118 -41c-17.333 0 -35.5 2.33301 -54.5 7s-34.167 13.334 -45.5 26.001l25 33c10 -8 22 -14.333 36 -19s27.667 -7 41 -7c12.667 0 25.667 1.83301 39 5.5s25.5 9.83398 36.5 18.501s20 20.5 27 35.5
s10.5 33.833 10.5 56.5v547h43zM232 812.998l-110 -77l-19 16l115 103h32l110 -101l-19 -17z" />
    <glyph glyph-name="jcircumflex" unicode="&#x135;" horiz-adv-x="226" 
d="M92 489h42.999v-547v-28c0 -9.33301 -0.666992 -18.666 -2 -27.999c-2.66699 -32 -12.167 -55.167 -28.5 -69.5s-39.833 -21.5 -70.5 -21.5h-11v39h6c26.667 0 43.834 7.16699 51.501 21.5s11.5 35.166 11.5 62.499v571zM221.999 552l-54 47.5l-55 48.5l-109 -97l-18 16
l56.5 60.5l56.5 61.5h32l110 -120z" />
    <glyph glyph-name="Kcommaaccent" unicode="&#x136;" horiz-adv-x="397" 
d="M345 0l-154 374l-97 -179v-195h-42v696h42v-418h2l221 418h45l-144 -274l174 -422h-47zM209 -182h-26c3.33301 14 6.5 28.167 9.5 42.5s6.16699 28.5 9.5 42.5h-13v56h53v-56z" />
    <glyph glyph-name="kcommaaccent" unicode="&#x137;" horiz-adv-x="346" 
d="M84 200h1l181 288h48l-114 -180l141 -308h-48l-120 268l-89 -141v-127h-42v726h42v-526zM183 -202h-26c3.33301 14 6.5 28.167 9.5 42.5s6.16699 28.5 9.5 42.5h-13v56h53v-56z" />
    <glyph glyph-name="kgreenlandic" unicode="&#x138;" horiz-adv-x="345" 
d="M84 200h1l182 288h47l-114 -180l139 -308h-48l-118 268l-89 -141v-127h-42v488h42v-288z" />
    <glyph glyph-name="Lacute" unicode="&#x139;" horiz-adv-x="333" 
d="M53 0v696h43v-656h228v-40h-271zM58 748l128 105l32 -36l-143 -89z" />
    <glyph glyph-name="lacute" unicode="&#x13a;" horiz-adv-x="168" 
d="M49 726h42v-611c0 -25.333 4.16699 -45.5 12.5 -60.5s25.166 -22.5 50.499 -22.5h12v-39h-15c-33.333 0 -58.666 8 -75.999 24s-26 45.333 -26 88v621zM52 768l128 105l32 -36l-143 -89z" />
    <glyph glyph-name="Lcommaaccent" unicode="&#x13b;" horiz-adv-x="333" 
d="M53 0v696h43v-656h228v-40h-271zM179 -202h-26c3.33301 14 6.5 28.167 9.5 42.5s6.16699 28.5 9.5 42.5h-13v56h53v-56z" />
    <glyph glyph-name="lcommaaccent" unicode="&#x13c;" horiz-adv-x="168" 
d="M49 726h42v-611c0 -25.333 4.16699 -45.5 12.5 -60.5s25.166 -22.5 50.499 -22.5h12v-39h-15c-33.333 0 -58.666 8 -75.999 24s-26 45.333 -26 88v621zM96 -202h-26c3.33301 14 6.5 28.167 9.5 42.5s6.16699 28.5 9.5 42.5h-13v56h53v-56z" />
    <glyph glyph-name="Lcaron" unicode="&#x13d;" horiz-adv-x="333" 
d="M53 0v696h43v-656h228v-40h-271zM229 555h-26c3.33301 14 6.5 28.167 9.5 42.5s6.16699 28.5 9.5 42.5h-13v56h53v-56z" />
    <glyph glyph-name="lcaron" unicode="&#x13e;" horiz-adv-x="217" 
d="M49 726h42v-611c0 -25.333 4.16699 -45.5 12.5 -60.5s25.166 -22.5 50.499 -22.5h12v-39h-15c-33.333 0 -58.666 8 -75.999 24s-26 45.333 -26 88v621zM183 585h-26c3.33301 14 6.5 28.167 9.5 42.5s6.16699 28.5 9.5 42.5h-13v56h53v-56z" />
    <glyph glyph-name="Ldot" unicode="&#x13f;" horiz-adv-x="333" 
d="M53 0v696h43v-656h228v-40h-271zM213 321v48h41v-48h-41z" />
    <glyph glyph-name="ldot" unicode="&#x140;" horiz-adv-x="217" 
d="M167 350v48h41v-48h-41zM49 726h42v-611c0 -25.333 4.16699 -45.5 12.5 -60.5s25.166 -22.5 50.499 -22.5h12v-39h-15c-33.333 0 -58.666 8 -75.999 24s-26 45.333 -26 88v621z" />
    <glyph glyph-name="Lslash" unicode="&#x141;" horiz-adv-x="371" 
d="M91 0v260l-74 -46l-17 26l91 57v399h43v-372l114 71l16 -26l-130 -82v-247h229v-40h-272z" />
    <glyph glyph-name="lslash" unicode="&#x142;" horiz-adv-x="246" 
d="M93 299l-76 -48l-17 26l93 58v391h42v-364l94 59l17 -26l-111 -70v-210c0 -25.333 4.16699 -45.5 12.5 -60.5s25.166 -22.5 50.499 -22.5h12v-39h-15c-33.333 0 -58.666 8 -75.999 24s-26 45.333 -26 88v194z" />
    <glyph glyph-name="Nacute" unicode="&#x143;" horiz-adv-x="431" 
d="M92 577v-577h-42v696h40l76 -178.5l76 -178.5l93 -222h4v579h42v-696h-41l-75.5 177.5l-75.5 177.5l-47.5 111l-46.5 111h-3zM182 748l128 105l32 -36l-143 -89z" />
    <glyph glyph-name="nacute" unicode="&#x144;" horiz-adv-x="357" 
d="M85 435l2.00195 -0.00195312c11.333 19.333 26.5 34.333 45.5 45s39.833 16 62.5 16s41.667 -3.33301 57 -10s27.666 -16 36.999 -28s16 -26 20 -42s6 -33.333 6 -52v-364h-44v351c0 14 -1.33301 27.333 -4 40s-7.33398 23.5 -14.001 32.5s-15.667 16.167 -27 21.5
s-25.333 8 -42 8c-16 0 -30.167 -3.16699 -42.5 -9.5s-22.833 -14.666 -31.5 -24.999s-15.167 -22.166 -19.5 -35.499s-6.5 -27 -6.5 -41v-342h-42v489h43v-54zM134.002 565.998l67 151l45 -17l-88 -144z" />
    <glyph glyph-name="Ncommaaccent" unicode="&#x145;" horiz-adv-x="431" 
d="M92 577v-577h-42v696h40l76 -178.5l76 -178.5l93 -222h4v579h42v-696h-41l-75.5 177.5l-75.5 177.5l-47.5 111l-46.5 111h-3zM210 -169h-26c3.33301 14 6.5 28.167 9.5 42.5s6.16699 28.5 9.5 42.5h-13v56h53v-56z" />
    <glyph glyph-name="ncommaaccent" unicode="&#x146;" horiz-adv-x="357" 
d="M85 435l2.00195 -0.00195312c11.333 19.333 26.5 34.333 45.5 45s39.833 16 62.5 16s41.667 -3.33301 57 -10s27.666 -16 36.999 -28s16 -26 20 -42s6 -33.333 6 -52v-364h-44v351c0 14 -1.33301 27.333 -4 40s-7.33398 23.5 -14.001 32.5s-15.667 16.167 -27 21.5
s-25.333 8 -42 8c-16 0 -30.167 -3.16699 -42.5 -9.5s-22.833 -14.666 -31.5 -24.999s-15.167 -22.166 -19.5 -35.499s-6.5 -27 -6.5 -41v-342h-42v489h43v-54zM172.002 -202.002h-26c3.33301 14 6.5 28.167 9.5 42.5s6.16699 28.5 9.5 42.5h-13v56h53v-56z" />
    <glyph glyph-name="Ncaron" unicode="&#x147;" horiz-adv-x="431" 
d="M92 577v-577h-42v696h40l76 -178.5l76 -178.5l93 -222h4v579h42v-696h-41l-75.5 177.5l-75.5 177.5l-47.5 111l-46.5 111h-3zM327 852l19 -17l-110 -100h-32l-114 102l18 16l110 -77z" />
    <glyph glyph-name="ncaron" unicode="&#x148;" horiz-adv-x="357" 
d="M85 435l2.00195 -0.00195312c11.333 19.333 26.5 34.333 45.5 45s39.833 16 62.5 16s41.667 -3.33301 57 -10s27.666 -16 36.999 -28s16 -26 20 -42s6 -33.333 6 -52v-364h-44v351c0 14 -1.33301 27.333 -4 40s-7.33398 23.5 -14.001 32.5s-15.667 16.167 -27 21.5
s-25.333 8 -42 8c-16 0 -30.167 -3.16699 -42.5 -9.5s-22.833 -14.666 -31.5 -24.999s-15.167 -22.166 -19.5 -35.499s-6.5 -27 -6.5 -41v-342h-42v489h43v-54zM282.002 688.998l19 -17l-110 -120h-32l-115 122l19 16l110 -97z" />
    <glyph glyph-name="napostrophe" unicode="&#x149;" horiz-adv-x="387" 
d="M115 435l2.00195 -0.00195312c11.333 19.333 26.5 34.333 45.5 45s39.833 16 62.5 16s41.667 -3.33301 57 -10s27.666 -16 36.999 -28s16 -26 20 -42s6 -33.333 6 -52v-364h-44v351c0 14 -1.33301 27.333 -4 40s-7.33398 23.5 -14.001 32.5s-15.667 16.167 -27 21.5
s-25.333 8 -42 8c-16 0 -30.167 -3.16699 -42.5 -9.5s-22.833 -14.666 -31.5 -24.999s-15.167 -22.166 -19.5 -35.499s-6.5 -27 -6.5 -41v-342h-42v489h43v-54zM30.002 497.998h-26c3.33301 14 6.5 28.167 9.5 42.5s6.16699 28.5 9.5 42.5h-13v56h53v-56z" />
    <glyph glyph-name="Eng" unicode="&#x14a;" horiz-adv-x="431" 
d="M92 577l0.000976562 -577h-42v696h40l84.5 -198.5l84.5 -198.5l76 -182h4v579h42v-751c0 -36 -7 -61.5 -21 -76.5s-32.667 -22.5 -56 -22.5c-10.667 0 -19.834 0.833008 -27.501 2.5s-16.167 5.16699 -25.5 10.5l13 31c11.333 -5.33301 22.666 -8 33.999 -8
c14.667 0 24.834 6 30.501 18s8.5 26.667 8.5 44v63c-6 12.667 -15.333 34 -28 64l-43.5 102.5l-51.5 121l-51 120l-42.5 100.5c-12.333 29.333 -20.833 50 -25.5 62h-3z" />
    <glyph glyph-name="eng" unicode="&#x14b;" horiz-adv-x="357" 
d="M85 435l2.00293 -0.00195312c11.333 19.333 26.5 34.333 45.5 45s39.833 16 62.5 16s41.667 -3.33301 57 -10s27.666 -16 36.999 -28s16 -26 20 -42s6 -33.333 6 -52v-419c0 -36 -7 -61.667 -21 -77s-32.667 -23 -56 -23c-10.667 0 -19.834 1 -27.501 3
s-16.167 5.33301 -25.5 10l13 32c11.333 -5.33301 22.333 -8 33 -8c15.333 0 25.833 6 31.5 18s8.5 26.667 8.5 44v407c0 14 -1.33301 27.333 -4 40s-7.33398 23.5 -14.001 32.5s-15.667 16.167 -27 21.5s-25.333 8 -42 8c-16 0 -30.167 -3.16699 -42.5 -9.5
s-22.833 -14.666 -31.5 -24.999s-15.167 -22.166 -19.5 -35.499s-6.5 -27 -6.5 -41v-342h-42v489h43v-54z" />
    <glyph glyph-name="Omacron" unicode="&#x14c;" horiz-adv-x="403" 
d="M358 156c0 -54 -14.165 -94.667 -42.498 -122s-66.5 -41 -114.5 -41s-85.833 13 -113.5 39s-41.5 64.333 -41.5 115v391c0 50 13.167 89.833 39.5 119.5s65.166 44.5 116.499 44.5s90.166 -13.667 116.499 -41s39.5 -67 39.5 -119v-386zM315.002 546
c0 34.667 -9.83301 62.833 -29.5 84.5s-47.5 32.5 -83.5 32.5c-19.333 0 -36 -3.5 -50 -10.5s-25.833 -16.333 -35.5 -28s-16.834 -25.167 -21.501 -40.5s-7 -31.333 -7 -48v-390c0 -34 9.83301 -61.5 29.5 -82.5s47.5 -31.5 83.5 -31.5c38.667 0 67.334 11 86.001 33
s28 51.333 28 88v393zM100.002 750.999v38h207v-38h-207z" />
    <glyph glyph-name="omacron" unicode="&#x14d;" horiz-adv-x="349" 
d="M176 496c36.667 0 64.667 -6.99902 84 -20.999s32.666 -31.667 39.999 -53c3.33301 -8.66699 5.83301 -20.167 7.5 -34.5s3 -30 4 -47s1.5 -34.333 1.5 -52v-49.5v-15c0 -17.333 -0.166992 -35 -0.5 -53s-1.5 -37.667 -3.5 -59c-2 -23.333 -7.5 -42.666 -16.5 -57.999
s-20 -27.5 -33 -36.5s-27.167 -15.333 -42.5 -19s-30.333 -5.5 -45 -5.5c-40 0 -69.833 8.16699 -89.5 24.5s-33.167 37.166 -40.5 62.499c-2 8 -3.66699 18.167 -5 30.5s-2.33301 25.833 -3 40.5s-1 29.667 -1 45v43c0 18 0.166992 35.833 0.5 53.5s1 34.5 2 50.5
s2.5 30.5 4.5 43.5s4.33301 23.5 7 31.5c8.66699 23.333 23.334 42.166 44.001 56.499s49 21.5 85 21.5zM175 457.001c-17.333 0 -34.001 -3.50195 -50.001 -10.502s-28 -20.5 -36 -40.5c-5.33301 -13.333 -8.66602 -34.166 -9.99902 -62.499s-2 -61.166 -2 -98.499v-25
c0 -32 0.5 -59 1.5 -81s3.5 -39 7.5 -51c6 -18 16.167 -31.833 30.5 -41.5s33.833 -14.5 58.5 -14.5c22 0 41 6 57 18s26.667 28.667 32 50c2.66699 11.333 4.5 29.333 5.5 54s1.5 51 1.5 79c0 14.667 -0.166992 30.334 -0.5 47.001l-1 48
c-0.333008 15.333 -1.16602 29.166 -2.49902 41.499s-3 21.833 -5 28.5c-6 20 -16.833 34.833 -32.5 44.5s-33.834 14.5 -54.501 14.5zM69.999 588.999v39h207v-39h-207z" />
    <glyph glyph-name="Obreve" unicode="&#x14e;" horiz-adv-x="403" 
d="M358 156c0 -54 -14.165 -94.667 -42.498 -122s-66.5 -41 -114.5 -41s-85.833 13 -113.5 39s-41.5 64.333 -41.5 115v391c0 50 13.167 89.833 39.5 119.5s65.166 44.5 116.499 44.5s90.166 -13.667 116.499 -41s39.5 -67 39.5 -119v-386zM315.002 546
c0 34.667 -9.83301 62.833 -29.5 84.5s-47.5 32.5 -83.5 32.5c-19.333 0 -36 -3.5 -50 -10.5s-25.833 -16.333 -35.5 -28s-16.834 -25.167 -21.501 -40.5s-7 -31.333 -7 -48v-390c0 -34 9.83301 -61.5 29.5 -82.5s47.5 -31.5 83.5 -31.5c38.667 0 67.334 11 86.001 33
s28 51.333 28 88v393zM119.002 848.999c3.33301 -21.333 12.8311 -39.5 28.498 -54.5s33.834 -22.5 54.501 -22.5c21.333 0 39.833 7 55.5 21s25.167 32.667 28.5 56h37c-2 -12.667 -5.66699 -25.5 -11 -38.5s-13 -25 -23 -36s-22.167 -20 -36.5 -27
s-31.166 -10.5 -50.499 -10.5c-20 0 -37.167 3.5 -51.5 10.5s-26.333 16 -36 27s-17 23 -22 36s-8.16699 25.833 -9.5 38.5h36z" />
    <glyph glyph-name="obreve" unicode="&#x14f;" horiz-adv-x="349" 
d="M176 496c36.667 0 64.667 -6.99902 84 -20.999s32.666 -31.667 39.999 -53c3.33301 -8.66699 5.83301 -20.167 7.5 -34.5s3 -30 4 -47s1.5 -34.333 1.5 -52v-49.5v-15c0 -17.333 -0.166992 -35 -0.5 -53s-1.5 -37.667 -3.5 -59c-2 -23.333 -7.5 -42.666 -16.5 -57.999
s-20 -27.5 -33 -36.5s-27.167 -15.333 -42.5 -19s-30.333 -5.5 -45 -5.5c-40 0 -69.833 8.16699 -89.5 24.5s-33.167 37.166 -40.5 62.499c-2 8 -3.66699 18.167 -5 30.5s-2.33301 25.833 -3 40.5s-1 29.667 -1 45v43c0 18 0.166992 35.833 0.5 53.5s1 34.5 2 50.5
s2.5 30.5 4.5 43.5s4.33301 23.5 7 31.5c8.66699 23.333 23.334 42.166 44.001 56.499s49 21.5 85 21.5zM175 457.001c-17.333 0 -34.001 -3.50195 -50.001 -10.502s-28 -20.5 -36 -40.5c-5.33301 -13.333 -8.66602 -34.166 -9.99902 -62.499s-2 -61.166 -2 -98.499v-25
c0 -32 0.5 -59 1.5 -81s3.5 -39 7.5 -51c6 -18 16.167 -31.833 30.5 -41.5s33.833 -14.5 58.5 -14.5c22 0 41 6 57 18s26.667 28.667 32 50c2.66699 11.333 4.5 29.333 5.5 54s1.5 51 1.5 79c0 14.667 -0.166992 30.334 -0.5 47.001l-1 48
c-0.333008 15.333 -1.16602 29.166 -2.49902 41.499s-3 21.833 -5 28.5c-6 20 -16.833 34.833 -32.5 44.5s-33.834 14.5 -54.501 14.5zM90.999 668.999c3.33301 -21.333 12.8301 -39.333 28.4971 -54s33.834 -22 54.501 -22c21.333 0 39.833 6.83301 55.5 20.5
s25.167 32.167 28.5 55.5h36c-1.33301 -12.667 -4.66602 -25.5 -9.99902 -38.5s-13 -25 -23 -36s-22.167 -20 -36.5 -27s-31.166 -10.5 -50.499 -10.5c-20 0 -37.167 3.5 -51.5 10.5s-26.333 16 -36 27s-17 23.167 -22 36.5s-8.16699 26 -9.5 38h36z" />
    <glyph glyph-name="Ohungarumlaut" unicode="&#x150;" horiz-adv-x="403" 
d="M358 156c0 -54 -14.165 -94.667 -42.498 -122s-66.5 -41 -114.5 -41s-85.833 13 -113.5 39s-41.5 64.333 -41.5 115v391c0 50 13.167 89.833 39.5 119.5s65.166 44.5 116.499 44.5s90.166 -13.667 116.499 -41s39.5 -67 39.5 -119v-386zM315.002 546
c0 34.667 -9.83301 62.833 -29.5 84.5s-47.5 32.5 -83.5 32.5c-19.333 0 -36 -3.5 -50 -10.5s-25.833 -16.333 -35.5 -28s-16.834 -25.167 -21.501 -40.5s-7 -31.333 -7 -48v-390c0 -34 9.83301 -61.5 29.5 -82.5s47.5 -31.5 83.5 -31.5c38.667 0 67.334 11 86.001 33
s28 51.333 28 88v393zM118.002 747.999l124 105l33 -36l-140 -89zM228.002 747.999l124 105l33 -36l-140 -89z" />
    <glyph glyph-name="ohungarumlaut" unicode="&#x151;" horiz-adv-x="349" 
d="M176 496c36.667 0 64.667 -6.99902 84 -20.999s32.666 -31.667 39.999 -53c3.33301 -8.66699 5.83301 -20.167 7.5 -34.5s3 -30 4 -47s1.5 -34.333 1.5 -52v-49.5v-15c0 -17.333 -0.166992 -35 -0.5 -53s-1.5 -37.667 -3.5 -59c-2 -23.333 -7.5 -42.666 -16.5 -57.999
s-20 -27.5 -33 -36.5s-27.167 -15.333 -42.5 -19s-30.333 -5.5 -45 -5.5c-40 0 -69.833 8.16699 -89.5 24.5s-33.167 37.166 -40.5 62.499c-2 8 -3.66699 18.167 -5 30.5s-2.33301 25.833 -3 40.5s-1 29.667 -1 45v43c0 18 0.166992 35.833 0.5 53.5s1 34.5 2 50.5
s2.5 30.5 4.5 43.5s4.33301 23.5 7 31.5c8.66699 23.333 23.334 42.166 44.001 56.499s49 21.5 85 21.5zM175 457.001c-17.333 0 -34.001 -3.50195 -50.001 -10.502s-28 -20.5 -36 -40.5c-5.33301 -13.333 -8.66602 -34.166 -9.99902 -62.499s-2 -61.166 -2 -98.499v-25
c0 -32 0.5 -59 1.5 -81s3.5 -39 7.5 -51c6 -18 16.167 -31.833 30.5 -41.5s33.833 -14.5 58.5 -14.5c22 0 41 6 57 18s26.667 28.667 32 50c2.66699 11.333 4.5 29.333 5.5 54s1.5 51 1.5 79c0 14.667 -0.166992 30.334 -0.5 47.001l-1 48
c-0.333008 15.333 -1.16602 29.166 -2.49902 41.499s-3 21.833 -5 28.5c-6 20 -16.833 34.833 -32.5 44.5s-33.834 14.5 -54.501 14.5zM110.999 565.999l66 151l46 -17l-88 -144zM196.999 565.999l66 151l46 -17l-88 -144z" />
    <glyph glyph-name="OE" unicode="&#x152;" horiz-adv-x="575" 
d="M246 697l10 -0.000976562c3.33301 0 6.33301 -0.333008 9 -1h281v-40h-241v-279h212v-40h-212v-298h241v-39h-279c-9.33301 -2 -19.833 -3.66699 -31.5 -5s-23.5 -2 -35.5 -2c-48 0 -86 12.833 -114 38.5s-42 63.834 -42 114.501v392c0 50 13.333 89.833 40 119.5
s65.334 44.5 116.001 44.5c8.66699 0 16.667 -0.166992 24 -0.5s14.666 -1.83301 21.999 -4.5zM200 661.999c-19.333 0 -35.999 -3.5 -49.999 -10.5s-25.667 -16.333 -35 -28s-16.333 -25.167 -21 -40.5s-7 -31.333 -7 -48v-390c0 -34 9.66699 -61.333 29 -82s47 -31 83 -31
c27.333 0 48.666 3.66699 63.999 11v608c-9.33301 4.66699 -19 7.66699 -29 9s-21.333 2 -34 2z" />
    <glyph glyph-name="oe" unicode="&#x153;" horiz-adv-x="581" 
d="M417 496c40 0 71.1709 -10.167 93.5039 -30.5s34.5 -49.5 36.5 -87.5c0.666992 -7.33301 1 -14.5 1 -21.5v-21.5v-97h-229c0 -5.33301 0.166992 -10.666 0.5 -15.999s0.5 -10.666 0.5 -15.999c0 -21.333 0.666992 -43.5 2 -66.5s3.66602 -40.167 6.99902 -51.5
c5.33301 -15.333 14.666 -28.5 27.999 -39.5s31.666 -16.5 54.999 -16.5c30.667 0 53 8.83301 67 26.5s22.333 38.167 25 61.5c7.33301 -2 14.333 -3.66699 21 -5s13.667 -3 21 -5c-4 -36 -17.667 -64.5 -41 -85.5s-54.333 -31.5 -93 -31.5c-35.333 0 -62 6.83301 -80 20.5
s-30.667 29.5 -38 47.5c-12 -25.333 -29.5 -43 -52.5 -53s-46.167 -15 -69.5 -15c-40 0 -69.833 8.16699 -89.5 24.5s-33.167 37.166 -40.5 62.499c-2 8 -3.5 18.167 -4.5 30.5s-1.83301 25.833 -2.5 40.5s-1 29.667 -1 45v43c0 18 0.166992 36 0.5 54s1 35.333 2 52
s2.33301 31.5 4 44.5s3.83398 23.5 6.50098 31.5c8.66699 23.333 23.334 41.666 44.001 54.999s49 20 85 20c33.333 0 59.166 -6.33301 77.499 -19s32.166 -28 41.499 -46h2c9.33301 19.333 23.666 35 42.999 47s45 18 77 18zM175.004 457
c-17.333 0 -34.001 -3.50195 -50.001 -10.502s-28 -20.5 -36 -40.5c-5.33301 -13.333 -8.66602 -34.166 -9.99902 -62.499s-2 -61.166 -2 -98.499v-25c0 -32 0.5 -59 1.5 -81s3.5 -39 7.5 -51c6 -18 16.167 -31.833 30.5 -41.5s33.833 -14.5 58.5 -14.5c22 0 41 6 57 18
s26.667 28.667 32 50c2.66699 11.333 4.5 29.333 5.5 54s1.5 51 1.5 79c0 14.667 -0.166992 30.334 -0.5 47.001l-1 48c-0.333008 15.333 -1.16602 29.166 -2.49902 41.499s-3 21.833 -5 28.5c-6 20 -16.833 34.833 -32.5 44.5s-33.834 14.5 -54.501 14.5zM331.003 403.998
c-5.33301 -11.333 -8.33203 -28.167 -8.99902 -50.5s-1.33398 -48.833 -2.00098 -79.5h184v93c0 25.333 -7.16699 46.5 -21.5 63.5s-36.833 25.5 -67.5 25.5c-16.667 0 -32.667 -3.66699 -48 -11s-27.333 -21 -36 -41z" />
    <glyph glyph-name="Racute" unicode="&#x154;" horiz-adv-x="397" 
d="M187 696c32.667 0 60.332 -4.16602 82.999 -12.499s40.667 -20.5 54 -36.5s23 -35.5 29 -58.5s9 -49.167 9 -78.5c0 -14 -1 -26.333 -3 -37c-3.33301 -36 -13.166 -66.333 -29.499 -91s-41.5 -42.334 -75.5 -53.001l26.5 -80l28.5 -85l28.5 -84.5
c9.66699 -27.667 18.5 -54.167 26.5 -79.5h-46l-105 320c-6 -0.666992 -12.333 -1 -19 -1h-20h-79v-319h-43v696h135zM94.998 657.001l0.00390625 -300.001h86c49.333 0 84.666 12 105.999 36s32 63 32 117c0 22.667 -2.33301 43.167 -7 61.5s-12.334 33.833 -23.001 46.5
s-24.834 22.334 -42.501 29.001s-39.834 10 -66.501 10h-85zM137.002 748l128 105l32 -36l-143 -89z" />
    <glyph glyph-name="racute" unicode="&#x155;" horiz-adv-x="234" 
d="M228 446c-4 0.666992 -8.16699 1.16699 -12.5 1.5s-8.5 0.5 -12.5 0.5c-33.333 0 -59.166 -11.333 -77.499 -34s-27.5 -55 -27.5 -97v-317h-43v489h43v-67h2c10.667 26 25 44.833 43 56.5s39.667 17.5 65 17.5h10c3.33301 0 6.66602 -0.333008 9.99902 -1v-49zM101 566
l67 151l45 -17l-88 -144z" />
    <glyph glyph-name="Rcommaaccent" unicode="&#x156;" horiz-adv-x="397" 
d="M187 696c32.667 0 60.332 -4.16602 82.999 -12.499s40.667 -20.5 54 -36.5s23 -35.5 29 -58.5s9 -49.167 9 -78.5c0 -14 -1 -26.333 -3 -37c-3.33301 -36 -13.166 -66.333 -29.499 -91s-41.5 -42.334 -75.5 -53.001l26.5 -80l28.5 -85l28.5 -84.5
c9.66699 -27.667 18.5 -54.167 26.5 -79.5h-46l-105 320c-6 -0.666992 -12.333 -1 -19 -1h-20h-79v-319h-43v696h135zM94.998 657.001l0.00390625 -300.001h86c49.333 0 84.666 12 105.999 36s32 63 32 117c0 22.667 -2.33301 43.167 -7 61.5s-12.334 33.833 -23.001 46.5
s-24.834 22.334 -42.501 29.001s-39.834 10 -66.501 10h-85zM192.002 -182h-26c3.33301 14 6.5 28.167 9.5 42.5s6.16699 28.5 9.5 42.5h-13v56h53v-56z" />
    <glyph glyph-name="rcommaaccent" unicode="&#x157;" horiz-adv-x="234" 
d="M228 446c-4 0.666992 -8.16699 1.16699 -12.5 1.5s-8.5 0.5 -12.5 0.5c-33.333 0 -59.166 -11.333 -77.499 -34s-27.5 -55 -27.5 -97v-317h-43v489h43v-67h2c10.667 26 25 44.833 43 56.5s39.667 17.5 65 17.5h10c3.33301 0 6.66602 -0.333008 9.99902 -1v-49zM71 -202
h-26c3.33301 14 6.5 28.167 9.5 42.5s6.16699 28.5 9.5 42.5h-13v56h53v-56z" />
    <glyph glyph-name="Rcaron" unicode="&#x158;" horiz-adv-x="397" 
d="M187 696c32.667 0 60.332 -4.16602 82.999 -12.499s40.667 -20.5 54 -36.5s23 -35.5 29 -58.5s9 -49.167 9 -78.5c0 -14 -1 -26.333 -3 -37c-3.33301 -36 -13.166 -66.333 -29.499 -91s-41.5 -42.334 -75.5 -53.001l26.5 -80l28.5 -85l28.5 -84.5
c9.66699 -27.667 18.5 -54.167 26.5 -79.5h-46l-105 320c-6 -0.666992 -12.333 -1 -19 -1h-20h-79v-319h-43v696h135zM94.998 657.001l0.00390625 -300.001h86c49.333 0 84.666 12 105.999 36s32 63 32 117c0 22.667 -2.33301 43.167 -7 61.5s-12.334 33.833 -23.001 46.5
s-24.834 22.334 -42.501 29.001s-39.834 10 -66.501 10h-85zM284.002 852l19 -17l-110 -100h-32l-114 102l18 16l110 -77z" />
    <glyph glyph-name="rcaron" unicode="&#x159;" horiz-adv-x="234" 
d="M228 446c-4 0.666992 -8.16699 1.16699 -12.5 1.5s-8.5 0.5 -12.5 0.5c-33.333 0 -59.166 -11.333 -77.499 -34s-27.5 -55 -27.5 -97v-317h-43v489h43v-67h2c10.667 26 25 44.833 43 56.5s39.667 17.5 65 17.5h10c3.33301 0 6.66602 -0.333008 9.99902 -1v-49zM225 689
l19 -17l-110 -120h-32l-115 122l19 16l110 -97z" />
    <glyph glyph-name="Sacute" unicode="&#x15a;" horiz-adv-x="378" 
d="M347 182c0 -28.667 -2.66113 -54.668 -7.99414 -78.001s-14 -43.166 -26 -59.499s-28 -29 -48 -38s-45 -13.5 -75 -13.5c-28 0 -51.833 3.83301 -71.5 11.5s-35.834 18.167 -48.501 31.5s-21.834 29 -27.501 47s-8.83398 37.667 -9.50098 59l44 9
c0 -15.333 2 -30.166 6 -44.499s10.5 -26.833 19.5 -37.5s20.667 -19.167 35 -25.5s31.833 -9.5 52.5 -9.5c24.667 0 44.5 4 59.5 12s26.5 18.667 34.5 32s13.167 29 15.5 47s3.5 36.667 3.5 56c0 23.333 -1.16699 42.833 -3.5 58.5s-7.33301 29.334 -15 41.001
s-19 22.334 -34 32.001s-35.5 20.167 -61.5 31.5c-33.333 14.667 -60 29 -80 43s-35.167 28.167 -45.5 42.5s-17 29.5 -20 45.5s-4.5 33.667 -4.5 53c0 25.333 3 48.666 9 69.999s15.333 39.666 28 54.999s28.667 27.333 48 36s42.666 13 69.999 13
c30 0 54.833 -4.33301 74.5 -13s35.334 -20 47.001 -34s19.834 -29.5 24.501 -46.5s7 -33.833 7 -50.5l-44 -11c0 16 -1.83301 30.833 -5.5 44.5s-9.83398 25.667 -18.501 36s-20.167 18.5 -34.5 24.5s-31.833 9 -52.5 9c-22.667 0 -41.167 -4.16699 -55.5 -12.5
s-25.5 -19 -33.5 -32s-13.333 -27.167 -16 -42.5s-4 -30.333 -4 -45c0 -17.333 1.66699 -32.5 5 -45.5s9.66602 -25.167 18.999 -36.5s22.666 -22.333 39.999 -33s40.666 -22.334 69.999 -35.001c30 -12.667 53.667 -25.5 71 -38.5s30.333 -27 39 -42s14.167 -32 16.5 -51
s3.5 -40.833 3.5 -65.5zM136.006 747.999l128 105l32 -36l-143 -89z" />
    <glyph glyph-name="sacute" unicode="&#x15b;" horiz-adv-x="322" 
d="M69 125c0 -28 7.83105 -50.3281 23.498 -66.9951s37.5 -25 65.5 -25c35.333 0 59.666 8.33301 72.999 25s20 40 20 70c0 14.667 -1.16699 27.167 -3.5 37.5s-6.83301 19.666 -13.5 27.999s-16 16 -28 23s-28 14.167 -48 21.5c-26 10 -47.333 20 -64 30
s-29.5 20.5 -38.5 31.5s-15.167 22.5 -18.5 34.5s-5 24.667 -5 38c0 36.667 10.667 66.667 32 90s55 35 101 35c42 0 74.5 -10.833 97.5 -32.5s34.5 -52.834 34.5 -93.501l-45 -7c0 30 -7.83301 53 -23.5 69s-37.5 24 -65.5 24c-17.333 0 -31.666 -2.5 -42.999 -7.5
s-20.166 -11.5 -26.499 -19.5s-10.833 -17 -13.5 -27s-4 -20.333 -4 -31s1.33301 -20.334 4 -29.001s7.83398 -16.834 15.501 -24.501s18.5 -15.167 32.5 -22.5s32 -15 54 -23c25.333 -9.33301 45.333 -19 60 -29s25.834 -20.833 33.501 -32.5s12.667 -24.334 15 -38.001
s3.5 -28.5 3.5 -44.5c0 -20 -2.33301 -38.333 -7 -55s-12.334 -31 -23.001 -43s-24.5 -21.333 -41.5 -28s-37.833 -10 -62.5 -10c-42.667 0 -75.5 10.333 -98.5 31s-35.167 52 -36.5 94zM139.998 566.005l67 151l45 -17l-88 -144z" />
    <glyph glyph-name="Scircumflex" unicode="&#x15c;" horiz-adv-x="378" 
d="M347 182c0 -28.667 -2.66113 -54.668 -7.99414 -78.001s-14 -43.166 -26 -59.499s-28 -29 -48 -38s-45 -13.5 -75 -13.5c-28 0 -51.833 3.83301 -71.5 11.5s-35.834 18.167 -48.501 31.5s-21.834 29 -27.501 47s-8.83398 37.667 -9.50098 59l44 9
c0 -15.333 2 -30.166 6 -44.499s10.5 -26.833 19.5 -37.5s20.667 -19.167 35 -25.5s31.833 -9.5 52.5 -9.5c24.667 0 44.5 4 59.5 12s26.5 18.667 34.5 32s13.167 29 15.5 47s3.5 36.667 3.5 56c0 23.333 -1.16699 42.833 -3.5 58.5s-7.33301 29.334 -15 41.001
s-19 22.334 -34 32.001s-35.5 20.167 -61.5 31.5c-33.333 14.667 -60 29 -80 43s-35.167 28.167 -45.5 42.5s-17 29.5 -20 45.5s-4.5 33.667 -4.5 53c0 25.333 3 48.666 9 69.999s15.333 39.666 28 54.999s28.667 27.333 48 36s42.666 13 69.999 13
c30 0 54.833 -4.33301 74.5 -13s35.334 -20 47.001 -34s19.834 -29.5 24.501 -46.5s7 -33.833 7 -50.5l-44 -11c0 16 -1.83301 30.833 -5.5 44.5s-9.83398 25.667 -18.501 36s-20.167 18.5 -34.5 24.5s-31.833 9 -52.5 9c-22.667 0 -41.167 -4.16699 -55.5 -12.5
s-25.5 -19 -33.5 -32s-13.333 -27.167 -16 -42.5s-4 -30.333 -4 -45c0 -17.333 1.66699 -32.5 5 -45.5s9.66602 -25.167 18.999 -36.5s22.666 -22.333 39.999 -33s40.666 -22.334 69.999 -35.001c30 -12.667 53.667 -25.5 71 -38.5s30.333 -27 39 -42s14.167 -32 16.5 -51
s3.5 -40.833 3.5 -65.5zM193.006 810.999l-110 -77l-19 16l115 103h32l110 -101l-19 -17z" />
    <glyph glyph-name="scircumflex" unicode="&#x15d;" horiz-adv-x="322" 
d="M69 125c0 -28 7.83105 -50.3281 23.498 -66.9951s37.5 -25 65.5 -25c35.333 0 59.666 8.33301 72.999 25s20 40 20 70c0 14.667 -1.16699 27.167 -3.5 37.5s-6.83301 19.666 -13.5 27.999s-16 16 -28 23s-28 14.167 -48 21.5c-26 10 -47.333 20 -64 30
s-29.5 20.5 -38.5 31.5s-15.167 22.5 -18.5 34.5s-5 24.667 -5 38c0 36.667 10.667 66.667 32 90s55 35 101 35c42 0 74.5 -10.833 97.5 -32.5s34.5 -52.834 34.5 -93.501l-45 -7c0 30 -7.83301 53 -23.5 69s-37.5 24 -65.5 24c-17.333 0 -31.666 -2.5 -42.999 -7.5
s-20.166 -11.5 -26.499 -19.5s-10.833 -17 -13.5 -27s-4 -20.333 -4 -31s1.33301 -20.334 4 -29.001s7.83398 -16.834 15.501 -24.501s18.5 -15.167 32.5 -22.5s32 -15 54 -23c25.333 -9.33301 45.333 -19 60 -29s25.834 -20.833 33.501 -32.5s12.667 -24.334 15 -38.001
s3.5 -28.5 3.5 -44.5c0 -20 -2.33301 -38.333 -7 -55s-12.334 -31 -23.001 -43s-24.5 -21.333 -41.5 -28s-37.833 -10 -62.5 -10c-42.667 0 -75.5 10.333 -98.5 31s-35.167 52 -36.5 94zM164.998 648.005l-110 -97l-19 16l115 123h31l111 -121l-20 -17z" />
    <glyph glyph-name="Scedilla" unicode="&#x15e;" horiz-adv-x="378" 
d="M347 182c0 -27.333 -2.49805 -52.3359 -7.49805 -75.0029s-13.167 -42.334 -24.5 -59.001s-26.166 -29.667 -44.499 -39s-41.166 -14.666 -68.499 -15.999l-14 -56c15.333 -1.33301 28.166 -4.5 38.499 -9.5s18.5 -11 24.5 -18s10.167 -14.5 12.5 -22.5
s3.5 -15.333 3.5 -22c0 -17.333 -6 -33.5 -18 -48.5s-31.333 -22.5 -58 -22.5c-10 0 -21.667 0.833008 -35 2.5s-26.666 6.16699 -39.999 13.5l10 24c11.333 -5.33301 21.833 -8.66602 31.5 -9.99902s18.5 -2 26.5 -2c14 0 25.667 3.5 35 10.5s14 17.5 14 31.5
c0 13.333 -5 24.5 -15 33.5s-25.667 13.5 -47 13.5l-16 12l19 71c-50 2.66699 -85.833 17.834 -107.5 45.501s-32.834 61.834 -33.501 102.501l44 9c0 -15.333 2 -30.166 6 -44.499s10.5 -26.833 19.5 -37.5s20.667 -19.167 35 -25.5s31.833 -9.5 52.5 -9.5
c24.667 0 44.5 4 59.5 12s26.5 18.667 34.5 32s13.167 29 15.5 47s3.5 36.667 3.5 56c0 23.333 -1.16699 42.833 -3.5 58.5s-7.33301 29.334 -15 41.001s-19 22.334 -34 32.001s-35.5 20.167 -61.5 31.5c-33.333 14.667 -60 29 -80 43s-35.167 28.167 -45.5 42.5
s-17 29.5 -20 45.5s-4.5 33.667 -4.5 53c0 25.333 3 48.666 9 69.999s15.333 39.666 28 54.999s28.667 27.333 48 36s42.666 13 69.999 13c30 0 54.833 -4.33301 74.5 -13s35.334 -20 47.001 -34s19.834 -29.5 24.501 -46.5s7 -33.833 7 -50.5l-44 -11
c0 16 -1.83301 30.833 -5.5 44.5s-9.83398 25.667 -18.501 36s-20.167 18.5 -34.5 24.5s-31.833 9 -52.5 9c-22.667 0 -41.167 -4.16699 -55.5 -12.5s-25.5 -19 -33.5 -32s-13.333 -27.167 -16 -42.5s-4 -30.333 -4 -45c0 -17.333 1.66699 -32.5 5 -45.5
s9.66602 -25.167 18.999 -36.5s22.666 -22.333 39.999 -33s40.666 -22.334 69.999 -35.001c30 -12.667 53.667 -25.5 71 -38.5s30.333 -27 39 -42s14.167 -32 16.5 -51s3.5 -40.833 3.5 -65.5z" />
    <glyph glyph-name="scedilla" unicode="&#x15f;" horiz-adv-x="322" 
d="M69 125c0 -28 7.83008 -50.3301 23.4971 -66.9971s37.5 -25 65.5 -25c35.333 0 59.666 8.33301 72.999 25s20 40 20 70c0 14.667 -1.16699 27.167 -3.5 37.5s-6.83301 19.666 -13.5 27.999s-16 16 -28 23s-28 14.167 -48 21.5c-26 10 -47.333 20 -64 30
s-29.5 20.5 -38.5 31.5s-15.167 22.5 -18.5 34.5s-5 24.667 -5 38c0 36.667 10.667 66.667 32 90s55 35 101 35c42 0 74.5 -10.833 97.5 -32.5s34.5 -52.834 34.5 -93.501l-45 -7c0 30 -7.83301 53 -23.5 69s-37.5 24 -65.5 24c-17.333 0 -31.666 -2.5 -42.999 -7.5
s-20.166 -11.5 -26.499 -19.5s-10.833 -17 -13.5 -27s-4 -20.333 -4 -31s1.33301 -20.334 4 -29.001s7.83398 -16.834 15.501 -24.501s18.5 -15.167 32.5 -22.5s32 -15 54 -23c25.333 -9.33301 45.333 -19 60 -29s25.834 -20.833 33.501 -32.5s12.667 -24.334 15 -38.001
s3.5 -28.5 3.5 -44.5c0 -38 -8.83301 -69.167 -26.5 -93.5s-48.167 -38.166 -91.5 -41.499l-14 -57c15.333 -1.33301 28.166 -4.5 38.499 -9.5s18.5 -11 24.5 -18s10.167 -14.5 12.5 -22.5s3.5 -15.333 3.5 -22c0 -17.333 -6 -33.5 -18 -48.5s-31.333 -22.5 -58 -22.5
c-10 0 -21.667 0.833008 -35 2.5s-26.666 6.16699 -39.999 13.5l10 24c11.333 -5.33301 21.833 -8.66602 31.5 -9.99902s18.5 -2 26.5 -2c14 0 25.667 3.5 35 10.5s14 17.5 14 31.5c0 13.333 -5 24.5 -15 33.5s-25.667 13.5 -47 13.5l-16 12l19 70
c-39.333 2 -69.333 13.333 -90 34s-31.667 51 -33 91z" />
    <glyph glyph-name="Scaron" unicode="&#x160;" horiz-adv-x="378" 
d="M347 182c0 -28.667 -2.66113 -54.668 -7.99414 -78.001s-14 -43.166 -26 -59.499s-28 -29 -48 -38s-45 -13.5 -75 -13.5c-28 0 -51.833 3.83301 -71.5 11.5s-35.834 18.167 -48.501 31.5s-21.834 29 -27.501 47s-8.83398 37.667 -9.50098 59l44 9
c0 -15.333 2 -30.166 6 -44.499s10.5 -26.833 19.5 -37.5s20.667 -19.167 35 -25.5s31.833 -9.5 52.5 -9.5c24.667 0 44.5 4 59.5 12s26.5 18.667 34.5 32s13.167 29 15.5 47s3.5 36.667 3.5 56c0 23.333 -1.16699 42.833 -3.5 58.5s-7.33301 29.334 -15 41.001
s-19 22.334 -34 32.001s-35.5 20.167 -61.5 31.5c-33.333 14.667 -60 29 -80 43s-35.167 28.167 -45.5 42.5s-17 29.5 -20 45.5s-4.5 33.667 -4.5 53c0 25.333 3 48.666 9 69.999s15.333 39.666 28 54.999s28.667 27.333 48 36s42.666 13 69.999 13
c30 0 54.833 -4.33301 74.5 -13s35.334 -20 47.001 -34s19.834 -29.5 24.501 -46.5s7 -33.833 7 -50.5l-44 -11c0 16 -1.83301 30.833 -5.5 44.5s-9.83398 25.667 -18.501 36s-20.167 18.5 -34.5 24.5s-31.833 9 -52.5 9c-22.667 0 -41.167 -4.16699 -55.5 -12.5
s-25.5 -19 -33.5 -32s-13.333 -27.167 -16 -42.5s-4 -30.333 -4 -45c0 -17.333 1.66699 -32.5 5 -45.5s9.66602 -25.167 18.999 -36.5s22.666 -22.333 39.999 -33s40.666 -22.334 69.999 -35.001c30 -12.667 53.667 -25.5 71 -38.5s30.333 -27 39 -42s14.167 -32 16.5 -51
s3.5 -40.833 3.5 -65.5zM295.006 851.999l19 -17l-110 -100h-32l-114 102l18 16l110 -77z" />
    <glyph glyph-name="scaron" unicode="&#x161;" horiz-adv-x="322" 
d="M69 125c0 -28 7.83105 -50.3281 23.498 -66.9951s37.5 -25 65.5 -25c35.333 0 59.666 8.33301 72.999 25s20 40 20 70c0 14.667 -1.16699 27.167 -3.5 37.5s-6.83301 19.666 -13.5 27.999s-16 16 -28 23s-28 14.167 -48 21.5c-26 10 -47.333 20 -64 30
s-29.5 20.5 -38.5 31.5s-15.167 22.5 -18.5 34.5s-5 24.667 -5 38c0 36.667 10.667 66.667 32 90s55 35 101 35c42 0 74.5 -10.833 97.5 -32.5s34.5 -52.834 34.5 -93.501l-45 -7c0 30 -7.83301 53 -23.5 69s-37.5 24 -65.5 24c-17.333 0 -31.666 -2.5 -42.999 -7.5
s-20.166 -11.5 -26.499 -19.5s-10.833 -17 -13.5 -27s-4 -20.333 -4 -31s1.33301 -20.334 4 -29.001s7.83398 -16.834 15.501 -24.501s18.5 -15.167 32.5 -22.5s32 -15 54 -23c25.333 -9.33301 45.333 -19 60 -29s25.834 -20.833 33.501 -32.5s12.667 -24.334 15 -38.001
s3.5 -28.5 3.5 -44.5c0 -20 -2.33301 -38.333 -7 -55s-12.334 -31 -23.001 -43s-24.5 -21.333 -41.5 -28s-37.833 -10 -62.5 -10c-42.667 0 -75.5 10.333 -98.5 31s-35.167 52 -36.5 94zM276.998 689.005l19 -17l-110 -120h-32l-115 122l19 16l110 -97z" />
    <glyph glyph-name="Tcommaaccent" unicode="&#x162;" horiz-adv-x="319" 
d="M181 657v-657h-44v657h-132v39h308v-39h-132zM154 -202h-26c3.33301 14 6.5 28.167 9.5 42.5s6.16699 28.5 9.5 42.5h-13v56h53v-56z" />
    <glyph glyph-name="tcommaaccent" unicode="&#x163;" horiz-adv-x="219" 
d="M18 489h56v134h43v-134h74v-35h-74v-339c0 -24.667 5.16699 -43.5 15.5 -56.5s27.833 -19.5 52.5 -19.5h11v-39h-19c-68.667 0 -103 36.667 -103 110v344h-56v35zM106 -202h-26c3.33301 14 6.5 28.167 9.5 42.5s6.16699 28.5 9.5 42.5h-13v56h53v-56z" />
    <glyph glyph-name="Tcaron" unicode="&#x164;" horiz-adv-x="319" 
d="M181 657v-657h-44v657h-132v39h308v-39h-132zM269 852l19 -17l-110 -100h-32l-114 102l18 16l110 -77z" />
    <glyph glyph-name="tcaron" unicode="&#x165;" horiz-adv-x="260" 
d="M18 489h56v134h43v-134h74v-35h-74v-339c0 -24.667 5.16699 -43.5 15.5 -56.5s27.833 -19.5 52.5 -19.5h11v-39h-19c-68.667 0 -103 36.667 -103 110v344h-56v35zM209 551h-26c3.33301 14 6.5 28.167 9.5 42.5s6.16699 28.5 9.5 42.5h-13v56h53v-56z" />
    <glyph glyph-name="Tbar" unicode="&#x166;" horiz-adv-x="319" 
d="M181 657v-250h107v-32h-107v-375h-44v375h-103v32h103v250h-132v39h308v-39h-132z" />
    <glyph glyph-name="tbar" unicode="&#x167;" horiz-adv-x="219" 
d="M18 489h56v134h43v-134h74v-35h-74v-94h72v-32h-72v-213c0 -24.667 5.16699 -43.5 15.5 -56.5s27.833 -19.5 52.5 -19.5h11v-39h-19c-68.667 0 -103 36.667 -103 110v218h-55v32h55v94h-56v35z" />
    <glyph glyph-name="Utilde" unicode="&#x168;" horiz-adv-x="393" 
d="M352 695v-539c0 -54 -14 -94.667 -42 -122s-66 -41 -114 -41s-86 13 -114 39s-42 64.333 -42 115v548h43v-549c0 -34 9.83301 -61.5 29.5 -82.5s47.5 -31.5 83.5 -31.5c38 0 66.333 11 85 33s28 51.333 28 88v542h43zM332 805
c-8 -21.333 -19.1689 -37.001 -33.502 -47.001s-28.166 -15 -41.499 -15c-10 0 -19.833 2 -29.5 6s-19.167 8.33301 -28.5 13s-18.5 9 -27.5 13s-17.833 6 -26.5 6c-8 0 -16.167 -3.16699 -24.5 -9.5s-16.166 -14.833 -23.499 -25.5l-24 15
c8 16.667 18.333 30.334 31 41.001s26 16 40 16c10 0 19.667 -2 29 -6s18.5 -8.33301 27.5 -13s18.167 -9 27.5 -13s19.333 -6 30 -6c18.667 0 35.667 13 51 39z" />
    <glyph glyph-name="utilde" unicode="&#x169;" horiz-adv-x="358" 
d="M273 55l-2.99609 0.00195312c-11.333 -19.333 -26.333 -34.5 -45 -45.5s-39.667 -16.5 -63 -16.5c-22.667 0 -41.667 3.5 -57 10.5s-27.5 16.5 -36.5 28.5s-15.5 26 -19.5 42s-6 33 -6 51v365h44v-351c0 -15.333 1.33301 -29.333 4 -42s7.16699 -23.5 13.5 -32.5
s15.166 -16.167 26.499 -21.5s25.666 -8 42.999 -8c15.333 0 29.166 3.16699 41.499 9.5s22.666 14.666 30.999 24.999s14.833 22.166 19.5 35.499s7 27 7 41v344h43v-490h-43v55zM315.004 635.002c-8 -21.333 -19.1689 -37.001 -33.502 -47.001s-28.166 -15 -41.499 -15
c-10 0 -19.833 2 -29.5 6s-19.167 8.33301 -28.5 13s-18.5 9 -27.5 13s-17.833 6 -26.5 6c-8 0 -16.167 -3.16699 -24.5 -9.5s-16.166 -14.833 -23.499 -25.5l-24 15c8 16.667 18.333 30.334 31 41.001s26 16 40 16c10 0 19.667 -2 29 -6s18.5 -8.33301 27.5 -13
s18.167 -9 27.5 -13s19.333 -6 30 -6c18.667 0 35.667 13 51 39z" />
    <glyph glyph-name="Umacron" unicode="&#x16a;" horiz-adv-x="393" 
d="M352 695v-539c0 -54 -14 -94.667 -42 -122s-66 -41 -114 -41s-86 13 -114 39s-42 64.333 -42 115v548h43v-549c0 -34 9.83301 -61.5 29.5 -82.5s47.5 -31.5 83.5 -31.5c38 0 66.333 11 85 33s28 51.333 28 88v542h43zM95 751v38h207v-38h-207z" />
    <glyph glyph-name="umacron" unicode="&#x16b;" horiz-adv-x="358" 
d="M273 55l-2.99609 0.00195312c-11.333 -19.333 -26.333 -34.5 -45 -45.5s-39.667 -16.5 -63 -16.5c-22.667 0 -41.667 3.5 -57 10.5s-27.5 16.5 -36.5 28.5s-15.5 26 -19.5 42s-6 33 -6 51v365h44v-351c0 -15.333 1.33301 -29.333 4 -42s7.16699 -23.5 13.5 -32.5
s15.166 -16.167 26.499 -21.5s25.666 -8 42.999 -8c15.333 0 29.166 3.16699 41.499 9.5s22.666 14.666 30.999 24.999s14.833 22.166 19.5 35.499s7 27 7 41v344h43v-490h-43v55zM78.0039 589.002v39h207v-39h-207z" />
    <glyph glyph-name="Ubreve" unicode="&#x16c;" horiz-adv-x="393" 
d="M352 695v-539c0 -54 -14 -94.667 -42 -122s-66 -41 -114 -41s-86 13 -114 39s-42 64.333 -42 115v548h43v-549c0 -34 9.83301 -61.5 29.5 -82.5s47.5 -31.5 83.5 -31.5c38 0 66.333 11 85 33s28 51.333 28 88v542h43zM113 849
c3.33301 -21.333 12.8311 -39.5 28.498 -54.5s33.834 -22.5 54.501 -22.5c21.333 0 39.833 7 55.5 21s25.167 32.667 28.5 56h37c-2 -12.667 -5.66699 -25.5 -11 -38.5s-13 -25 -23 -36s-22.167 -20 -36.5 -27s-31.166 -10.5 -50.499 -10.5c-20 0 -37.167 3.5 -51.5 10.5
s-26.333 16 -36 27s-17 23 -22 36s-8.16699 25.833 -9.5 38.5h36z" />
    <glyph glyph-name="ubreve" unicode="&#x16d;" horiz-adv-x="358" 
d="M273 55l-2.99609 0.00195312c-11.333 -19.333 -26.333 -34.5 -45 -45.5s-39.667 -16.5 -63 -16.5c-22.667 0 -41.667 3.5 -57 10.5s-27.5 16.5 -36.5 28.5s-15.5 26 -19.5 42s-6 33 -6 51v365h44v-351c0 -15.333 1.33301 -29.333 4 -42s7.16699 -23.5 13.5 -32.5
s15.166 -16.167 26.499 -21.5s25.666 -8 42.999 -8c15.333 0 29.166 3.16699 41.499 9.5s22.666 14.666 30.999 24.999s14.833 22.166 19.5 35.499s7 27 7 41v344h43v-490h-43v55zM98.0039 669.002c3.33301 -21.333 12.8301 -39.333 28.4971 -54s33.834 -22 54.501 -22
c21.333 0 39.833 6.83301 55.5 20.5s25.167 32.167 28.5 55.5h36c-1.33301 -12.667 -4.66602 -25.5 -9.99902 -38.5s-13 -25 -23 -36s-22.167 -20 -36.5 -27s-31.166 -10.5 -50.499 -10.5c-20 0 -37.167 3.5 -51.5 10.5s-26.333 16 -36 27s-17 23.167 -22 36.5
s-8.16699 26 -9.5 38h36z" />
    <glyph glyph-name="Uring" unicode="&#x16e;" horiz-adv-x="393" 
d="M352 695v-539c0 -54 -14 -94.667 -42 -122s-66 -41 -114 -41s-86 13 -114 39s-42 64.333 -42 115v548h43v-549c0 -34 9.83301 -61.5 29.5 -82.5s47.5 -31.5 83.5 -31.5c38 0 66.333 11 85 33s28 51.333 28 88v542h43zM199 712c-22 0 -40.833 8 -56.5 24
s-23.5 35 -23.5 57c0 23.333 7.83301 42.833 23.5 58.5s34.5 23.5 56.5 23.5s40.833 -7.83301 56.5 -23.5s23.5 -35.167 23.5 -58.5c0 -22 -7.83301 -41 -23.5 -57s-34.5 -24 -56.5 -24zM199 848c-14.667 0 -27.167 -5.33301 -37.5 -16s-15.5 -23.667 -15.5 -39
s5.16699 -28.333 15.5 -39s22.833 -16 37.5 -16s27.167 5.33301 37.5 16s15.5 23.667 15.5 39s-5.16699 28.333 -15.5 39s-22.833 16 -37.5 16z" />
    <glyph glyph-name="uring" unicode="&#x16f;" horiz-adv-x="358" 
d="M273 55l-2.99609 0.00195312c-11.333 -19.333 -26.333 -34.5 -45 -45.5s-39.667 -16.5 -63 -16.5c-22.667 0 -41.667 3.5 -57 10.5s-27.5 16.5 -36.5 28.5s-15.5 26 -19.5 42s-6 33 -6 51v365h44v-351c0 -15.333 1.33301 -29.333 4 -42s7.16699 -23.5 13.5 -32.5
s15.166 -16.167 26.499 -21.5s25.666 -8 42.999 -8c15.333 0 29.166 3.16699 41.499 9.5s22.666 14.666 30.999 24.999s14.833 22.166 19.5 35.499s7 27 7 41v344h43v-490h-43v55zM184.004 550.002c-22 0 -40.833 8 -56.5 24s-23.5 35 -23.5 57
c0 23.333 7.83301 42.833 23.5 58.5s34.5 23.5 56.5 23.5s40.833 -7.83301 56.5 -23.5s23.5 -35.167 23.5 -58.5c0 -22 -7.83301 -41 -23.5 -57s-34.5 -24 -56.5 -24zM184.004 686.002c-14.667 0 -27.167 -5.33301 -37.5 -16s-15.5 -23.667 -15.5 -39
s5.16699 -28.333 15.5 -39s22.833 -16 37.5 -16s27.167 5.33301 37.5 16s15.5 23.667 15.5 39s-5.16699 28.333 -15.5 39s-22.833 16 -37.5 16z" />
    <glyph glyph-name="Uhungarumlaut" unicode="&#x170;" horiz-adv-x="393" 
d="M352 695v-539c0 -54 -14 -94.667 -42 -122s-66 -41 -114 -41s-86 13 -114 39s-42 64.333 -42 115v548h43v-549c0 -34 9.83301 -61.5 29.5 -82.5s47.5 -31.5 83.5 -31.5c38 0 66.333 11 85 33s28 51.333 28 88v542h43zM113 748l124 105l33 -36l-140 -89zM223 748l124 105
l33 -36l-140 -89z" />
    <glyph glyph-name="uhungarumlaut" unicode="&#x171;" horiz-adv-x="358" 
d="M273 55l-2.99609 0.00195312c-11.333 -19.333 -26.333 -34.5 -45 -45.5s-39.667 -16.5 -63 -16.5c-22.667 0 -41.667 3.5 -57 10.5s-27.5 16.5 -36.5 28.5s-15.5 26 -19.5 42s-6 33 -6 51v365h44v-351c0 -15.333 1.33301 -29.333 4 -42s7.16699 -23.5 13.5 -32.5
s15.166 -16.167 26.499 -21.5s25.666 -8 42.999 -8c15.333 0 29.166 3.16699 41.499 9.5s22.666 14.666 30.999 24.999s14.833 22.166 19.5 35.499s7 27 7 41v344h43v-490h-43v55zM113.004 566.002l66 151l46 -17l-88 -144zM199.004 566.002l66 151l46 -17l-88 -144z" />
    <glyph glyph-name="Uogonek" unicode="&#x172;" horiz-adv-x="393" 
d="M153 -93c0 11.333 2.50098 24.665 7.50098 39.998s13.167 31 24.5 47c-44.667 2 -80 15.833 -106 41.5s-39 62.834 -39 111.501v548h43v-549c0 -34 9.83301 -61.5 29.5 -82.5s47.5 -31.5 83.5 -31.5c38 0 66.333 11 85 33s28 51.333 28 88v542h43v-539
c0 -50 -11.833 -88.5 -35.5 -115.5s-56.167 -42.5 -97.5 -46.5c-9.33301 -13.333 -17 -27.166 -23 -41.499s-9 -27.166 -9 -38.499c0 -19.333 4.16699 -32.833 12.5 -40.5s18.833 -11.5 31.5 -11.5c7.33301 0 15.166 1 23.499 3s16.833 6 25.5 12l11 -30
c-8 -6 -18 -11 -30 -15s-23.667 -6 -35 -6c-22 0 -39.667 7.66699 -53 23s-20 34.666 -20 57.999z" />
    <glyph glyph-name="uogonek" unicode="&#x173;" horiz-adv-x="358" 
d="M236 -93c0 12.667 2.83789 27.1699 8.50488 43.5029s15.167 32.833 28.5 49.5v55h-3c-11.333 -19.333 -26.333 -34.5 -45 -45.5s-39.667 -16.5 -63 -16.5c-22.667 0 -41.667 3.5 -57 10.5s-27.5 16.5 -36.5 28.5s-15.5 26 -19.5 42s-6 33 -6 51v365h44v-351
c0 -15.333 1.33301 -29.333 4 -42s7.16699 -23.5 13.5 -32.5s15.166 -16.167 26.499 -21.5s25.666 -8 42.999 -8c15.333 0 29.166 3.16699 41.499 9.5s22.666 14.666 30.999 24.999s14.833 22.166 19.5 35.499s7 27 7 41v344h43v-490h-9c-11.333 -14 -20.333 -29 -27 -45
s-10 -29.667 -10 -41c0 -19.333 4.16699 -32.833 12.5 -40.5s18.833 -11.5 31.5 -11.5c7.33301 0 15.166 1 23.499 3s16.833 6 25.5 12l11 -30c-8 -6 -18 -11 -30 -15s-23.667 -6 -35 -6c-22 0 -39.667 7.66699 -53 23s-20 34.666 -20 57.999z" />
    <glyph glyph-name="Wcircumflex" unicode="&#x174;" horiz-adv-x="582" 
d="M452 0h-51l-76 407l-33 191h-3l-33 -193l-76 -405h-50l-117 696h43l65 -398l34 -233h3l39 231l74 400h41l73 -404l40 -227h2l33 227l66 404h43zM292 811l-110 -77l-19 16l115 103h32l110 -101l-19 -17z" />
    <glyph glyph-name="wcircumflex" unicode="&#x175;" horiz-adv-x="525" 
d="M262 410l-92 -409.999h-45l-57.5 244.5l-57.5 244.5h45c1.33301 -6.66699 4.5 -20.834 9.5 -42.501l17 -76l20.5 -92l20.5 -92l16.5 -76c4.66699 -21.667 7.66699 -35.834 9 -42.501h2c2 10.667 5.5 27.334 10.5 50.001l17 76.5l20 89.5l19.5 88.5l15.5 73
c4.33301 21 7.5 35.5 9.5 43.5h45l34 -155l28.5 -133.5l29.5 -133.5h2l23.5 108.5l22.5 108.5l46 205h45l-115 -489h-45l-34 147l-30 131l-29 132h-3zM266 648.001l-110 -97l-19 16l115 123h31l111 -121l-20 -17z" />
    <glyph glyph-name="Ycircumflex" unicode="&#x176;" horiz-adv-x="350" 
d="M174 353l48 141l35 101l35 101h45l-143 -403v-293h-42v293l-143 403h44l70 -203l48 -140h3zM175 811l-110 -77l-19 16l115 103h32l110 -101l-19 -17z" />
    <glyph glyph-name="ycircumflex" unicode="&#x177;" horiz-adv-x="315" 
d="M158 68c9.33301 34 18.332 69.168 26.999 105.501l26 106.5l55 209h44l-147 -549c-5.33301 -21.333 -11.333 -41 -18 -59c-7.33301 -22.667 -19.166 -41.5 -35.499 -56.5s-38.166 -22.5 -65.499 -22.5h-15v38h12c21.333 0 37.666 7.66699 48.999 23
s20.333 36.666 27 63.999l9.5 37.5l9.5 37.5l-65.5 243l-64.5 244h46l52 -210l52 -211h2zM162.999 648.001l-110 -97l-19 16l115 123h31l111 -121l-20 -17z" />
    <glyph glyph-name="Ydieresis" unicode="&#x178;" horiz-adv-x="350" 
d="M174 353l48 141l35 101l35 101h45l-143 -403v-293h-42v293l-143 403h44l70 -203l48 -140h3zM81 745v47h42v-47h-42zM227 745v47h41v-47h-41z" />
    <glyph glyph-name="Zacute" unicode="&#x179;" horiz-adv-x="304" 
d="M289 657l-234 -617h223v-40h-266v39l234 618h-215v39h258v-39zM118 748l128 105l32 -36l-143 -89z" />
    <glyph glyph-name="zacute" unicode="&#x17a;" horiz-adv-x="281" 
d="M267 451l-206 -412h201v-39h-248v39l206 412h-186v37h233v-37zM131 566l67 151l45 -17l-88 -144z" />
    <glyph glyph-name="Zdotaccent" unicode="&#x17b;" horiz-adv-x="304" 
d="M289 657l-234 -617h223v-40h-266v39l234 618h-215v39h258v-39zM145 759v48h41v-48h-41z" />
    <glyph glyph-name="zdotaccent" unicode="&#x17c;" horiz-adv-x="281" 
d="M267 451l-206 -412h201v-39h-248v39l206 412h-186v37h233v-37zM139 589v48h41v-48h-41z" />
    <glyph glyph-name="Zcaron" unicode="&#x17d;" horiz-adv-x="304" 
d="M289 657l-234 -617h223v-40h-266v39l234 618h-215v39h258v-39zM272 852l19 -17l-110 -100h-32l-114 102l18 16l110 -77z" />
    <glyph glyph-name="zcaron" unicode="&#x17e;" horiz-adv-x="281" 
d="M267 451l-206 -412h201v-39h-248v39l206 412h-186v37h233v-37zM261 689l19 -17l-110 -120h-32l-115 122l19 16l110 -97z" />
    <glyph glyph-name="florin" unicode="&#x192;" horiz-adv-x="353" 
d="M86 406h81.001l15 128c6 50.667 18.833 91 38.5 121s51.5 45 95.5 45c16 0 32 -2.66699 48 -8l-10 -38c-6 2 -12.5 3.66699 -19.5 5s-13.5 2 -19.5 2c-22.667 0 -42.5 -9.16699 -59.5 -27.5s-28.167 -51.833 -33.5 -100.5l-15 -127h92v-38h-97l-32 -276
c-7.33301 -63.333 -21.5 -110 -42.5 -140s-51.833 -45 -92.5 -45c-7.33301 0 -15.333 0.5 -24 1.5s-17 2.83301 -25 5.5l12 36c12 -3.33301 23.333 -5 34 -5c27.333 0 48.666 10.667 63.999 32s26.333 59 33 113l34 278h-77v38z" />
    <glyph glyph-name="Ohorn" unicode="&#x1a0;" horiz-adv-x="424" 
d="M358 156c0 -54 -14.165 -94.665 -42.498 -121.998s-66.5 -41 -114.5 -41s-85.833 13 -113.5 39s-41.5 64.333 -41.5 115v391c0 50 13.167 89.833 39.5 119.5s65.166 44.5 116.499 44.5c67.333 0 113.333 -24 138 -72c22 1.33301 36.667 10.666 44 27.999
s11 39.666 11 66.999v46h38v-47c0 -42 -6.33301 -73.167 -19 -93.5s-33.334 -32.5 -62.001 -36.5c4 -16 6 -33.333 6 -52v-386zM315.002 546.002c0 34.667 -9.83301 62.833 -29.5 84.5s-47.5 32.5 -83.5 32.5c-19.333 0 -36 -3.5 -50 -10.5s-25.833 -16.333 -35.5 -28
s-16.834 -25.167 -21.501 -40.5s-7 -31.333 -7 -48v-390c0 -34 9.83301 -61.5 29.5 -82.5s47.5 -31.5 83.5 -31.5c38.667 0 67.334 11 86.001 33s28 51.333 28 88v393z" />
    <glyph glyph-name="ohorn" unicode="&#x1a1;" horiz-adv-x="380" 
d="M176 496c31.333 0 56.168 -5.33105 74.501 -15.998s32.166 -24 41.499 -40c22.667 1.33301 37.667 10.666 45 27.999s11 40 11 68v46h38v-48c0 -41.333 -6.33301 -72.333 -19 -93s-33.334 -33 -62.001 -37c4 -20.667 6.33301 -46.667 7 -78s1 -60.333 1 -87v-15
c0 -17.333 -0.166992 -35 -0.5 -53s-1.5 -37.667 -3.5 -59c-2 -23.333 -7.5 -42.666 -16.5 -57.999s-20 -27.5 -33 -36.5s-27.167 -15.333 -42.5 -19s-30.333 -5.5 -45 -5.5c-40 0 -69.833 8.16699 -89.5 24.5s-33.167 37.166 -40.5 62.499c-2 8 -3.66699 18.167 -5 30.5
s-2.33301 25.833 -3 40.5s-1 29.667 -1 45v43c0 18 0.166992 35.833 0.5 53.5s1 34.5 2 50.5s2.5 30.5 4.5 43.5s4.33301 23.5 7 31.5c8.66699 23.333 23.334 42.166 44.001 56.499s49 21.5 85 21.5zM175.002 457.002c-17.333 0 -34.001 -3.50195 -50.001 -10.502
s-28 -20.5 -36 -40.5c-5.33301 -13.333 -8.66602 -34.166 -9.99902 -62.499s-2 -61.166 -2 -98.499v-25c0 -32 0.5 -59 1.5 -81s3.5 -39 7.5 -51c6 -18 16.167 -31.833 30.5 -41.5s33.833 -14.5 58.5 -14.5c22 0 41 6 57 18s26.667 28.667 32 50
c2.66699 11.333 4.5 29.333 5.5 54s1.5 51 1.5 79c0 14.667 -0.166992 30.334 -0.5 47.001l-1 48c-0.333008 15.333 -1.16602 29.166 -2.49902 41.499s-3 21.833 -5 28.5c-6 20 -16.833 34.833 -32.5 44.5s-33.834 14.5 -54.501 14.5z" />
    <glyph glyph-name="Uhorn" unicode="&#x1af;" horiz-adv-x="436" 
d="M352 695l-0.000976562 -64.999c24.667 0 41 8.66699 49 26s12 40.666 12 69.999v45h38v-47c0 -46 -7.66699 -79.167 -23 -99.5s-40.666 -30.833 -75.999 -31.5v-437c0 -54 -14 -94.667 -42 -122s-66 -41 -114 -41s-86 13 -114 39s-42 64.333 -42 115v548h43v-549
c0 -34 9.83301 -61.5 29.5 -82.5s47.5 -31.5 83.5 -31.5c38 0 66.333 11 85 33s28 51.333 28 88v542h43z" />
    <glyph glyph-name="uhorn" unicode="&#x1b0;" horiz-adv-x="409" 
d="M273 55l-2.99609 0.000976562c-11.333 -19.333 -26.333 -34.5 -45 -45.5s-39.667 -16.5 -63 -16.5c-22.667 0 -41.667 3.5 -57 10.5s-27.5 16.5 -36.5 28.5s-15.5 26 -19.5 42s-6 33 -6 51v365h44v-351c0 -15.333 1.33301 -29.333 4 -42s7.16699 -23.5 13.5 -32.5
s15.166 -16.167 26.499 -21.5s25.666 -8 42.999 -8c15.333 0 29.166 3.16699 41.499 9.5s22.666 14.666 30.999 24.999s14.833 22.166 19.5 35.499s7 27 7 41v344h43v-50c25.333 0 42 8.83301 50 26.5s12 40.834 12 69.501v46h38v-48c0 -46 -7.66699 -79.167 -23 -99.5
s-41 -30.833 -77 -31.5v-403h-43v55z" />
    <glyph glyph-name="AEacute" unicode="&#x1fc;" horiz-adv-x="623" 
d="M321 191h-193l-80 -191h-44l290 696h311v-40h-241v-279h212v-39h-212v-298h241v-40h-284v191zM144 231h177v424h-2zM390 748l128 105l32 -36l-143 -89z" />
    <glyph glyph-name="aeacute" unicode="&#x1fd;" horiz-adv-x="561" 
d="M396 -7c-28.667 0 -53.332 5.49707 -73.999 16.4971s-36.334 26.5 -47.001 46.5c-11.333 -15.333 -22.666 -27.166 -33.999 -35.499s-22.5 -14.5 -33.5 -18.5s-21.5 -6.33301 -31.5 -7s-19 -1 -27 -1c-24 0 -44 3.83301 -60 11.5s-28.833 17.834 -38.5 30.501
s-16.5 27.334 -20.5 44.001s-6 34 -6 52c0 18.667 2.33301 37.167 7 55.5s12.167 34.833 22.5 49.5s24.333 26.667 42 36s39.5 14 65.5 14h96v78c0 26.667 -6.66699 48.667 -20 66s-37.666 26 -72.999 26c-22 0 -40.5 -5.16699 -55.5 -15.5s-25.167 -24.166 -30.5 -41.499
l-41 14c9.33301 25.333 24.666 45.5 45.999 60.5s49 22.5 83 22.5c60 0 98.333 -18.667 115 -56c12 18.667 28.167 32.667 48.5 42s43.5 14 69.5 14c42.667 0 76 -11.5 100 -34.5s36 -55.833 36 -98.5v-116h-233v-25.5v-43.5c0 -15.333 0.166992 -29.333 0.5 -42
s0.833008 -20 1.5 -22c1.33301 -22.667 10.166 -42 26.499 -58s38.5 -24 66.5 -24c29.333 0 51.5 8.66699 66.5 26s23.833 37.666 26.5 60.999l42 -9c-4 -36.667 -17.833 -65.5 -41.5 -86.5s-55.167 -31.5 -94.5 -31.5zM257.002 248.997l-86.999 0.000976562
c-29.333 0 -54 -8.83301 -74 -26.5s-30 -47.834 -30 -90.501c0 -12.667 1.66699 -25 5 -37s8.66602 -22.5 15.999 -31.5s17 -16.167 29 -21.5s26.667 -8 44 -8c28 0 51.167 8 69.5 24s27.5 39 27.5 69v122zM491.003 285.998l-0.00195312 71.999c0 28 -7.5 51.333 -22.5 70
s-39.167 28 -72.5 28c-26.667 0 -47.667 -7.16699 -63 -21.5s-24.666 -33.833 -27.999 -58.5c-0.666992 -1.33301 -1.16699 -6.16602 -1.5 -14.499s-0.666016 -17.5 -0.999023 -27.5s-0.5 -19.5 -0.5 -28.5v-19.5h189zM275.001 565.997l67 151l45 -17l-88 -144z" />
    <glyph glyph-name="Oslashacute" unicode="&#x1fe;" horiz-adv-x="403" 
d="M358 156c0 -54 -14.166 -94.668 -42.499 -122.001s-66.5 -41 -114.5 -41c-25.333 0 -48 3.5 -68 10.5s-36.667 17.833 -50 32.5l-21 -49l-26 13l27 64c-11.333 24 -17 51.667 -17 83v391c0 50 13.167 89.833 39.5 119.5s65.166 44.5 116.499 44.5c50 0 89 -14 117 -42
l21 49l28 -13l-29 -66c12.667 -25.333 19 -54.666 19 -87.999v-386zM315.001 545.999c0 4 -0.166016 8 -0.499023 12s-0.833008 7.66699 -1.5 11l-210 -487c9.33301 -15.333 22.166 -27.5 38.499 -36.5s36.166 -13.5 59.499 -13.5c38.667 0 67.334 11 86.001 33
s28 51.333 28 88v393zM88.002 145.999l0.000976562 -11.001c0 -3.33301 0.333008 -6.66602 1 -9.99902l209 487c-9.33301 16 -22 28.5 -38 37.5s-35.333 13.5 -58 13.5c-19.333 0 -36 -3.5 -50 -10.5s-25.833 -16.333 -35.5 -28s-16.834 -25.167 -21.501 -40.5
s-7 -31.333 -7 -48v-390zM166.003 747.998l127 105l33 -36l-143 -89z" />
    <glyph glyph-name="oslashacute" unicode="&#x1ff;" horiz-adv-x="349" 
d="M176 496c21.333 0 39.5 -2.5 54.5 -7.5s27.833 -11.833 38.5 -20.5l17 34c4 -2 8 -4.16699 12 -6.5s8.33301 -4.5 13 -6.5l-22 -44c4.66699 -8 8.33398 -15.667 11.001 -23c3.33301 -8.66699 5.83301 -20.167 7.5 -34.5s3 -30 4 -47s1.5 -34.333 1.5 -52v-49.5v-15
c0 -17.333 -0.166992 -35 -0.5 -53s-1.5 -37.667 -3.5 -59c-2 -23.333 -7.5 -42.666 -16.5 -57.999s-20 -27.5 -33 -36.5s-27.167 -15.333 -42.5 -19s-30.333 -5.5 -45 -5.5c-22.667 0 -41.834 2.5 -57.501 7.5s-28.834 12.167 -39.501 21.5l-16 -32l-22 12l21 41
c-3.33301 5.33301 -6.5 11 -9.5 17s-5.16699 12.667 -6.5 20c-2 8 -3.66699 18.167 -5 30.5s-2.33301 25.833 -3 40.5s-1 29.667 -1 45v43c0 18 0.166992 35.833 0.5 53.5s1 34.5 2 50.5s2.5 30.5 4.5 43.5s4.33301 23.5 7 31.5c8.66699 23.333 23.334 42.166 44.001 56.499
s49 21.5 85 21.5zM263 393l-83.001 -163.998l-83 -164c14.667 -22 40.667 -33 78 -33c22 0 41 6 57 18s26.667 28.667 32 50c2.66699 11.333 4.5 29.333 5.5 54s1.5 51 1.5 79c0 14 -0.166992 29 -0.5 45s-0.666016 31.167 -0.999023 45.5s-1 27.666 -2 39.999
s-2.5 22.166 -4.5 29.499zM174.999 457.002c-17.333 0 -34.002 -3.50098 -50.002 -10.501s-28 -20.5 -36 -40.5c-5.33301 -13.333 -8.66602 -34.166 -9.99902 -62.499s-2 -61.166 -2 -98.499v-25c0 -29.333 0.333008 -54.333 1 -75s2.66699 -37.334 6 -50.001l81.5 165
l82.5 165c-8.66699 11.333 -19.167 19.5 -31.5 24.5s-26.166 7.5 -41.499 7.5zM142.997 565.001l66.999 150.999l22.5 -8c7.66699 -2.66699 15.167 -5.66699 22.5 -9l-43.5 -71.5c-14.333 -24.333 -29.166 -48.166 -44.499 -71.499z" />
    <glyph glyph-name="Scommaaccent" unicode="&#x218;" horiz-adv-x="378" 
d="M347 182c0 -28.667 -2.66113 -54.668 -7.99414 -78.001s-14 -43.166 -26 -59.499s-28 -29 -48 -38s-45 -13.5 -75 -13.5c-28 0 -51.833 3.83301 -71.5 11.5s-35.834 18.167 -48.501 31.5s-21.834 29 -27.501 47s-8.83398 37.667 -9.50098 59l44 9
c0 -15.333 2 -30.166 6 -44.499s10.5 -26.833 19.5 -37.5s20.667 -19.167 35 -25.5s31.833 -9.5 52.5 -9.5c24.667 0 44.5 4 59.5 12s26.5 18.667 34.5 32s13.167 29 15.5 47s3.5 36.667 3.5 56c0 23.333 -1.16699 42.833 -3.5 58.5s-7.33301 29.334 -15 41.001
s-19 22.334 -34 32.001s-35.5 20.167 -61.5 31.5c-33.333 14.667 -60 29 -80 43s-35.167 28.167 -45.5 42.5s-17 29.5 -20 45.5s-4.5 33.667 -4.5 53c0 25.333 3 48.666 9 69.999s15.333 39.666 28 54.999s28.667 27.333 48 36s42.666 13 69.999 13
c30 0 54.833 -4.33301 74.5 -13s35.334 -20 47.001 -34s19.834 -29.5 24.501 -46.5s7 -33.833 7 -50.5l-44 -11c0 16 -1.83301 30.833 -5.5 44.5s-9.83398 25.667 -18.501 36s-20.167 18.5 -34.5 24.5s-31.833 9 -52.5 9c-22.667 0 -41.167 -4.16699 -55.5 -12.5
s-25.5 -19 -33.5 -32s-13.333 -27.167 -16 -42.5s-4 -30.333 -4 -45c0 -17.333 1.66699 -32.5 5 -45.5s9.66602 -25.167 18.999 -36.5s22.666 -22.333 39.999 -33s40.666 -22.334 69.999 -35.001c30 -12.667 53.667 -25.5 71 -38.5s30.333 -27 39 -42s14.167 -32 16.5 -51
s3.5 -40.833 3.5 -65.5zM182.006 -202.001h-26c3.33301 14 6.5 28.167 9.5 42.5s6.16699 28.5 9.5 42.5h-13v56h53v-56z" />
    <glyph glyph-name="scommaaccent" unicode="&#x219;" horiz-adv-x="322" 
d="M69 125c0 -28 7.83105 -50.3281 23.498 -66.9951s37.5 -25 65.5 -25c35.333 0 59.666 8.33301 72.999 25s20 40 20 70c0 14.667 -1.16699 27.167 -3.5 37.5s-6.83301 19.666 -13.5 27.999s-16 16 -28 23s-28 14.167 -48 21.5c-26 10 -47.333 20 -64 30
s-29.5 20.5 -38.5 31.5s-15.167 22.5 -18.5 34.5s-5 24.667 -5 38c0 36.667 10.667 66.667 32 90s55 35 101 35c42 0 74.5 -10.833 97.5 -32.5s34.5 -52.834 34.5 -93.501l-45 -7c0 30 -7.83301 53 -23.5 69s-37.5 24 -65.5 24c-17.333 0 -31.666 -2.5 -42.999 -7.5
s-20.166 -11.5 -26.499 -19.5s-10.833 -17 -13.5 -27s-4 -20.333 -4 -31s1.33301 -20.334 4 -29.001s7.83398 -16.834 15.501 -24.501s18.5 -15.167 32.5 -22.5s32 -15 54 -23c25.333 -9.33301 45.333 -19 60 -29s25.834 -20.833 33.501 -32.5s12.667 -24.334 15 -38.001
s3.5 -28.5 3.5 -44.5c0 -20 -2.33301 -38.333 -7 -55s-12.334 -31 -23.001 -43s-24.5 -21.333 -41.5 -28s-37.833 -10 -62.5 -10c-42.667 0 -75.5 10.333 -98.5 31s-35.167 52 -36.5 94zM157.998 -201.995h-26c3.33301 14 6.5 28.167 9.5 42.5s6.16699 28.5 9.5 42.5h-13v56
h53v-56z" />
    <glyph glyph-name="schwa" unicode="&#x259;" horiz-adv-x="342" 
d="M164 -6c-40 0 -71.166 10.166 -93.499 30.499s-34.5 49.5 -36.5 87.5c-0.666992 7.33301 -1 14.5 -1 21.5v21.5v97h228v32c0 21.333 -0.5 43.5 -1.5 66.5s-3.5 40.167 -7.5 51.5c-6 17.333 -15.667 31 -29 41s-31.333 15 -54 15c-30 0 -52.167 -8.66699 -66.5 -26
s-22.5 -38.666 -24.5 -63.999l-43 8c3.33301 39.333 17 69.333 41 90s55 31 93 31c20 0 37.5 -2.5 52.5 -7.5s27.5 -11.5 37.5 -19.5s18 -17.333 24 -28s10.333 -21.334 13 -32.001c2 -8 3.66699 -18.333 5 -31s2.16602 -26.167 2.49902 -40.5l1 -44.5
c0.333008 -15.333 0.5 -29.666 0.5 -42.999c0 -18 -0.166992 -36 -0.5 -54s-1 -35 -2 -51s-2.5 -30.667 -4.5 -44s-4.33301 -24 -7 -32c-8.66699 -23.333 -23 -41.833 -43 -55.5s-48 -20.5 -84 -20.5zM250.001 85.999c4.66699 11.333 7.5 28.167 8.5 50.5
s1.83301 48.833 2.5 79.5h-185v-61c0 -15.333 0.833008 -30.333 2.5 -45s5.66699 -27.667 12 -39s15.5 -20.333 27.5 -27s28 -10 48 -10c16.667 0 32.667 3.66699 48 11s27.333 21 36 41z" />
    <glyph glyph-name="primemod" unicode="&#x2b9;" horiz-adv-x="156" 
d="M180 662l-118 -239l-31 8l89 246z" />
    <glyph glyph-name="circumflex" unicode="&#x2c6;" horiz-adv-x="343" 
d="M171 648l-110 -97l-19 16l115 123h31l111 -121l-20 -17z" />
    <glyph glyph-name="caron" unicode="&#x2c7;" horiz-adv-x="342" 
d="M285 689l19 -17l-110 -120h-32l-115 122l19 16l110 -97z" />
    <glyph glyph-name="breve" unicode="&#x2d8;" horiz-adv-x="343" 
d="M92 669c3.33301 -21.333 12.8301 -39.333 28.4971 -54s33.834 -22 54.501 -22c21.333 0 39.833 6.83301 55.5 20.5s25.167 32.167 28.5 55.5h36c-1.33301 -12.667 -4.66602 -25.5 -9.99902 -38.5s-13 -25 -23 -36s-22.167 -20 -36.5 -27s-31.166 -10.5 -50.499 -10.5
c-20 0 -37.167 3.5 -51.5 10.5s-26.333 16 -36 27s-17 23.167 -22 36.5s-8.16699 26 -9.5 38h36z" />
    <glyph glyph-name="dotaccent" unicode="&#x2d9;" horiz-adv-x="343" 
d="M161 589v48h41v-48h-41z" />
    <glyph glyph-name="ring" unicode="&#x2da;" horiz-adv-x="343" 
d="M179 550c-22 0 -40.833 8 -56.5 24s-23.5 35 -23.5 57c0 23.333 7.83301 42.833 23.5 58.5s34.5 23.5 56.5 23.5s40.833 -7.83301 56.5 -23.5s23.5 -35.167 23.5 -58.5c0 -22 -7.83301 -41 -23.5 -57s-34.5 -24 -56.5 -24zM179 686c-14.667 0 -27.167 -5.33301 -37.5 -16
s-15.5 -23.667 -15.5 -39s5.16699 -28.333 15.5 -39s22.833 -16 37.5 -16s27.167 5.33301 37.5 16s15.5 23.667 15.5 39s-5.16699 28.333 -15.5 39s-22.833 16 -37.5 16z" />
    <glyph glyph-name="ogonek" unicode="&#x2db;" horiz-adv-x="354" 
d="M243 -93c0 12.667 3.16895 27.501 9.50195 44.501s16.166 34.167 29.499 51.5l31 -2l1 -1c-11.333 -14 -20.333 -29 -27 -45s-10 -29.667 -10 -41c0 -19.333 4.16699 -32.833 12.5 -40.5s18.833 -11.5 31.5 -11.5c7.33301 0 15.166 1 23.499 3s16.833 6 25.5 12l11 -30
c-8 -6 -18 -11 -30 -15s-23.667 -6 -35 -6c-22 0 -39.667 7.66699 -53 23s-20 34.666 -20 57.999z" />
    <glyph glyph-name="tilde" unicode="&#x2dc;" horiz-adv-x="362" 
d="M310 635c-8 -21.333 -19.1689 -37.001 -33.502 -47.001s-28.166 -15 -41.499 -15c-10 0 -19.833 2 -29.5 6s-19.167 8.33301 -28.5 13s-18.5 9 -27.5 13s-17.833 6 -26.5 6c-8 0 -16.167 -3.16699 -24.5 -9.5s-16.166 -14.833 -23.499 -25.5l-24 15
c8 16.667 18.333 30.334 31 41.001s26 16 40 16c10 0 19.667 -2 29 -6s18.5 -8.33301 27.5 -13s18.167 -9 27.5 -13s19.333 -6 30 -6c18.667 0 35.667 13 51 39z" />
    <glyph glyph-name="hungarumlaut" unicode="&#x2dd;" horiz-adv-x="343" 
d="M109 566l66 151l46 -17l-88 -144zM195 566l66 151l46 -17l-88 -144z" />
    <glyph glyph-name="tonos" unicode="&#x384;" horiz-adv-x="342" 
d="M146 566l67 151l45 -17l-88 -144z" />
    <glyph glyph-name="dieresistonos" unicode="&#x385;" horiz-adv-x="343" 
d="M234 585v48h41v-48h-41zM65 585v48h42v-48h-42zM129 566l67 151l46 -17l-88 -144z" />
    <glyph glyph-name="Alphatonos" unicode="&#x386;" horiz-adv-x="376" 
d="M325 0l-40 182h-194l-40 -182h-41l153 696h49l156 -696h-43zM187 634l-37 -174l-52 -238h179l-52 240l-36 172h-2zM-38 560l67 151l45 -17l-88 -144z" />
    <glyph glyph-name="anoteleia" unicode="&#x387;" horiz-adv-x="135" 
d="M42 306v56h53v-56h-53z" />
    <glyph glyph-name="Epsilontonos" unicode="&#x388;" horiz-adv-x="355" 
d="M52 0v696h284v-40h-241v-279h212v-39h-212v-298h241v-40h-284zM-95 560l67 151l45 -17l-88 -144z" />
    <glyph glyph-name="Etatonos" unicode="&#x389;" horiz-adv-x="412" 
d="M317 0v337h-222v-337h-43v696h43v-320h222v320h43v-696h-43zM-94 560l67 151l45 -17l-88 -144z" />
    <glyph glyph-name="Iotatonos" unicode="&#x38a;" horiz-adv-x="174" 
d="M65 0v696h44v-696h-44zM-85 560l67 151l45 -17l-88 -144z" />
    <glyph glyph-name="Omicrontonos" unicode="&#x38c;" horiz-adv-x="403" 
d="M358 156c0 -54 -14.165 -94.667 -42.498 -122s-66.5 -41 -114.5 -41s-85.833 13 -113.5 39s-41.5 64.333 -41.5 115v391c0 50 13.167 89.833 39.5 119.5s65.166 44.5 116.499 44.5s90.166 -13.667 116.499 -41s39.5 -67 39.5 -119v-386zM315.002 546
c0 34.667 -9.83301 62.833 -29.5 84.5s-47.5 32.5 -83.5 32.5c-19.333 0 -36 -3.5 -50 -10.5s-25.833 -16.333 -35.5 -28s-16.834 -25.167 -21.501 -40.5s-7 -31.333 -7 -48v-390c0 -34 9.83301 -61.5 29.5 -82.5s47.5 -31.5 83.5 -31.5c38.667 0 67.334 11 86.001 33
s28 51.333 28 88v393zM-77.998 559.999l67 151l45 -17l-88 -144z" />
    <glyph glyph-name="Upsilontonos" unicode="&#x38e;" horiz-adv-x="350" 
d="M174 353l48 141l35 101l35 101h45l-143 -403v-293h-42v293l-143 403h44l70 -203l48 -140h3zM-117 560l67 151l45 -17l-88 -144z" />
    <glyph glyph-name="Omegatonos" unicode="&#x38f;" horiz-adv-x="402" 
d="M313 41l53.9971 -0.00292969v-41h-115v47c41.333 18.667 62 52.334 62 101.001v401c0 34.667 -10.667 62.167 -32 82.5s-48.666 30.5 -81.999 30.5c-32 0 -58.833 -10.5 -80.5 -31.5s-32.5 -48.5 -32.5 -82.5v-402c0 -24.667 5.66699 -45.5 17 -62.5
s25.666 -29.167 42.999 -36.5v-47h-112v41h56v1c-13.333 8.66699 -24.5 21.834 -33.5 39.501s-13.5 44.167 -13.5 79.5v391c0.666992 23.333 5 44.166 13 62.499s18.833 34 32.5 47s29.834 23 48.501 30s39.334 10.5 62.001 10.5c45.333 0 82.333 -11.667 111 -35
s43.667 -58.666 45 -105.999v-396c0 -11.333 -0.666992 -23.166 -2 -35.499s-3.66602 -24 -6.99902 -35s-7.83301 -21.167 -13.5 -30.5s-12.5 -16.333 -20.5 -21v-2zM-84.0029 559.997l67 151l45 -17l-88 -144z" />
    <glyph glyph-name="iotadieresistonos" unicode="&#x390;" horiz-adv-x="164" 
d="M118 -4c-26 0 -43 5.16797 -51 15.501s-12 28.166 -12 53.499v424h43v-420c0 -13.333 1.83301 -21.5 5.5 -24.5s10.167 -4.83301 19.5 -5.5l-1 -43h-4zM149 585.001v48h41v-48h-41zM-20 585.001v48h42v-48h-42zM44 566.001l67 151l46 -17l-88 -144z" />
    <glyph glyph-name="Alpha" unicode="&#x391;" horiz-adv-x="376" 
d="M325 0l-40 182h-194l-40 -182h-41l153 696h49l156 -696h-43zM187 634l-37 -174l-52 -238h179l-52 240l-36 172h-2z" />
    </font>
</defs>
</svg>
