<?xml version="1.0" standalone="no"?>
<!DOCTYPE svg PUBLIC "-//W3C//DTD SVG 1.1//EN" "http://www.w3.org/Graphics/SVG/1.1/DTD/svg11.dtd" >
<svg>
<metadata>
Created by FontForge 20090914 at Sun Jul 27 22:52:51 2014
 By www-data
Copyright (c) 2002, 2005 Parachute&#194;&#168;, www.parachute.gr.  All rights reserved.
</metadata>
<defs>
<font id="PFDinTextPro-Thin" horiz-adv-x="1818" >
  <font-face 
    font-family="PF DinText Pro Thin "
    font-weight="200"
    font-stretch="normal"
    units-per-em="1000"
    panose-1="2 0 0 0 0 0 0 0 0 0"
    ascent="750"
    descent="-250"
    x-height="494"
    cap-height="696"
    bbox="-326.998 -255.007 1760 913.002"
    underline-thickness="50"
    underline-position="-50"
    unicode-range="U+0020-U+FB05"
  />
<missing-glyph horiz-adv-x="432" 
d="M0 700h432v-700h-432v700zM376 669h-320l160 -291zM402 49v604l-166 -303zM376 31l-160 291l-160 -291h320zM30 51l166 299l-166 300v-599z" />
    <glyph glyph-name="fj" unicode="fj" horiz-adv-x="429" 
d="M90 496l-0.000976562 102.998c0 24.667 3.66699 45.167 11 61.5s17 29.5 29 39.5s26.167 17 42.5 21s33.5 6 51.5 6c30.667 0 56.834 -4.5 78.501 -13.5s40.5 -21.833 56.5 -38.5l-30 -31c-16.667 16.667 -33.5 27.5 -50.5 32.5s-35.833 7.5 -56.5 7.5
c-28 0 -49.5 -6.66699 -64.5 -20s-22.5 -36 -22.5 -68v-100h216v-572c0 -37.333 -10.167 -67.833 -30.5 -91.5s-50.5 -35.5 -90.5 -35.5h-21v40c0.666992 0 4.16699 -0.166992 10.5 -0.5s9.83301 -0.166016 10.5 0.500977c51.333 2.66699 77 33.334 77 92.001v530h-172v-459
h-45v459h-59v37h59z" />
    <glyph glyph-name="ffj" unicode="ffj" horiz-adv-x="648" 
d="M351 496l217 -0.00292969v-572c0 -37.333 -10.333 -67.833 -31 -91.5s-51 -35.5 -91 -35.5h-21v40c0.666992 0 4.16699 -0.166992 10.5 -0.5s9.83301 -0.166016 10.5 0.500977c51.333 2.66699 77 33.334 77 92.001v530h-172v-459h-44v459h-172v-459h-45v459h-59v37h59v79
c0 24.667 3.66699 45.334 11 62.001s17 30 29 40s26.167 17 42.5 21s33.5 6 51.5 6c22.667 0 42.5 -2.5 59.5 -7.5s32.5 -11.833 46.5 -20.5c12 17.333 27.5 29.333 46.5 36s40.167 10 63.5 10c31.333 0 57.833 -4.5 79.5 -13.5s40.167 -21.833 55.5 -38.5l-30 -31
c-16 16 -32.5 26.667 -49.5 32s-36.167 8 -57.5 8c-28 0 -49.5 -6.66699 -64.5 -20s-22.5 -36 -22.5 -68v-95zM222 660.997c-28 0 -49.5 -6.66602 -64.5 -19.999s-22.5 -36 -22.5 -68v-77h172v97c0 17.333 1.33301 31.666 4 42.999c-14 10.667 -28.333 17.5 -43 20.5
s-30 4.5 -46 4.5z" />
    <glyph glyph-name="ff" unicode="ff" horiz-adv-x="474" 
d="M224 713c21.333 0 40.499 -2.50098 57.499 -7.50098s32.167 -11.5 45.5 -19.5c10 14.667 23 25.834 39 33.501s33.667 11.5 53 11.5h48v-41h-40c-16 0 -29.167 -2.66699 -39.5 -8s-18.166 -12.333 -23.499 -21s-9 -18.334 -11 -29.001s-3 -21 -3 -31v-105h116v-37h-116
v-459h-44v459h-172v-459h-44v459h-60v37h60v82c0 46.667 12.333 80.834 37 102.501s57 32.5 97 32.5zM305.999 495.999v108v11.5c0 3.66699 0.333008 7.16699 1 10.5c0 6.66699 1 13 3 19c-14.667 11.333 -29.167 18.333 -43.5 21s-29.5 4 -45.5 4
c-28 0 -49.5 -6.66699 -64.5 -20s-22.5 -36 -22.5 -68v-86h172z" />
    <glyph glyph-name="fi" unicode="fi" horiz-adv-x="429" 
d="M307 0l-0.000976562 459h-172v-459h-45v459h-59v37h59v103c0 24.667 3.66699 45.167 11 61.5s17 29.5 29 39.5s26.167 17 42.5 21s33.5 6 51.5 6c30.667 0 56.834 -4.5 78.501 -13.5s40.5 -21.833 56.5 -38.5l-30 -31c-16.667 16.667 -33.5 27.5 -50.5 32.5
s-35.833 7.5 -56.5 7.5c-28 0 -49.5 -6.66699 -64.5 -20s-22.5 -36 -22.5 -68v-100h216v-496h-44z" />
    <glyph glyph-name="fl" unicode="fl" horiz-adv-x="454" 
d="M421 0c-36 0 -64.002 7.50098 -84.002 22.501s-30 41.5 -30 79.5v155v107.5v71.5v47.5v35v34.5v45v68c-13.333 7.33301 -27.166 12.166 -41.499 14.499s-29.166 3.5 -44.499 3.5c-28 0 -49.5 -6.66699 -64.5 -20s-22.5 -36 -22.5 -68v-100h118v-38h-118v-458h-44v458h-60
v38h60v102c0 22.667 3.5 42 10.5 58s16.5 29.333 28.5 40s26.167 18.5 42.5 23.5s33.833 7.5 52.5 7.5c18 0 36.833 -2.16699 56.5 -6.5s43.167 -12.5 70.5 -24.5v-587c0 -22.667 6 -40.167 18 -52.5s31.667 -18.5 59 -18.5h8v-38h-15v0z" />
    <glyph glyph-name="ffi" unicode="ffi" horiz-adv-x="648" 
d="M523 0v458.999h-172v-459h-44v459h-172v-459h-45v459h-59v37h59v79c0 24.667 3.66699 45.334 11 62.001s17 30 29 40s26.167 17 42.5 21s33.5 6 51.5 6c22.667 0 42.5 -2.5 59.5 -7.5s32.5 -11.833 46.5 -20.5c12 17.333 27.5 29.333 46.5 36s40.167 10 63.5 10
c31.333 0 57.833 -4.5 79.5 -13.5s40.167 -21.833 55.5 -38.5l-30 -31c-16 16 -32.5 26.667 -49.5 32s-36.167 8 -57.5 8c-28 0 -49.5 -6.66699 -64.5 -20s-22.5 -36 -22.5 -68v-95h217v-496h-45zM222 661.999c-28 0 -49.5 -6.83203 -64.5 -20.499s-22.5 -36.5 -22.5 -68.5
v-77h172v97c0 17.333 1.33301 31.666 4 42.999c-14 10.667 -28.5 17.667 -43.5 21s-30.167 5 -45.5 5z" />
    <glyph glyph-name="ffl" unicode="ffl" horiz-adv-x="671" 
d="M224 704c21.333 0 40.5 -2.33203 57.5 -6.99902s32.167 -11.334 45.5 -20.001c12 18.667 28 31.667 48 39s42 11 66 11c18 0 36.833 -2.16699 56.5 -6.5s43.167 -12.5 70.5 -24.5v-587c0 -22.667 6 -40.167 18 -52.5s31.667 -18.5 59 -18.5h8v-38h-15
c-36 0 -64 7.5 -84 22.5s-30 41.5 -30 79.5v564c-13.333 7.33301 -27.5 12.166 -42.5 14.499s-29.5 3.5 -43.5 3.5c-28 0 -49.5 -6.66699 -64.5 -20s-22.5 -36 -22.5 -68v-100h117v-37h-117v-459h-44v459h-172v-459h-45v459h-59v37h59v79c0 24.667 3.66699 45.334 11 62.001
s17 30 29 40s26.167 17 42.5 21s33.5 6 51.5 6zM222 662.001c-28 0 -49.5 -6.83203 -64.5 -20.499s-22.5 -36.5 -22.5 -68.5v-77h172v103c0 13.333 1 25.666 3 36.999c-14 10.667 -28.5 17.667 -43.5 21s-29.833 5 -44.5 5z" />
    <glyph glyph-name="ft" unicode="ft" horiz-adv-x="471" 
d="M135 460l-0.000976562 -460h-45v460h-59v36h59v110c0 39.333 11 68.833 33 88.5s48.667 29.5 80 29.5h47v-40h-38c-16 0 -29.167 -2.83301 -39.5 -8.5s-18.166 -12.667 -23.499 -21s-9 -17.833 -11 -28.5s-3 -21 -3 -31v-99h172v131h44v-131h92v-36h-92v-339
c0 -24 4.66699 -43.5 14 -58.5s29 -22.5 59 -22.5h31v-40h-44c-32 0 -57.333 9 -76 27s-28 44 -28 78v355h-172z" />
    <glyph glyph-name=".notdef" horiz-adv-x="432" 
d="M0 700h432v-700h-432v700zM376 669h-320l160 -291zM402 49v604l-166 -303zM376 31l-160 291l-160 -291h320zM30 51l166 299l-166 300v-599z" />
    <glyph glyph-name="space" unicode=" " horiz-adv-x="221" 
 />
    <glyph glyph-name="exclam" unicode="!" horiz-adv-x="212" 
d="M122 188h-31l-7 508h45zM80 0v60h54v-60h-54z" />
    <glyph glyph-name="quotedbl" unicode="&#x22;" horiz-adv-x="243" 
d="M154 513v183h34v-183h-34zM60 513v183h34v-183h-34z" />
    <glyph glyph-name="numbersign" unicode="#" horiz-adv-x="467" 
d="M8 255h102.001c1.33301 11.333 3.16602 25.333 5.49902 42l7.5 52l7.5 52.5c2.33301 17 4.5 31.167 6.5 42.5h-99v31h103l29 220h33l-29 -220h145c2 12 4.33301 27.833 7 47.5l8.5 62l9 62.5c3 20 5.16699 36 6.5 48h33l-30 -220h102v-31h-106l-26 -189h103v-31h-107
l-29 -224h-35l30 224h-145l-31 -224h-35l32 224h-98v31zM144.001 255h145l26 189h-145z" />
    <glyph glyph-name="dollar" unicode="$" horiz-adv-x="467" 
d="M247 36c20.667 0.666992 40.334 4.33691 59.001 11.0039s35 16 49 28s25 26.667 33 44s12 37.333 12 60c0 25.333 -4.5 46.333 -13.5 63s-20.167 30.167 -33.5 40.5s-28.333 18.166 -45 23.499s-32.334 9.66602 -47.001 12.999
c-2.66699 1.33301 -5.16699 2.16602 -7.5 2.49902s-4.5 1.16602 -6.5 2.49902v-288zM217 656.003c-18.667 -1.33301 -36.332 -5.33496 -52.999 -12.002s-31.5 -16.167 -44.5 -28.5s-23.333 -27.5 -31 -45.5s-11.5 -38.333 -11.5 -61c0 -23.333 4.5 -42.666 13.5 -57.999
s20.333 -28 34 -38s28.667 -17.667 45 -23s32.166 -9.66602 47.499 -12.999v279zM217.002 -119.999l-0.000976562 113.001c-37.333 2 -72.833 9 -106.5 21s-63.5 28.667 -89.5 50c4.66699 5.33301 9.16699 11.333 13.5 18s8.83301 12.667 13.5 18
c24 -17.333 50.167 -31.833 78.5 -43.5s58.5 -18.5 90.5 -20.5v294c-24 4.66699 -47.167 11.167 -69.5 19.5s-42.166 19.333 -59.499 33s-31.166 31 -41.499 52s-15.5 46.5 -15.5 76.5c0 26 4.33301 50 13 72s21 41.167 37 57.5s35.5 29.5 58.5 39.5s48.833 16 77.5 18v75
h30v-76c30 -1.33301 59 -6 87 -14s53.667 -19.667 77 -35c-4 -6 -8 -12.333 -12 -19s-7.66699 -13.334 -11 -20.001c-21.333 12.667 -43.833 23.167 -67.5 31.5s-48.167 13.166 -73.5 14.499v-285c27.333 -6.66699 53.166 -13.834 77.499 -21.501s45.5 -18.167 63.5 -31.5
s32.167 -31 42.5 -53s15.5 -50.333 15.5 -85c0 -27.333 -4.66699 -52.166 -14 -74.499s-22.833 -41.5 -40.5 -57.5s-38.667 -28.667 -63 -38s-51.5 -14.666 -81.5 -15.999v-113h-30z" />
    <glyph glyph-name="percent" unicode="%" horiz-adv-x="754" 
d="M688 109c0 -18 -3.33301 -34 -10 -48s-15.667 -25.667 -27 -35s-24.5 -16.5 -39.5 -21.5s-30.5 -7.5 -46.5 -7.5s-31.5 2.5 -46.5 7.5s-28.333 12.167 -40 21.5s-20.834 21 -27.501 35s-10 30 -10 48v198c0 18 3.33301 34 10 48s15.834 25.667 27.501 35s25 16.5 40 21.5
s30.5 7.5 46.5 7.5s31.5 -2.5 46.5 -7.5s28.167 -12.167 39.5 -21.5s20.333 -21 27 -35s10 -30 10 -48v-198zM652 303c0 25.333 -8 45.666 -24 60.999s-37 23 -63 23s-47.167 -7.66699 -63.5 -23s-24.5 -35.666 -24.5 -60.999v-190c0 -25.333 8.16699 -45.666 24.5 -60.999
s37.5 -23 63.5 -23s47 7.66699 63 23s24 35.666 24 60.999v190zM311 389c0 -18 -3.33301 -34.167 -10 -48.5s-15.667 -26.166 -27 -35.499s-24.5 -16.5 -39.5 -21.5s-30.5 -7.5 -46.5 -7.5s-31.5 2.5 -46.5 7.5s-28.333 12.167 -40 21.5s-20.834 21.166 -27.501 35.499
s-10 30.5 -10 48.5v197c0 18 3.33301 34.167 10 48.5s15.834 26.166 27.501 35.499s25 16.5 40 21.5s30.5 7.5 46.5 7.5s31.5 -2.5 46.5 -7.5s28.167 -12.167 39.5 -21.5s20.333 -21.166 27 -35.499s10 -30.5 10 -48.5v-197zM275 583c0 25.333 -8 45.666 -24 60.999
s-37 23 -63 23s-47.167 -7.66699 -63.5 -23s-24.5 -35.666 -24.5 -60.999v-190c0 -25.333 8.16699 -45.666 24.5 -60.999s37.5 -23 63.5 -23s47 7.66699 63 23s24 35.666 24 60.999v190zM183 -26h-36l425 744h36z" />
    <glyph glyph-name="ampersand" unicode="&#x26;" horiz-adv-x="625" 
d="M228 392c-27.333 34 -48.502 64.1621 -63.502 90.4951s-22.5 52.833 -22.5 79.5c0 18 3 35.5 9 52.5s15.5 32.333 28.5 46s29.333 24.5 49 32.5s43.5 12 71.5 12c30 0 57.333 -3.83301 82 -11.5s47.667 -21.5 69 -41.5l-30 -34c-20 16.667 -39.5 28.334 -58.5 35.001
s-41.167 10 -66.5 10c-20.667 0 -38 -3.16699 -52 -9.5s-25.167 -14.5 -33.5 -24.5s-14.333 -21 -18 -33s-5.5 -23.333 -5.5 -34c0 -7.33301 1.33301 -14.833 4 -22.5s7.66699 -17.167 15 -28.5c8.66699 -14 20.334 -31.5 35.001 -52.5l47.5 -67l53 -72.5l51.5 -69.5
l42.5 -57l26.5 -35.5c12 20.667 21.167 43.834 27.5 69.501s10.833 49.167 13.5 70.5c7.33301 -0.666992 14.5 -1.16699 21.5 -1.5s14.167 -1.16602 21.5 -2.49902c-4 -30 -10.333 -59.167 -19 -87.5s-20.667 -56.166 -36 -83.499l96 -122h-56l-69 88
c-56 -62.667 -123 -94 -201 -94c-28 0 -53.5 4 -76.5 12s-42.5 19.333 -58.5 34s-28.5 32.334 -37.5 53.001s-13.5 43.667 -13.5 69c0 46 13.333 87.667 40 125s64.334 72.333 113.001 105zM252.998 357.995c-18.667 -12 -36.167 -25 -52.5 -39s-30.5 -29 -42.5 -45
s-21.5 -33 -28.5 -51s-10.5 -37 -10.5 -57c0 -21.333 4 -40.333 12 -57s18.5 -30.5 31.5 -41.5s28.167 -19.333 45.5 -25s35.333 -8.5 54 -8.5c33.333 0 65 8 95 24s55.667 37 77 63l-90.5 118.5z" />
    <glyph glyph-name="quotesingle" unicode="'" horiz-adv-x="189" 
d="M78 513v183h34v-183h-34z" />
    <glyph glyph-name="parenleft" unicode="(" horiz-adv-x="262" 
d="M229 -119c-22.667 26 -43.832 55.0029 -63.499 87.0029s-36.834 66 -51.501 102s-26.334 73.333 -35.001 112s-13 78 -13 118c0 38 4 76.167 12 114.5s19 75.666 33 111.999s30.833 70.833 50.5 103.5s41.167 62.667 64.5 90l22 -13
c-41.333 -58.667 -73.666 -123.167 -96.999 -193.5s-35 -139.833 -35 -208.5c0 -74.667 12 -147.334 36 -218.001s56 -134.334 96 -191.001l-19 -15v0z" />
    <glyph glyph-name="parenright" unicode=")" horiz-adv-x="262" 
d="M27 -106c40 56.667 71.835 120.331 95.502 190.998s35.5 143.334 35.5 218.001c0 69.333 -11.5 139 -34.5 209s-55.167 134.333 -96.5 193l21 13c24 -27.333 45.833 -57.333 65.5 -90s36.5 -67.167 50.5 -103.5s25 -73.666 33 -111.999s12 -76.5 12 -114.5
c0 -39.333 -4.33301 -78.5 -13 -117.5s-20.334 -76.5 -35.001 -112.5s-31.834 -70 -51.501 -102s-40.5 -61 -62.5 -87z" />
    <glyph glyph-name="asterisk" unicode="*" horiz-adv-x="343" 
d="M279 447l-17.999 -14.002c-8.66699 -6.66699 -14.667 -11 -18 -13l-69 108l-68 -109l-35 28l79 96c-3.33301 0.666992 -10.833 2.83398 -22.5 6.50098l-38 11.5l-38 11.5c-11.667 3.66699 -18.834 5.83398 -21.501 6.50098c1.33301 3.33301 3.5 10 6.5 20
s5.16699 17 6.5 21l118 -49l-8 125h42l-8 -125l119 49l13 -42l-121 -35z" />
    <glyph glyph-name="plus" unicode="+" horiz-adv-x="467" 
d="M251 261v-194h-37v194h-188v38h188v192h37v-192h188v-38h-188z" />
    <glyph glyph-name="comma" unicode="," horiz-adv-x="174" 
d="M45 -99l25.999 99h-16v66h61v-56c-5.33301 -19.333 -11.666 -37.833 -18.999 -55.5l-23 -53.5h-29z" />
    <glyph glyph-name="hyphen" unicode="-" horiz-adv-x="370" 
d="M53 239v42h264v-42h-264z" />
    <glyph glyph-name="period" unicode="." horiz-adv-x="167" 
d="M56 0v65h59v-65h-59z" />
    <glyph glyph-name="slash" unicode="/" horiz-adv-x="407" 
d="M39 -25h-38l366 743h39z" />
    <glyph glyph-name="zero" unicode="0" horiz-adv-x="467" 
d="M417 179c0 -30 -5 -56.333 -15 -79s-23.5 -41.834 -40.5 -57.501s-36.667 -27.5 -59 -35.5s-45.5 -12 -69.5 -12s-47.167 4 -69.5 12s-42 19.833 -59 35.5s-30.5 34.834 -40.5 57.501s-15 49 -15 79v337c0 30 5 56.5 15 79.5s23.5 42.333 40.5 58s36.667 27.5 59 35.5
s45.5 12 69.5 12s47.167 -4 69.5 -12s42 -19.833 59 -35.5s30.5 -35 40.5 -58s15 -49.5 15 -79.5v-337zM375 510c0 45.333 -13 81.666 -39 108.999s-60.333 41 -103 41s-76.834 -13.667 -102.501 -41s-38.5 -63.666 -38.5 -108.999v-324
c0 -45.333 12.833 -81.833 38.5 -109.5s59.834 -41.5 102.501 -41.5s77 13.833 103 41.5s39 64.167 39 109.5v324z" />
    <glyph glyph-name="one" unicode="1" horiz-adv-x="467" 
d="M274 0h-44v648l-102 -68v48l101 68h45v-696z" />
    <glyph glyph-name="two" unicode="2" horiz-adv-x="467" 
d="M45 0l0.00195312 44l290 375c11.333 14.667 20.666 32.5 27.999 53.5s11 40.167 11 57.5s-3 33.833 -9 49.5s-14.833 29.334 -26.5 41.001s-26 20.834 -43 27.501s-36.833 10 -59.5 10c-32.667 0 -61.667 -10 -87 -30s-42.333 -46 -51 -78l-45 7
c5.33301 22 13.833 41.667 25.5 59s25.667 32.166 42 44.499s34.333 21.833 54 28.5s40.167 10 61.5 10c28.667 0 54.5 -4.16699 77.5 -12.5s42.5 -20 58.5 -35s28.167 -32.5 36.5 -52.5s12.5 -42 12.5 -66c0 -21.333 -3.83301 -43.833 -11.5 -67.5
s-19.834 -45.834 -36.501 -66.501l-274 -356h317v-43h-371z" />
    <glyph glyph-name="three" unicode="3" horiz-adv-x="467" 
d="M424 196c0 -30.667 -5.1709 -58.3359 -15.5039 -83.0029s-24.833 -45.834 -43.5 -63.501s-40.5 -31.334 -65.5 -41.001s-52.167 -14.5 -81.5 -14.5c-18 0 -36.167 2 -54.5 6s-35.333 10.667 -51 20s-29.5 21.833 -41.5 37.5s-21 35.167 -27 58.5l44 6
c8.66699 -27.333 24.334 -49 47.001 -65s51 -24 85 -24c20.667 0 40.667 3.83301 60 11.5s36.333 18.334 51 32.001s26.334 30.334 35.001 50.001s13 41.5 13 65.5s-3.66699 45.333 -11 64s-17.166 34.5 -29.499 47.5s-27 22.833 -44 29.5s-35.5 10 -55.5 10h-45v40h36
c19.333 0 37.5 3.16699 54.5 9.5s31.667 15.333 44 27s22 25.834 29 42.501s10.5 35.334 10.5 56.001s-3.5 39.667 -10.5 57s-16.667 32.5 -29 45.5s-27.333 23.167 -45 30.5s-37.5 11 -59.5 11c-27.333 0 -53.666 -8 -78.999 -24s-42.666 -39 -51.999 -69l-43 7
c11.333 38 33 68.5 65 91.5s69 34.5 111 34.5c32 0 59.833 -5 83.5 -15s43.167 -23.5 58.5 -40.5s26.666 -36.333 33.999 -58s11 -44.5 11 -68.5c0 -12 -1.66699 -25.5 -5 -40.5s-9 -29.667 -17 -44s-18.667 -27.833 -32 -40.5s-30 -23 -50 -31
c22.667 -8 41.5 -18.667 56.5 -32s26.833 -27.833 35.5 -43.5s14.667 -31.667 18 -48s5 -31.166 5 -44.499z" />
    <glyph glyph-name="four" unicode="4" horiz-adv-x="467" 
d="M385 112v-112h-43v112h-313v42l248 542h49l-252 -542h268v215h43v-215h62v-42h-62z" />
    <glyph glyph-name="five" unicode="5" horiz-adv-x="467" 
d="M93 124c9.33301 -29.333 25.665 -52 48.998 -68s52.666 -24 87.999 -24c25.333 0 47.333 4.5 66 13.5s34 21 46 36s21 32.167 27 51.5s9 39.666 9 60.999v72c0 21.333 -2.66699 41.5 -8 60.5s-13.666 35.5 -24.999 49.5s-26.166 25.167 -44.499 33.5
s-40.833 12.5 -67.5 12.5c-11.333 0 -23.166 -1.83301 -35.499 -5.5s-24.166 -8.66699 -35.499 -15s-22 -13.666 -32 -21.999s-18.333 -17.5 -25 -27.5h-41v344h341v-42h-300v-249c24.667 23.333 49.5 38.5 74.5 45.5s47.167 10.5 66.5 10.5c30.667 0 57 -4.83301 79 -14.5
s40 -23 54 -40s24.333 -37.167 31 -60.5s10 -48.333 10 -75v-45c0 -32.667 -3 -63 -9 -91s-16.333 -52.333 -31 -73s-34.334 -37 -59.001 -49s-55.667 -18 -93 -18c-46 0 -84 10 -114 30s-50.667 50 -62 90z" />
    <glyph glyph-name="six" unicode="6" horiz-adv-x="467" 
d="M426 204c0 -38 -5.5 -70.3301 -16.5 -96.9971s-25.5 -48.334 -43.5 -65.001s-38.667 -28.834 -62 -36.501s-47.333 -11.5 -72 -11.5c-22 0 -43.667 4.16699 -65 12.5s-40.5 20.666 -57.5 36.999s-30.667 37 -41 62s-15.5 54.167 -15.5 87.5
c0 41.333 8.33301 78.666 25 111.999l197 391h47l-168 -334l2 -1c13.333 10.667 28.5 18.334 45.5 23.001s32.5 7 46.5 7c23.333 0 45.833 -4.33301 67.5 -13s40.667 -21 57 -37s29.333 -35.5 39 -58.5s14.5 -49.167 14.5 -78.5zM382 195.003
c0 24.667 -3.66699 46.834 -11 66.501s-17.5 36.167 -30.5 49.5s-28.167 23.666 -45.5 30.999s-36 11 -56 11s-38.833 -3.66699 -56.5 -11s-33 -17.666 -46 -30.999s-23.167 -29.833 -30.5 -49.5s-11 -41.834 -11 -66.501c0 -48.667 12.833 -88 38.5 -118
s60.834 -45 105.501 -45c18.667 0 36.667 3.66699 54 11s32.666 18 45.999 32s23.833 31 31.5 51s11.5 43 11.5 69z" />
    <glyph glyph-name="seven" unicode="7" horiz-adv-x="467" 
d="M169 0h-49l255 653h-282v-109h-43v152h372v-44z" />
    <glyph glyph-name="eight" unicode="8" horiz-adv-x="467" 
d="M437 188c0 -28.667 -5.33594 -54.999 -16.0029 -78.999s-25 -44.5 -43 -61.5s-39.167 -30.167 -63.5 -39.5s-50.166 -14 -77.499 -14s-53.166 4.66699 -77.499 14s-45.5 22.5 -63.5 39.5s-32.167 37.5 -42.5 61.5s-15.5 50.333 -15.5 79c0 14.667 2.33301 30.5 7 47.5
s11.667 33.333 21 49s21.333 30.167 36 43.5s32 23.666 52 30.999c-20 8 -36.667 18 -50 30s-24 25.167 -32 39.5s-13.5 29 -16.5 44s-4.5 29.167 -4.5 42.5c0 26 4.83301 50.333 14.5 73s22.834 42.167 39.501 58.5s36.334 29.333 59.001 39s47 14.5 73 14.5
c28 0 53.5 -4.83301 76.5 -14.5s42.5 -22.667 58.5 -39s28.5 -35.833 37.5 -58.5s13.5 -47 13.5 -73c0 -31.333 -8 -61.166 -24 -89.499s-42.667 -50.5 -80 -66.5l1 -1c21.333 -6.66699 39.333 -16.334 54 -29.001s26.667 -26.834 36 -42.501s16.166 -32.167 20.499 -49.5
s6.5 -33.666 6.5 -48.999zM236.997 341.001c-20.667 0 -40.498 -3.66699 -59.498 -11s-35.667 -17.666 -50 -30.999s-25.833 -29.333 -34.5 -48s-13 -39.334 -13 -62.001c0 -22 4.33301 -42.667 13 -62s20.167 -36 34.5 -50s31 -25 50 -33s38.833 -12 59.5 -12
s40.667 4 60 12s36.166 19 50.499 33s25.833 30.667 34.5 50s13 40 13 62c0 22.667 -4.33301 43.334 -13 62.001s-20.334 34.667 -35.001 48s-31.5 23.666 -50.5 30.999s-38.833 11 -59.5 11zM236.999 662.001c-18 0 -35.5 -3.16602 -52.5 -9.49902
s-32.167 -15.666 -45.5 -27.999s-24.166 -27.5 -32.499 -45.5s-12.5 -38.667 -12.5 -62c0 -24 4.16699 -44.667 12.5 -62s19.166 -31.833 32.499 -43.5s28.666 -20.334 45.999 -26.001s34.666 -8.5 51.999 -8.5c18 0 35.5 2.83301 52.5 8.5s32.333 14.167 46 25.5
s24.667 25.833 33 43.5s12.5 38.5 12.5 62.5c0 23.333 -4.16699 44 -12.5 62s-19.166 33.167 -32.499 45.5s-28.666 21.666 -45.999 27.999s-35 9.5 -53 9.5z" />
    <glyph glyph-name="nine" unicode="9" horiz-adv-x="467" 
d="M53 495c0 38 5.49902 70.168 16.499 96.501s25.667 47.666 44 63.999s39 28.166 62 35.499s46.5 11 70.5 11c22.667 0 44.834 -4.16699 66.501 -12.5s41 -20.666 58 -36.999s30.667 -37 41 -62s15.5 -54.167 15.5 -87.5c0 -20 -2 -39.5 -6 -58.5
s-10.333 -36.833 -19 -53.5l-198 -391h-48l169 331l-2 1c-16.667 -10.667 -33.167 -17.5 -49.5 -20.5s-30.166 -4.5 -41.499 -4.5c-24 0 -46.667 4.16699 -68 12.5s-40.333 20.5 -57 36.5s-29.834 35.667 -39.501 59s-14.5 50 -14.5 80zM94.999 501.001
c0 -24.667 3.83105 -46.834 11.498 -66.501s18 -36.167 31 -49.5s28.333 -23.666 46 -30.999s36.5 -11 56.5 -11c40.667 0 74.667 13.833 102 41.5s41 66.5 41 116.5c0 48.667 -12.833 88 -38.5 118s-60.5 45 -104.5 45c-19.333 0 -37.666 -3.66699 -54.999 -11
s-32.666 -18 -45.999 -32s-24 -31 -32 -51s-12 -43 -12 -69z" />
    <glyph glyph-name="colon" unicode=":" horiz-adv-x="174" 
d="M57 0v65h59v-65h-59zM57 314v65h59v-65h-59z" />
    <glyph glyph-name="semicolon" unicode=";" horiz-adv-x="174" 
d="M46 -99l26 98.998h-16v66h61v-56c-1.33301 -3.33301 -2 -6.66602 -2 -9.99902s-0.666992 -6.66602 -2 -9.99902l-38 -89h-29zM57 312.998v66h60v-66h-60z" />
    <glyph glyph-name="less" unicode="&#x3c;" horiz-adv-x="467" 
d="M432 80l-402 182v36l401 182v-41l-355 -159l78 -34.5l99.5 -44.5l99.5 -44.5l79 -34.5v-42z" />
    <glyph glyph-name="equal" unicode="=" horiz-adv-x="467" 
d="M26 340v37h413v-37h-413zM26 163v38h413v-38h-413z" />
    <glyph glyph-name="greater" unicode="&#x3e;" horiz-adv-x="467" 
d="M31 122l79 34.5l99.5 44.5l99.5 44.5l78 34.5l-354 159v41l400 -182v-36l-402 -182v42z" />
    <glyph glyph-name="question" unicode="?" horiz-adv-x="445" 
d="M33 532c6.66699 28 16.4961 52.5029 29.4961 73.5029s28.333 38.5 46 52.5s36.834 24.667 57.501 32s42.334 11 65.001 11c27.333 0 52.166 -4.33301 74.499 -13s41.333 -20.834 57 -36.501s27.834 -34 36.501 -55s13 -43.833 13 -68.5
c0 -16 -2.16699 -31.167 -6.5 -45.5s-10 -27.833 -17 -40.5s-15.167 -24.667 -24.5 -36l-27 -33c-9.33301 -11.333 -19 -22.5 -29 -33.5s-19 -22.333 -27 -34s-14.833 -24 -20.5 -37s-8.83398 -27.167 -9.50098 -42.5v-66h-46v68c0 18 3.33301 35 10 51s15 31.333 25 46
c8.66699 12.667 20.167 26.334 34.5 41.001s28.333 30.167 42 46.5s25.334 33.666 35.001 51.999s14.5 37.5 14.5 57.5c0 13.333 -2.16699 28 -6.5 44s-12 30.833 -23 44.5s-25.5 25.167 -43.5 34.5s-40.667 14 -68 14c-22 0 -41.667 -4.66699 -59 -14
s-32.166 -20.833 -44.499 -34.5s-22.166 -28.334 -29.499 -44.001s-12 -29.834 -14 -42.501zM200.996 0.00292969v61h56v-61h-56z" />
    <glyph glyph-name="at" unicode="@" horiz-adv-x="774" 
d="M514 237c0 -16.667 3.50098 -31.1699 10.501 -43.5029s22.5 -18.5 46.5 -18.5c22 0 41.167 5.16699 57.5 15.5s30.166 24.833 41.499 43.5s19.833 41 25.5 67s8.5 55 8.5 87c0 46.667 -8.66699 87.834 -26 123.501s-40 65.5 -68 89.5s-60 42 -96 54s-72.333 18 -109 18
c-49.333 0 -94.5 -8.33301 -135.5 -25s-76.167 -40 -105.5 -70s-52.166 -65.667 -68.499 -107s-24.5 -86.333 -24.5 -135c0 -52.667 8.33301 -100.167 25 -142.5s40.167 -78.166 70.5 -107.499s66.5 -52 108.5 -68s88 -24 138 -24c42 0 79 3.33301 111 10
s61.667 16.667 89 30c2.66699 -5.33301 5 -10.833 7 -16.5l6 -16.5c-32.667 -11.333 -65.834 -20.833 -99.501 -28.5s-70.167 -11.5 -109.5 -11.5c-55.333 0 -106.333 8.66699 -153 26s-87 42.166 -121 74.499s-60.5 71.666 -79.5 117.999s-28.5 98.5 -28.5 156.5
c0 52 8.83301 100.5 26.5 145.5s42.5 84 74.5 117s70.333 59 115 78s94.334 28.5 149.001 28.5c47.333 0 91.666 -7.16699 132.999 -21.5s77.5 -35.166 108.5 -62.499s55.333 -60.666 73 -99.999s26.5 -83.666 26.5 -132.999c0 -42 -4.33301 -78.333 -13 -109
s-20.834 -56.167 -36.501 -76.5s-33.834 -35.333 -54.501 -45s-43 -14.5 -67 -14.5c-4.66699 0 -11.167 0.5 -19.5 1.5s-17 3.33301 -26 7s-17.167 9 -24.5 16s-12.333 16.167 -15 27.5h-2c-6 -11.333 -14.167 -20.333 -24.5 -27s-21.5 -12 -33.5 -16
s-24.167 -6.66699 -36.5 -8s-23.5 -2 -33.5 -2c-16 0 -31.833 1.83301 -47.5 5.5s-29.667 9.66699 -42 18s-22.5 19.166 -30.5 32.499s-12 29.333 -12 48c0 30.667 10.833 56.334 32.5 77.001s52.834 31 93.501 31h130v52c0 26.667 -7.16699 47.834 -21.5 63.501
s-42.5 23.5 -84.5 23.5c-17.333 0 -36.166 -2.83301 -56.499 -8.5s-38.5 -14.834 -54.5 -27.501c-3.33301 4 -6.5 8.5 -9.5 13.5s-6.16699 9.5 -9.5 13.5c20.667 16 42.667 27 66 33s45 9 65 9c19.333 0 37.5 -1.5 54.5 -4.5s31.833 -8.66699 44.5 -17
s22.667 -19.833 30 -34.5s11 -33.667 11 -57v-176zM352.001 323.997c-12 0 -23.668 -1.49805 -35.001 -4.49805s-21.5 -7.5 -30.5 -13.5s-16.167 -13.667 -21.5 -23s-8 -20.333 -8 -33c0 -24.667 9 -43.834 27 -57.501s43 -20.5 75 -20.5c13.333 0 27 1.33301 41 4
s26.833 7 38.5 13s21.334 14.167 29.001 24.5s11.5 23.166 11.5 38.499v72h-127z" />
    <glyph glyph-name="A" unicode="A" horiz-adv-x="585" 
d="M459 170h-335l-60 -170h-50l253 696h49l127.5 -348l126.5 -348h-51zM290 639l-15.5 -42.999l-26.5 -75.5l-32.5 -92.5l-33 -92.5l-27.5 -77.5c-8 -22.667 -13.667 -38.334 -17 -47.001h307l-90 254l-31.5 87l-30.5 87h-3z" />
    <glyph glyph-name="B" unicode="B" horiz-adv-x="585" 
d="M546 186c0 -28 -4.83496 -53.4971 -14.502 -76.4971s-23 -42.667 -40 -59s-36.833 -28.833 -59.5 -37.5s-47 -13 -73 -13h-280v696h253c32 0 60.333 -4.5 85 -13.5s45.334 -21.5 62.001 -37.5s29.334 -34.833 38.001 -56.5s13 -44.834 13 -69.501
c0 -13.333 -1.83301 -27.666 -5.5 -42.999s-10 -30.333 -19 -45s-21 -28.334 -36 -41.001s-33.833 -22.334 -56.5 -29.001v-2c24 -4.66699 44.5 -13 61.5 -25s30.667 -26.167 41 -42.5s18 -33.833 23 -52.5s7.5 -36.334 7.5 -53.001zM124.998 655.003l-0.00195312 -277h199
c48.667 0 87.334 12.667 116.001 38s43 59 43 101c0 40 -13.667 73 -41 99s-66.666 39 -117.999 39h-199zM124.996 337.003l-0.000976562 -294.001h214c53.333 0 93 14 119 42s39 63 39 105c0 19.333 -3.16699 37.833 -9.5 55.5s-16.166 33.334 -29.499 47.001
s-30 24.5 -50 32.5s-43.333 12 -70 12h-213z" />
    <glyph glyph-name="C" unicode="C" horiz-adv-x="528" 
d="M511 134c-17.333 -43.333 -44.8311 -77.667 -82.498 -103s-82.834 -38 -135.501 -38c-41.333 0 -77 6.83301 -107 20.5s-54.833 32 -74.5 55s-34.334 49.833 -44.001 80.5s-14.5 63 -14.5 97v207c0 33.333 5 65 15 95s25 56.333 45 79s45 40.667 75 54s65 20 105 20
c52 0 96.333 -11.833 133 -35.5s64 -55.167 82 -94.5l-42 -21c-14 31.333 -35.667 57.166 -65 77.499s-65 30.5 -107 30.5c-32.667 0 -61.167 -5.5 -85.5 -16.5s-44.666 -26 -60.999 -45s-28.5 -41 -36.5 -66s-12 -51.5 -12 -79.5v-206c0 -28 4 -54.5 12 -79.5
s20.167 -47.167 36.5 -66.5s36.666 -34.666 60.999 -45.999s52.833 -17 85.5 -17c42.667 0 78.5 10.5 107.5 31.5s51.5 49.5 67.5 85.5z" />
    <glyph glyph-name="D" unicode="D" horiz-adv-x="606" 
d="M303 696c52 0 96.999 -9.83203 134.999 -29.499s67.667 -51.834 89 -96.501c11.333 -24.667 18.333 -54.667 21 -90s4 -75 4 -119c0 -50 -1.16699 -93.667 -3.5 -131s-9.16602 -69.333 -20.499 -96c-22 -50 -53.167 -84.833 -93.5 -104.5s-88.833 -29.5 -145.5 -29.5
h-210v696h224zM504.999 417.001c0 44.667 -5 82.001 -15 112.001s-24 54.167 -42 72.5s-39.833 31.5 -65.5 39.5s-54.5 12 -86.5 12h-170v-610h170c39.333 0 72.333 5.66699 99 17s48.167 27.333 64.5 48s28 45.167 35 73.5s10.5 59.166 10.5 92.499v143z" />
    <glyph glyph-name="E" unicode="E" horiz-adv-x="528" 
d="M79 0v696h422v-43h-375v-279h320v-42h-320v-289h375v-43h-422z" />
    <glyph glyph-name="F" unicode="F" horiz-adv-x="507" 
d="M127 653v-281h319v-41h-319v-331h-48v696h422v-43h-374z" />
    <glyph glyph-name="G" unicode="G" horiz-adv-x="585" 
d="M292 34c30 0 56.833 5.49902 80.5 16.499s43.834 25.5 60.501 43.5s29.5 39 38.5 63s13.5 49 13.5 75v80h-157v40h204v-111c0 -34.667 -5.5 -67.167 -16.5 -97.5s-26.833 -56.666 -47.5 -78.999s-46 -39.833 -76 -52.5s-63.667 -19 -101 -19
c-41.333 0 -77 6.83301 -107 20.5s-54.833 32 -74.5 55s-34.334 49.833 -44.001 80.5s-14.5 63 -14.5 97v207c0 33.333 5 65 15 95s25 56.333 45 79s45 40.667 75 54s65 20 105 20c52 0 96.5 -11.833 133.5 -35.5s64.167 -55.167 81.5 -94.5c-1.33301 -1.33301 -4 -3 -8 -5
s-8.33301 -4 -13 -6s-9 -4 -13 -6l-8 -4c-14 31.333 -35.667 57.166 -65 77.499s-65 30.5 -107 30.5c-32.667 0 -61.167 -5.5 -85.5 -16.5s-44.666 -26 -60.999 -45s-28.5 -41 -36.5 -66s-12 -51.5 -12 -79.5v-208c0 -28 4 -54.5 12 -79.5s20.167 -47.167 36.5 -66.5
s36.666 -34.666 60.999 -45.999s52.833 -17 85.5 -17z" />
    <glyph glyph-name="H" unicode="H" horiz-adv-x="625" 
d="M499 0v332h-374v-332h-46v696h46v-322h374v322h47v-696h-47z" />
    <glyph glyph-name="I" unicode="I" horiz-adv-x="212" 
d="M83 0v696h46v-696h-46z" />
    <glyph glyph-name="J" unicode="J" horiz-adv-x="448" 
d="M378 197c0 -36.667 -5.66504 -67.8359 -16.998 -93.5029s-26.5 -46.667 -45.5 -63s-41 -28.166 -66 -35.499s-51.167 -11 -78.5 -11c-28 0 -53.833 4.83301 -77.5 14.5s-44.834 23.167 -63.501 40.5l34 32c17.333 -14.667 34.166 -25.5 50.499 -32.5
s33.833 -10.5 52.5 -10.5c22 0 43 2.83301 63 8.5s37.5 15.334 52.5 29.001s27 31.834 36 54.501s13.5 50.667 13.5 84v482h46v-499z" />
    <glyph glyph-name="K" unicode="K" horiz-adv-x="606" 
d="M528 0l-116 196.5l-117 196.5l-170 -209v-184h-47v696h47v-444h1l86 106l86 105l191 233h52l-216 -266l128 -215.5l128 -214.5h-53v0z" />
    <glyph glyph-name="L" unicode="L" horiz-adv-x="528" 
d="M79 0v696h46v-653h376v-43h-422z" />
    <glyph glyph-name="M" unicode="M" horiz-adv-x="741" 
d="M626 591h-1l-104 -220l-126 -262h-40l-126 264l-105 218c0 -0.666992 -0.333008 -1 -1 -1v-590h-45v696h47l156 -328l47.5 -99.5l46.5 -100.5h1l95 200l156 328h45v-696h-46v591z" />
    <glyph glyph-name="N" unicode="N" horiz-adv-x="663" 
d="M276 392l-74.5 112.5l-73.5 112.5c-0.666992 0 -1 -0.333008 -1 -1v-616h-47v696h48l258 -388l75.5 -115.5l75.5 -115.5c0.666992 0 1 0.333008 1 1v618h46v-696h-47z" />
    <glyph glyph-name="O" unicode="O" horiz-adv-x="571" 
d="M286 701c37.333 0 70.666 -6.16699 99.999 -18.5s54.333 -29.5 75 -51.5s36.334 -48.167 47.001 -78.5s16 -63.5 16 -99.5v-207c0 -38.667 -5.5 -73.667 -16.5 -105s-26.833 -58 -47.5 -80s-45.667 -38.833 -75 -50.5s-62.333 -17.5 -99 -17.5
c-41.333 0 -77.166 6.83301 -107.499 20.5s-55.333 32 -75 55s-34.334 49.833 -44.001 80.5s-14.5 63 -14.5 97v207c0 33.333 5 65 15 95s25 56.333 45 79s45 40.667 75 54s65.333 20 106 20zM287 657c-32.667 0 -61.165 -5.50098 -85.498 -16.501s-44.5 -26 -60.5 -45
s-28 -40.833 -36 -65.5s-12 -51 -12 -79v-207c0 -27.333 4 -53.5 12 -78.5s20 -47.167 36 -66.5s36.167 -34.666 60.5 -45.999s52.833 -17 85.5 -17c29.333 0 55.666 5.33301 78.999 16s43.166 25.334 59.499 44.001s28.833 41 37.5 67s13 54.333 13 85v203
c0 28.667 -4.33301 55.667 -13 81s-21 47.166 -37 65.499s-35.667 32.833 -59 43.5s-50 16 -80 16z" />
    <glyph glyph-name="P" unicode="P" horiz-adv-x="555" 
d="M544 494c0 -23.333 -4.16699 -46.499 -12.5 -69.499s-21 -44 -38 -63s-38.5 -34.333 -64.5 -46s-56.333 -17.5 -91 -17.5h-211v-298h-47v696h248c28 0 55 -3.66699 81 -11s49 -19 69 -35s36 -36.833 48 -62.5s18 -56.834 18 -93.501zM494 497.001
c0 26 -4.33398 48.833 -13.001 68.5s-20.5 36 -35.5 49s-32.667 22.667 -53 29s-41.833 9.5 -64.5 9.5h-201v-311h205c28.667 0 53.334 4.5 74.001 13.5s37.5 20.667 50.5 35s22.5 30.833 28.5 49.5s9 37.667 9 57z" />
    <glyph glyph-name="Q" unicode="Q" horiz-adv-x="585" 
d="M286 701c37.333 0 70.667 -6.16699 100 -18.5s54.333 -29.5 75 -51.5s36.334 -48.167 47.001 -78.5s16 -63.5 16 -99.5v-207c0 -28 -2.83301 -53.833 -8.5 -77.5s-14.167 -45.5 -25.5 -65.5l100 -79l-26 -31l-45 35l-53 42c-20.667 -24.667 -46 -43.667 -76 -57
s-64.667 -20 -104 -20c-41.333 0 -77 6.83301 -107 20.5s-54.833 32 -74.5 55s-34.334 49.833 -44.001 80.5s-14.5 63 -14.5 97v207c0 33.333 5 65 15 95s25 56.333 45 79s45 40.667 75 54s65 20 105 20zM287.001 656c-32.667 0 -61.168 -5.5 -85.501 -16.5
s-44.5 -25.833 -60.5 -44.5s-28 -40.5 -36 -65.5s-12 -51.167 -12 -78.5v-206c0 -27.333 4 -53.5 12 -78.5s20 -47.167 36 -66.5s36.167 -34.666 60.5 -45.999s52.833 -17 85.5 -17c30.667 0 57.834 5.66699 81.501 17s43.5 26.666 59.5 45.999l-102 82l27 32l97 -79
c17.333 33.333 26 71.333 26 114v202c0 28.667 -4.33301 55.5 -13 80.5s-21 46.667 -37 65s-35.667 32.833 -59 43.5s-50 16 -80 16z" />
    <glyph glyph-name="R" unicode="R" horiz-adv-x="585" 
d="M483 0l-155.001 322.998h-201v-323h-47v696h269c28.667 0 55.334 -4.16699 80.001 -12.5s45.667 -20.166 63 -35.499s31 -34.166 41 -56.499s15 -47.5 15 -75.5c0 -50 -15.333 -92 -46 -126s-71.667 -55.333 -123 -64l160 -326h-56zM497.999 515.998
c0 24.667 -4.49805 45.833 -13.498 63.5s-20.833 32 -35.5 43s-31.834 19.167 -51.501 24.5s-39.834 8 -60.501 8h-210v-290h207c23.333 0 45 3.16699 65 9.5s37.333 15.833 52 28.5s26.167 28.5 34.5 47.5s12.5 40.833 12.5 65.5z" />
    <glyph glyph-name="S" unicode="S" horiz-adv-x="530" 
d="M503 183c0 -28.667 -5.5 -54.6689 -16.5 -78.002s-27 -43.166 -48 -59.499s-46.333 -29 -76 -38s-63.167 -13.5 -100.5 -13.5c-44 0 -86.333 6.16699 -127 18.5s-78.667 31.166 -114 56.499l28 38c30.667 -22 64.334 -39 101.001 -51s75 -18 115 -18
c26.667 0 51.667 3 75 9s43.5 15 60.5 27s30.333 27.167 40 45.5s14.5 39.833 14.5 64.5c0 28 -5.66699 50.833 -17 68.5s-26 32 -44 43s-38.167 19.667 -60.5 26s-44.166 11.5 -65.499 15.5c-26 4.66699 -51.5 10.334 -76.5 17.001s-47.333 16.334 -67 29.001
s-35.667 29.334 -48 50.001s-18.5 47.667 -18.5 81c0 28.667 5.16699 54.667 15.5 78s25 43.166 44 59.499s41.833 28.833 68.5 37.5s56.667 13 90 13c77.333 0 143.666 -17.667 198.999 -53l-25 -40c-26.667 15.333 -54.667 27.333 -84 36s-60 13 -92 13
c-22 0 -43.333 -2.83301 -64 -8.5s-38.667 -14.334 -54 -26.001s-27.666 -26.5 -36.999 -44.5s-14 -39.667 -14 -65s5.33301 -45.833 16 -61.5s24.667 -28.167 42 -37.5s37.166 -16.666 59.499 -21.999s45.166 -10.333 68.499 -15c26.667 -5.33301 52.667 -11.833 78 -19.5
s48 -18.5 68 -32.5s36 -32.333 48 -55s18 -52 18 -88z" />
    <glyph glyph-name="T" unicode="T" horiz-adv-x="478" 
d="M264 655v-655h-46v655h-210v41h463v-41h-207z" />
    <glyph glyph-name="U" unicode="U" horiz-adv-x="606" 
d="M542 696l-0.000976562 -463.998c0 -36 -6 -68.667 -18 -98s-28.5 -54.333 -49.5 -75s-46.167 -36.667 -75.5 -48s-61.333 -17 -96 -17c-36 0 -68.5 6 -97.5 18s-54 28.833 -75 50.5s-37.167 47.5 -48.5 77.5s-17 63 -17 99v457h46v-446c0 -29.333 4.5 -57 13.5 -83
s21.833 -48.5 38.5 -67.5s36.834 -34 60.501 -45s50.167 -16.5 79.5 -16.5c28 0 53.667 4.66699 77 14s43.5 22.666 60.5 39.999s30.167 38.666 39.5 63.999s14 54 14 86v454h48z" />
    <glyph glyph-name="V" unicode="V" horiz-adv-x="528" 
d="M242 0l-115 348l-114 348h48l110 -339l91 -285h3l45.5 142.5l45.5 142.5l108 339h49l-229 -696h-42z" />
    <glyph glyph-name="W" unicode="W" horiz-adv-x="809" 
d="M619 0h-43l-105 376l-33.5 119l-33.5 119h-1l-169 -614h-44l-85.5 348l-84.5 348h48l44.5 -189.5l44.5 -188.5l56 -239h2l32 120l33 119l105 378h40l53 -190.5l53 -189.5l66 -237h1l54 236l89 381h49z" />
    <glyph glyph-name="X" unicode="X" horiz-adv-x="500" 
d="M437 0l-187 318l-187 -318h-52l213 357l-198 339h52l172 -300l172 300h52l-199 -339l213 -357h-51z" />
    <glyph glyph-name="Y" unicode="Y" horiz-adv-x="475" 
d="M259 0l-43.999 -0.000976562v288l-209 408h49l21.5 -42l33 -66l39 -78l38 -77l31.5 -63.5c9.33301 -18.333 15.666 -31.166 18.999 -38.499l37 73.5l36 74.5l55.5 108l53.5 109h48l-104.5 -204l-103.5 -204v-288z" />
    <glyph glyph-name="Z" unicode="Z" horiz-adv-x="488" 
d="M33 0v42l370 613h-354v41h406v-40l-370 -613h370v-43h-422z" />
    <glyph glyph-name="bracketleft" unicode="[" horiz-adv-x="234" 
d="M76 -109v806h142v-35h-99v-737h99v-34h-142z" />
    <glyph glyph-name="backslash" unicode="\" horiz-adv-x="292" 
d="M-4 725h36l252 -767h-36z" />
    <glyph glyph-name="bracketright" unicode="]" horiz-adv-x="234" 
d="M35 -109v34h98v737h-98v35h141v-806h-141z" />
    <glyph glyph-name="asciicircum" unicode="^" horiz-adv-x="467" 
d="M45 333l170.999 360h36l169 -359h-41l-147 316c-7.33301 -18 -17.666 -41.167 -30.999 -69.5l-41.5 -88.5l-41.5 -89l-32 -70h-42z" />
    <glyph glyph-name="underscore" unicode="_" horiz-adv-x="493" 
d="M0 -107v37h493v-37h-493z" />
    <glyph glyph-name="grave" unicode="`" horiz-adv-x="482" 
d="M305 563l-99 147l48 19l79 -154z" />
    <glyph glyph-name="a" unicode="a" horiz-adv-x="474" 
d="M376 54c-8 -12 -17.8301 -22.001 -29.4971 -30.001s-24.834 -14.167 -39.501 -18.5s-30.334 -7.33301 -47.001 -9s-33.334 -2.5 -50.001 -2.5c-24 0 -46.5 2.83301 -67.5 8.5s-39.333 14.334 -55 26.001s-28.167 26.334 -37.5 44.001s-14 38.5 -14 62.5
c0 40 13.333 73.167 40 99.5s66.334 39.5 119.001 39.5h182v71c0 36.667 -10.667 65 -32 85s-58.333 30 -111 30c-24.667 0 -48.834 -3.33301 -72.501 -10s-45.5 -19.334 -65.5 -38.001l-28 30c40.667 39.333 96.334 59 167.001 59c25.333 0 49.166 -2.16699 71.499 -6.5
s42 -12.333 59 -24s30.5 -27.5 40.5 -47.5s15 -45.333 15 -76v-347h-44v54h-1zM205.003 236.999c-40 0 -71.167 -8.16797 -93.5 -24.501s-33.5 -41.5 -33.5 -75.5s12.5 -60 37.5 -78s58.5 -27 100.5 -27c16 0 33.333 1.5 52 4.5s36.167 8.33301 52.5 16
s29.833 18.334 40.5 32.001s16 31.5 16 53.5v99h-172z" />
    <glyph glyph-name="b" unicode="b" horiz-adv-x="465" 
d="M95 416c15.333 23.333 34.5 43.167 57.5 59.5s53.833 24.5 92.5 24.5c36 0 66 -7.16699 90 -21.5s43 -33.166 57 -56.499s23.833 -49.833 29.5 -79.5s8.5 -59.834 8.5 -90.501c0 -37.333 -3.33301 -71.833 -10 -103.5s-17.5 -59 -32.5 -82s-34.667 -41 -59 -54
s-53.833 -19.5 -88.5 -19.5c-12 0 -24.5 0.666992 -37.5 2s-25.667 4.5 -38 9.5s-24.5 12.833 -36.5 23.5s-23 25 -33 43l-4 -1v-70h-44v723h44v-305zM384 247.001c0 24 -1.83008 48.499 -5.49707 73.499s-11 47.833 -22 68.5s-26.167 37.667 -45.5 51s-44.333 20 -75 20
c-27.333 0 -50.333 -5.83301 -69 -17.5s-33.667 -27.5 -45 -47.5s-19.333 -43 -24 -69s-7 -53 -7 -81c0 -21.333 1.66699 -44.333 5 -69s10.166 -47.667 20.499 -69s25 -39.166 44 -53.499s44.167 -21.5 75.5 -21.5c32.667 0 58.667 6.66699 78 20s34.166 30.5 44.499 51.5
s17.166 44.167 20.499 69.5s5 50 5 74z" />
    <glyph glyph-name="c" unicode="c" horiz-adv-x="414" 
d="M395 49c-19.333 -17.333 -41 -30.999 -65 -40.999s-50.667 -15 -80 -15c-27.333 0 -54.166 4.5 -80.499 13.5s-49.833 23.5 -70.5 43.5s-37.334 46.167 -50.001 78.5s-19 71.833 -19 118.5s6.33301 86.167 19 118.5s29.334 58.5 50.001 78.5s44.167 34.5 70.5 43.5
s53.166 13.5 80.499 13.5c29.333 0 56 -4.83301 80 -14.5s45.667 -22.834 65 -39.501l-28 -33c-13.333 13.333 -29.833 24.5 -49.5 33.5s-40.167 13.5 -61.5 13.5c-58.667 0 -103.667 -18.333 -135 -55s-47 -89.667 -47 -159s15.667 -122.5 47 -159.5
s76.333 -55.5 135 -55.5c21.333 0 41.833 5 61.5 15s36.167 20.667 49.5 32l28 -30v0z" />
    <glyph glyph-name="d" unicode="d" horiz-adv-x="465" 
d="M374 0v77h-2c-10.667 -17.333 -22.167 -31.5 -34.5 -42.5s-25 -19.5 -38 -25.5s-26.333 -10.167 -40 -12.5s-26.834 -3.5 -39.501 -3.5c-35.333 0 -64.833 6.83301 -88.5 20.5s-42.667 32.167 -57 55.5s-24.666 50.5 -30.999 81.5s-9.5 63.5 -9.5 97.5
c0 30.667 3 61.167 9 91.5s16.167 57.5 30.5 81.5s33.833 43.333 58.5 58s55.667 22 93 22c38.667 0 69.5 -8.33301 92.5 -25s41.167 -35 54.5 -55h2v302h43v-723h-43zM374 245c0 28 -2.50195 55 -7.50195 81s-13.167 49 -24.5 69s-26.333 35.833 -45 47.5
s-41.667 17.5 -69 17.5c-31.333 0 -56.666 -6.66699 -75.999 -20s-34.333 -30.333 -45 -51s-17.834 -43.5 -21.501 -68.5s-5.5 -49.5 -5.5 -73.5c0 -22 1.5 -45.5 4.5 -70.5s9.66699 -48 20 -69s25.333 -38.5 45 -52.5s45.834 -21 78.501 -21c30.667 0 55.5 7 74.5 21
s33.833 31.5 44.5 52.5s17.834 43.833 21.501 68.5s5.5 47.667 5.5 69z" />
    <glyph glyph-name="e" unicode="e" horiz-adv-x="474" 
d="M85 241c-0.666992 -28 1.83203 -54.8359 7.49902 -80.5029s15.167 -48 28.5 -67s31 -34.167 53 -45.5s49 -17 81 -17c21.333 0 42.333 4 63 12s39.667 18.333 57 31l25 -32c-21.333 -17.333 -44 -29.833 -68 -37.5s-49 -11.5 -75 -11.5
c-25.333 0 -50.666 3.33301 -75.999 10s-48.166 19.334 -68.499 38.001s-37 44.334 -50 77.001s-19.5 75 -19.5 127c0 50 6.16699 91.5 18.5 124.5s28 59.333 47 79s40.333 33.334 64 41.001s47.167 11.5 70.5 11.5c32.667 0 61.167 -5.83301 85.5 -17.5
s44.666 -27.5 60.999 -47.5s28.5 -43.833 36.5 -71.5s12 -57.5 12 -89.5v-34h-353zM394.999 276.997c-1.33301 62.667 -15.5 109.167 -42.5 139.5s-63.5 45.5 -109.5 45.5c-47.333 0 -84.5 -16 -111.5 -48s-42.167 -77.667 -45.5 -137h309z" />
    <glyph glyph-name="f" unicode="f" horiz-adv-x="258" 
d="M135 460l-0.000976562 -460h-45v460h-59v36h59v110c0 39.333 11 68.833 33 88.5s48.667 29.5 80 29.5h47v-40h-38c-16 0 -29.167 -2.83301 -39.5 -8.5s-18.166 -12.667 -23.499 -21s-9 -17.833 -11 -28.5s-3 -21 -3 -31v-99h115v-36h-115z" />
    <glyph glyph-name="g" unicode="g" horiz-adv-x="498" 
d="M388 417v79.001h43l1 -493c0 -37.333 -5.66699 -69.333 -17 -96s-26.833 -48.334 -46.5 -65.001s-42.167 -28.834 -67.5 -36.501s-52 -11.5 -80 -11.5c-23.333 0 -46.5 4 -69.5 12s-44.167 20.333 -63.5 37l28 33c14 -11.333 30.333 -21.166 49 -29.499
s38.667 -12.5 60 -12.5c22.667 0 44 3.5 64 10.5s37.333 17.167 52 30.5s26.167 29.666 34.5 48.999s12.5 41.666 12.5 66.999l1 99h-2c-16 -29.333 -36.333 -52.5 -61 -69.5s-56 -25.5 -94 -25.5c-36 0 -65.833 7.16699 -89.5 21.5s-42.5 33.333 -56.5 57
s-23.833 50.334 -29.5 80.001s-8.5 59.834 -8.5 90.501c0 33.333 3 65.5 9 96.5s16.167 58.333 30.5 82s33.166 42.667 56.499 57s52.666 21.5 87.999 21.5c12 0 24.833 -1 38.5 -3s27.334 -6 41.001 -12s26.834 -14.5 39.501 -25.5s24 -25.5 34 -43.5h3zM93 247.001
c0 -24 2.00391 -48.3311 6.00391 -72.998s11.5 -47.334 22.5 -68.001s26.167 -37.5 45.5 -50.5s44.666 -19.5 75.999 -19.5c26.667 0 49.167 5.83301 67.5 17.5s33.333 27.5 45 47.5s20 43 25 69s7.5 53 7.5 81c0 21.333 -1.83301 44.166 -5.5 68.499s-10.834 47 -21.501 68
s-25.5 38.5 -44.5 52.5s-43.5 21 -73.5 21c-32.667 0 -58.834 -7 -78.501 -21s-34.834 -31.5 -45.501 -52.5s-17.667 -44 -21 -69s-5 -48.833 -5 -71.5z" />
    <glyph glyph-name="h" unicode="h" horiz-adv-x="508" 
d="M400 0l0.000976562 317.001c0 46 -11.667 81.167 -35 105.5s-58 36.5 -104 36.5c-21.333 0 -41.333 -3.83301 -60 -11.5s-35 -18.5 -49 -32.5s-25 -30.833 -33 -50.5s-12 -41.167 -12 -64.5v-300h-43v723h43v-313h3c16.667 31.333 40.167 54.166 70.5 68.499
s60.166 21.5 89.499 21.5c56 0 99 -14.5 129 -43.5s45 -70.5 45 -124.5v-332h-44z" />
    <glyph glyph-name="i" unicode="i" horiz-adv-x="199" 
d="M74 648v49h50v-49h-50zM78 0v496h44v-496h-44z" />
    <glyph glyph-name="j" unicode="j" horiz-adv-x="218" 
d="M87 696h50v-48h-50v48zM-8 -166h17c26 0 46 8 60 24s21 39 21 69v568h45v-573c0 -38.667 -11.333 -69.5 -34 -92.5s-51.667 -34.5 -87 -34.5h-22v39z" />
    <glyph glyph-name="k" unicode="k" horiz-adv-x="479" 
d="M423 0l-92 141.5l-92 141.5l-63 -70.5l-62 -71.5v-141h-43v722h43v-522h1l131.5 147.5l131.5 148.5h52l-162 -183l204 -313h-49v0z" />
    <glyph glyph-name="l" unicode="l" horiz-adv-x="218" 
d="M185 0c-36 0 -64 7.5 -84 22.5s-30 41.5 -30 79.5v620h44v-613c0 -22.667 6 -40.167 18 -52.5s31.667 -18.5 59 -18.5h8v-38h-15v0z" />
    <glyph glyph-name="m" unicode="m" horiz-adv-x="853" 
d="M735 317c0 46 -12.0039 80.999 -36.0039 104.999s-56.667 36 -98 36c-21.333 0 -41.5 -3.66699 -60.5 -11s-35.5 -17.833 -49.5 -31.5s-25.167 -30 -33.5 -49s-12.5 -40.167 -12.5 -63.5v-303h-43v317c0 46 -13 81 -39 105s-59.667 36 -101 36
c-21.333 0 -41.166 -3.66699 -59.499 -11s-34.166 -17.833 -47.499 -31.5s-23.666 -30 -30.999 -49s-11 -40.167 -11 -63.5v-303h-43v496h43v-82h2c8 16 18 29.333 30 40s25 19.5 39 26.5s28.5 12 43.5 15s29.5 4.5 43.5 4.5c40.667 0 74.334 -8.66699 101.001 -26
s46.667 -41.666 60 -72.999h1c17.333 34 41.666 59 72.999 75s66 24 104 24c24.667 0 47.334 -3.83301 68.001 -11.5s38.5 -18.667 53.5 -33s26.667 -32 35 -53s12.5 -44.5 12.5 -70.5v-332h-44v317z" />
    <glyph glyph-name="n" unicode="n" horiz-adv-x="502" 
d="M397 0l0.000976562 317.002c0 46 -11.667 81.167 -35 105.5s-58.333 36.5 -105 36.5c-21.333 0 -41.333 -3.83301 -60 -11.5s-34.834 -18.5 -48.501 -32.5s-24.5 -30.833 -32.5 -50.5s-12 -41.167 -12 -64.5v-300h-43v495h43v-85h2c8 16 18.167 29.667 30.5 41
s25.833 20.666 40.5 27.999s29.667 12.666 45 15.999s30 5 44 5c56 0 99 -14.5 129 -43.5s45 -70.5 45 -124.5v-332h-43z" />
    <glyph glyph-name="o" unicode="o" horiz-adv-x="489" 
d="M249 501c36 0 67.499 -7.00195 94.499 -21.002s48.833 -33.667 65.5 -59c11.333 -18.667 20 -41.5 26 -68.5s9 -63.167 9 -108.5s-4.66699 -82.5 -14 -111.5s-21 -52.5 -35 -70.5c-18 -23.333 -40 -40.5 -66 -51.5s-55.333 -16.5 -88 -16.5
c-61.333 0 -108.666 18.667 -141.999 56c-18 20.667 -31.667 46.834 -41 78.501s-14 71.834 -14 120.501c0 46 5 83.5 15 112.5s23 53.167 39 72.5c17.333 20.667 38.5 37 63.5 49s54.167 18 87.5 18zM246.999 461.998c-25.333 0 -47.668 -5.16602 -67.001 -15.499
s-35.666 -23.833 -48.999 -40.5s-23.833 -37 -31.5 -61s-11.5 -56.667 -11.5 -98c0 -42 3.83301 -75.333 11.5 -100s18.167 -45.334 31.5 -62.001s29.333 -29.5 48 -38.5s40.334 -13.5 65.001 -13.5c25.333 0 48.166 5.33301 68.499 16s37.166 25.667 50.499 45
c10.667 15.333 19.5 34 26.5 56s10.5 53.667 10.5 95c0 40.667 -2.5 72 -7.5 94s-11.5 39.667 -19.5 53c-13.333 22 -30.666 39.167 -51.999 51.5s-46 18.5 -74 18.5z" />
    <glyph glyph-name="p" unicode="p" horiz-adv-x="492" 
d="M102 496l-0.00292969 -84.0029h1c10.667 18 22.334 32.833 35.001 44.5s25.834 20.834 39.501 27.501s27.334 11.334 41.001 14.001s27.167 4 40.5 4c36 0 65.667 -6.83301 89 -20.5s42 -32.167 56 -55.5s23.667 -50.5 29 -81.5s8 -63.5 8 -97.5c0 -30.667 -3 -61 -9 -91
s-16.167 -57 -30.5 -81s-33.833 -43.333 -58.5 -58s-55.667 -22 -93 -22c-38 0 -68.5 8.33301 -91.5 25s-41.5 37.334 -55.5 62.001h-1v-281h-44v695h44zM101.997 249.997c0 -28 2.33203 -54.832 6.99902 -80.499s12.667 -48.5 24 -68.5s26.333 -35.833 45 -47.5
s41.667 -17.5 69 -17.5c32 0 57.667 6.66699 77 20s34.333 30.166 45 50.499s17.834 43 21.501 68s5.5 49.5 5.5 73.5c0 22.667 -1.33301 46.5 -4 71.5s-8.83398 48 -18.501 69s-24.167 38.5 -43.5 52.5s-45.333 21 -78 21c-31.333 0 -56.666 -7 -75.999 -21
s-34.5 -31.667 -45.5 -53s-18.5 -44.333 -22.5 -69s-6 -47.667 -6 -69z" />
    <glyph glyph-name="q" unicode="q" horiz-adv-x="496" 
d="M49 243c0 35.333 3.16699 68.665 9.5 99.998s16.833 58.833 31.5 82.5s34.167 42.334 58.5 56.001s54.833 20.5 91.5 20.5c30 0 57.333 -6.66699 82 -20s46 -37 64 -71h1v85h44v-696h-44v286h-1c-7.33301 -12 -16 -23.333 -26 -34s-21.5 -20.334 -34.5 -29.001
s-27.5 -15.5 -43.5 -20.5s-33.333 -7.5 -52 -7.5c-36.667 0 -66.667 7.33301 -90 22s-41.833 33.834 -55.5 57.501s-23 50.334 -28 80.001s-7.5 59.167 -7.5 88.5zM93 247.999c0 -24 1.83203 -48.501 5.49902 -73.501s10.834 -47.667 21.501 -68
s25.834 -37.166 45.501 -50.499s45.167 -20 76.5 -20c26.667 0 49.167 5.83301 67.5 17.5s33.333 27.5 45 47.5s20 42.833 25 68.5s7.5 52.5 7.5 80.5c0 21.333 -1.83301 44.5 -5.5 69.5s-10.834 48.167 -21.501 69.5s-25.5 39.166 -44.5 53.499s-43.5 21.5 -73.5 21.5
c-32 0 -57.833 -7 -77.5 -21s-34.667 -31.667 -45 -53s-17.333 -44.666 -21 -69.999s-5.5 -49.333 -5.5 -72z" />
    <glyph glyph-name="r" unicode="r" horiz-adv-x="340" 
d="M326 445c-11.333 5.33301 -22.5 9.16699 -33.5 11.5s-21.5 3.5 -31.5 3.5c-21.333 0 -41 -3.66699 -59 -11s-33.5 -17.833 -46.5 -31.5s-23.167 -30 -30.5 -49s-11 -40.5 -11 -64.5v-304h-43v496h43v-85h3c17.333 34.667 40 58.334 68 71.001s56.333 19 85 19
c14 0 27.333 -0.833008 40 -2.5s24 -4.83398 34 -9.50098z" />
    <glyph glyph-name="s" unicode="s" horiz-adv-x="446" 
d="M408 134c0 -20 -4.16797 -38.5039 -12.501 -55.5039s-20.5 -31.833 -36.5 -44.5s-35.833 -22.667 -59.5 -30s-51.167 -11 -82.5 -11c-36 0 -70.667 4.83301 -104 14.5s-63.666 25.167 -90.999 46.5l26 34c24 -19.333 50.833 -33.5 80.5 -42.5s61.5 -13.5 95.5 -13.5
c14.667 0 30.334 1.66699 47.001 5s31.834 9 45.501 17s25 18.667 34 32s13.5 30 13.5 50c0 17.333 -4 31.833 -12 43.5s-18.5 21.167 -31.5 28.5s-27.833 13.166 -44.5 17.499s-33.334 7.5 -50.001 9.5c-22 3.33301 -43.5 7.16602 -64.5 11.499s-39.667 10.833 -56 19.5
s-29.5 20.334 -39.5 35.001s-15 34 -15 58c0 22 4.33301 41.833 13 59.5s20.834 32.5 36.501 44.5s34.5 21.333 56.5 28s46 10 72 10c36 0 66.667 -3.66699 92 -11s49 -18.666 71 -33.999l-24 -35c-19.333 12 -40 21.667 -62 29s-46.667 11 -74 11
c-39.333 0 -71.833 -8.33301 -97.5 -25s-38.834 -41 -39.501 -73c0 -16.667 3.83301 -30.167 11.5 -40.5s18 -18.666 31 -24.999s28.167 -11.166 45.5 -14.499s35.666 -6.33301 54.999 -9c20 -3.33301 40.167 -7.66602 60.5 -12.999s38.5 -13.166 54.5 -23.499
s29.167 -23.833 39.5 -40.5s15.5 -37.667 15.5 -63z" />
    <glyph glyph-name="t" unicode="t" horiz-adv-x="264" 
d="M194 0c-38 0 -64.5 10.333 -79.5 31s-22.5 49 -22.5 85v343h-68v37h68v131h45v-131h92v-37h-92v-339c0 -11.333 0.833008 -22 2.5 -32s5.16699 -18.667 10.5 -26s12.833 -13 22.5 -17s22.167 -6 37.5 -6h31v-39h-47z" />
    <glyph glyph-name="u" unicode="u" horiz-adv-x="517" 
d="M402 0l-0.00292969 80.0029h-2c-8 -16 -18.167 -29.333 -30.5 -40s-25.666 -19.334 -39.999 -26.001s-29.166 -11.5 -44.499 -14.5s-30 -4.5 -44 -4.5c-26 0 -49.667 3.83301 -71 11.5s-39.833 18.667 -55.5 33s-27.834 31.833 -36.501 52.5s-13 44 -13 70v334h44v-317
c0 -46.667 12.833 -82.334 38.5 -107.001s59.834 -37 102.501 -37c21.333 0 41.333 3.83301 60 11.5s34.834 18.5 48.501 32.5s24.5 30.667 32.5 50s12 40.666 12 63.999v303h42v-496h-43z" />
    <glyph glyph-name="v" unicode="v" horiz-adv-x="434" 
d="M420 494l-91.5 -247l-90.5 -247h-42l-92 247l-91 247h48l45.5 -128l45.5 -128l64 -178h3l31 89l30 89l45.5 127.5l45.5 128.5h49v0z" />
    <glyph glyph-name="w" unicode="w" horiz-adv-x="703" 
d="M539 0h-44l-44 130.5l-44 130.5l-57 166l-28 -83.5l-28 -82.5l-43.5 -130.5l-44.5 -130.5h-44l-154 494h48l80 -271l48 -160h2l53 159l45.5 136l44.5 136h44l45 -135.5l44 -135.5l53 -162h3l48 163l80 270h48z" />
    <glyph glyph-name="x" unicode="x" horiz-adv-x="441" 
d="M360 0l-140 223l-139 -223h-52l165 254l-157 241h52l131 -211l130 211h53l-157 -241l166 -254h-52z" />
    <glyph glyph-name="y" unicode="y" horiz-adv-x="419" 
d="M197 -111c-10.667 -30.667 -26.3311 -53.167 -46.998 -67.5s-43 -21.5 -67 -21.5h-21v39h20c16.667 0 32.167 6 46.5 18s25.166 29.667 32.499 53l13.5 42c4.33301 14 9.16602 28 14.499 42l-92.5 249.5l-92.5 250.5h49l84 -233l36.5 -105l36.5 -105h2l17 48l27.5 78.5
l33 94l33 94l27.5 79l17 49.5h46l-216 -605v0z" />
    <glyph glyph-name="z" unicode="z" horiz-adv-x="421" 
d="M35 0v36l300 421h-285v38h335v-37l-298 -419h298v-39h-350z" />
    <glyph glyph-name="braceleft" unicode="{" horiz-adv-x="234" 
d="M180 -109c-24.667 0 -44.1689 9.33594 -58.502 28.0029s-21.5 43.334 -21.5 74.001v140c0 43.333 -4.66699 77.166 -14 101.499s-28.333 40.166 -57 47.499v25c14.667 4 26.834 11 36.501 21s17 22 22 36s8.5 29.167 10.5 45.5s3 32.5 3 48.5v135
c0 31.333 7 56.333 21 75s33.333 28 58 28h47v-29h-34c-12 0 -21.667 -3 -29 -9s-12.833 -13.667 -16.5 -23s-6.16699 -19.5 -7.5 -30.5s-2 -21.5 -2 -31.5v-134c0 -20.667 -2.16699 -39.167 -6.5 -55.5s-9.66602 -30.5 -15.999 -42.5s-13.5 -21.833 -21.5 -29.5
s-15.667 -12.834 -23 -15.501v-1c17.333 -5.33301 32.833 -19.833 46.5 -43.5s20.5 -54.834 20.5 -93.501v-144c0 -10 0.666992 -20.5 2 -31.5s3.83301 -21.167 7.5 -30.5s9.16699 -17 16.5 -23s17 -9 29 -9h34v-29h-47z" />
    <glyph glyph-name="bar" unicode="|" horiz-adv-x="174" 
d="M72 -162v878h34v-878h-34z" />
    <glyph glyph-name="braceright" unicode="}" horiz-adv-x="234" 
d="M226 282c-28.667 -7.33301 -47.6641 -23.1689 -56.9971 -47.502s-14 -58.166 -14 -101.499v-140c0 -30.667 -7.16699 -55.334 -21.5 -74.001s-33.833 -28 -58.5 -28h-47v29h34c12 0 21.667 3 29 9s12.833 13.667 16.5 23s6.16699 19.5 7.5 30.5s2 21.5 2 31.5v144
c0 38.667 6.83301 69.834 20.5 93.501s29.167 38.167 46.5 43.5v1c-8 2.66699 -15.833 7.83398 -23.5 15.501s-14.834 17.5 -21.501 29.5s-12 26.167 -16 42.5s-6 34.833 -6 55.5v134c0 10 -0.5 20.5 -1.5 31.5s-3.16699 21.167 -6.5 30.5s-8.83301 17 -16.5 23
s-17.834 9 -30.501 9h-34v28h46c26.667 0 46.667 -9.5 60 -28.5s20 -43.5 20 -73.5v-135c0 -16 1 -32.167 3 -48.5s5.5 -31.5 10.5 -45.5s12.167 -26 21.5 -36s21.666 -17 36.999 -21v-25v0z" />
    <glyph glyph-name="asciitilde" unicode="~" horiz-adv-x="467" 
d="M420 293c-15.333 -23.333 -31.333 -40.501 -48 -51.501s-35.667 -16.5 -57 -16.5c-11.333 0 -23.833 2.66699 -37.5 8l-41.5 17l-41.5 17c-13.667 5.33301 -26.5 8 -38.5 8c-16.667 0 -31 -4.16699 -43 -12.5s-24 -19.166 -36 -32.499l-32 23c31.333 43.333 69 65 113 65
c12.667 0 26 -2.66699 40 -8s27.833 -11 41.5 -17l40 -17c13 -5.33301 25.167 -8 36.5 -8c14.667 0 27 4.33301 37 13s21 20.667 33 36l34 -24v0z" />
    <glyph glyph-name="exclamdown" unicode="&#xa1;" horiz-adv-x="212" 
d="M90 300h33l6 -507h-45zM134 489v-60h-54v60h54z" />
    <glyph glyph-name="cent" unicode="&#xa2;" horiz-adv-x="467" 
d="M271 -113l-27.998 -0.00292969v107c-24.667 2.66699 -48.334 9.5 -71.001 20.5s-42.667 26.667 -60 47s-31.166 45.833 -41.499 76.5s-15.5 67 -15.5 109s5.16699 78 15.5 108s24.166 55.167 41.499 75.5s37.333 35.833 60 46.5s46.334 17.667 71.001 21v109h28v-107
c17.333 -1.33301 32.666 -3.16602 45.999 -5.49902s25.833 -5.66602 37.5 -9.99902s22.5 -9.66602 32.5 -15.999s20.667 -13.833 32 -22.5l-27 -32c-15.333 13.333 -33.333 24.333 -54 33s-43 13 -67 13v-428c24.667 0 46.667 4.5 66 13.5s37.666 20.167 54.999 33.5
l14 -15.5l14 -15.5c-19.333 -16.667 -42 -29.667 -68 -39s-53 -14.333 -81 -15v-107zM99.002 246.997c0 -62 12.333 -111 37 -147s60.334 -57.667 107.001 -65v422c-46.667 -7.33301 -82.334 -28.833 -107.001 -64.5s-37 -84.167 -37 -145.5z" />
    <glyph glyph-name="sterling" unicode="&#xa3;" horiz-adv-x="467" 
d="M34 37c26.667 35.333 47.5 74.332 62.5 116.999s22.5 92.334 22.5 149.001h-86v34h79c-2.66699 18 -6.66699 35 -12 51l-16.5 47.5c-5.66699 15.667 -10.5 31.167 -14.5 46.5s-6 31.333 -6 48c0 22 3.5 43.167 10.5 63.5s17.833 38.333 32.5 54
s32.834 28.167 54.501 37.5s47.167 14 76.5 14c44 0 79.833 -6.83301 107.5 -20.5s52.167 -35.5 73.5 -65.5l-37 -24c-18.667 26 -40 44.5 -64 55.5s-51.667 16.5 -83 16.5c-12.667 0 -26.334 -2.16699 -41.001 -6.5s-28.167 -11.5 -40.5 -21.5s-22.666 -23.5 -30.999 -40.5
s-12.5 -37.833 -12.5 -62.5c0 -14 1.83301 -28 5.5 -42s8.16699 -28.833 13.5 -44.5s10.666 -32.167 15.999 -49.5s10 -36.333 14 -57h150v-34h-147c-0.666992 -47.333 -6 -92.833 -16 -136.5s-30 -85.5 -60 -125.5h347v-41h-398v37z" />
    <glyph glyph-name="currency" unicode="&#xa4;" horiz-adv-x="514" 
d="M79 490c3.33301 4 7.66504 8.66406 12.998 13.9971l14 14l58 -58c33.333 25.333 69.666 38 108.999 38c18.667 0 36.834 -3.16699 54.501 -9.5s34.834 -15.166 51.501 -26.499l58 58c3.33301 -4 7.5 -8.5 12.5 -13.5l14.5 -14.5l-58 -58c28 -34 42 -70.667 42 -110
c0 -19.333 -3.33301 -38.166 -10 -56.499s-16 -35.833 -28 -52.5l58 -57c-4 -5.33301 -8.5 -10.333 -13.5 -15l-14.5 -14l-58 58c-32 -25.333 -68.333 -38.666 -109 -39.999c-40.667 0.666992 -77.667 15 -111 43l-58 -58c-3.33301 4 -8 8.83301 -14 14.5l-14 13.5l58 58
c-23.333 32.667 -35 68 -35 106c-0.666992 19.333 2.33301 38 9 56s16.334 35.333 29.001 52zM139.999 323.997c0 -18.667 3.33301 -36.167 10 -52.5s16 -30.5 28 -42.5s26 -21.5 42 -28.5s33.333 -10.5 52 -10.5s36.167 3.5 52.5 10.5s30.5 16.5 42.5 28.5
s21.5 26.167 28.5 42.5s10.5 33.833 10.5 52.5s-3.33301 36.167 -10 52.5s-16 30.5 -28 42.5s-26.167 21.5 -42.5 28.5s-33.833 10.5 -52.5 10.5s-36.167 -3.5 -52.5 -10.5s-30.5 -16.5 -42.5 -28.5s-21.333 -26.167 -28 -42.5s-10 -33.833 -10 -52.5z" />
    <glyph glyph-name="yen" unicode="&#xa5;" horiz-adv-x="467" 
d="M429 194h-174.001v-194h-43v194h-172v34h172v58c-1.33301 4.66699 -3.16602 9 -5.49902 13s-4.5 8.33301 -6.5 13h-160v33h144l-87.5 175l-87.5 176h47l177 -365h2l175 365h46l-85.5 -176l-86.5 -175h145v-33h-161l-13 -26v-58h174v-34z" />
    <glyph glyph-name="brokenbar" unicode="&#xa6;" horiz-adv-x="174" 
d="M72 305v411h34v-411h-34zM106 249v-411h-34v411h34z" />
    <glyph glyph-name="section" unicode="&#xa7;" horiz-adv-x="447" 
d="M410 281c0 -20.667 -4.16504 -40.834 -12.498 -60.501s-21.166 -37.167 -38.499 -52.5c24.667 -28.667 37 -60.667 37 -96c0 -22 -4 -42.167 -12 -60.5s-19.667 -34.166 -35 -47.499s-34.333 -23.833 -57 -31.5s-48.334 -11.5 -77.001 -11.5
c-30.667 0 -60.834 6.16699 -90.501 18.5s-53.834 27.833 -72.501 46.5l26 28c20.667 -18 42.667 -31.5 66 -40.5s46.666 -13.5 69.999 -13.5c40 0 73.167 8.66699 99.5 26s39.5 46.333 39.5 87c0 16.667 -3.5 31.167 -10.5 43.5s-16.833 23.333 -29.5 33
s-27.667 18.334 -45 26.001s-36 15.167 -56 22.5c-28.667 10 -53 20 -73 30s-36.5 20.833 -49.5 32.5s-22.5 25 -28.5 40s-9 32.5 -9 52.5c0 19.333 5 38.666 15 57.999s24 36.666 42 51.999c-12 11.333 -22.333 25.333 -31 42s-13 34.667 -13 54
c0 43.333 14.5 78.166 43.5 104.499s67.5 39.5 115.5 39.5c30.667 0 59 -4.5 85 -13.5s49 -21.833 69 -38.5l-26 -34c-20 16 -40.667 27.667 -62 35s-43.666 11 -66.999 11c-35.333 0 -63.5 -9 -84.5 -27s-31.5 -42 -31.5 -72c0 -18 4.5 -33.333 13.5 -46
s20.667 -23.667 35 -33s30.5 -17.333 48.5 -24l53 -20c18 -6 36.167 -13.5 54.5 -22.5s34.833 -19.667 49.5 -32s26.5 -27.166 35.5 -44.499s13.5 -37.666 13.5 -60.999zM369.002 281c0 18 -3.50098 33.3291 -10.501 45.9961s-17 23.834 -30 33.501
s-28.5 18.334 -46.5 26.001s-37.667 15.167 -59 22.5l-39.5 15.5c-12.333 5 -25.166 11.167 -38.499 18.5c-15.333 -11.333 -28 -24.833 -38 -40.5s-15 -31.5 -15 -47.5c0 -19.333 4.33301 -35.166 13 -47.499s19.5 -22.666 32.5 -30.999s27 -15.333 42 -21l42.5 -16.5
l55 -22.5c18.667 -7.66699 35 -15.5 49 -23.5c15.333 11.333 26.333 24.5 33 39.5s10 31.167 10 48.5z" />
    <glyph glyph-name="dieresis" unicode="&#xa8;" horiz-adv-x="482" 
d="M311 608v54h55v-54h-55zM122 608v54h54v-54h-54z" />
    <glyph glyph-name="copyright" unicode="&#xa9;" horiz-adv-x="780" 
d="M531 210c-11.333 -26.667 -28.6631 -47.667 -51.9961 -63s-50.666 -23 -81.999 -23c-25.333 0 -47.166 4.16699 -65.499 12.5s-33.5 19.5 -45.5 33.5s-21 30.167 -27 48.5s-9 37.833 -9 58.5v122c0 20 3.16699 39.167 9.5 57.5s15.666 34.5 27.999 48.5
s27.666 25 45.999 33s39.5 12 63.5 12c31.333 0 58.333 -7.33301 81 -22s39.667 -34.334 51 -59.001l-34 -17c-8.66699 18 -21.334 32.833 -38.001 44.5s-36.334 17.5 -59.001 17.5c-18.667 0 -35 -3.16699 -49 -9.5s-25.5 -14.833 -34.5 -25.5s-15.833 -23 -20.5 -37
s-7 -29 -7 -45v-120c0 -15.333 2.33301 -30.166 7 -44.499s11.5 -27 20.5 -38s20.5 -19.667 34.5 -26s30.333 -9.5 49 -9.5c23.333 0 43.166 6 59.499 18s29.166 28.333 38.499 49zM393.003 -10c-48.667 0 -93.835 8.83301 -135.502 26.5s-77.667 42.334 -108 74.001
s-54.166 68.834 -71.499 111.501s-26 89 -26 139s8.66699 96.5 26 139.5s41.333 80.333 72 112s66.834 56.334 108.501 74.001s86.5 26.5 134.5 26.5c48.667 0 93.834 -8.83301 135.501 -26.5s77.834 -42.334 108.501 -74.001s54.834 -69 72.501 -112
s26.5 -89.5 26.5 -139.5s-8.83301 -96.333 -26.5 -139s-41.834 -79.834 -72.501 -111.501s-66.834 -56.334 -108.501 -74.001s-86.834 -26.5 -135.501 -26.5zM393.002 658c-42.667 0 -82.5 -8.16699 -119.5 -24.5s-69 -38.666 -96 -66.999s-48.333 -61.833 -64 -100.5
s-23.5 -80.334 -23.5 -125.001c0 -44 7.83301 -85.333 23.5 -124s37 -72.334 64 -101.001s59 -51.167 96 -67.5s76.833 -24.5 119.5 -24.5c43.333 0 83.5 8.16699 120.5 24.5s69.167 38.833 96.5 67.5s48.833 62.334 64.5 101.001s23.5 80 23.5 124
c0 44.667 -7.83301 86.334 -23.5 125.001s-37.167 72.167 -64.5 100.5s-59.5 50.666 -96.5 66.999s-77.167 24.5 -120.5 24.5z" />
    <glyph glyph-name="ordfeminine" unicode="&#xaa;" horiz-adv-x="327" 
d="M162 610c18 0 34.999 -1.50098 50.999 -4.50098s29.833 -8.33301 41.5 -16s21 -18.167 28 -31.5s10.5 -30.333 10.5 -51v-226h-36v39c-13.333 -14 -30.166 -24.833 -50.499 -32.5s-41.166 -11.5 -62.499 -11.5c-34 0 -62.667 7.83301 -86 23.5s-35 39.5 -35 71.5
c0 28 9.16699 50.333 27.5 67s46.5 25 84.5 25h122v43c0 22.667 -7 40.167 -21 52.5s-38.667 18.5 -74 18.5c-17.333 0 -33.833 -2.16699 -49.5 -6.5s-30.834 -13.166 -45.501 -26.499l-24 24c30 28 69.667 42 119 42zM57.999 371.999
c0 -20.667 8.33008 -36.4971 24.9971 -47.4971s39 -16.5 67 -16.5c10.667 0 22.334 1.16699 35.001 3.5s24.334 6.16602 35.001 11.499s19.5 12.666 26.5 21.999s10.5 20.666 10.5 33.999v54h-115c-25.333 0 -45.666 -4.83301 -60.999 -14.5s-23 -25.167 -23 -46.5z" />
    <glyph glyph-name="guillemotleft" unicode="&#xab;" horiz-adv-x="407" 
d="M314 46l-117 173l118 172h44l-115 -172l115 -173h-45zM178 46l-116 173l118 172h44l-115 -172l115 -173h-46z" />
    <glyph glyph-name="logicalnot" unicode="&#xac;" horiz-adv-x="467" 
d="M438 67h-36v194h-376v38h413z" />
    <glyph glyph-name="sfthyphen" unicode="&#xad;" horiz-adv-x="370" 
d="M53 239v42h264v-42h-264z" />
    <glyph glyph-name="registered" unicode="&#xae;" horiz-adv-x="546" 
d="M479 492c0 -30 -5.16699 -57.833 -15.5 -83.5s-24.666 -47.834 -42.999 -66.501s-40 -33.334 -65 -44.001s-51.833 -16 -80.5 -16s-55.334 5.33301 -80.001 16s-46.167 25.334 -64.5 44.001s-32.833 40.834 -43.5 66.501s-16 53.5 -16 83.5s5.33301 58 16 84
s25.167 48.333 43.5 67s39.833 33.334 64.5 44.001s51.334 16 80.001 16s55.5 -5.33301 80.5 -16s46.667 -25.334 65 -44.001s32.666 -41 42.999 -67s15.5 -54 15.5 -84zM452 492c0 26.667 -4.5 51.334 -13.5 74.001s-21.333 42.5 -37 59.5s-34.334 30.333 -56.001 40
s-45.167 14.5 -70.5 14.5s-48.666 -4.83301 -69.999 -14.5s-39.833 -23 -55.5 -40s-28 -36.833 -37 -59.5s-13.5 -47.334 -13.5 -74.001s4.5 -51.334 13.5 -74.001s21.333 -42.334 37 -59.001s34.167 -29.834 55.5 -39.501s44.666 -14.5 69.999 -14.5
s48.833 4.83301 70.5 14.5s40.334 22.834 56.001 39.501s28 36.334 37 59.001s13.5 47.334 13.5 74.001zM288 479h-61v-109h-26v244h97c21.333 0 38.833 -5.83301 52.5 -17.5s20.5 -27.5 20.5 -47.5c0 -17.333 -5 -32 -15 -44s-23.667 -19.667 -41 -23l59 -112h-30zM227 591
l-0.000976562 -88.001h66c15.333 0 27.833 3.83301 37.5 11.5s14.5 19.167 14.5 34.5c0 14.667 -5.16699 25.334 -15.5 32.001s-22.166 10 -35.499 10h-67z" />
    <glyph glyph-name="macron" unicode="&#xaf;" horiz-adv-x="474" 
d="M129 593v41h255v-41h-255z" />
    <glyph glyph-name="degree" unicode="&#xb0;" horiz-adv-x="362" 
d="M304 577c0 -17.333 -3.16699 -33.333 -9.5 -48s-15 -27.5 -26 -38.5s-24 -19.667 -39 -26s-31.167 -9.5 -48.5 -9.5s-33.333 3.16699 -48 9.5s-27.5 15 -38.5 26s-19.667 23.833 -26 38.5s-9.5 30.667 -9.5 48c0 16.667 3.16699 32.5 9.5 47.5s15 28 26 39
s24 19.667 39 26s30.833 9.5 47.5 9.5c17.333 0 33.5 -3.16699 48.5 -9.5s28 -15 39 -26s19.667 -24 26 -39s9.5 -30.833 9.5 -47.5zM271 577c0 25.333 -8.66699 46.8311 -26 64.498s-38.666 26.5 -63.999 26.5s-46.5 -8.83301 -63.5 -26.5s-25.5 -39.167 -25.5 -64.5
s8.5 -46.666 25.5 -63.999s38.167 -26 63.5 -26s46.666 8.33301 63.999 25s26 38.334 26 65.001z" />
    <glyph glyph-name="plusminus" unicode="&#xb1;" horiz-adv-x="467" 
d="M252 271v-189h-37v189h-186v37h186v187h37v-187h186v-37h-186zM29 0v37h411v-37h-411z" />
    <glyph glyph-name="twosuperior" unicode="&#xb2;" horiz-adv-x="286" 
d="M12 370l-0.00195312 31l188 221c10 12.667 16.667 24 20 34s5 19.667 5 29c0 19.333 -7.33301 35.833 -22 49.5s-35.667 20.5 -63 20.5c-20 0 -38.167 -5.83301 -54.5 -17.5s-27.166 -27.167 -32.499 -46.5l-37 6c7.33301 28 22.833 50 46.5 66s49.834 24 78.501 24
c38.667 0 68.667 -9.5 90 -28.5s32 -43.167 32 -72.5c0 -12 -2.5 -25.667 -7.5 -41s-13.167 -29.333 -24.5 -42l-172 -200h201v-33h-248z" />
    <glyph glyph-name="threesuperior" unicode="&#xb3;" horiz-adv-x="283" 
d="M266 488c0 -18 -3.49805 -34.5029 -10.498 -49.5029s-16.667 -27.833 -29 -38.5s-26.833 -19 -43.5 -25s-34.667 -9 -54 -9c-12.667 0 -25.167 1.33301 -37.5 4s-23.833 7 -34.5 13s-20 14 -28 24s-14 22.667 -18 38l36 5c5.33301 -16 15.166 -28.667 29.499 -38
s32.166 -14 53.499 -14c12.667 0 25 2.16699 37 6.5s22.667 10.333 32 18s16.666 16.834 21.999 27.501s8 22.667 8 36c0 28 -8.5 49 -25.5 63s-37.5 21 -61.5 21h-33v32h28c23.333 0 43.333 6.83301 60 20.5s25 32.167 25 55.5c0 22.667 -8.16699 41.667 -24.5 57
s-38.166 23 -65.499 23c-15.333 0 -31.333 -4.83301 -48 -14.5s-28 -23.5 -34 -41.5l-36 7c8 24 23 43.333 45 58s47 22 75 22c21.333 0 39.833 -3 55.5 -9s28.667 -14 39 -24s18 -21.667 23 -35s7.5 -27.333 7.5 -42c0 -7.33301 -1 -15.166 -3 -23.499
s-5.16699 -16.666 -9.5 -24.999s-10.333 -16.333 -18 -24s-17.5 -14.167 -29.5 -19.5c13.333 -5.33301 24.333 -12 33 -20s15.5 -16.5 20.5 -25.5s8.5 -18.167 10.5 -27.5s3 -18 3 -26z" />
    <glyph glyph-name="acute" unicode="&#xb4;" horiz-adv-x="482" 
d="M206 575l78 154l49 -19l-100 -147z" />
    <glyph glyph-name="mu" unicode="&#xb5;" horiz-adv-x="514" 
d="M408 0l0.00195312 80h-3c-16.667 -31.333 -39.334 -53.333 -68.001 -66s-57.334 -19 -86.001 -19c-28 0 -53.667 5.33301 -77 16s-42.666 25 -57.999 43h-2v-254h-43v696h43v-317c0 -23.333 3.83301 -43.833 11.5 -61.5s18.167 -32.5 31.5 -44.5
s28.833 -21.167 46.5 -27.5s36.5 -9.5 56.5 -9.5c21.333 0 41 3.83301 59 11.5s33.667 18.334 47 32.001s23.666 30.167 30.999 49.5s11 40.666 11 63.999v303h42v-496h-42z" />
    <glyph glyph-name="mu" unicode="&#x3bc;" horiz-adv-x="514" 
d="M408 0l0.00195312 80h-3c-16.667 -31.333 -39.334 -53.333 -68.001 -66s-57.334 -19 -86.001 -19c-28 0 -53.667 5.33301 -77 16s-42.666 25 -57.999 43h-2v-254h-43v696h43v-317c0 -23.333 3.83301 -43.833 11.5 -61.5s18.167 -32.5 31.5 -44.5
s28.833 -21.167 46.5 -27.5s36.5 -9.5 56.5 -9.5c21.333 0 41 3.83301 59 11.5s33.667 18.334 47 32.001s23.666 30.167 30.999 49.5s11 40.666 11 63.999v303h42v-496h-42z" />
    <glyph glyph-name="paragraph" unicode="&#xb6;" horiz-adv-x="494" 
d="M259 682l0.000976562 -763h-46v440c-26.667 0 -51.334 4.16699 -74.001 12.5s-42.167 20.166 -58.5 35.499s-29.166 34.333 -38.499 57s-14 48.334 -14 77.001c0 24 3.5 47.167 10.5 69.5s18 41.833 33 58.5s33.667 30 56 40s49.166 15 80.499 15h259v-42h-62v-763h-46
v763h-100z" />
    <glyph glyph-name="periodcentered" unicode="&#xb7;" horiz-adv-x="174" 
d="M58 232v65h59v-65h-59z" />
    <glyph glyph-name="cedilla" unicode="&#xb8;" horiz-adv-x="414" 
d="M254 14c-3.33301 -9.33301 -6.50488 -18.8369 -9.50488 -28.5039s-6.16699 -19.167 -9.5 -28.5c19.333 -1.33301 35 -4.83301 47 -10.5s21.5 -12.167 28.5 -19.5s11.833 -15.166 14.5 -23.499s4 -16.166 4 -23.499s-1.66699 -15.166 -5 -23.499
s-8.66602 -16.166 -15.999 -23.499s-16.666 -13.333 -27.999 -18s-25.333 -7 -42 -7c-6 0 -16.5 0.666992 -31.5 2s-31.167 5 -48.5 11l10 25c12.667 -4.66699 24.834 -7.83398 36.501 -9.50098s22.167 -2.5 31.5 -2.5c4.66699 0 10.334 0.833008 17.001 2.5
s13 4.33398 19 8.00098s11 8.5 15 14.5s6 13.333 6 22c0 15.333 -7.5 27.5 -22.5 36.5s-33.833 13.5 -56.5 13.5h-4l-10 8l25 76c5.33301 0 10.333 -0.166992 15 -0.5s9.33398 -0.5 14.001 -0.5z" />
    <glyph glyph-name="onesuperior" unicode="&#xb9;" horiz-adv-x="225" 
d="M143 370h-37v376l-66 -40v39l68 41h35v-416z" />
    <glyph glyph-name="ordmasculine" unicode="&#xba;" horiz-adv-x="338" 
d="M170 609c50 0 87.3359 -17.667 112.003 -53c7.33301 -11.333 13.5 -25.5 18.5 -42.5s7.5 -39.833 7.5 -68.5c-0.666992 -29.333 -2.83398 -52.333 -6.50098 -69s-9.16699 -30.667 -16.5 -42c-13.333 -22 -30.333 -37.167 -51 -45.5s-43.334 -12.5 -68.001 -12.5
c-39.333 0 -70.333 10.333 -93 31c-15.333 12.667 -26.833 30.667 -34.5 54s-11.5 51 -11.5 83c0 18.667 1.33301 35 4 49s6.66699 26.667 12 38c12.667 26 29.167 45.5 49.5 58.5s46.166 19.5 77.499 19.5zM170.003 577c-20 0 -37.332 -4.16895 -51.999 -12.502
s-26.334 -19.833 -35.001 -34.5c-12.667 -19.333 -19 -48.666 -19 -87.999c0 -34 4.33301 -60.667 13 -80c16.667 -36.667 47 -55 91 -55c16 0 31 3 45 9s25.667 14.667 35 26c7.33301 10 13.333 22.833 18 38.5s7 36.834 7 63.501c0 24.667 -1.83301 43.5 -5.5 56.5
s-8.16699 23.833 -13.5 32.5c-9.33301 13.333 -21.333 24 -36 32s-30.667 12 -48 12z" />
    <glyph glyph-name="guillemotright" unicode="&#xbb;" horiz-adv-x="407" 
d="M64 46l115 173l-116 172h44l118 -172l-117 -173h-44zM198 46l115 173l-115 172h44l118 -172l-117 -173h-45z" />
    <glyph glyph-name="onequarter" unicode="&#xbc;" horiz-adv-x="750" 
d="M190 280h-37v376l-66 -40v39l68 41h35v-416zM174 -26h-36l425 744h36zM625 65v-65h-39v65h-201v30l162 321h41l-163 -318h161v126h39v-126h39v-33h-39z" />
    <glyph glyph-name="onehalf" unicode="&#xbd;" horiz-adv-x="750" 
d="M424 0l-0.00195312 32l188 221c10 12 16.667 23 20 33s5 19.667 5 29c0 19.333 -7.33301 35.833 -22 49.5s-35.667 20.5 -63 20.5c-20 0 -38.167 -5.83301 -54.5 -17.5s-27.166 -27.167 -32.499 -46.5l-37 7c7.33301 28 22.833 49.833 46.5 65.5s49.834 23.5 78.501 23.5
c38.667 0 68.667 -9.33301 90 -28s32 -43 32 -73c0 -12 -2.5 -25.5 -7.5 -40.5s-13.167 -28.833 -24.5 -41.5l-172 -200h201v-34h-248zM159.998 -26h-36l425 744h36zM177.998 280h-37v376l-66 -40v39l68 41h35v-416z" />
    <glyph glyph-name="threequarters" unicode="&#xbe;" horiz-adv-x="750" 
d="M292 398c0 -18 -3.49805 -34.5029 -10.498 -49.5029s-16.667 -27.833 -29 -38.5s-26.833 -19 -43.5 -25s-34.667 -9 -54 -9c-12.667 0 -25.167 1.33301 -37.5 4s-23.833 7 -34.5 13s-20 14 -28 24s-14 22.667 -18 38l36 5c5.33301 -16 15.166 -28.667 29.499 -38
s32.166 -14 53.499 -14c12.667 0 25 2.16699 37 6.5s22.667 10.333 32 18s16.666 16.834 21.999 27.501s8 22.667 8 36c0 28 -8.5 49 -25.5 63s-37.5 21 -61.5 21h-33v32h28c23.333 0 43.333 6.83301 60 20.5s25 32.167 25 55.5c0 22.667 -8.16699 41.667 -24.5 57
s-38.166 23 -65.499 23c-15.333 0 -31.333 -4.83301 -48 -14.5s-28 -23.5 -34 -41.5l-36 7c8 24 23 43.333 45 58s47 22 75 22c21.333 0 39.833 -3 55.5 -9s28.667 -14 39 -24s18 -21.667 23 -35s7.5 -27.333 7.5 -42c0 -7.33301 -1 -15.166 -3 -23.499
s-5.16699 -16.666 -9.5 -24.999s-10.333 -16.333 -18 -24s-17.5 -14.167 -29.5 -19.5c13.333 -5.33301 24.333 -12 33 -20s15.5 -16.5 20.5 -25.5s8.5 -18.167 10.5 -27.5s3 -18 3 -26zM220.002 -26.0029h-36l425 744h36zM674.002 64.9971v-65h-39v65h-201v30l162 321h41
l-163 -318h161v126h39v-126h39v-33h-39z" />
    <glyph glyph-name="questiondown" unicode="&#xbf;" horiz-adv-x="429" 
d="M404 -42c-13.333 -56 -38.167 -98.1709 -74.5 -126.504s-77.5 -42.5 -123.5 -42.5c-27.333 0 -52 4.33301 -74 13s-40.833 20.834 -56.5 36.501s-27.834 34 -36.501 55s-13 43.833 -13 68.5c0 32.667 8 61.5 24 86.5s33 47.833 51 68.5l30 32.5c10 11 19 22.333 27 34
s14.667 24 20 37s8.33301 27.167 9 42.5v66h46v-68c0 -17.333 -3.33301 -34.166 -10 -50.499s-15 -31.5 -25 -45.5c-9.33301 -13.333 -21.166 -27.333 -35.499 -42s-28.166 -30.167 -41.499 -46.5s-24.833 -33.5 -34.5 -51.5s-14.5 -37 -14.5 -57
c0 -13.333 2.16699 -28 6.5 -44s11.833 -30.833 22.5 -44.5s25 -25.167 43 -34.5s40.667 -14 68 -14c22 0 41.833 4.66699 59.5 14s32.667 20.833 45 34.5s22.166 28.334 29.499 44.001s12 29.834 14 42.501zM235.999 489.996v-61h-55v61h55z" />
    <glyph glyph-name="Agrave" unicode="&#xc0;" horiz-adv-x="598" 
d="M459 170h-335l-60 -170h-50l253 696h49l127.5 -348l126.5 -348h-51zM290 639l-15.5 -42.999l-26.5 -75.5l-32.5 -92.5l-33 -92.5l-27.5 -77.5c-8 -22.667 -13.667 -38.334 -17 -47.001h307l-90 254l-31.5 87l-30.5 87h-3zM318 751.001c-3.33301 -4 -6.5 -8 -9.5 -12
s-6.16699 -7.66699 -9.5 -11l-151 93l35 38l67.5 -54.5z" />
    <glyph glyph-name="Aacute" unicode="&#xc1;" horiz-adv-x="585" 
d="M459 170h-335l-60 -170h-50l253 696h49l127.5 -348l126.5 -348h-51zM290 639l-15.5 -42.999l-26.5 -75.5l-32.5 -92.5l-33 -92.5l-27.5 -77.5c-8 -22.667 -13.667 -38.334 -17 -47.001h307l-90 254l-31.5 87l-30.5 87h-3zM282 728.001
c-3.33301 3.33301 -6.66699 7 -10 11l-10 12l68 53.5l68 54.5c5.33301 -6.66699 11 -13 17 -19s12 -12.333 18 -19z" />
    <glyph glyph-name="Acircumflex" unicode="&#xc2;" horiz-adv-x="585" 
d="M459 170h-335l-60 -170h-50l253 696h49l127.5 -348l126.5 -348h-51zM290 639l-15.5 -42.999l-26.5 -75.5l-32.5 -92.5l-33 -92.5l-27.5 -77.5c-8 -22.667 -13.667 -38.334 -17 -47.001h307l-90 254l-31.5 87l-30.5 87h-3zM422 730.001l-65 42l-64 41l-130 -84l-18 21
l132 110h36l127 -109z" />
    <glyph glyph-name="Atilde" unicode="&#xc3;" horiz-adv-x="585" 
d="M459 170h-335l-60 -170h-50l253 696h49l127.5 -348l126.5 -348h-51zM290 639l-15.5 -42.999l-26.5 -75.5l-32.5 -92.5l-33 -92.5l-27.5 -77.5c-8 -22.667 -13.667 -38.334 -17 -47.001h307l-90 254l-31.5 87l-30.5 87h-3zM360 758.001
c-10 0 -20.4971 2.16504 -31.4971 6.49805s-22 9 -33 14s-21.833 9.66699 -32.5 14s-20.667 6.5 -30 6.5c-12.667 0 -23.834 -3.16699 -33.501 -9.5s-19.834 -15.833 -30.501 -28.5l-28 16c26 43.333 56.667 65 92 65c10.667 0 21.5 -2.16699 32.5 -6.5
s22 -9.16602 33 -14.499s21.667 -10.166 32 -14.499s19.833 -6.5 28.5 -6.5c10 0 19.667 3 29 9s18.666 16.333 27.999 31l29 -17c-12.667 -23.333 -26 -40 -40 -50s-29 -15 -45 -15z" />
    <glyph glyph-name="Adieresis" unicode="&#xc4;" horiz-adv-x="585" 
d="M459 170h-335l-60 -170h-50l253 696h49l127.5 -348l126.5 -348h-51zM290 639l-15.5 -42.999l-26.5 -75.5l-32.5 -92.5l-33 -92.5l-27.5 -77.5c-8 -22.667 -13.667 -38.334 -17 -47.001h307l-90 254l-31.5 87l-30.5 87h-3zM352 811.001h55v-53h-55v53zM174 811.001h54v-53
h-54v53z" />
    <glyph glyph-name="Aring" unicode="&#xc5;" horiz-adv-x="585" 
d="M459 170h-335l-60 -170h-50l253 696h49l127.5 -348l126.5 -348h-51zM290 639l-15.5 -42.999l-26.5 -75.5l-32.5 -92.5l-33 -92.5l-27.5 -77.5c-8 -22.667 -13.667 -38.334 -17 -47.001h307l-90 254l-31.5 87l-30.5 87h-3zM291 714.001
c-25.333 0 -46.666 8.83301 -63.999 26.5s-26 38.834 -26 63.501c0 25.333 8.66699 46.5 26 63.5s38.666 25.5 63.999 25.5s46.833 -8.5 64.5 -25.5s26.5 -38.167 26.5 -63.5c0 -24.667 -8.83301 -45.834 -26.5 -63.501s-39.167 -26.5 -64.5 -26.5zM291 867.001
c-17.333 0 -32 -6.16699 -44 -18.5s-18 -27.166 -18 -44.499s6 -32.166 18 -44.499s26.667 -18.5 44 -18.5c18 0 33 6.16699 45 18.5s18 27.166 18 44.499s-6 32.166 -18 44.499s-27 18.5 -45 18.5z" />
    <glyph glyph-name="AE" unicode="&#xc6;" horiz-adv-x="920" 
d="M464 0v185h-292l-117 -185h-51l439 696h443v-43h-374v-279h320v-42h-320v-289h374v-43h-422zM199 226h265v425z" />
    <glyph glyph-name="Ccedilla" unicode="&#xc7;" horiz-adv-x="528" 
d="M510 133c-17.333 -42 -44.334 -75.3379 -81.001 -100.005s-80.667 -37.667 -132 -39c-1.33301 -6.66699 -3.16602 -13 -5.49902 -19s-4.5 -12 -6.5 -18c19.333 -1.33301 35 -4.83301 47 -10.5s21.5 -12.167 28.5 -19.5s11.833 -15.166 14.5 -23.499s4 -16.166 4 -23.499
s-1.66699 -15.166 -5 -23.499s-8.66602 -16.166 -15.999 -23.499s-16.666 -13.333 -27.999 -18s-25.333 -7 -42 -7c-6 0 -16.5 0.666992 -31.5 2s-30.833 5 -47.5 11l9 25c12.667 -4.66699 25 -7.83398 37 -9.50098s22.333 -2.5 31 -2.5
c4.66699 0 10.334 0.833008 17.001 2.5s13 4.33398 19 8.00098s11 8.5 15 14.5s6 13.333 6 22c0 15.333 -7.5 27.5 -22.5 36.5s-33.5 13.5 -55.5 13.5c-3.33301 0 -6 1 -8 3s-4 3.66699 -6 5c3.33301 9.33301 6.16602 18.666 8.49902 27.999s5.16602 18.666 8.49902 27.999
c-37.333 2 -69.5 10.167 -96.5 24.5s-49.333 32.833 -67 55.5s-30.834 48.667 -39.501 78s-13 60 -13 92v208c0 33.333 5 65 15 95s25 56.333 45 79s45 40.667 75 54s65 20 105 20c52 0 96.5 -11.833 133.5 -35.5s64.167 -55.5 81.5 -95.5
c-7.33301 -3.33301 -14.333 -6.83301 -21 -10.5s-13.667 -7.16699 -21 -10.5c-13.333 32 -34.833 58 -64.5 78s-65.5 30 -107.5 30c-32.667 0 -61.167 -5.5 -85.5 -16.5s-44.666 -26 -60.999 -45s-28.5 -41 -36.5 -66s-12 -51.5 -12 -79.5v-206
c0 -27.333 4 -53.666 12 -78.999s20.167 -47.666 36.5 -66.999s36.666 -34.666 60.999 -45.999s52.833 -17 85.5 -17c43.333 0 79.5 10.667 108.5 32s51.167 50 66.5 86z" />
    <glyph glyph-name="Egrave" unicode="&#xc8;" horiz-adv-x="528" 
d="M79 0v696h422v-43h-375v-279h320v-42h-320v-289h375v-43h-422zM317 729l-151 93l36 37l135 -108z" />
    <glyph glyph-name="Eacute" unicode="&#xc9;" horiz-adv-x="528" 
d="M79 0v696h422v-43h-375v-279h320v-42h-320v-289h375v-43h-422zM231 751l135 108l35 -37l-151 -93z" />
    <glyph glyph-name="Ecircumflex" unicode="&#xca;" horiz-adv-x="528" 
d="M79 0v696h422v-43h-375v-279h320v-42h-320v-289h375v-43h-422zM293 814l-130 -84l-18 21l131 109h37l127 -108l-18 -21z" />
    <glyph glyph-name="Edieresis" unicode="&#xcb;" horiz-adv-x="528" 
d="M79 0v696h422v-43h-375v-279h320v-42h-320v-289h375v-43h-422zM351 758v53h55v-53h-55zM172 758v53h55v-53h-55z" />
    <glyph glyph-name="Igrave" unicode="&#xcc;" horiz-adv-x="212" 
d="M83 0v696h46v-696h-46zM113 729l-151 93l36 37l135 -108z" />
    <glyph glyph-name="Iacute" unicode="&#xcd;" horiz-adv-x="212" 
d="M83 0v696h46v-696h-46zM89 751l135 108l35 -37l-151 -93z" />
    <glyph glyph-name="Icircumflex" unicode="&#xce;" horiz-adv-x="270" 
d="M97 0v696h46v-696h-46zM122 814l-130 -84l-18 21l132 109h37l126 -108l-18 -21z" />
    <glyph glyph-name="Idieresis" unicode="&#xcf;" horiz-adv-x="212" 
d="M83 0v696h46v-696h-46zM170 758v53h54v-53h-54zM-9 758v53h55v-53h-55z" />
    <glyph glyph-name="Eth" unicode="&#xd0;" horiz-adv-x="606" 
d="M303 696c52 0 96.999 -9.83203 134.999 -29.499s67.667 -51.834 89 -96.501c11.333 -24.667 18.333 -54.667 21 -90s4 -75 4 -119c0 -50 -1.16699 -93.667 -3.5 -131s-9.16602 -69.333 -20.499 -96c-22 -50 -53.167 -84.833 -93.5 -104.5s-88.833 -29.5 -145.5 -29.5
h-210v353h-66v36h66v307h224zM504.999 417.001c0 44.667 -5 82.001 -15 112.001s-24 54.167 -42 72.5s-39.833 31.5 -65.5 39.5s-54.5 12 -86.5 12h-170v-264h150v-36h-150v-310h170c39.333 0 72.333 5.66699 99 17s48.167 27.333 64.5 48s28 45.167 35 73.5
s10.5 59.166 10.5 92.499v143z" />
    <glyph glyph-name="Ntilde" unicode="&#xd1;" horiz-adv-x="663" 
d="M276 392l-74.5 112.5l-73.5 112.5c-0.666992 0 -1 -0.333008 -1 -1v-616h-47v696h48l258 -388l75.5 -115.5l75.5 -115.5c0.666992 0 1 0.333008 1 1v618h46v-696h-47zM406 758c-10 0 -20.4971 2.16504 -31.4971 6.49805s-22 9 -33 14s-21.833 9.66699 -32.5 14
s-20.667 6.5 -30 6.5c-12.667 0 -23.834 -3.16699 -33.501 -9.5s-19.834 -15.833 -30.501 -28.5l-28 16c26 43.333 56.667 65 92 65c10.667 0 21.5 -2.16699 32.5 -6.5s22 -9.16602 33 -14.499s21.667 -10.166 32 -14.499s19.833 -6.5 28.5 -6.5c10 0 19.667 3 29 9
s18.666 16.333 27.999 31l29 -17c-12.667 -23.333 -26 -40 -40 -50s-29 -15 -45 -15z" />
    <glyph glyph-name="Ograve" unicode="&#xd2;" horiz-adv-x="571" 
d="M286 701c37.333 0 70.666 -6.16699 99.999 -18.5s54.333 -29.5 75 -51.5s36.334 -48.167 47.001 -78.5s16 -63.5 16 -99.5v-207c0 -38.667 -5.5 -73.667 -16.5 -105s-26.833 -58 -47.5 -80s-45.667 -38.833 -75 -50.5s-62.333 -17.5 -99 -17.5
c-41.333 0 -77.166 6.83301 -107.499 20.5s-55.333 32 -75 55s-34.334 49.833 -44.001 80.5s-14.5 63 -14.5 97v207c0 33.333 5 65 15 95s25 56.333 45 79s45 40.667 75 54s65.333 20 106 20zM287 657c-32.667 0 -61.165 -5.50098 -85.498 -16.501s-44.5 -26 -60.5 -45
s-28 -40.833 -36 -65.5s-12 -51 -12 -79v-207c0 -27.333 4 -53.5 12 -78.5s20 -47.167 36 -66.5s36.167 -34.666 60.5 -45.999s52.833 -17 85.5 -17c29.333 0 55.666 5.33301 78.999 16s43.166 25.334 59.499 44.001s28.833 41 37.5 67s13 54.333 13 85v203
c0 28.667 -4.33301 55.667 -13 81s-21 47.166 -37 65.499s-35.667 32.833 -59 43.5s-50 16 -80 16zM331.002 728.999l-152 93l36 37l135 -108z" />
    <glyph glyph-name="Oacute" unicode="&#xd3;" horiz-adv-x="571" 
d="M286 701c37.333 0 70.666 -6.16699 99.999 -18.5s54.333 -29.5 75 -51.5s36.334 -48.167 47.001 -78.5s16 -63.5 16 -99.5v-207c0 -38.667 -5.5 -73.667 -16.5 -105s-26.833 -58 -47.5 -80s-45.667 -38.833 -75 -50.5s-62.333 -17.5 -99 -17.5
c-41.333 0 -77.166 6.83301 -107.499 20.5s-55.333 32 -75 55s-34.334 49.833 -44.001 80.5s-14.5 63 -14.5 97v207c0 33.333 5 65 15 95s25 56.333 45 79s45 40.667 75 54s65.333 20 106 20zM287 657c-32.667 0 -61.165 -5.50098 -85.498 -16.501s-44.5 -26 -60.5 -45
s-28 -40.833 -36 -65.5s-12 -51 -12 -79v-207c0 -27.333 4 -53.5 12 -78.5s20 -47.167 36 -66.5s36.167 -34.666 60.5 -45.999s52.833 -17 85.5 -17c29.333 0 55.666 5.33301 78.999 16s43.166 25.334 59.499 44.001s28.833 41 37.5 67s13 54.333 13 85v203
c0 28.667 -4.33301 55.667 -13 81s-21 47.166 -37 65.499s-35.667 32.833 -59 43.5s-50 16 -80 16zM240.002 750.999l135 108l36 -37l-152 -93z" />
    <glyph glyph-name="Ocircumflex" unicode="&#xd4;" horiz-adv-x="571" 
d="M286 701c37.333 0 70.666 -6.16699 99.999 -18.5s54.333 -29.5 75 -51.5s36.334 -48.167 47.001 -78.5s16 -63.5 16 -99.5v-207c0 -38.667 -5.5 -73.667 -16.5 -105s-26.833 -58 -47.5 -80s-45.667 -38.833 -75 -50.5s-62.333 -17.5 -99 -17.5
c-41.333 0 -77.166 6.83301 -107.499 20.5s-55.333 32 -75 55s-34.334 49.833 -44.001 80.5s-14.5 63 -14.5 97v207c0 33.333 5 65 15 95s25 56.333 45 79s45 40.667 75 54s65.333 20 106 20zM287 657c-32.667 0 -61.165 -5.50098 -85.498 -16.501s-44.5 -26 -60.5 -45
s-28 -40.833 -36 -65.5s-12 -51 -12 -79v-207c0 -27.333 4 -53.5 12 -78.5s20 -47.167 36 -66.5s36.167 -34.666 60.5 -45.999s52.833 -17 85.5 -17c29.333 0 55.666 5.33301 78.999 16s43.166 25.334 59.499 44.001s28.833 41 37.5 67s13 54.333 13 85v203
c0 28.667 -4.33301 55.667 -13 81s-21 47.166 -37 65.499s-35.667 32.833 -59 43.5s-50 16 -80 16zM285.002 813.999l-130 -84l-17 21l131 109h37l126 -108l-18 -21z" />
    <glyph glyph-name="Otilde" unicode="&#xd5;" horiz-adv-x="571" 
d="M286 701c37.333 0 70.666 -6.16699 99.999 -18.5s54.333 -29.5 75 -51.5s36.334 -48.167 47.001 -78.5s16 -63.5 16 -99.5v-207c0 -38.667 -5.5 -73.667 -16.5 -105s-26.833 -58 -47.5 -80s-45.667 -38.833 -75 -50.5s-62.333 -17.5 -99 -17.5
c-41.333 0 -77.166 6.83301 -107.499 20.5s-55.333 32 -75 55s-34.334 49.833 -44.001 80.5s-14.5 63 -14.5 97v207c0 33.333 5 65 15 95s25 56.333 45 79s45 40.667 75 54s65.333 20 106 20zM287 657c-32.667 0 -61.165 -5.50098 -85.498 -16.501s-44.5 -26 -60.5 -45
s-28 -40.833 -36 -65.5s-12 -51 -12 -79v-207c0 -27.333 4 -53.5 12 -78.5s20 -47.167 36 -66.5s36.167 -34.666 60.5 -45.999s52.833 -17 85.5 -17c29.333 0 55.666 5.33301 78.999 16s43.166 25.334 59.499 44.001s28.833 41 37.5 67s13 54.333 13 85v203
c0 28.667 -4.33301 55.667 -13 81s-21 47.166 -37 65.499s-35.667 32.833 -59 43.5s-50 16 -80 16zM350.002 757.999c-10 0 -20.4971 2.16504 -31.4971 6.49805s-22 9 -33 14s-21.833 9.66699 -32.5 14s-20.667 6.5 -30 6.5c-12.667 0 -23.834 -3.16699 -33.501 -9.5
s-19.834 -15.833 -30.501 -28.5l-28 16c26 43.333 56.667 65 92 65c10.667 0 21.5 -2.16699 32.5 -6.5s22 -9.16602 33 -14.499s21.667 -10.166 32 -14.499s19.833 -6.5 28.5 -6.5c10 0 19.667 3 29 9s18.666 16.333 27.999 31l29 -17c-12.667 -23.333 -26 -40 -40 -50
s-29 -15 -45 -15z" />
    <glyph glyph-name="Odieresis" unicode="&#xd6;" horiz-adv-x="571" 
d="M286 701c37.333 0 70.666 -6.16699 99.999 -18.5s54.333 -29.5 75 -51.5s36.334 -48.167 47.001 -78.5s16 -63.5 16 -99.5v-207c0 -38.667 -5.5 -73.667 -16.5 -105s-26.833 -58 -47.5 -80s-45.667 -38.833 -75 -50.5s-62.333 -17.5 -99 -17.5
c-41.333 0 -77.166 6.83301 -107.499 20.5s-55.333 32 -75 55s-34.334 49.833 -44.001 80.5s-14.5 63 -14.5 97v207c0 33.333 5 65 15 95s25 56.333 45 79s45 40.667 75 54s65.333 20 106 20zM287 657c-32.667 0 -61.165 -5.50098 -85.498 -16.501s-44.5 -26 -60.5 -45
s-28 -40.833 -36 -65.5s-12 -51 -12 -79v-207c0 -27.333 4 -53.5 12 -78.5s20 -47.167 36 -66.5s36.167 -34.666 60.5 -45.999s52.833 -17 85.5 -17c29.333 0 55.666 5.33301 78.999 16s43.166 25.334 59.499 44.001s28.833 41 37.5 67s13 54.333 13 85v203
c0 28.667 -4.33301 55.667 -13 81s-21 47.166 -37 65.499s-35.667 32.833 -59 43.5s-50 16 -80 16zM346.002 758.999v53h54v-53h-54zM167.002 758.999v53h55v-53h-55z" />
    <glyph glyph-name="multiply" unicode="&#xd7;" horiz-adv-x="495" 
d="M278 273l158 -158l-26 -26l-158 157l-160 -160l-26 26l160 161l-156 157l26 26l157 -157l159 159l25 -26z" />
    <glyph glyph-name="Oslash" unicode="&#xd8;" horiz-adv-x="571" 
d="M286 701c35.333 0 66.833 -5.49902 94.5 -16.499s51.834 -26.5 72.501 -46.5l41 62l27 -18l-45 -70c15.333 -20.667 27.166 -44.334 35.499 -71.001s12.5 -56 12.5 -88v-207c0 -38.667 -5.5 -73.667 -16.5 -105s-26.833 -58 -47.5 -80s-45.667 -38.833 -75 -50.5
s-62.333 -17.5 -99 -17.5c-39.333 0 -73.5 6 -102.5 18s-53.167 28.667 -72.5 50l-43 -64l-27 18l48 72c-15.333 22 -26.5 46.5 -33.5 73.5s-10.5 55.5 -10.5 85.5v207c0 33.333 5 65 15 95s25 56.333 45 79s45 40.667 75 54s65.333 20 106 20zM476 451.001
c0 22 -2.66602 42.999 -7.99902 62.999s-12.666 38 -21.999 54l-308 -465c16.667 -20.667 37.167 -37 61.5 -49s53.5 -18 87.5 -18c29.333 0 55.666 5.33301 78.999 16s43.166 25.334 59.499 44.001s28.833 41 37.5 67s13 54.333 13 85v203zM287.001 657
c-32.667 0 -61.166 -5.5 -85.499 -16.5s-44.5 -26 -60.5 -45s-28 -40.833 -36 -65.5s-12 -51 -12 -79v-207c0 -20 2.16699 -39.5 6.5 -58.5s11.166 -36.5 20.499 -52.5l306 464c-16.667 18 -36.5 32.5 -59.5 43.5s-49.5 16.5 -79.5 16.5z" />
    <glyph glyph-name="Ugrave" unicode="&#xd9;" horiz-adv-x="606" 
d="M542 696l-0.000976562 -463.998c0 -36 -6 -68.667 -18 -98s-28.5 -54.333 -49.5 -75s-46.167 -36.667 -75.5 -48s-61.333 -17 -96 -17c-36 0 -68.5 6 -97.5 18s-54 28.833 -75 50.5s-37.167 47.5 -48.5 77.5s-17 63 -17 99v457h46v-446c0 -29.333 4.5 -57 13.5 -83
s21.833 -48.5 38.5 -67.5s36.834 -34 60.501 -45s50.167 -16.5 79.5 -16.5c28 0 53.667 4.66699 77 14s43.5 22.666 60.5 39.999s30.167 38.666 39.5 63.999s14 54 14 86v454h48zM327.999 729.002l-151 93l35 37l136 -108z" />
    <glyph glyph-name="Uacute" unicode="&#xda;" horiz-adv-x="606" 
d="M542 696l-0.000976562 -463.998c0 -36 -6 -68.667 -18 -98s-28.5 -54.333 -49.5 -75s-46.167 -36.667 -75.5 -48s-61.333 -17 -96 -17c-36 0 -68.5 6 -97.5 18s-54 28.833 -75 50.5s-37.167 47.5 -48.5 77.5s-17 63 -17 99v457h46v-446c0 -29.333 4.5 -57 13.5 -83
s21.833 -48.5 38.5 -67.5s36.834 -34 60.501 -45s50.167 -16.5 79.5 -16.5c28 0 53.667 4.66699 77 14s43.5 22.666 60.5 39.999s30.167 38.666 39.5 63.999s14 54 14 86v454h48zM236.999 751.002l136 108l35 -37l-151 -93z" />
    <glyph glyph-name="Ucircumflex" unicode="&#xdb;" horiz-adv-x="606" 
d="M542 696l-0.000976562 -463.998c0 -36 -6 -68.667 -18 -98s-28.5 -54.333 -49.5 -75s-46.167 -36.667 -75.5 -48s-61.333 -17 -96 -17c-36 0 -68.5 6 -97.5 18s-54 28.833 -75 50.5s-37.167 47.5 -48.5 77.5s-17 63 -17 99v457h46v-446c0 -29.333 4.5 -57 13.5 -83
s21.833 -48.5 38.5 -67.5s36.834 -34 60.501 -45s50.167 -16.5 79.5 -16.5c28 0 53.667 4.66699 77 14s43.5 22.666 60.5 39.999s30.167 38.666 39.5 63.999s14 54 14 86v454h48zM301.999 814.002l-130 -84l-18 21l131 109h37l127 -108l-18 -21z" />
    <glyph glyph-name="Udieresis" unicode="&#xdc;" horiz-adv-x="606" 
d="M542 696l-0.000976562 -463.998c0 -36 -6 -68.667 -18 -98s-28.5 -54.333 -49.5 -75s-46.167 -36.667 -75.5 -48s-61.333 -17 -96 -17c-36 0 -68.5 6 -97.5 18s-54 28.833 -75 50.5s-37.167 47.5 -48.5 77.5s-17 63 -17 99v457h46v-446c0 -29.333 4.5 -57 13.5 -83
s21.833 -48.5 38.5 -67.5s36.834 -34 60.501 -45s50.167 -16.5 79.5 -16.5c28 0 53.667 4.66699 77 14s43.5 22.666 60.5 39.999s30.167 38.666 39.5 63.999s14 54 14 86v454h48zM366.999 759.002v53h54v-53h-54zM187.999 759.002v53h55v-53h-55z" />
    <glyph glyph-name="Yacute" unicode="&#xdd;" horiz-adv-x="475" 
d="M259 0l-43.999 -0.000976562v288l-209 408h49l21.5 -42l33 -66l39 -78l38 -77l31.5 -63.5c9.33301 -18.333 15.666 -31.166 18.999 -38.499l37 73.5l36 74.5l55.5 108l53.5 109h48l-104.5 -204l-103.5 -204v-288zM180.001 750.999l67.5 53.5l67.5 54.5l36 -38l-152 -93z
" />
    <glyph glyph-name="Thorn" unicode="&#xde;" horiz-adv-x="555" 
d="M80 695l47 0.000976562v-144h201c28 0 55 -3.66699 81 -11s49 -19 69 -35s36 -36.833 48 -62.5s18 -56.834 18 -93.501c0 -23.333 -4.16699 -46.5 -12.5 -69.5s-21 -44 -38 -63s-38.5 -34.333 -64.5 -46s-56.333 -17.5 -91 -17.5h-211v-153h-47v695zM494 352.001
c0 26 -4.33398 48.832 -13.001 68.499s-20.5 36 -35.5 49s-32.667 22.667 -53 29s-41.833 9.5 -64.5 9.5h-201v-312h205c28.667 0 53.334 4.5 74.001 13.5s37.5 20.833 50.5 35.5s22.5 31.334 28.5 50.001s9 37.667 9 57z" />
    <glyph glyph-name="germandbls" unicode="&#xdf;" horiz-adv-x="509" 
d="M457 228c0 -38.667 -4.49707 -72.332 -13.4971 -100.999s-21.5 -52.334 -37.5 -71.001s-35.167 -32.667 -57.5 -42s-46.833 -14 -73.5 -14h-30v37h26c26 0 47.833 5.16699 65.5 15.5s32 24.166 43 41.499s19 37.666 24 60.999s7.5 48 7.5 74c0 24 -3.33301 46 -10 66
s-15.834 37.167 -27.501 51.5s-25.834 25.5 -42.501 33.5s-35 12 -55 12h-16v38h16c18 0 34 4 48 12s25.667 18 35 30s16.333 25.333 21 40s7 28.667 7 42c0 14.667 -2.33301 29.834 -7 45.501s-12.334 29.834 -23.001 42.501s-24.667 23 -42 31s-38.333 12 -63 12
c-28 0 -50.833 -5.16699 -68.5 -15.5s-31.5 -23.333 -41.5 -39s-17 -32.5 -21 -50.5s-6 -35 -6 -51v-529h-43v533c0 56.667 15.667 102.5 47 137.5s77.333 52.5 138 52.5c28 0 52.833 -4.66699 74.5 -14s39.834 -21.5 54.501 -36.5s25.834 -32 33.501 -51
s11.5 -38.5 11.5 -58.5c0 -12.667 -1.33301 -26.167 -4 -40.5s-7.33398 -28.166 -14.001 -41.499s-15.334 -25.833 -26.001 -37.5s-24 -21.167 -40 -28.5v-2c20 -6 36.833 -15.167 50.5 -27.5s25 -26.833 34 -43.5s15.5 -34.834 19.5 -54.501s6 -39.5 6 -59.5z" />
    <glyph glyph-name="agrave" unicode="&#xe0;" horiz-adv-x="474" 
d="M376 54c-8 -12 -17.8301 -22.001 -29.4971 -30.001s-24.834 -14.167 -39.501 -18.5s-30.334 -7.33301 -47.001 -9s-33.334 -2.5 -50.001 -2.5c-24 0 -46.5 2.83301 -67.5 8.5s-39.333 14.334 -55 26.001s-28.167 26.334 -37.5 44.001s-14 38.5 -14 62.5
c0 40 13.333 73.167 40 99.5s66.334 39.5 119.001 39.5h182v71c0 36.667 -10.667 65 -32 85s-58.333 30 -111 30c-24.667 0 -48.834 -3.33301 -72.501 -10s-45.5 -19.334 -65.5 -38.001l-28 30c40.667 39.333 96.334 59 167.001 59c25.333 0 49.166 -2.16699 71.499 -6.5
s42 -12.333 59 -24s30.5 -27.5 40.5 -47.5s15 -45.333 15 -76v-347h-44v54h-1zM205.003 236.999c-40 0 -71.167 -8.16797 -93.5 -24.501s-33.5 -41.5 -33.5 -75.5s12.5 -60 37.5 -78s58.5 -27 100.5 -27c16 0 33.333 1.5 52 4.5s36.167 8.33301 52.5 16
s29.833 18.334 40.5 32.001s16 31.5 16 53.5v99h-172zM282.003 574.998c-4.66699 -2.66699 -9.16699 -4.83301 -13.5 -6.5s-8.83301 -3.5 -13.5 -5.5l-99 146l23.5 9.5l24.5 9.5z" />
    <glyph glyph-name="aacute" unicode="&#xe1;" horiz-adv-x="474" 
d="M376 54c-8 -12 -17.8301 -22.001 -29.4971 -30.001s-24.834 -14.167 -39.501 -18.5s-30.334 -7.33301 -47.001 -9s-33.334 -2.5 -50.001 -2.5c-24 0 -46.5 2.83301 -67.5 8.5s-39.333 14.334 -55 26.001s-28.167 26.334 -37.5 44.001s-14 38.5 -14 62.5
c0 40 13.333 73.167 40 99.5s66.334 39.5 119.001 39.5h182v71c0 36.667 -10.667 65 -32 85s-58.333 30 -111 30c-24.667 0 -48.834 -3.33301 -72.501 -10s-45.5 -19.334 -65.5 -38.001l-28 30c40.667 39.333 96.334 59 167.001 59c25.333 0 49.166 -2.16699 71.499 -6.5
s42 -12.333 59 -24s30.5 -27.5 40.5 -47.5s15 -45.333 15 -76v-347h-44v54h-1zM205.003 236.999c-40 0 -71.167 -8.16797 -93.5 -24.501s-33.5 -41.5 -33.5 -75.5s12.5 -60 37.5 -78s58.5 -27 100.5 -27c16 0 33.333 1.5 52 4.5s36.167 8.33301 52.5 16
s29.833 18.334 40.5 32.001s16 31.5 16 53.5v99h-172zM260.003 562.998c-4.66699 2 -9.16699 3.83203 -13.5 5.49902s-8.83301 3.83398 -13.5 6.50098l79 153l23.5 -9.5l24.5 -9.5z" />
    <glyph glyph-name="acircumflex" unicode="&#xe2;" horiz-adv-x="474" 
d="M376 54c-8 -12 -17.8301 -22.001 -29.4971 -30.001s-24.834 -14.167 -39.501 -18.5s-30.334 -7.33301 -47.001 -9s-33.334 -2.5 -50.001 -2.5c-24 0 -46.5 2.83301 -67.5 8.5s-39.333 14.334 -55 26.001s-28.167 26.334 -37.5 44.001s-14 38.5 -14 62.5
c0 40 13.333 73.167 40 99.5s66.334 39.5 119.001 39.5h182v71c0 36.667 -10.667 65 -32 85s-58.333 30 -111 30c-24.667 0 -48.834 -3.33301 -72.501 -10s-45.5 -19.334 -65.5 -38.001l-28 30c40.667 39.333 96.334 59 167.001 59c25.333 0 49.166 -2.16699 71.499 -6.5
s42 -12.333 59 -24s30.5 -27.5 40.5 -47.5s15 -45.333 15 -76v-347h-44v54h-1zM205.003 236.999c-40 0 -71.167 -8.16797 -93.5 -24.501s-33.5 -41.5 -33.5 -75.5s12.5 -60 37.5 -78s58.5 -27 100.5 -27c16 0 33.333 1.5 52 4.5s36.167 8.33301 52.5 16
s29.833 18.334 40.5 32.001s16 31.5 16 53.5v99h-172zM241.003 652.998l-63 -49l-63 -48l-10.5 10.5l-10.5 10.5l131 124h37l126 -124l-21 -20z" />
    <glyph glyph-name="atilde" unicode="&#xe3;" horiz-adv-x="474" 
d="M376 54c-8 -12 -17.8301 -22.001 -29.4971 -30.001s-24.834 -14.167 -39.501 -18.5s-30.334 -7.33301 -47.001 -9s-33.334 -2.5 -50.001 -2.5c-24 0 -46.5 2.83301 -67.5 8.5s-39.333 14.334 -55 26.001s-28.167 26.334 -37.5 44.001s-14 38.5 -14 62.5
c0 40 13.333 73.167 40 99.5s66.334 39.5 119.001 39.5h182v71c0 36.667 -10.667 65 -32 85s-58.333 30 -111 30c-24.667 0 -48.834 -3.33301 -72.501 -10s-45.5 -19.334 -65.5 -38.001l-28 30c40.667 39.333 96.334 59 167.001 59c25.333 0 49.166 -2.16699 71.499 -6.5
s42 -12.333 59 -24s30.5 -27.5 40.5 -47.5s15 -45.333 15 -76v-347h-44v54h-1zM205.003 236.999c-40 0 -71.167 -8.16797 -93.5 -24.501s-33.5 -41.5 -33.5 -75.5s12.5 -60 37.5 -78s58.5 -27 100.5 -27c16 0 33.333 1.5 52 4.5s36.167 8.33301 52.5 16
s29.833 18.334 40.5 32.001s16 31.5 16 53.5v99h-172zM325.003 587.998c-10 0 -20.4971 2.16504 -31.4971 6.49805s-22 9 -33 14s-21.833 9.66699 -32.5 14s-20.667 6.5 -30 6.5c-12.667 0 -23.834 -3.16699 -33.501 -9.5s-19.834 -15.833 -30.501 -28.5l-28 16
c26 43.333 56.667 65 92 65c10.667 0 21.5 -2.16699 32.5 -6.5s22 -9.16602 33 -14.499s21.667 -10.166 32 -14.499s19.833 -6.5 28.5 -6.5c10 0 19.667 3 29 9s18.666 16.333 27.999 31l29 -17c-12.667 -23.333 -26 -40 -40 -50s-29 -15 -45 -15z" />
    <glyph glyph-name="adieresis" unicode="&#xe4;" horiz-adv-x="474" 
d="M376 54c-8 -12 -17.8301 -22.001 -29.4971 -30.001s-24.834 -14.167 -39.501 -18.5s-30.334 -7.33301 -47.001 -9s-33.334 -2.5 -50.001 -2.5c-24 0 -46.5 2.83301 -67.5 8.5s-39.333 14.334 -55 26.001s-28.167 26.334 -37.5 44.001s-14 38.5 -14 62.5
c0 40 13.333 73.167 40 99.5s66.334 39.5 119.001 39.5h182v71c0 36.667 -10.667 65 -32 85s-58.333 30 -111 30c-24.667 0 -48.834 -3.33301 -72.501 -10s-45.5 -19.334 -65.5 -38.001l-28 30c40.667 39.333 96.334 59 167.001 59c25.333 0 49.166 -2.16699 71.499 -6.5
s42 -12.333 59 -24s30.5 -27.5 40.5 -47.5s15 -45.333 15 -76v-347h-44v54h-1zM205.003 236.999c-40 0 -71.167 -8.16797 -93.5 -24.501s-33.5 -41.5 -33.5 -75.5s12.5 -60 37.5 -78s58.5 -27 100.5 -27c16 0 33.333 1.5 52 4.5s36.167 8.33301 52.5 16
s29.833 18.334 40.5 32.001s16 31.5 16 53.5v99h-172zM315.003 660.998h54v-53h-54v53zM126.003 660.998h54v-53h-54v53z" />
    <glyph glyph-name="aring" unicode="&#xe5;" horiz-adv-x="474" 
d="M376 54c-8 -12 -17.8301 -22.001 -29.4971 -30.001s-24.834 -14.167 -39.501 -18.5s-30.334 -7.33301 -47.001 -9s-33.334 -2.5 -50.001 -2.5c-24 0 -46.5 2.83301 -67.5 8.5s-39.333 14.334 -55 26.001s-28.167 26.334 -37.5 44.001s-14 38.5 -14 62.5
c0 40 13.333 73.167 40 99.5s66.334 39.5 119.001 39.5h182v71c0 36.667 -10.667 65 -32 85s-58.333 30 -111 30c-24.667 0 -48.834 -3.33301 -72.501 -10s-45.5 -19.334 -65.5 -38.001l-28 30c40.667 39.333 96.334 59 167.001 59c25.333 0 49.166 -2.16699 71.499 -6.5
s42 -12.333 59 -24s30.5 -27.5 40.5 -47.5s15 -45.333 15 -76v-347h-44v54h-1zM205.003 236.999c-40 0 -71.167 -8.16797 -93.5 -24.501s-33.5 -41.5 -33.5 -75.5s12.5 -60 37.5 -78s58.5 -27 100.5 -27c16 0 33.333 1.5 52 4.5s36.167 8.33301 52.5 16
s29.833 18.334 40.5 32.001s16 31.5 16 53.5v99h-172zM245.003 552.998c-24.667 0 -45.834 8.83301 -63.501 26.5s-26.5 38.834 -26.5 63.501c0 25.333 8.83301 46.5 26.5 63.5s38.834 25.5 63.501 25.5c25.333 0 46.833 -8.5 64.5 -25.5s26.5 -38.167 26.5 -63.5
c0 -24.667 -8.83301 -45.834 -26.5 -63.501s-39.167 -26.5 -64.5 -26.5zM245.003 705.998c-17.333 0 -32 -6.16699 -44 -18.5s-18 -27.166 -18 -44.499s6 -32.166 18 -44.499s26.667 -18.5 44 -18.5c18 0 33 6.16699 45 18.5s18 27.166 18 44.499s-6 32.166 -18 44.499
s-27 18.5 -45 18.5z" />
    <glyph glyph-name="ae" unicode="&#xe6;" horiz-adv-x="809" 
d="M420 238c0 -28.667 2.83301 -55.4971 8.5 -80.4971s15 -46.833 28 -65.5s30.5 -33.5 52.5 -44.5s49 -16.5 81 -16.5c20 0 40.5 3.66699 61.5 11s40.167 17.666 57.5 30.999l27 -32c-21.333 -16.667 -44 -28.667 -68 -36s-49.333 -11 -76 -11c-17.333 0 -35 1.5 -53 4.5
s-35.167 8.5 -51.5 16.5s-31.5 18.833 -45.5 32.5s-26 31.167 -36 52.5c-5.33301 -13.333 -13.166 -26.333 -23.499 -39s-23.5 -24 -39.5 -34s-35 -18 -57 -24s-47.333 -9 -76 -9c-24 0 -46.5 2.66699 -67.5 8s-39.333 13.666 -55 24.999s-28.167 25.5 -37.5 42.5
s-14 37.5 -14 61.5c0 20 3.33301 38.667 10 56s16.667 32.5 30 45.5s30 23.167 50 30.5s43 11 69 11h182v75c0 35.333 -10.5 62.666 -31.5 81.999s-54.167 29 -99.5 29c-24.667 0 -50.167 -3.16699 -76.5 -9.5s-49.833 -18.166 -70.5 -35.499l-27 31
c24.667 21.333 52.5 35.833 83.5 43.5s59.833 11.5 86.5 11.5c20.667 0 40.167 -1.5 58.5 -4.5s35 -8.33301 50 -16s27.667 -18 38 -31s18.166 -29.167 23.499 -48.5c9.33301 18.667 20.333 34.5 33 47.5s26.334 23.333 41.001 31s29.667 13.167 45 16.5s30.666 5 45.999 5
c33.333 0 62.333 -6 87 -18s45 -28.167 61 -48.5s28 -44.333 36 -72s12 -56.834 12 -87.501v-37h-353zM207 238.003c-36.667 0 -67.168 -8.33301 -91.501 -25s-36.5 -42 -36.5 -76s12.333 -60 37 -78s58 -27 100 -27c22 0 42.833 2.66699 62.5 8s36.834 13.5 51.501 24.5
s26.167 24.5 34.5 40.5s12.5 35 12.5 57v76h-170zM577.999 461.003c-47.333 0 -84.5 -16.333 -111.5 -49s-41.833 -78.667 -44.5 -138h306c-2.66699 62.667 -17.167 109.5 -43.5 140.5s-61.833 46.5 -106.5 46.5z" />
    <glyph glyph-name="ccedilla" unicode="&#xe7;" horiz-adv-x="414" 
d="M247 -6l-12.0068 -37.0039c19.333 -1.33301 35 -4.83301 47 -10.5s21.5 -12.167 28.5 -19.5s11.833 -15.166 14.5 -23.499s4 -16.166 4 -23.499s-1.66699 -15.166 -5 -23.499s-8.66602 -16.166 -15.999 -23.499s-16.666 -13.333 -27.999 -18s-25.333 -7 -42 -7
c-6 0 -16.5 0.666992 -31.5 2s-31.167 5 -48.5 11l10 25c12.667 -4.66699 24.834 -7.83398 36.501 -9.50098s22.167 -2.5 31.5 -2.5c6 0 12.333 1 19 3s12.834 4.83301 18.501 8.5s10.334 8.5 14.001 14.5s5.5 13 5.5 21c0 15.333 -7.5 27.5 -22.5 36.5
s-33.833 13.5 -56.5 13.5c-3.33301 0 -5.66602 1 -6.99902 3s-3.66602 3.66699 -6.99902 5l19 57c-25.333 2.66699 -49.333 9.33398 -72 20.001s-42.667 26 -60 46s-31.166 45.333 -41.499 76s-15.5 67 -15.5 109c0 46.667 6.33301 86.167 19 118.5s29.167 58.5 49.5 78.5
s43.666 34.5 69.999 43.5s53.5 13.5 81.5 13.5c28.667 0 55 -5 79 -15s45.667 -23.333 65 -40l-27 -32c-14 12.667 -30.833 23.5 -50.5 32.5s-40.167 13.5 -61.5 13.5c-58 0 -102.833 -18.167 -134.5 -54.5s-47.5 -89.166 -47.5 -158.499s15.667 -122.5 47 -159.5
s76.333 -55.5 135 -55.5c22 0 42.833 5 62.5 15s36.167 20.667 49.5 32l13.5 -15.5c4.33301 -5 9.16602 -10.167 14.499 -15.5c-19.333 -16.667 -41.166 -29.834 -65.499 -39.501s-50.833 -14.5 -79.5 -14.5h-3z" />
    <glyph glyph-name="egrave" unicode="&#xe8;" horiz-adv-x="474" 
d="M85 241c-0.666992 -28 1.83398 -54.8359 7.50098 -80.5029s15.167 -48 28.5 -67s31 -34.167 53 -45.5s49 -17 81 -17c20 0 40.5 3.66699 61.5 11s40.167 17.333 57.5 30l27 -30c-21.333 -17.333 -44.166 -29.833 -68.499 -37.5s-49.5 -11.5 -75.5 -11.5
c-25.333 0 -50.666 3.33301 -75.999 10s-48.166 19.334 -68.499 38.001s-37 44.334 -50 77.001s-19.5 75 -19.5 127c0 50 6 91.5 18 124.5s27.667 59.333 47 79s40.666 33.334 63.999 41.001s46.666 11.5 69.999 11.5c32.667 0 61.167 -5.83301 85.5 -17.5
s44.666 -27.5 60.999 -47.5s28.666 -43.833 36.999 -71.5s12.5 -57.5 12.5 -89.5v-34h-353zM392.001 276.997c-2 62.667 -16.167 109.167 -42.5 139.5s-61.833 45.5 -106.5 45.5c-47.333 0 -84.5 -16 -111.5 -48s-42.167 -77.667 -45.5 -137h306zM257.001 562.997l-99 147
l48 19l79 -154z" />
    <glyph glyph-name="eacute" unicode="&#xe9;" horiz-adv-x="474" 
d="M85 241c-0.666992 -28 1.83398 -54.8359 7.50098 -80.5029s15.167 -48 28.5 -67s31 -34.167 53 -45.5s49 -17 81 -17c20 0 40.5 3.66699 61.5 11s40.167 17.333 57.5 30l27 -30c-21.333 -17.333 -44.166 -29.833 -68.499 -37.5s-49.5 -11.5 -75.5 -11.5
c-25.333 0 -50.666 3.33301 -75.999 10s-48.166 19.334 -68.499 38.001s-37 44.334 -50 77.001s-19.5 75 -19.5 127c0 50 6 91.5 18 124.5s27.667 59.333 47 79s40.666 33.334 63.999 41.001s46.666 11.5 69.999 11.5c32.667 0 61.167 -5.83301 85.5 -17.5
s44.666 -27.5 60.999 -47.5s28.666 -43.833 36.999 -71.5s12.5 -57.5 12.5 -89.5v-34h-353zM392.001 276.997c-2 62.667 -16.167 109.167 -42.5 139.5s-61.833 45.5 -106.5 45.5c-47.333 0 -84.5 -16 -111.5 -48s-42.167 -77.667 -45.5 -137h306zM209.001 574.997l78 154
l49 -19l-100 -147z" />
    <glyph glyph-name="ecircumflex" unicode="&#xea;" horiz-adv-x="474" 
d="M85 241c-0.666992 -28 1.83398 -54.8359 7.50098 -80.5029s15.167 -48 28.5 -67s31 -34.167 53 -45.5s49 -17 81 -17c20 0 40.5 3.66699 61.5 11s40.167 17.333 57.5 30l27 -30c-21.333 -17.333 -44.166 -29.833 -68.499 -37.5s-49.5 -11.5 -75.5 -11.5
c-25.333 0 -50.666 3.33301 -75.999 10s-48.166 19.334 -68.499 38.001s-37 44.334 -50 77.001s-19.5 75 -19.5 127c0 50 6 91.5 18 124.5s27.667 59.333 47 79s40.666 33.334 63.999 41.001s46.666 11.5 69.999 11.5c32.667 0 61.167 -5.83301 85.5 -17.5
s44.666 -27.5 60.999 -47.5s28.666 -43.833 36.999 -71.5s12.5 -57.5 12.5 -89.5v-34h-353zM392.001 276.997c-2 62.667 -16.167 109.167 -42.5 139.5s-61.833 45.5 -106.5 45.5c-47.333 0 -84.5 -16 -111.5 -48s-42.167 -77.667 -45.5 -137h306zM242.001 653.997l-127 -98
l-21 21l132 124h37l126 -123l-21 -21z" />
    <glyph glyph-name="edieresis" unicode="&#xeb;" horiz-adv-x="474" 
d="M85 241c-0.666992 -28 1.83398 -54.8359 7.50098 -80.5029s15.167 -48 28.5 -67s31 -34.167 53 -45.5s49 -17 81 -17c20 0 40.5 3.66699 61.5 11s40.167 17.333 57.5 30l27 -30c-21.333 -17.333 -44.166 -29.833 -68.499 -37.5s-49.5 -11.5 -75.5 -11.5
c-25.333 0 -50.666 3.33301 -75.999 10s-48.166 19.334 -68.499 38.001s-37 44.334 -50 77.001s-19.5 75 -19.5 127c0 50 6 91.5 18 124.5s27.667 59.333 47 79s40.666 33.334 63.999 41.001s46.666 11.5 69.999 11.5c32.667 0 61.167 -5.83301 85.5 -17.5
s44.666 -27.5 60.999 -47.5s28.666 -43.833 36.999 -71.5s12.5 -57.5 12.5 -89.5v-34h-353zM392.001 276.997c-2 62.667 -16.167 109.167 -42.5 139.5s-61.833 45.5 -106.5 45.5c-47.333 0 -84.5 -16 -111.5 -48s-42.167 -77.667 -45.5 -137h306zM314.001 607.997v54h55v-54
h-55zM125.001 607.997v54h55v-54h-55z" />
    <glyph glyph-name="igrave" unicode="&#xec;" horiz-adv-x="200" 
d="M73 0v496h46v-496h-46zM90 563l-100 147l48 19l79 -154z" />
    <glyph glyph-name="iacute" unicode="&#xed;" horiz-adv-x="200" 
d="M73 0v496h46v-496h-46zM83 575l79 154l48 -19l-99 -147z" />
    <glyph glyph-name="icircumflex" unicode="&#xee;" horiz-adv-x="255" 
d="M105 0v496h46v-496h-46zM128 654l-127 -98l-21 21l131 124h37l127 -123l-22 -21z" />
    <glyph glyph-name="idieresis" unicode="&#xef;" horiz-adv-x="204" 
d="M80 0v496h46v-496h-46zM169 608v54h55v-54h-55zM-20 608v54h55v-54h-55z" />
    <glyph glyph-name="eth" unicode="&#xf0;" horiz-adv-x="491" 
d="M245 476c34.667 0 67.002 -9.33496 97.002 -28.002s50.333 -44 61 -76h3c0 42 -3.16699 82 -9.5 120s-17.166 69.667 -32.499 95l-73 -52l-15 22l73 52c-15.333 20.667 -34.833 37.834 -58.5 51.501s-55.5 23.167 -95.5 28.5l7 37c44 -3.33301 80.833 -13 110.5 -29
s53.5 -36.333 71.5 -61l74 53l17 -23l-75 -53c21.333 -36 34.833 -77.667 40.5 -125s8.5 -99.333 8.5 -156c0 -22 -0.5 -45.167 -1.5 -69.5s-3.5 -48.5 -7.5 -72.5s-9.83301 -47.167 -17.5 -69.5s-17.834 -41.833 -30.501 -58.5c-16.667 -21.333 -37.834 -38 -63.501 -50
s-55.5 -18 -89.5 -18c-62.667 0 -110 18.333 -142 55c-36.667 40.667 -55 103.334 -55 188.001c0 43.333 5.16699 78.5 15.5 105.5s23.5 49.833 39.5 68.5c17.333 20 38.166 35.833 62.499 47.5s52.833 17.5 85.5 17.5zM244.002 435.998
c-27.333 0 -51.168 -5.33105 -71.501 -15.998s-37.166 -25.334 -50.499 -44.001c-10 -14 -18.5 -32 -25.5 -54s-10.5 -51.333 -10.5 -88c0 -35.333 3.66699 -64.833 11 -88.5s17.666 -44.167 30.999 -61.5c26.667 -34 64.667 -51 114 -51
c24.667 0 46.834 5.16699 66.501 15.5s36.5 25.166 50.5 44.499c11.333 15.333 20.833 34.5 28.5 57.5s11.5 52.5 11.5 88.5c0 40 -4.33301 71 -13 93s-19 40 -31 54c-13.333 15.333 -29.333 27.5 -48 36.5s-39.667 13.5 -63 13.5z" />
    <glyph glyph-name="ntilde" unicode="&#xf1;" horiz-adv-x="502" 
d="M397 0l0.000976562 317.002c0 46 -11.667 81.167 -35 105.5s-58.333 36.5 -105 36.5c-21.333 0 -41.333 -3.83301 -60 -11.5s-34.834 -18.5 -48.501 -32.5s-24.5 -30.833 -32.5 -50.5s-12 -41.167 -12 -64.5v-300h-43v495h43v-85h2c8 16 18.167 29.667 30.5 41
s25.833 20.666 40.5 27.999s29.667 12.666 45 15.999s30 5 44 5c56 0 99 -14.5 129 -43.5s45 -70.5 45 -124.5v-332h-43zM308.001 588.002c-10 0 -20.4971 2.16504 -31.4971 6.49805s-22 9 -33 14s-21.833 9.66699 -32.5 14s-20.667 6.5 -30 6.5
c-12.667 0 -23.834 -3.16699 -33.501 -9.5s-19.834 -15.833 -30.501 -28.5l-28 16c26 43.333 56.667 65 92 65c10.667 0 21.5 -2.16699 32.5 -6.5s22 -9.16602 33 -14.499s21.667 -10.166 32 -14.499s19.833 -6.5 28.5 -6.5c10 0 19.667 3 29 9s18.666 16.333 27.999 31
l29 -17c-12.667 -23.333 -26 -40 -40 -50s-29 -15 -45 -15z" />
    <glyph glyph-name="ograve" unicode="&#xf2;" horiz-adv-x="489" 
d="M253 563l-99 147l48 19l79 -154zM249 501c36 0 67.499 -7.00195 94.499 -21.002s48.833 -33.667 65.5 -59c11.333 -18.667 20 -41.5 26 -68.5s9 -63.167 9 -108.5s-4.66699 -82.5 -14 -111.5s-21 -52.5 -35 -70.5c-18 -23.333 -40 -40.5 -66 -51.5
s-55.333 -16.5 -88 -16.5c-61.333 0 -108.666 18.667 -141.999 56c-18 20.667 -31.667 46.834 -41 78.501s-14 71.834 -14 120.501c0 46 5 83.5 15 112.5s23 53.167 39 72.5c17.333 20.667 38.5 37 63.5 49s54.167 18 87.5 18zM246.999 461.998
c-25.333 0 -47.668 -5.16602 -67.001 -15.499s-35.666 -23.833 -48.999 -40.5s-23.833 -37 -31.5 -61s-11.5 -56.667 -11.5 -98c0 -42 3.83301 -75.333 11.5 -100s18.167 -45.334 31.5 -62.001s29.333 -29.5 48 -38.5s40.334 -13.5 65.001 -13.5
c25.333 0 48.166 5.33301 68.499 16s37.166 25.667 50.499 45c10.667 15.333 19.5 34 26.5 56s10.5 53.667 10.5 95c0 40.667 -2.5 72 -7.5 94s-11.5 39.667 -19.5 53c-13.333 22 -30.666 39.167 -51.999 51.5s-46 18.5 -74 18.5z" />
    <glyph glyph-name="oacute" unicode="&#xf3;" horiz-adv-x="489" 
d="M225 575l79 154l48 -19l-99 -147zM249 501c36 0 67.499 -7.00195 94.499 -21.002s48.833 -33.667 65.5 -59c11.333 -18.667 20 -41.5 26 -68.5s9 -63.167 9 -108.5s-4.66699 -82.5 -14 -111.5s-21 -52.5 -35 -70.5c-18 -23.333 -40 -40.5 -66 -51.5
s-55.333 -16.5 -88 -16.5c-61.333 0 -108.666 18.667 -141.999 56c-18 20.667 -31.667 46.834 -41 78.501s-14 71.834 -14 120.501c0 46 5 83.5 15 112.5s23 53.167 39 72.5c17.333 20.667 38.5 37 63.5 49s54.167 18 87.5 18zM246.999 461.998
c-25.333 0 -47.668 -5.16602 -67.001 -15.499s-35.666 -23.833 -48.999 -40.5s-23.833 -37 -31.5 -61s-11.5 -56.667 -11.5 -98c0 -42 3.83301 -75.333 11.5 -100s18.167 -45.334 31.5 -62.001s29.333 -29.5 48 -38.5s40.334 -13.5 65.001 -13.5
c25.333 0 48.166 5.33301 68.499 16s37.166 25.667 50.499 45c10.667 15.333 19.5 34 26.5 56s10.5 53.667 10.5 95c0 40.667 -2.5 72 -7.5 94s-11.5 39.667 -19.5 53c-13.333 22 -30.666 39.167 -51.999 51.5s-46 18.5 -74 18.5z" />
    <glyph glyph-name="ocircumflex" unicode="&#xf4;" horiz-adv-x="489" 
d="M244 654l-126 -98l-21 21l131 124h37l126 -123l-21 -21zM249 501c36 0 67.499 -7.00195 94.499 -21.002s48.833 -33.667 65.5 -59c11.333 -18.667 20 -41.5 26 -68.5s9 -63.167 9 -108.5s-4.66699 -82.5 -14 -111.5s-21 -52.5 -35 -70.5c-18 -23.333 -40 -40.5 -66 -51.5
s-55.333 -16.5 -88 -16.5c-61.333 0 -108.666 18.667 -141.999 56c-18 20.667 -31.667 46.834 -41 78.501s-14 71.834 -14 120.501c0 46 5 83.5 15 112.5s23 53.167 39 72.5c17.333 20.667 38.5 37 63.5 49s54.167 18 87.5 18zM246.999 461.998
c-25.333 0 -47.668 -5.16602 -67.001 -15.499s-35.666 -23.833 -48.999 -40.5s-23.833 -37 -31.5 -61s-11.5 -56.667 -11.5 -98c0 -42 3.83301 -75.333 11.5 -100s18.167 -45.334 31.5 -62.001s29.333 -29.5 48 -38.5s40.334 -13.5 65.001 -13.5
c25.333 0 48.166 5.33301 68.499 16s37.166 25.667 50.499 45c10.667 15.333 19.5 34 26.5 56s10.5 53.667 10.5 95c0 40.667 -2.5 72 -7.5 94s-11.5 39.667 -19.5 53c-13.333 22 -30.666 39.167 -51.999 51.5s-46 18.5 -74 18.5z" />
    <glyph glyph-name="otilde" unicode="&#xf5;" horiz-adv-x="489" 
d="M249 501c36 0 67.499 -7.00195 94.499 -21.002s48.833 -33.667 65.5 -59c11.333 -18.667 20 -41.5 26 -68.5s9 -63.167 9 -108.5s-4.66699 -82.5 -14 -111.5s-21 -52.5 -35 -70.5c-18 -23.333 -40 -40.5 -66 -51.5s-55.333 -16.5 -88 -16.5
c-61.333 0 -108.666 18.667 -141.999 56c-18 20.667 -31.667 46.834 -41 78.501s-14 71.834 -14 120.501c0 46 5 83.5 15 112.5s23 53.167 39 72.5c17.333 20.667 38.5 37 63.5 49s54.167 18 87.5 18zM246.999 461.998c-25.333 0 -47.668 -5.16602 -67.001 -15.499
s-35.666 -23.833 -48.999 -40.5s-23.833 -37 -31.5 -61s-11.5 -56.667 -11.5 -98c0 -42 3.83301 -75.333 11.5 -100s18.167 -45.334 31.5 -62.001s29.333 -29.5 48 -38.5s40.334 -13.5 65.001 -13.5c25.333 0 48.166 5.33301 68.499 16s37.166 25.667 50.499 45
c10.667 15.333 19.5 34 26.5 56s10.5 53.667 10.5 95c0 40.667 -2.5 72 -7.5 94s-11.5 39.667 -19.5 53c-13.333 22 -30.666 39.167 -51.999 51.5s-46 18.5 -74 18.5zM312.997 587.999c-10 0 -20.4971 2.16504 -31.4971 6.49805s-22 9 -33 14s-21.833 9.66699 -32.5 14
s-20.667 6.5 -30 6.5c-12.667 0 -23.834 -3.16699 -33.501 -9.5s-19.834 -15.833 -30.501 -28.5l-28 16c26 43.333 56.667 65 92 65c10.667 0 21.5 -2.16699 32.5 -6.5s22 -9.16602 33 -14.499s21.667 -10.166 32 -14.499s19.833 -6.5 28.5 -6.5c10 0 19.667 3 29 9
s18.666 16.333 27.999 31l29 -17c-12.667 -23.333 -26 -40 -40 -50s-29 -15 -45 -15z" />
    <glyph glyph-name="odieresis" unicode="&#xf6;" horiz-adv-x="489" 
d="M310 608v54h55v-54h-55zM121 608v54h55v-54h-55zM249 501c36 0 67.499 -7.00195 94.499 -21.002s48.833 -33.667 65.5 -59c11.333 -18.667 20 -41.5 26 -68.5s9 -63.167 9 -108.5s-4.66699 -82.5 -14 -111.5s-21 -52.5 -35 -70.5c-18 -23.333 -40 -40.5 -66 -51.5
s-55.333 -16.5 -88 -16.5c-61.333 0 -108.666 18.667 -141.999 56c-18 20.667 -31.667 46.834 -41 78.501s-14 71.834 -14 120.501c0 46 5 83.5 15 112.5s23 53.167 39 72.5c17.333 20.667 38.5 37 63.5 49s54.167 18 87.5 18zM246.999 461.998
c-25.333 0 -47.668 -5.16602 -67.001 -15.499s-35.666 -23.833 -48.999 -40.5s-23.833 -37 -31.5 -61s-11.5 -56.667 -11.5 -98c0 -42 3.83301 -75.333 11.5 -100s18.167 -45.334 31.5 -62.001s29.333 -29.5 48 -38.5s40.334 -13.5 65.001 -13.5
c25.333 0 48.166 5.33301 68.499 16s37.166 25.667 50.499 45c10.667 15.333 19.5 34 26.5 56s10.5 53.667 10.5 95c0 40.667 -2.5 72 -7.5 94s-11.5 39.667 -19.5 53c-13.333 22 -30.666 39.167 -51.999 51.5s-46 18.5 -74 18.5z" />
    <glyph glyph-name="divide" unicode="&#xf7;" horiz-adv-x="467" 
d="M274 448c0 -10.667 -3.66895 -19.834 -11.002 -27.501s-16.333 -11.5 -27 -11.5c-11.333 0 -20.666 3.83301 -27.999 11.5s-11 16.834 -11 27.501c0 11.333 3.83301 20.333 11.5 27s16.834 10 27.501 10c10 0 18.833 -3.33301 26.5 -10s11.5 -15.667 11.5 -27z
M24.998 261v37h416v-37h-416zM236.998 147c9.33301 0 17.832 -3.33301 25.499 -10s11.5 -15.667 11.5 -27c0 -10.667 -3.66699 -19.667 -11 -27s-16.333 -11 -27 -11c-11.333 0 -20.666 3.66699 -27.999 11s-11 16.333 -11 27c0 11.333 4 20.333 12 27s17.333 10 28 10z" />
    <glyph glyph-name="oslash" unicode="&#xf8;" horiz-adv-x="489" 
d="M249 501c53.333 0 97.001 -15.334 131.001 -46.001l40 53l24 -18l-43 -58c1.33301 -1.33301 2.66602 -3 3.99902 -5l4 -6c11.333 -18.667 20 -41.5 26 -68.5s9 -63.167 9 -108.5s-4.66699 -82.5 -14 -111.5s-21 -52.5 -35 -70.5c-18 -23.333 -40 -40.5 -66 -51.5
s-55.333 -16.5 -88 -16.5c-56 0 -100.333 15.333 -133 46l-37 -50l-24 18l41 55c-14.667 20.667 -25.667 45.834 -33 75.501s-11 66.5 -11 110.5c0 46 5 83.5 15 112.5s23 53.167 39 72.5c17.333 20.667 38.5 37 63.5 49s54.167 18 87.5 18zM373.001 391.999
c-0.666992 0 -0.998047 0.333008 -0.998047 1l-235 -315c26 -30 61.667 -45 107 -45c25.333 0 48.166 5.33301 68.499 16s37.166 25.667 50.499 45c10.667 15.333 19.5 34 26.5 56s10.5 53.667 10.5 95c0 40.667 -2.5 72 -7.5 94s-11.5 39.667 -19.5 53zM247.003 461.999
c-25.333 0 -47.667 -5.16602 -67 -15.499s-35.666 -23.833 -48.999 -40.5s-23.833 -37 -31.5 -61s-11.5 -56.667 -11.5 -98c0 -34.667 2.66699 -63.334 8 -86.001s12.666 -42 21.999 -58l235 315c-28 29.333 -63.333 44 -106 44z" />
    <glyph glyph-name="ugrave" unicode="&#xf9;" horiz-adv-x="517" 
d="M402 0l0.000976562 80.0029h-2c-8 -16 -18 -29.333 -30 -40s-24.833 -19.334 -38.5 -26.001s-27.834 -11.5 -42.501 -14.5s-29 -4.5 -43 -4.5c-25.333 0 -49 3.83301 -71 11.5s-41.167 18.667 -57.5 33s-29.166 31.833 -38.499 52.5s-14 44 -14 70v334h44v-317
c0 -46.667 13.667 -82.334 41 -107.001s62.333 -37 105 -37c21.333 0 41 3.83301 59 11.5s33.667 18.5 47 32.5s23.666 30.667 30.999 50s11 40.666 11 63.999v303h42v-496h-43zM269.001 563.003l-100 147l49 19l78 -154z" />
    <glyph glyph-name="uacute" unicode="&#xfa;" horiz-adv-x="517" 
d="M402 0l0.000976562 80.0029h-2c-8 -16 -18 -29.333 -30 -40s-24.833 -19.334 -38.5 -26.001s-27.834 -11.5 -42.501 -14.5s-29 -4.5 -43 -4.5c-25.333 0 -49 3.83301 -71 11.5s-41.167 18.667 -57.5 33s-29.166 31.833 -38.499 52.5s-14 44 -14 70v334h44v-317
c0 -46.667 13.667 -82.334 41 -107.001s62.333 -37 105 -37c21.333 0 41 3.83301 59 11.5s33.667 18.5 47 32.5s23.666 30.667 30.999 50s11 40.666 11 63.999v303h42v-496h-43zM242.001 575.003l78 154l49 -19l-100 -147z" />
    <glyph glyph-name="ucircumflex" unicode="&#xfb;" horiz-adv-x="517" 
d="M402 0l0.000976562 80.0029h-2c-8 -16 -18 -29.333 -30 -40s-24.833 -19.334 -38.5 -26.001s-27.834 -11.5 -42.501 -14.5s-29 -4.5 -43 -4.5c-25.333 0 -49 3.83301 -71 11.5s-41.167 18.667 -57.5 33s-29.166 31.833 -38.499 52.5s-14 44 -14 70v334h44v-317
c0 -46.667 13.667 -82.334 41 -107.001s62.333 -37 105 -37c21.333 0 41 3.83301 59 11.5s33.667 18.5 47 32.5s23.666 30.667 30.999 50s11 40.666 11 63.999v303h42v-496h-43zM257.001 654.003l-127 -98l-21 21l131 124h37l127 -123l-22 -21z" />
    <glyph glyph-name="udieresis" unicode="&#xfc;" horiz-adv-x="517" 
d="M402 0l0.000976562 80.0029h-2c-8 -16 -18 -29.333 -30 -40s-24.833 -19.334 -38.5 -26.001s-27.834 -11.5 -42.501 -14.5s-29 -4.5 -43 -4.5c-25.333 0 -49 3.83301 -71 11.5s-41.167 18.667 -57.5 33s-29.166 31.833 -38.499 52.5s-14 44 -14 70v334h44v-317
c0 -46.667 13.667 -82.334 41 -107.001s62.333 -37 105 -37c21.333 0 41 3.83301 59 11.5s33.667 18.5 47 32.5s23.666 30.667 30.999 50s11 40.666 11 63.999v303h42v-496h-43zM318.001 608.003v54h55v-54h-55zM129.001 608.003v54h55v-54h-55z" />
    <glyph glyph-name="yacute" unicode="&#xfd;" horiz-adv-x="419" 
d="M197 -111c-10.667 -30.667 -26.3311 -53.167 -46.998 -67.5s-43 -21.5 -67 -21.5h-21v39h20c16.667 0 32.167 6 46.5 18s25.166 29.667 32.499 53l13.5 42c4.33301 14 9.16602 28 14.499 42l-92.5 249.5l-92.5 250.5h49l84 -233l36.5 -105l36.5 -105h2l17 48l27.5 78.5
l33 94l33 94l27.5 79l17 49.5h46zM213.003 563c-4.66699 2 -9.16699 3.83203 -13.5 5.49902s-8.83301 3.83398 -13.5 6.50098l79 153l23.5 -9.5l24.5 -9.5z" />
    <glyph glyph-name="thorn" unicode="&#xfe;" horiz-adv-x="497" 
d="M102 696l0.000976562 -284.001h1c10.667 18 22.167 32.833 34.5 44.5s25 20.834 38 27.501s26.167 11.334 39.5 14.001s26.666 4 39.999 4c34.667 0 64 -6.83301 88 -20.5s43.167 -32.167 57.5 -55.5s24.666 -50.5 30.999 -81.5s9.5 -63.5 9.5 -97.5
c0 -30.667 -3 -61 -9 -91s-16.167 -57 -30.5 -81s-33.833 -43.333 -58.5 -58s-55.667 -22 -93 -22c-38 0 -68.167 8.16699 -90.5 24.5s-41.166 37.166 -56.499 62.499h-1v-281h-44v895h44zM102.001 249.999c0 -28 2.33008 -54.832 6.99707 -80.499s12.667 -48.5 24 -68.5
s26.333 -35.833 45 -47.5s41.667 -17.5 69 -17.5c31.333 0 56.666 6.66699 75.999 20s34.333 30.166 45 50.499s17.834 43 21.501 68s5.5 49.5 5.5 73.5c0 22.667 -1.66699 46.5 -5 71.5s-10.166 48 -20.499 69s-25.166 38.5 -44.499 52.5s-45.333 21 -78 21
c-31.333 0 -56.5 -7 -75.5 -21s-33.667 -31.667 -44 -53s-17.166 -44.333 -20.499 -69s-5 -47.667 -5 -69z" />
    <glyph glyph-name="ydieresis" unicode="&#xff;" horiz-adv-x="419" 
d="M197 -111c-10.667 -30.667 -26.3311 -53.167 -46.998 -67.5s-43 -21.5 -67 -21.5h-21v39h20c16.667 0 32.167 6 46.5 18s25.166 29.667 32.499 53l13.5 42c4.33301 14 9.16602 28 14.499 42l-92.5 249.5l-92.5 250.5h49l84 -233l36.5 -105l36.5 -105h2l17 48l27.5 78.5
l33 94l33 94l27.5 79l17 49.5h46zM283.003 661h55v-53h-55v53zM94.0029 661h54v-53h-54v53z" />
    <glyph glyph-name="Amacron" unicode="&#x100;" horiz-adv-x="585" 
d="M459 170h-335l-60 -170h-50l253 696h49l127.5 -348l126.5 -348h-51zM290 639l-15.5 -42.999l-26.5 -75.5l-32.5 -92.5l-33 -92.5l-27.5 -77.5c-8 -22.667 -13.667 -38.334 -17 -47.001h307l-90 254l-31.5 87l-30.5 87h-3zM164 810.001h254v-41h-254v41z" />
    <glyph glyph-name="amacron" unicode="&#x101;" horiz-adv-x="474" 
d="M376 54c-8 -12 -17.8301 -22.001 -29.4971 -30.001s-24.834 -14.167 -39.501 -18.5s-30.334 -7.33301 -47.001 -9s-33.334 -2.5 -50.001 -2.5c-24 0 -46.5 2.83301 -67.5 8.5s-39.333 14.334 -55 26.001s-28.167 26.334 -37.5 44.001s-14 38.5 -14 62.5
c0 40 13.333 73.167 40 99.5s66.334 39.5 119.001 39.5h182v71c0 36.667 -10.667 65 -32 85s-58.333 30 -111 30c-24.667 0 -48.834 -3.33301 -72.501 -10s-45.5 -19.334 -65.5 -38.001l-28 30c40.667 39.333 96.334 59 167.001 59c25.333 0 49.166 -2.16699 71.499 -6.5
s42 -12.333 59 -24s30.5 -27.5 40.5 -47.5s15 -45.333 15 -76v-347h-44v54h-1zM205.003 236.999c-40 0 -71.167 -8.16797 -93.5 -24.501s-33.5 -41.5 -33.5 -75.5s12.5 -60 37.5 -78s58.5 -27 100.5 -27c16 0 33.333 1.5 52 4.5s36.167 8.33301 52.5 16
s29.833 18.334 40.5 32.001s16 31.5 16 53.5v99h-172zM122.003 633.998h254v-41h-254v41z" />
    <glyph glyph-name="Abreve" unicode="&#x102;" horiz-adv-x="585" 
d="M459 170h-335l-60 -170h-50l253 696h49l127.5 -348l126.5 -348h-51zM290 639l-15.5 -42.999l-26.5 -75.5l-32.5 -92.5l-33 -92.5l-27.5 -77.5c-8 -22.667 -13.667 -38.334 -17 -47.001h307l-90 254l-31.5 87l-30.5 87h-3zM292 766.001
c24.667 0 44.9971 7.33301 60.9971 22s25.333 31.667 28 51h38c-2 -12.667 -5.66699 -25.5 -11 -38.5s-13 -24.833 -23 -35.5s-22.667 -19.334 -38 -26.001s-33.666 -10 -54.999 -10s-39.666 3.33301 -54.999 10s-28.166 15.334 -38.499 26.001s-18.166 22.5 -23.499 35.5
s-8.66602 25.833 -9.99902 38.5h38c3.33301 -19.333 13.166 -36.333 29.499 -51s36.166 -22 59.499 -22z" />
    <glyph glyph-name="abreve" unicode="&#x103;" horiz-adv-x="474" 
d="M376 54c-8 -12 -17.8301 -22.001 -29.4971 -30.001s-24.834 -14.167 -39.501 -18.5s-30.334 -7.33301 -47.001 -9s-33.334 -2.5 -50.001 -2.5c-24 0 -46.5 2.83301 -67.5 8.5s-39.333 14.334 -55 26.001s-28.167 26.334 -37.5 44.001s-14 38.5 -14 62.5
c0 40 13.333 73.167 40 99.5s66.334 39.5 119.001 39.5h182v71c0 36.667 -10.667 65 -32 85s-58.333 30 -111 30c-24.667 0 -48.834 -3.33301 -72.501 -10s-45.5 -19.334 -65.5 -38.001l-28 30c40.667 39.333 96.334 59 167.001 59c25.333 0 49.166 -2.16699 71.499 -6.5
s42 -12.333 59 -24s30.5 -27.5 40.5 -47.5s15 -45.333 15 -76v-347h-44v54h-1zM205.003 236.999c-40 0 -71.167 -8.16797 -93.5 -24.501s-33.5 -41.5 -33.5 -75.5s12.5 -60 37.5 -78s58.5 -27 100.5 -27c16 0 33.333 1.5 52 4.5s36.167 8.33301 52.5 16
s29.833 18.334 40.5 32.001s16 31.5 16 53.5v99h-172zM253.003 600.998c22 0 40.9951 5.83301 56.9951 17.5s26.667 30.167 32 55.5h38c-2 -12.667 -5.66699 -25.5 -11 -38.5s-13 -24.833 -23 -35.5s-22.667 -19.5 -38 -26.5s-33.666 -10.5 -54.999 -10.5
s-39.666 3.5 -54.999 10.5s-28.166 15.833 -38.499 26.5s-18.166 22.5 -23.499 35.5s-8.66602 25.833 -9.99902 38.5h39c3.33301 -22 13.5 -39.667 30.5 -53s36.167 -20 57.5 -20z" />
    <glyph glyph-name="Aogonek" unicode="&#x104;" horiz-adv-x="585" 
d="M476 -92c0 12.667 3.16797 27.334 9.50098 44.001s17.166 32.667 32.499 48l-59 170h-335l-60 -170h-50l253 696h49l127.5 -348l126.5 -348h-16c-12 -14 -21.5 -28.833 -28.5 -44.5s-10.5 -29.167 -10.5 -40.5c0 -18 5.16699 -31.333 15.5 -40s23.5 -13 39.5 -13
c16.667 0 35.667 5.33301 57 16l13 -29c-9.33301 -5.33301 -20.833 -10.333 -34.5 -15s-28.167 -7 -43.5 -7c-26.667 0 -47.667 8.16699 -63 24.5s-23 35.166 -23 56.499zM290.001 639l-15.5 -42.999l-26.5 -75.5l-32.5 -92.5l-33 -92.5l-27.5 -77.5
c-8 -22.667 -13.667 -38.334 -17 -47.001h307l-90 254l-31.5 87l-30.5 87h-3z" />
    <glyph glyph-name="aogonek" unicode="&#x105;" horiz-adv-x="474" 
d="M336 -92c0 12.667 3.16992 27.167 9.50293 43.5s16.833 32.5 31.5 48.5l-1 54c-8 -12 -17.833 -22 -29.5 -30s-24.834 -14.167 -39.501 -18.5s-30.334 -7.33301 -47.001 -9s-33.334 -2.5 -50.001 -2.5c-24 0 -46.5 2.83301 -67.5 8.5s-39.333 14.334 -55 26.001
s-28.167 26.334 -37.5 44.001s-14 38.5 -14 62.5c0 40 13.333 73.167 40 99.5s66.334 39.5 119.001 39.5h182v71c0 37.333 -10.667 65.833 -32 85.5s-58.333 29.5 -111 29.5c-24.667 0 -48.834 -3.33301 -72.501 -10s-45.5 -19.334 -65.5 -38.001l-28 30
c40.667 39.333 96.334 59 167.001 59c25.333 0 49.166 -2.16699 71.499 -6.5s42 -12.333 59 -24s30.5 -27.5 40.5 -47.5s15 -45.333 15 -76v-347c-13.333 -13.333 -24.333 -27.333 -33 -42s-13 -29 -13 -43c0 -18 5.16699 -31.333 15.5 -40s23.5 -13 39.5 -13
c16.667 0 35.667 5.33301 57 16l13 -29c-9.33301 -5.33301 -20.833 -10.333 -34.5 -15s-28.167 -7 -43.5 -7c-26.667 0 -47.667 8.16699 -63 24.5s-23 35.166 -23 56.499zM205.003 237c-40 0 -71.167 -8.16797 -93.5 -24.501s-33.5 -41.5 -33.5 -75.5s12.5 -60 37.5 -78
s58.5 -27 100.5 -27c16 0 33.333 1.5 52 4.5s36.167 8.33301 52.5 16s29.833 18.334 40.5 32.001s16 31.5 16 53.5v99h-172z" />
    <glyph glyph-name="Cacute" unicode="&#x106;" horiz-adv-x="528" 
d="M511 134c-17.333 -43.333 -44.8311 -77.667 -82.498 -103s-82.834 -38 -135.501 -38c-41.333 0 -77 6.83301 -107 20.5s-54.833 32 -74.5 55s-34.334 49.833 -44.001 80.5s-14.5 63 -14.5 97v207c0 33.333 5 65 15 95s25 56.333 45 79s45 40.667 75 54s65 20 105 20
c52 0 96.333 -11.833 133 -35.5s64 -55.167 82 -94.5l-42 -21c-14 31.333 -35.667 57.166 -65 77.499s-65 30.5 -107 30.5c-32.667 0 -61.167 -5.5 -85.5 -16.5s-44.666 -26 -60.999 -45s-28.5 -41 -36.5 -66s-12 -51.5 -12 -79.5v-206c0 -28 4 -54.5 12 -79.5
s20.167 -47.167 36.5 -66.5s36.666 -34.666 60.999 -45.999s52.833 -17 85.5 -17c42.667 0 78.5 10.5 107.5 31.5s51.5 49.5 67.5 85.5zM231.002 750.999l135 108l35 -37l-151 -93z" />
    <glyph glyph-name="cacute" unicode="&#x107;" horiz-adv-x="414" 
d="M395 49c-19.333 -17.333 -41 -30.999 -65 -40.999s-50.667 -15 -80 -15c-27.333 0 -54.166 4.5 -80.499 13.5s-49.833 23.5 -70.5 43.5s-37.334 46.167 -50.001 78.5s-19 71.833 -19 118.5s6.33301 86.167 19 118.5s29.334 58.5 50.001 78.5s44.167 34.5 70.5 43.5
s53.166 13.5 80.499 13.5c29.333 0 56 -4.83301 80 -14.5s45.667 -22.834 65 -39.501l-28 -33c-13.333 13.333 -29.833 24.5 -49.5 33.5s-40.167 13.5 -61.5 13.5c-58.667 0 -103.667 -18.333 -135 -55s-47 -89.667 -47 -159s15.667 -122.5 47 -159.5
s76.333 -55.5 135 -55.5c21.333 0 41.833 5 61.5 15s36.167 20.667 49.5 32zM208 575.001l78 154l49 -19l-100 -147z" />
    <glyph glyph-name="Ccircumflex" unicode="&#x108;" horiz-adv-x="528" 
d="M511 134c-17.333 -43.333 -44.8311 -77.667 -82.498 -103s-82.834 -38 -135.501 -38c-41.333 0 -77 6.83301 -107 20.5s-54.833 32 -74.5 55s-34.334 49.833 -44.001 80.5s-14.5 63 -14.5 97v207c0 33.333 5 65 15 95s25 56.333 45 79s45 40.667 75 54s65 20 105 20
c52 0 96.333 -11.833 133 -35.5s64 -55.167 82 -94.5l-42 -21c-14 31.333 -35.667 57.166 -65 77.499s-65 30.5 -107 30.5c-32.667 0 -61.167 -5.5 -85.5 -16.5s-44.666 -26 -60.999 -45s-28.5 -41 -36.5 -66s-12 -51.5 -12 -79.5v-206c0 -28 4 -54.5 12 -79.5
s20.167 -47.167 36.5 -66.5s36.666 -34.666 60.999 -45.999s52.833 -17 85.5 -17c42.667 0 78.5 10.5 107.5 31.5s51.5 49.5 67.5 85.5zM293.002 813.999l-130 -84l-18 21l131 109h37l127 -108l-18 -21z" />
    <glyph glyph-name="ccircumflex" unicode="&#x109;" horiz-adv-x="414" 
d="M395 49c-19.333 -17.333 -41 -30.999 -65 -40.999s-50.667 -15 -80 -15c-27.333 0 -54.166 4.5 -80.499 13.5s-49.833 23.5 -70.5 43.5s-37.334 46.167 -50.001 78.5s-19 71.833 -19 118.5s6.33301 86.167 19 118.5s29.334 58.5 50.001 78.5s44.167 34.5 70.5 43.5
s53.166 13.5 80.499 13.5c29.333 0 56 -4.83301 80 -14.5s45.667 -22.834 65 -39.501l-28 -33c-13.333 13.333 -29.833 24.5 -49.5 33.5s-40.167 13.5 -61.5 13.5c-58.667 0 -103.667 -18.333 -135 -55s-47 -89.667 -47 -159s15.667 -122.5 47 -159.5
s76.333 -55.5 135 -55.5c21.333 0 41.833 5 61.5 15s36.167 20.667 49.5 32zM236 654.001l-127 -98l-21 21l132 124h37l126 -123l-21 -21z" />
    <glyph glyph-name="Cdotaccent" unicode="&#x10a;" horiz-adv-x="528" 
d="M511 134c-17.333 -43.333 -44.8311 -77.667 -82.498 -103s-82.834 -38 -135.501 -38c-41.333 0 -77 6.83301 -107 20.5s-54.833 32 -74.5 55s-34.334 49.833 -44.001 80.5s-14.5 63 -14.5 97v207c0 33.333 5 65 15 95s25 56.333 45 79s45 40.667 75 54s65 20 105 20
c52 0 96.333 -11.833 133 -35.5s64 -55.167 82 -94.5l-42 -21c-14 31.333 -35.667 57.166 -65 77.499s-65 30.5 -107 30.5c-32.667 0 -61.167 -5.5 -85.5 -16.5s-44.666 -26 -60.999 -45s-28.5 -41 -36.5 -66s-12 -51.5 -12 -79.5v-206c0 -28 4 -54.5 12 -79.5
s20.167 -47.167 36.5 -66.5s36.666 -34.666 60.999 -45.999s52.833 -17 85.5 -17c42.667 0 78.5 10.5 107.5 31.5s51.5 49.5 67.5 85.5zM261.002 764.999v53h55v-53h-55z" />
    <glyph glyph-name="cdotaccent" unicode="&#x10b;" horiz-adv-x="414" 
d="M395 49c-19.333 -17.333 -41 -30.999 -65 -40.999s-50.667 -15 -80 -15c-27.333 0 -54.166 4.5 -80.499 13.5s-49.833 23.5 -70.5 43.5s-37.334 46.167 -50.001 78.5s-19 71.833 -19 118.5s6.33301 86.167 19 118.5s29.334 58.5 50.001 78.5s44.167 34.5 70.5 43.5
s53.166 13.5 80.499 13.5c29.333 0 56 -4.83301 80 -14.5s45.667 -22.834 65 -39.501l-28 -33c-13.333 13.333 -29.833 24.5 -49.5 33.5s-40.167 13.5 -61.5 13.5c-58.667 0 -103.667 -18.333 -135 -55s-47 -89.667 -47 -159s15.667 -122.5 47 -159.5
s76.333 -55.5 135 -55.5c21.333 0 41.833 5 61.5 15s36.167 20.667 49.5 32zM218 608.001v54h54v-54h-54z" />
    <glyph glyph-name="Ccaron" unicode="&#x10c;" horiz-adv-x="528" 
d="M511 134c-17.333 -43.333 -44.8311 -77.667 -82.498 -103s-82.834 -38 -135.501 -38c-41.333 0 -77 6.83301 -107 20.5s-54.833 32 -74.5 55s-34.334 49.833 -44.001 80.5s-14.5 63 -14.5 97v207c0 33.333 5 65 15 95s25 56.333 45 79s45 40.667 75 54s65 20 105 20
c52 0 96.333 -11.833 133 -35.5s64 -55.167 82 -94.5l-42 -21c-14 31.333 -35.667 57.166 -65 77.499s-65 30.5 -107 30.5c-32.667 0 -61.167 -5.5 -85.5 -16.5s-44.666 -26 -60.999 -45s-28.5 -41 -36.5 -66s-12 -51.5 -12 -79.5v-206c0 -28 4 -54.5 12 -79.5
s20.167 -47.167 36.5 -66.5s36.666 -34.666 60.999 -45.999s52.833 -17 85.5 -17c42.667 0 78.5 10.5 107.5 31.5s51.5 49.5 67.5 85.5zM418.002 860.999l18 -21l-126 -109h-37l-131 110l17 21l130 -84z" />
    <glyph glyph-name="ccaron" unicode="&#x10d;" horiz-adv-x="414" 
d="M395 49c-19.333 -17.333 -41 -30.999 -65 -40.999s-50.667 -15 -80 -15c-27.333 0 -54.166 4.5 -80.499 13.5s-49.833 23.5 -70.5 43.5s-37.334 46.167 -50.001 78.5s-19 71.833 -19 118.5s6.33301 86.167 19 118.5s29.334 58.5 50.001 78.5s44.167 34.5 70.5 43.5
s53.166 13.5 80.499 13.5c29.333 0 56 -4.83301 80 -14.5s45.667 -22.834 65 -39.501l-28 -33c-13.333 13.333 -29.833 24.5 -49.5 33.5s-40.167 13.5 -61.5 13.5c-58.667 0 -103.667 -18.333 -135 -55s-47 -89.667 -47 -159s15.667 -122.5 47 -159.5
s76.333 -55.5 135 -55.5c21.333 0 41.833 5 61.5 15s36.167 20.667 49.5 32zM367 701.001l21 -20l-126 -124h-37l-131 124l21 21l126 -97z" />
    <glyph glyph-name="Dcaron" unicode="&#x10e;" horiz-adv-x="606" 
d="M391 861l18 -21l-126 -109h-37l-132 110l18 21l130 -84zM303 696c52 0 96.999 -9.83203 134.999 -29.499s67.667 -51.834 89 -96.501c11.333 -24.667 18.333 -54.667 21 -90s4 -75 4 -119c0 -50 -1.16699 -93.667 -3.5 -131s-9.16602 -69.333 -20.499 -96
c-22 -50 -53.167 -84.833 -93.5 -104.5s-88.833 -29.5 -145.5 -29.5h-210v696h224zM504.999 417.001c0 44.667 -5 82.001 -15 112.001s-24 54.167 -42 72.5s-39.833 31.5 -65.5 39.5s-54.5 12 -86.5 12h-170v-610h170c39.333 0 72.333 5.66699 99 17s48.167 27.333 64.5 48
s28 45.167 35 73.5s10.5 59.166 10.5 92.499v143z" />
    <glyph glyph-name="dcaron" unicode="&#x10f;" horiz-adv-x="567" 
d="M502 565h-28l28 92h-18v66h60v-68zM374 0l-0.000976562 85.999h-2c-11.333 -20 -23.166 -36.167 -35.499 -48.5s-25 -21.833 -38 -28.5s-26.167 -11 -39.5 -13s-26.333 -3 -39 -3c-35.333 0 -64.833 6.83301 -88.5 20.5s-42.667 32.167 -57 55.5
s-24.666 50.5 -30.999 81.5s-9.5 63.5 -9.5 97.5c0 30.667 3 61.167 9 91.5s16.167 57.333 30.5 81s33.833 42.834 58.5 57.501s55.667 22 93 22c20.667 0 38.5 -2.33301 53.5 -7s28.333 -11 40 -19s21.667 -17.333 30 -28s16.166 -21.667 23.499 -33h2v310h43v-723h-43z
M373.999 244.999c0 28 -2.50195 55 -7.50195 81s-13.167 49 -24.5 69s-26.333 35.833 -45 47.5s-41.667 17.5 -69 17.5c-31.333 0 -56.666 -6.66699 -75.999 -20s-34.333 -30.333 -45 -51s-17.834 -43.5 -21.501 -68.5s-5.5 -49.5 -5.5 -73.5c0 -22 1.5 -45.5 4.5 -70.5
s9.66699 -48 20 -69s25.333 -38.5 45 -52.5s45.834 -21 78.501 -21c30.667 0 55.5 7 74.5 21s33.833 31.5 44.5 52.5s17.834 43.833 21.501 68.5s5.5 47.667 5.5 69z" />
    <glyph glyph-name="Dcroat" unicode="&#x110;" horiz-adv-x="606" 
d="M303 696c52 0 96.999 -9.83203 134.999 -29.499s67.667 -51.834 89 -96.501c11.333 -24.667 18.333 -54.667 21 -90s4 -75 4 -119c0 -50 -1.16699 -93.667 -3.5 -131s-9.16602 -69.333 -20.499 -96c-22 -50 -53.167 -84.833 -93.5 -104.5s-88.833 -29.5 -145.5 -29.5
h-210v353h-66v36h66v307h224zM504.999 417.001c0 44.667 -5 82.001 -15 112.001s-24 54.167 -42 72.5s-39.833 31.5 -65.5 39.5s-54.5 12 -86.5 12h-170v-264h150v-36h-150v-310h170c39.333 0 72.333 5.66699 99 17s48.167 27.333 64.5 48s28 45.167 35 73.5
s10.5 59.166 10.5 92.499v143z" />
    <glyph glyph-name="dcroat" unicode="&#x111;" horiz-adv-x="465" 
d="M246 612l127.999 -0.000976562v111h43v-111h56v-32h-56v-580h-43v86h-2c-11.333 -20 -23.166 -36.167 -35.499 -48.5s-25 -21.833 -38 -28.5s-26.167 -11 -39.5 -13s-26.333 -3 -39 -3c-35.333 0 -64.833 6.83301 -88.5 20.5s-42.667 32.167 -57 55.5
s-24.666 50.5 -30.999 81.5s-9.5 63.5 -9.5 97.5c0 30.667 3 61.167 9 91.5s16.167 57.333 30.5 81s33.833 42.834 58.5 57.501s55.667 22 93 22c20.667 0 38.5 -2.33301 53.5 -7s28.333 -11 40 -19s21.667 -17.333 30 -28s16.166 -21.667 23.499 -33h2v167h-128v32z
M373.999 244.999c0 28 -2.50195 55 -7.50195 81s-13.167 49 -24.5 69s-26.333 35.833 -45 47.5s-41.667 17.5 -69 17.5c-31.333 0 -56.666 -6.66699 -75.999 -20s-34.333 -30.333 -45 -51s-17.834 -43.5 -21.501 -68.5s-5.5 -49.5 -5.5 -73.5c0 -22 1.5 -45.5 4.5 -70.5
s9.66699 -48 20 -69s25.333 -38.5 45 -52.5s45.834 -21 78.501 -21c30.667 0 55.5 7 74.5 21s33.833 31.5 44.5 52.5s17.834 43.833 21.501 68.5s5.5 47.667 5.5 69z" />
    <glyph glyph-name="Emacron" unicode="&#x112;" horiz-adv-x="528" 
d="M79 0v696h422v-43h-375v-279h320v-42h-320v-289h375v-43h-422zM165 769v41h255v-41h-255z" />
    <glyph glyph-name="emacron" unicode="&#x113;" horiz-adv-x="474" 
d="M85 241c-0.666992 -28 1.83398 -54.8359 7.50098 -80.5029s15.167 -48 28.5 -67s31 -34.167 53 -45.5s49 -17 81 -17c20 0 40.5 3.66699 61.5 11s40.167 17.333 57.5 30l27 -30c-21.333 -17.333 -44.166 -29.833 -68.499 -37.5s-49.5 -11.5 -75.5 -11.5
c-25.333 0 -50.666 3.33301 -75.999 10s-48.166 19.334 -68.499 38.001s-37 44.334 -50 77.001s-19.5 75 -19.5 127c0 50 6 91.5 18 124.5s27.667 59.333 47 79s40.666 33.334 63.999 41.001s46.666 11.5 69.999 11.5c32.667 0 61.167 -5.83301 85.5 -17.5
s44.666 -27.5 60.999 -47.5s28.666 -43.833 36.999 -71.5s12.5 -57.5 12.5 -89.5v-34h-353zM392.001 276.997c-2 62.667 -16.167 109.167 -42.5 139.5s-61.833 45.5 -106.5 45.5c-47.333 0 -84.5 -16 -111.5 -48s-42.167 -77.667 -45.5 -137h306zM120.001 592.997v41h255
v-41h-255z" />
    <glyph glyph-name="Ebreve" unicode="&#x114;" horiz-adv-x="528" 
d="M79 0v696h422v-43h-375v-279h320v-42h-320v-289h375v-43h-422zM200 840c3.33301 -19.333 13.3262 -36.333 29.9932 -51s36.334 -22 59.001 -22c25.333 0 45.833 7.33301 61.5 22s24.834 31.667 27.501 51h38c-2 -12.667 -5.66699 -25.5 -11 -38.5s-13 -24.833 -23 -35.5
s-22.667 -19.334 -38 -26.001s-33.666 -10 -54.999 -10s-39.666 3.33301 -54.999 10s-28.166 15.334 -38.499 26.001s-18.166 22.5 -23.499 35.5s-8.66602 25.833 -9.99902 38.5h38z" />
    <glyph glyph-name="ebreve" unicode="&#x115;" horiz-adv-x="474" 
d="M85 241c-0.666992 -28 1.83398 -54.8359 7.50098 -80.5029s15.167 -48 28.5 -67s31 -34.167 53 -45.5s49 -17 81 -17c20 0 40.5 3.66699 61.5 11s40.167 17.333 57.5 30l27 -30c-21.333 -17.333 -44.166 -29.833 -68.499 -37.5s-49.5 -11.5 -75.5 -11.5
c-25.333 0 -50.666 3.33301 -75.999 10s-48.166 19.334 -68.499 38.001s-37 44.334 -50 77.001s-19.5 75 -19.5 127c0 50 6 91.5 18 124.5s27.667 59.333 47 79s40.666 33.334 63.999 41.001s46.666 11.5 69.999 11.5c32.667 0 61.167 -5.83301 85.5 -17.5
s44.666 -27.5 60.999 -47.5s28.666 -43.833 36.999 -71.5s12.5 -57.5 12.5 -89.5v-34h-353zM392.001 276.997c-2 62.667 -16.167 109.167 -42.5 139.5s-61.833 45.5 -106.5 45.5c-47.333 0 -84.5 -16 -111.5 -48s-42.167 -77.667 -45.5 -137h306zM153.001 673.997
c4 -22 14.4971 -39.667 31.4971 -53s36.167 -20 57.5 -20c22 0 40.833 5.83301 56.5 17.5s26.167 30.167 31.5 55.5h39c-2 -12.667 -5.66699 -25.5 -11 -38.5s-13 -24.833 -23 -35.5s-22.667 -19.334 -38 -26.001s-33.666 -10 -54.999 -10s-39.666 3.33301 -54.999 10
s-28.333 15.334 -39 26.001s-18.667 22.5 -24 35.5s-8.66602 25.833 -9.99902 38.5h39z" />
    <glyph glyph-name="Edotaccent" unicode="&#x116;" horiz-adv-x="528" 
d="M79 0v696h422v-43h-375v-279h320v-42h-320v-289h375v-43h-422zM258 765v53h54v-53h-54z" />
    <glyph glyph-name="edotaccent" unicode="&#x117;" horiz-adv-x="474" 
d="M85 241c-0.666992 -28 1.83398 -54.8359 7.50098 -80.5029s15.167 -48 28.5 -67s31 -34.167 53 -45.5s49 -17 81 -17c20 0 40.5 3.66699 61.5 11s40.167 17.333 57.5 30l27 -30c-21.333 -17.333 -44.166 -29.833 -68.499 -37.5s-49.5 -11.5 -75.5 -11.5
c-25.333 0 -50.666 3.33301 -75.999 10s-48.166 19.334 -68.499 38.001s-37 44.334 -50 77.001s-19.5 75 -19.5 127c0 50 6 91.5 18 124.5s27.667 59.333 47 79s40.666 33.334 63.999 41.001s46.666 11.5 69.999 11.5c32.667 0 61.167 -5.83301 85.5 -17.5
s44.666 -27.5 60.999 -47.5s28.666 -43.833 36.999 -71.5s12.5 -57.5 12.5 -89.5v-34h-353zM392.001 276.997c-2 62.667 -16.167 109.167 -42.5 139.5s-61.833 45.5 -106.5 45.5c-47.333 0 -84.5 -16 -111.5 -48s-42.167 -77.667 -45.5 -137h306zM216.001 607.997v54h55v-54
h-55z" />
    <glyph glyph-name="Eogonek" unicode="&#x118;" horiz-adv-x="528" 
d="M423 -93c0 13.333 3 28 9 44s16.667 32.333 32 49h-385v696h422v-43h-375v-279h320v-42h-320v-289h375v-43c-12 -14.667 -21.5 -29.834 -28.5 -45.501s-10.5 -29.167 -10.5 -40.5c0 -18 5.16699 -31.167 15.5 -39.5s23.5 -12.5 39.5 -12.5c16.667 0 35.667 5.33301 57 16
l13 -30c-9.33301 -5.33301 -21 -10.166 -35 -14.499s-28.333 -6.5 -43 -6.5c-26.667 0 -47.667 8 -63 24s-23 34.667 -23 56z" />
    <glyph glyph-name="eogonek" unicode="&#x119;" horiz-adv-x="474" 
d="M306 -64c0 9.33301 1.83496 19.9971 5.50195 31.9971s9.16699 24 16.5 36c-24 -7.33301 -47.667 -11 -71 -11c-25.333 0 -50.666 3.33301 -75.999 10s-48.166 19.334 -68.499 38.001s-37 44.334 -50 77.001s-19.5 75 -19.5 127c0 50 6 91.5 18 124.5s27.667 59.333 47 79
s40.666 33.334 63.999 41.001s46.666 11.5 69.999 11.5c32.667 0 61.167 -5.83301 85.5 -17.5s44.666 -27.5 60.999 -47.5s28.666 -43.833 36.999 -71.5s12.5 -57.5 12.5 -89.5v-34h-353c-0.666992 -28 1.83301 -54.833 7.5 -80.5s15.167 -48 28.5 -67s31 -34.167 53 -45.5
s49 -17 81 -17c20 0 40.5 3.66699 61.5 11s40.167 17.333 57.5 30l27 -30c-2 -2 -4.5 -4 -7.5 -6s-6.16699 -4.33301 -9.5 -7c-12 -14.667 -21.5 -29.834 -28.5 -45.501s-10.5 -29.167 -10.5 -40.5c0 -18 5.16699 -31.167 15.5 -39.5s23.5 -12.5 39.5 -12.5
c16.667 0 35.667 5.33301 57 16l13 -30c-9.33301 -5.33301 -20.833 -10.166 -34.5 -14.499s-28.167 -6.5 -43.5 -6.5c-26.667 0 -47.667 8 -63 24s-23 34.667 -23 56zM392.002 276.997c-2 62.667 -16.167 109.167 -42.5 139.5s-61.833 45.5 -106.5 45.5
c-47.333 0 -84.5 -16 -111.5 -48s-42.167 -77.667 -45.5 -137h306z" />
    <glyph glyph-name="Ecaron" unicode="&#x11a;" horiz-adv-x="528" 
d="M79 0v696h422v-43h-375v-279h320v-42h-320v-289h375v-43h-422zM413 861l18 -21l-126 -109h-37l-131 110l17 21l130 -84z" />
    <glyph glyph-name="ecaron" unicode="&#x11b;" horiz-adv-x="474" 
d="M85 241c-0.666992 -28 1.83398 -54.8359 7.50098 -80.5029s15.167 -48 28.5 -67s31 -34.167 53 -45.5s49 -17 81 -17c20 0 40.5 3.66699 61.5 11s40.167 17.333 57.5 30l27 -30c-21.333 -17.333 -44.166 -29.833 -68.499 -37.5s-49.5 -11.5 -75.5 -11.5
c-25.333 0 -50.666 3.33301 -75.999 10s-48.166 19.334 -68.499 38.001s-37 44.334 -50 77.001s-19.5 75 -19.5 127c0 50 6 91.5 18 124.5s27.667 59.333 47 79s40.666 33.334 63.999 41.001s46.666 11.5 69.999 11.5c32.667 0 61.167 -5.83301 85.5 -17.5
s44.666 -27.5 60.999 -47.5s28.666 -43.833 36.999 -71.5s12.5 -57.5 12.5 -89.5v-34h-353zM392.001 276.997c-2 62.667 -16.167 109.167 -42.5 139.5s-61.833 45.5 -106.5 45.5c-47.333 0 -84.5 -16 -111.5 -48s-42.167 -77.667 -45.5 -137h306zM371.001 700.997l21 -20
l-126 -124h-37l-131 124l21 21l126 -97z" />
    <glyph glyph-name="Gcircumflex" unicode="&#x11c;" horiz-adv-x="585" 
d="M292 34c30 0 56.833 5.49902 80.5 16.499s43.834 25.5 60.501 43.5s29.5 39 38.5 63s13.5 49 13.5 75v78h-157v42h204v-111c0 -34.667 -5.5 -67.167 -16.5 -97.5s-26.833 -56.666 -47.5 -78.999s-46 -39.833 -76 -52.5s-63.667 -19 -101 -19
c-41.333 0 -77 6.83301 -107 20.5s-54.833 32 -74.5 55s-34.334 49.833 -44.001 80.5s-14.5 63 -14.5 97v207c0 33.333 5 65 15 95s25 56.333 45 79s45 40.667 75 54s65 20 105 20c52 0 96.5 -11.833 133.5 -35.5s64.167 -55.167 81.5 -94.5c-1.33301 -1.33301 -4 -3 -8 -5
s-8.33301 -4 -13 -6s-9 -4 -13 -6l-8 -4c-14 31.333 -35.667 57.166 -65 77.499s-65 30.5 -107 30.5c-32.667 0 -61.167 -5.5 -85.5 -16.5s-44.666 -26 -60.999 -45s-28.5 -41 -36.5 -66s-12 -51.5 -12 -79.5v-208c0 -28 4 -54.5 12 -79.5s20.167 -47.167 36.5 -66.5
s36.666 -34.666 60.999 -45.999s52.833 -17 85.5 -17zM292 813.999l-130 -84l-18 21l132 109h37l126 -108l-18 -21z" />
    <glyph glyph-name="gcircumflex" unicode="&#x11d;" horiz-adv-x="498" 
d="M432 3c0 -37.333 -5.66699 -69.333 -17 -96s-26.833 -48.334 -46.5 -65.001s-42.167 -28.834 -67.5 -36.501s-52 -11.5 -80 -11.5c-23.333 0 -46.5 4 -69.5 12s-44.167 20.333 -63.5 37l28 33c14 -11.333 30.333 -21.166 49 -29.499s38.667 -12.5 60 -12.5
c22.667 0 44 3.5 64 10.5s37.333 17.167 52 30.5s26.167 29.666 34.5 48.999s12.5 41.666 12.5 66.999l1 99h-2c-16 -29.333 -36.333 -52.5 -61 -69.5s-56 -25.5 -94 -25.5c-36 0 -65.833 7.16699 -89.5 21.5s-42.5 33.333 -56.5 57s-23.833 50.334 -29.5 80.001
s-8.5 59.834 -8.5 90.501c0 33.333 3 65.5 9 96.5s16.167 58.333 30.5 82s33.166 42.667 56.499 57s52.666 21.5 87.999 21.5c12.667 0 25.834 -1 39.501 -3s27.334 -6.16699 41.001 -12.5s27 -15.166 40 -26.499s24.5 -26.333 34.5 -45h1v82h43zM93 247
c0 -24 2.00391 -48.3311 6.00391 -72.998s11.5 -47.334 22.5 -68.001s26.167 -37.5 45.5 -50.5s44.666 -19.5 75.999 -19.5c26.667 0 49.167 5.83301 67.5 17.5s33.333 27.5 45 47.5s20 43 25 69s7.5 53 7.5 81c0 21.333 -1.83301 44.166 -5.5 68.499s-10.834 47 -21.501 68
s-25.5 38.5 -44.5 52.5s-43.5 21 -73.5 21c-32.667 0 -58.834 -7 -78.501 -21s-34.834 -31.5 -45.501 -52.5s-17.667 -44 -21 -69s-5 -48.833 -5 -71.5zM242.004 654.002l-127 -98l-21 21l132 124h37l126 -123l-21 -21z" />
    <glyph glyph-name="Gbreve" unicode="&#x11e;" horiz-adv-x="585" 
d="M292 34c30 0 56.833 5.49902 80.5 16.499s43.834 25.5 60.501 43.5s29.5 39 38.5 63s13.5 49 13.5 75v78h-157v42h204v-111c0 -34.667 -5.5 -67.167 -16.5 -97.5s-26.833 -56.666 -47.5 -78.999s-46 -39.833 -76 -52.5s-63.667 -19 -101 -19
c-41.333 0 -77 6.83301 -107 20.5s-54.833 32 -74.5 55s-34.334 49.833 -44.001 80.5s-14.5 63 -14.5 97v207c0 33.333 5 65 15 95s25 56.333 45 79s45 40.667 75 54s65 20 105 20c52 0 96.5 -11.833 133.5 -35.5s64.167 -55.167 81.5 -94.5c-1.33301 -1.33301 -4 -3 -8 -5
s-8.33301 -4 -13 -6s-9 -4 -13 -6l-8 -4c-14 31.333 -35.667 57.166 -65 77.499s-65 30.5 -107 30.5c-32.667 0 -61.167 -5.5 -85.5 -16.5s-44.666 -26 -60.999 -45s-28.5 -41 -36.5 -66s-12 -51.5 -12 -79.5v-208c0 -28 4 -54.5 12 -79.5s20.167 -47.167 36.5 -66.5
s36.666 -34.666 60.999 -45.999s52.833 -17 85.5 -17zM204 839.999c3.33301 -19.333 13.1631 -36.333 29.4961 -51s36.166 -22 59.499 -22c24.667 0 44.834 7.33301 60.501 22s24.834 31.667 27.501 51h39c-2 -12.667 -5.66699 -25.5 -11 -38.5s-13 -24.833 -23 -35.5
s-22.667 -19.334 -38 -26.001s-33.666 -10 -54.999 -10s-39.666 3.33301 -54.999 10s-28.333 15.334 -39 26.001s-18.667 22.5 -24 35.5s-8.66602 25.833 -9.99902 38.5h39z" />
    <glyph glyph-name="gbreve" unicode="&#x11f;" horiz-adv-x="498" 
d="M432 3c0 -37.333 -5.66699 -69.333 -17 -96s-26.833 -48.334 -46.5 -65.001s-42.167 -28.834 -67.5 -36.501s-52 -11.5 -80 -11.5c-23.333 0 -46.5 4 -69.5 12s-44.167 20.333 -63.5 37l28 33c14 -11.333 30.333 -21.166 49 -29.499s38.667 -12.5 60 -12.5
c22.667 0 44 3.5 64 10.5s37.333 17.167 52 30.5s26.167 29.666 34.5 48.999s12.5 41.666 12.5 66.999l1 99h-2c-16 -29.333 -36.333 -52.5 -61 -69.5s-56 -25.5 -94 -25.5c-36 0 -65.833 7.16699 -89.5 21.5s-42.5 33.333 -56.5 57s-23.833 50.334 -29.5 80.001
s-8.5 59.834 -8.5 90.501c0 33.333 3 65.5 9 96.5s16.167 58.333 30.5 82s33.166 42.667 56.499 57s52.666 21.5 87.999 21.5c12.667 0 25.834 -1 39.501 -3s27.334 -6.16699 41.001 -12.5s27 -15.166 40 -26.499s24.5 -26.333 34.5 -45h1v82h43zM93 247
c0 -24 2.00391 -48.3311 6.00391 -72.998s11.5 -47.334 22.5 -68.001s26.167 -37.5 45.5 -50.5s44.666 -19.5 75.999 -19.5c26.667 0 49.167 5.83301 67.5 17.5s33.333 27.5 45 47.5s20 43 25 69s7.5 53 7.5 81c0 21.333 -1.83301 44.166 -5.5 68.499s-10.834 47 -21.501 68
s-25.5 38.5 -44.5 52.5s-43.5 21 -73.5 21c-32.667 0 -58.834 -7 -78.501 -21s-34.834 -31.5 -45.501 -52.5s-17.667 -44 -21 -69s-5 -48.833 -5 -71.5zM165.004 674.002c4 -22 14.498 -39.667 31.498 -53s36.167 -20 57.5 -20c22 0 40.833 5.83301 56.5 17.5
s26.167 30.167 31.5 55.5h39c-2 -12.667 -5.83301 -25.5 -11.5 -38.5s-13.5 -24.833 -23.5 -35.5s-22.667 -19.334 -38 -26.001s-33.333 -10 -54 -10c-21.333 0 -39.666 3.33301 -54.999 10s-28.333 15.334 -39 26.001s-18.667 22.5 -24 35.5s-8.66602 25.833 -9.99902 38.5
h39z" />
    <glyph glyph-name="Gdotaccent" unicode="&#x120;" horiz-adv-x="585" 
d="M292 34c30 0 56.833 5.49902 80.5 16.499s43.834 25.5 60.501 43.5s29.5 39 38.5 63s13.5 49 13.5 75v78h-157v42h204v-111c0 -34.667 -5.5 -67.167 -16.5 -97.5s-26.833 -56.666 -47.5 -78.999s-46 -39.833 -76 -52.5s-63.667 -19 -101 -19
c-41.333 0 -77 6.83301 -107 20.5s-54.833 32 -74.5 55s-34.334 49.833 -44.001 80.5s-14.5 63 -14.5 97v207c0 33.333 5 65 15 95s25 56.333 45 79s45 40.667 75 54s65 20 105 20c52 0 96.5 -11.833 133.5 -35.5s64.167 -55.167 81.5 -94.5c-1.33301 -1.33301 -4 -3 -8 -5
s-8.33301 -4 -13 -6s-9 -4 -13 -6l-8 -4c-14 31.333 -35.667 57.166 -65 77.499s-65 30.5 -107 30.5c-32.667 0 -61.167 -5.5 -85.5 -16.5s-44.666 -26 -60.999 -45s-28.5 -41 -36.5 -66s-12 -51.5 -12 -79.5v-208c0 -28 4 -54.5 12 -79.5s20.167 -47.167 36.5 -66.5
s36.666 -34.666 60.999 -45.999s52.833 -17 85.5 -17zM263 764.999v53h55v-53h-55z" />
    <glyph glyph-name="gdotaccent" unicode="&#x121;" horiz-adv-x="498" 
d="M432 3c0 -37.333 -5.66699 -69.333 -17 -96s-26.833 -48.334 -46.5 -65.001s-42.167 -28.834 -67.5 -36.501s-52 -11.5 -80 -11.5c-23.333 0 -46.5 4 -69.5 12s-44.167 20.333 -63.5 37l28 33c14 -11.333 30.333 -21.166 49 -29.499s38.667 -12.5 60 -12.5
c22.667 0 44 3.5 64 10.5s37.333 17.167 52 30.5s26.167 29.666 34.5 48.999s12.5 41.666 12.5 66.999l1 99h-2c-16 -29.333 -36.333 -52.5 -61 -69.5s-56 -25.5 -94 -25.5c-36 0 -65.833 7.16699 -89.5 21.5s-42.5 33.333 -56.5 57s-23.833 50.334 -29.5 80.001
s-8.5 59.834 -8.5 90.501c0 33.333 3 65.5 9 96.5s16.167 58.333 30.5 82s33.166 42.667 56.499 57s52.666 21.5 87.999 21.5c12.667 0 25.834 -1 39.501 -3s27.334 -6.16699 41.001 -12.5s27 -15.166 40 -26.499s24.5 -26.333 34.5 -45h1v82h43zM93 247
c0 -24 2.00391 -48.3311 6.00391 -72.998s11.5 -47.334 22.5 -68.001s26.167 -37.5 45.5 -50.5s44.666 -19.5 75.999 -19.5c26.667 0 49.167 5.83301 67.5 17.5s33.333 27.5 45 47.5s20 43 25 69s7.5 53 7.5 81c0 21.333 -1.83301 44.166 -5.5 68.499s-10.834 47 -21.501 68
s-25.5 38.5 -44.5 52.5s-43.5 21 -73.5 21c-32.667 0 -58.834 -7 -78.501 -21s-34.834 -31.5 -45.501 -52.5s-17.667 -44 -21 -69s-5 -48.833 -5 -71.5zM228.004 608.002v54h55v-54h-55z" />
    <glyph glyph-name="Gcommaaccent" unicode="&#x122;" horiz-adv-x="585" 
d="M292 34c30 0 56.833 5.49902 80.5 16.499s43.834 25.5 60.501 43.5s29.5 39 38.5 63s13.5 49 13.5 75v78h-157v42h204v-111c0 -34.667 -5.5 -67.167 -16.5 -97.5s-26.833 -56.666 -47.5 -78.999s-46 -39.833 -76 -52.5s-63.667 -19 -101 -19
c-41.333 0 -77 6.83301 -107 20.5s-54.833 32 -74.5 55s-34.334 49.833 -44.001 80.5s-14.5 63 -14.5 97v207c0 33.333 5 65 15 95s25 56.333 45 79s45 40.667 75 54s65 20 105 20c52 0 96.5 -11.833 133.5 -35.5s64.167 -55.167 81.5 -94.5c-1.33301 -1.33301 -4 -3 -8 -5
s-8.33301 -4 -13 -6s-9 -4 -13 -6l-8 -4c-14 31.333 -35.667 57.166 -65 77.499s-65 30.5 -107 30.5c-32.667 0 -61.167 -5.5 -85.5 -16.5s-44.666 -26 -60.999 -45s-28.5 -41 -36.5 -66s-12 -51.5 -12 -79.5v-208c0 -28 4 -54.5 12 -79.5s20.167 -47.167 36.5 -66.5
s36.666 -34.666 60.999 -45.999s52.833 -17 85.5 -17zM284 -236.001h-28l28 91h-18v66h60v-67z" />
    <glyph glyph-name="gcommaaccent" unicode="&#x123;" horiz-adv-x="498" 
d="M273 732h28l-28 -91h18v-67h-60v68zM432 3c0 -37.333 -5.66699 -69.333 -17 -96s-26.833 -48.334 -46.5 -65.001s-42.167 -28.834 -67.5 -36.501s-52 -11.5 -80 -11.5c-23.333 0 -46.5 4 -69.5 12s-44.167 20.333 -63.5 37l28 33c14 -11.333 30.333 -21.166 49 -29.499
s38.667 -12.5 60 -12.5c22.667 0 44 3.5 64 10.5s37.333 17.167 52 30.5s26.167 29.666 34.5 48.999s12.5 41.666 12.5 66.999l1 99h-2c-16 -29.333 -36.333 -52.5 -61 -69.5s-56 -25.5 -94 -25.5c-36 0 -65.833 7.16699 -89.5 21.5s-42.5 33.333 -56.5 57
s-23.833 50.334 -29.5 80.001s-8.5 59.834 -8.5 90.501c0 33.333 3 65.5 9 96.5s16.167 58.333 30.5 82s33.166 42.667 56.499 57s52.666 21.5 87.999 21.5c12.667 0 25.834 -1 39.501 -3s27.334 -6.16699 41.001 -12.5s27 -15.166 40 -26.499s24.5 -26.333 34.5 -45h1v82
h43zM93 247c0 -24 2.00391 -48.3311 6.00391 -72.998s11.5 -47.334 22.5 -68.001s26.167 -37.5 45.5 -50.5s44.666 -19.5 75.999 -19.5c26.667 0 49.167 5.83301 67.5 17.5s33.333 27.5 45 47.5s20 43 25 69s7.5 53 7.5 81c0 21.333 -1.83301 44.166 -5.5 68.499
s-10.834 47 -21.501 68s-25.5 38.5 -44.5 52.5s-43.5 21 -73.5 21c-32.667 0 -58.834 -7 -78.501 -21s-34.834 -31.5 -45.501 -52.5s-17.667 -44 -21 -69s-5 -48.833 -5 -71.5z" />
    <glyph glyph-name="Hcircumflex" unicode="&#x124;" horiz-adv-x="625" 
d="M499 0v332h-374v-332h-46v696h46v-322h374v322h47v-696h-47zM309 814l-130 -84l-18 21l131 109h37l127 -108l-18 -21z" />
    <glyph glyph-name="hcircumflex" unicode="&#x125;" horiz-adv-x="523" 
d="M415 0l0.00195312 316.998c0 46 -13.833 81.167 -41.5 105.5s-62.5 36.5 -104.5 36.5c-21.333 0 -41 -3.66699 -59 -11s-33.5 -17.833 -46.5 -31.5s-23.167 -30.167 -30.5 -49.5s-11 -40.666 -11 -63.999v-303h-43v723h43v-310h2c17.333 32 40.166 54.5 68.499 67.5
s57.166 19.5 86.499 19.5c25.333 0 48.833 -3.66699 70.5 -11s40.5 -18.166 56.5 -32.499s28.667 -32 38 -53s14 -44.833 14 -71.5v-332h-43zM100.002 813.998l-129 -84l-18 21l131 109h37l126 -108l-18 -21z" />
    <glyph glyph-name="Hbar" unicode="&#x126;" horiz-adv-x="625" 
d="M499 0v332h-374v-332h-46v542h-56v33h56v121h46v-121h374v121h47v-121h58v-33h-58v-542h-47zM499 374v168h-374v-168h374z" />
    <glyph glyph-name="hbar" unicode="&#x127;" horiz-adv-x="508" 
d="M13 624l60 0.00195312v99h43v-99h236v-38h-236v-186h2c8 16 18.167 29.667 30.5 41s25.833 20.666 40.5 27.999s29.667 12.666 45 15.999s30 5 44 5c56 0 99 -14.5 129 -43.5s45 -70.5 45 -124.5v-322h-43v307c0 46 -11.667 81.167 -35 105.5s-58 36.5 -104 36.5
c-21.333 0 -41.333 -3.83301 -60 -11.5s-35 -18.5 -49 -32.5s-25 -30.833 -33 -50.5s-12 -41.167 -12 -64.5v-290h-43v586h-60v38z" />
    <glyph glyph-name="Itilde" unicode="&#x128;" horiz-adv-x="212" 
d="M83 0v696h46v-696h-46zM176 758c-10 0 -20.4971 2.16504 -31.4971 6.49805s-22 9 -33 14s-21.833 9.66699 -32.5 14s-20.667 6.5 -30 6.5c-12.667 0 -23.834 -3.16699 -33.501 -9.5s-19.834 -15.833 -30.501 -28.5l-28 16c26 43.333 56.667 65 92 65
c10.667 0 21.5 -2.16699 32.5 -6.5s22 -9.16602 33 -14.499s21.667 -10.166 32 -14.499s19.833 -6.5 28.5 -6.5c10 0 19.667 3 29 9s18.666 16.333 27.999 31l29 -17c-12.667 -23.333 -26 -40 -40 -50s-29 -15 -45 -15z" />
    <glyph glyph-name="itilde" unicode="&#x129;" horiz-adv-x="257" 
d="M114 0v496h46v-496h-46zM206 588c-10 0 -20.4971 2.16504 -31.4971 6.49805s-22 9 -33 14s-21.833 9.66699 -32.5 14s-20.667 6.5 -30 6.5c-12.667 0 -23.834 -3.16699 -33.501 -9.5s-19.834 -15.833 -30.501 -28.5l-28 16c26 43.333 56.667 65 92 65
c10.667 0 21.5 -2.16699 32.5 -6.5s22 -9.16602 33 -14.499s21.667 -10.166 32 -14.499s19.833 -6.5 28.5 -6.5c10 0 19.667 3 29 9s18.666 16.333 27.999 31l29 -17c-12.667 -23.333 -26 -40 -40 -50s-29 -15 -45 -15z" />
    <glyph glyph-name="Imacron" unicode="&#x12a;" horiz-adv-x="212" 
d="M83 0v696h46v-696h-46zM-20 769v41h254v-41h-254z" />
    <glyph glyph-name="imacron" unicode="&#x12b;" horiz-adv-x="215" 
d="M85 0v496h46v-496h-46zM-23 593v41h255v-41h-255z" />
    <glyph glyph-name="Ibreve" unicode="&#x12c;" horiz-adv-x="271" 
d="M49 840c3.33301 -19.333 13.1621 -36.333 29.4951 -51s36.166 -22 59.499 -22c24.667 0 44.834 7.33301 60.501 22s25.167 31.667 28.5 51h38c-2 -12.667 -5.66699 -25.5 -11 -38.5s-13 -24.833 -23 -35.5s-22.667 -19.334 -38 -26.001s-33.666 -10 -54.999 -10
s-39.666 3.33301 -54.999 10s-28.166 15.334 -38.499 26.001s-18.166 22.5 -23.499 35.5s-8.66602 25.833 -9.99902 38.5h38zM113.996 0v696h46v-696h-46z" />
    <glyph glyph-name="ibreve" unicode="&#x12d;" horiz-adv-x="258" 
d="M101 0v496h46v-496h-46zM35 680c4 -22 14.4951 -39.667 31.4951 -53s36.167 -20 57.5 -20c22 0 41 5.83301 57 17.5s26.667 30.167 32 55.5h38c-2 -12.667 -5.66699 -25.5 -11 -38.5s-13 -24.833 -23 -35.5s-22.667 -19.334 -38 -26.001s-33.666 -10 -54.999 -10
s-39.666 3.33301 -54.999 10s-28.166 15.334 -38.499 26.001s-18.166 22.5 -23.499 35.5s-8.66602 25.833 -9.99902 38.5h38z" />
    <glyph glyph-name="Iogonek" unicode="&#x12e;" horiz-adv-x="212" 
d="M41 -92c0 12.667 3.16699 27.168 9.5 43.501s16.833 32.5 31.5 48.5v696h47v-696h-5c-12 -14 -22.333 -28.833 -31 -44.5s-13 -29.167 -13 -40.5c0 -18 5.16699 -31.333 15.5 -40s23.5 -13 39.5 -13c16.667 0 35.667 5.33301 57 16l13 -29
c-9.33301 -5.33301 -21 -10.333 -35 -15s-28.333 -7 -43 -7c-26.667 0 -47.667 8.16699 -63 24.5s-23 35.166 -23 56.499z" />
    <glyph glyph-name="iogonek" unicode="&#x12f;" horiz-adv-x="199" 
d="M37 -92c0 13.333 3 28 9 44s16.333 32 31 48v496h44v-496c-14.667 -14.667 -26 -29 -34 -43s-12 -28 -12 -42c0 -18 5.16699 -31.333 15.5 -40s23.5 -13 39.5 -13c16.667 0 35.667 5.33301 57 16c2.66699 -4.66699 5 -9.33398 7 -14.001s4 -9.66699 6 -15
c-9.33301 -5.33301 -20.833 -10.166 -34.5 -14.499s-28.167 -6.5 -43.5 -6.5c-26.667 0 -47.5 8 -62.5 24s-22.5 34.667 -22.5 56zM74 696h49v-48h-49v48z" />
    <glyph glyph-name="Idotaccent" unicode="&#x130;" horiz-adv-x="212" 
d="M83 0v696h46v-696h-46zM77 765v53h55v-53h-55z" />
    <glyph glyph-name="dotlessi" unicode="&#x131;" horiz-adv-x="191" 
d="M73 0v496h46v-496h-46z" />
    <glyph glyph-name="IJ" unicode="&#x132;" horiz-adv-x="657" 
d="M83 0v696h47v-696h-47zM587 197c0 -36.667 -5.66699 -67.8359 -17 -93.5029s-26.5 -46.667 -45.5 -63s-41.167 -28.166 -66.5 -35.499s-51.666 -11 -78.999 -11c-28 0 -53.833 4.83301 -77.5 14.5s-44.834 23.167 -63.501 40.5l34 32c18 -14.667 35 -25.5 51 -32.5
s33.333 -10.5 52 -10.5c22 0 43 2.83301 63 8.5s37.5 15.334 52.5 29.001s27 31.834 36 54.501s13.5 50.667 13.5 84v482h47v-499z" />
    <glyph glyph-name="ij" unicode="&#x133;" horiz-adv-x="397" 
d="M75 696h49v-48h-49v48zM78 0v496h44v-496h-44zM266 696h50v-48h-50v48zM170 -166h17c26 0 46 8 60 24s21 39 21 69v568h45v-573c0 -38.667 -11.333 -69.5 -34 -92.5s-51.667 -34.5 -87 -34.5h-22v39z" />
    <glyph glyph-name="Jcircumflex" unicode="&#x134;" horiz-adv-x="448" 
d="M378 198c0 -36.667 -5.66504 -67.8359 -16.998 -93.5029s-26.5 -46.667 -45.5 -63s-41 -28.166 -66 -35.499s-51.167 -11 -78.5 -11c-28 0 -53.833 4.83301 -77.5 14.5s-44.834 23.167 -63.501 40.5l34 32c17.333 -14.667 34.166 -25.5 50.499 -32.5
s33.833 -10.5 52.5 -10.5c22 0 43 2.83301 63 8.5s37.5 15.334 52.5 29.001s27 31.834 36 54.501s13.5 50.667 13.5 84v482h46v-499zM355.002 815.998l-130 -84l-18 21l132 109h37l126 -108l-18 -21z" />
    <glyph glyph-name="jcircumflex" unicode="&#x135;" horiz-adv-x="254" 
d="M6 -166h17c26 0 46 8 60 24s21 39 21 69v568h45v-573c0 -38.667 -11.333 -69.5 -34 -92.5s-51.667 -34.5 -87 -34.5h-22v39zM127 653l-126 -97l-10.5 10.5l-10.5 10.5l130 124h37l63.5 -61.5l63.5 -62.5l-22 -20z" />
    <glyph glyph-name="Kcommaaccent" unicode="&#x136;" horiz-adv-x="606" 
d="M528 0l-116 196.5l-117 196.5l-170 -209v-184h-47v696h47v-444h1l86 106l86 105l191 233h52l-216 -266l128 -215.5l128 -214.5h-53zM259 -216l13.501 46.001c4.33301 15.333 9.16602 30.666 14.499 45.999h-18v66h60v-68l-42 -90h-28z" />
    <glyph glyph-name="kcommaaccent" unicode="&#x137;" horiz-adv-x="479" 
d="M423 0l-92 141.5l-92 141.5l-63 -70.5l-62 -71.5v-141h-43v722h43v-522h1l131.5 147.5l131.5 148.5h52l-162 -183l204 -313h-49zM219 -236c5.33301 15.333 10.167 30.667 14.5 46l13.5 46h-18v66h60v-68l-42 -90h-28z" />
    <glyph glyph-name="kgreenlandic" unicode="&#x138;" horiz-adv-x="479" 
d="M239 283l-63 -70.5l-62 -71.5v-141h-43v496h43v-296h1l131.5 147.5l131.5 148.5h52l-162 -183l207 -313h-51z" />
    <glyph glyph-name="Lacute" unicode="&#x139;" horiz-adv-x="528" 
d="M79 0v696h46v-653h376v-43h-422zM81 751l135 108l35 -37l-151 -93z" />
    <glyph glyph-name="lacute" unicode="&#x13a;" horiz-adv-x="218" 
d="M185 0c-36 0 -64 7.5 -84 22.5s-30 41.5 -30 79.5v620h44v-613c0 -22.667 6 -40.167 18 -52.5s31.667 -18.5 59 -18.5h8v-38h-15zM72 767l67.5 54.5l67.5 53.5l36 -37l-75.5 -46.5l-75.5 -46.5z" />
    <glyph glyph-name="Lcommaaccent" unicode="&#x13b;" horiz-adv-x="528" 
d="M79 0v696h46v-653h376v-43h-422zM281 -236h-28l28 91h-18v66h60v-67z" />
    <glyph glyph-name="lcommaaccent" unicode="&#x13c;" horiz-adv-x="218" 
d="M185 0c-36 0 -64 7.5 -84 22.5s-30 41.5 -30 79.5v620h44v-613c0 -22.667 6 -40.167 18 -52.5s31.667 -18.5 59 -18.5h8v-38h-15zM87 -236l29 92h-18v66h60v-68l-21 -45l-21 -45h-29z" />
    <glyph glyph-name="Lcaron" unicode="&#x13d;" horiz-adv-x="528" 
d="M79 0v696h46v-653h376v-43h-422zM362 539h-28l28 91h-18v66h60v-67z" />
    <glyph glyph-name="lcaron" unicode="&#x13e;" horiz-adv-x="284" 
d="M200 564c5.33301 15.333 10.167 30.667 14.5 46l13.5 46h-18v66h60v-68l-21 -45l-21 -45h-28zM185.001 0.000976562c-36 0 -64 7.5 -84 22.5s-30 41.5 -30 79.5v620h44v-613c0 -22.667 6 -40.167 18 -52.5s31.667 -18.5 59 -18.5h8v-38h-15z" />
    <glyph glyph-name="Ldot" unicode="&#x13f;" horiz-adv-x="528" 
d="M79 0v696h46v-653h376v-43h-422zM291 347v53h54v-53h-54z" />
    <glyph glyph-name="ldot" unicode="&#x140;" horiz-adv-x="315" 
d="M218 408h54v-53h-54v53zM185 0c-36 0 -64 7.5 -84 22.5s-30 41.5 -30 79.5v620h44v-613c0 -22.667 6 -40.167 18 -52.5s31.667 -18.5 59 -18.5h8v-38h-15z" />
    <glyph glyph-name="Lslash" unicode="&#x141;" horiz-adv-x="550" 
d="M101 0v267l-85 -48l-19 33l104 59v385h46v-358l133 78l19 -33l-152 -88v-252h376v-43h-422z" />
    <glyph glyph-name="lslash" unicode="&#x142;" horiz-adv-x="274" 
d="M220 0c-36 0 -64 7.5 -84 22.5s-30 41.5 -30 79.5v220l-87 -50l-19 33l106 61v356h44v-331l105 60l19 -32l-124 -72v-238c0 -22.667 6 -40.167 18 -52.5s31.667 -18.5 59 -18.5h8v-38h-15v0z" />
    <glyph glyph-name="Nacute" unicode="&#x143;" horiz-adv-x="663" 
d="M276 392l-74.501 112.502l-73.5 112.5c-0.666992 0 -1 -0.333008 -1 -1v-616h-47v696h48l258 -388c3.33301 -4.66699 8.83301 -12.834 16.5 -24.501l27 -41l32.5 -50l32.5 -50l27 -41c7.66699 -11.667 12.834 -19.834 15.501 -24.501c0.666992 0 1 0.333008 1 1v618h46
v-696h-47zM266.999 751.002l67.5 53.5l67.5 54.5l36 -38l-152 -93z" />
    <glyph glyph-name="nacute" unicode="&#x144;" horiz-adv-x="502" 
d="M396 0v317c0 22.667 -3.66699 42.834 -11 60.501s-17.5 32.5 -30.5 44.5s-28.333 21.167 -46 27.5s-36.834 9.5 -57.501 9.5c-21.333 0 -41 -3.83301 -59 -11.5s-33.5 -18.334 -46.5 -32.001s-23.167 -30 -30.5 -49s-11 -40.167 -11 -63.5v-303h-43v496h43v-81h3
c16 31.333 38.333 53.333 67 66s57.334 19 86.001 19c25.333 0 49 -3.83301 71 -11.5s41 -18.667 57 -33s28.667 -31.833 38 -52.5s14 -44 14 -70v-333h-44zM212 575l79 154l48 -19l-99 -147z" />
    <glyph glyph-name="Ncommaaccent" unicode="&#x145;" horiz-adv-x="663" 
d="M276 392l-74.501 112.502l-73.5 112.5c-0.666992 0 -1 -0.333008 -1 -1v-616h-47v696h48l258 -388c3.33301 -4.66699 8.83301 -12.834 16.5 -24.501l27 -41l32.5 -50l32.5 -50l27 -41c7.66699 -11.667 12.834 -19.834 15.501 -24.501c0.666992 0 1 0.333008 1 1v618h46
v-696h-47zM287.999 -201.998l13.501 45.5c4.33301 15 9.16602 30.167 14.499 45.5h-18v66h60v-67l-21 -45l-21 -45h-28z" />
    <glyph glyph-name="ncommaaccent" unicode="&#x146;" horiz-adv-x="502" 
d="M396 0v317c0 22.667 -3.66699 42.834 -11 60.501s-17.5 32.5 -30.5 44.5s-28.333 21.167 -46 27.5s-36.834 9.5 -57.501 9.5c-21.333 0 -41 -3.83301 -59 -11.5s-33.5 -18.334 -46.5 -32.001s-23.167 -30 -30.5 -49s-11 -40.167 -11 -63.5v-303h-43v496h43v-81h3
c16 31.333 38.333 53.333 67 66s57.334 19 86.001 19c25.333 0 49 -3.83301 71 -11.5s41 -18.667 57 -33s28.667 -31.833 38 -52.5s14 -44 14 -70v-333h-44zM237 -236h-28l28 91h-18v66h60v-67z" />
    <glyph glyph-name="Ncaron" unicode="&#x147;" horiz-adv-x="663" 
d="M276 392l-74.501 112.502l-73.5 112.5c-0.666992 0 -1 -0.333008 -1 -1v-616h-47v696h48l258 -388c3.33301 -4.66699 8.83301 -12.834 16.5 -24.501l27 -41l32.5 -50l32.5 -50l27 -41c7.66699 -11.667 12.834 -19.834 15.501 -24.501c0.666992 0 1 0.333008 1 1v618h46
v-696h-47zM330.999 777.002l64 42.002l65 42l18 -21l-127 -109h-36l-132 109l18 22c21.333 -14.667 43 -28.834 65 -42.501s43.667 -27.834 65 -42.501z" />
    <glyph glyph-name="ncaron" unicode="&#x148;" horiz-adv-x="502" 
d="M396 0v317c0 22.667 -3.66699 42.834 -11 60.501s-17.5 32.5 -30.5 44.5s-28.333 21.167 -46 27.5s-36.834 9.5 -57.501 9.5c-21.333 0 -41 -3.83301 -59 -11.5s-33.5 -18.334 -46.5 -32.001s-23.167 -30 -30.5 -49s-11 -40.167 -11 -63.5v-303h-43v496h43v-81h3
c16 31.333 38.333 53.333 67 66s57.334 19 86.001 19c25.333 0 49 -3.83301 71 -11.5s41 -18.667 57 -33s28.667 -31.833 38 -52.5s14 -44 14 -70v-333h-44zM368 701l21 -20l-126 -124h-37l-132 124l21 21l127 -97z" />
    <glyph glyph-name="napostrophe" unicode="&#x149;" horiz-adv-x="553" 
d="M447 0v317c0 22.667 -3.66699 42.834 -11 60.501s-17.5 32.5 -30.5 44.5s-28.333 21.167 -46 27.5s-36.834 9.5 -57.501 9.5c-21.333 0 -41 -3.83301 -59 -11.5s-33.5 -18.334 -46.5 -32.001s-23.167 -30 -30.5 -49s-11 -40.167 -11 -63.5v-303h-43v496h43v-81h3
c16 31.333 38.333 53.333 67 66s57.334 19 86.001 19c25.333 0 49 -3.83301 71 -11.5s41 -18.667 57 -33s28.667 -31.833 38 -52.5s14 -44 14 -70v-333h-44zM34 491h-28l28 91h-18v66h60v-67z" />
    <glyph glyph-name="Eng" unicode="&#x14a;" horiz-adv-x="673" 
d="M489 -130c15.333 0 27.666 4.83105 36.999 14.498s14 23.834 14 42.501v69l-135.5 202.5l-135.5 203.5l-141 215c-0.666992 0 -1 -0.333008 -1 -1v-616h-47v696h48l133 -200l132 -200l72.5 -109l71.5 -110c0.666992 0 1 0.333008 1 1v618h46v-764
c0 -36 -8.83301 -61.833 -26.5 -77.5s-38.5 -23.5 -62.5 -23.5c-14 0 -27.333 1.83301 -40 5.5s-24.667 8.83398 -36 15.501l14 34c22.667 -10.667 41.334 -16 56.001 -16z" />
    <glyph glyph-name="eng" unicode="&#x14b;" horiz-adv-x="502" 
d="M440 -68c0 -36 -8.83398 -61.835 -26.501 -77.502s-38.5 -23.5 -62.5 -23.5c-14 0 -27.333 1.83301 -40 5.5s-24.667 8.83398 -36 15.501l14 34c22.667 -10.667 41.334 -16 56.001 -16c15.333 0 27.666 4.83301 36.999 14.5s14 23.834 14 42.501v390
c0 46 -12.5 81.167 -37.5 105.5s-58.167 36.5 -99.5 36.5c-21.333 0 -41.333 -3.83301 -60 -11.5s-35 -18.334 -49 -32.001s-25.167 -30 -33.5 -49s-12.5 -40.167 -12.5 -63.5v-303h-43v496h43v-81h3c8 16 18.167 29.333 30.5 40s25.833 19.334 40.5 26.001
s29.834 11.5 45.501 14.5s30.5 4.5 44.5 4.5c51.333 0 92.833 -14.667 124.5 -44s47.5 -70.333 47.5 -123v-401v0z" />
    <glyph glyph-name="Omacron" unicode="&#x14c;" horiz-adv-x="571" 
d="M286 701c37.333 0 70.666 -6.16699 99.999 -18.5s54.333 -29.5 75 -51.5s36.334 -48.167 47.001 -78.5s16 -63.5 16 -99.5v-207c0 -38.667 -5.5 -73.667 -16.5 -105s-26.833 -58 -47.5 -80s-45.667 -38.833 -75 -50.5s-62.333 -17.5 -99 -17.5
c-41.333 0 -77.166 6.83301 -107.499 20.5s-55.333 32 -75 55s-34.334 49.833 -44.001 80.5s-14.5 63 -14.5 97v207c0 33.333 5 65 15 95s25 56.333 45 79s45 40.667 75 54s65.333 20 106 20zM287 657c-32.667 0 -61.165 -5.50098 -85.498 -16.501s-44.5 -26 -60.5 -45
s-28 -40.833 -36 -65.5s-12 -51 -12 -79v-207c0 -27.333 4 -53.5 12 -78.5s20 -47.167 36 -66.5s36.167 -34.666 60.5 -45.999s52.833 -17 85.5 -17c29.333 0 55.666 5.33301 78.999 16s43.166 25.334 59.499 44.001s28.833 41 37.5 67s13 54.333 13 85v203
c0 28.667 -4.33301 55.667 -13 81s-21 47.166 -37 65.499s-35.667 32.833 -59 43.5s-50 16 -80 16zM165.002 768.999v41h255v-41h-255z" />
    <glyph glyph-name="omacron" unicode="&#x14d;" horiz-adv-x="489" 
d="M123 593v41h255v-41h-255zM249 501c36 0 67.499 -7.00195 94.499 -21.002s48.833 -33.667 65.5 -59c11.333 -18.667 20 -41.5 26 -68.5s9 -63.167 9 -108.5s-4.66699 -82.5 -14 -111.5s-21 -52.5 -35 -70.5c-18 -23.333 -40 -40.5 -66 -51.5s-55.333 -16.5 -88 -16.5
c-61.333 0 -108.666 18.667 -141.999 56c-18 20.667 -31.667 46.834 -41 78.501s-14 71.834 -14 120.501c0 46 5 83.5 15 112.5s23 53.167 39 72.5c17.333 20.667 38.5 37 63.5 49s54.167 18 87.5 18zM246.999 461.998c-25.333 0 -47.668 -5.16602 -67.001 -15.499
s-35.666 -23.833 -48.999 -40.5s-23.833 -37 -31.5 -61s-11.5 -56.667 -11.5 -98c0 -42 3.83301 -75.333 11.5 -100s18.167 -45.334 31.5 -62.001s29.333 -29.5 48 -38.5s40.334 -13.5 65.001 -13.5c25.333 0 48.166 5.33301 68.499 16s37.166 25.667 50.499 45
c10.667 15.333 19.5 34 26.5 56s10.5 53.667 10.5 95c0 40.667 -2.5 72 -7.5 94s-11.5 39.667 -19.5 53c-13.333 22 -30.666 39.167 -51.999 51.5s-46 18.5 -74 18.5z" />
    <glyph glyph-name="Obreve" unicode="&#x14e;" horiz-adv-x="571" 
d="M286 701c37.333 0 70.666 -6.16699 99.999 -18.5s54.333 -29.5 75 -51.5s36.334 -48.167 47.001 -78.5s16 -63.5 16 -99.5v-207c0 -38.667 -5.5 -73.667 -16.5 -105s-26.833 -58 -47.5 -80s-45.667 -38.833 -75 -50.5s-62.333 -17.5 -99 -17.5
c-41.333 0 -77.166 6.83301 -107.499 20.5s-55.333 32 -75 55s-34.334 49.833 -44.001 80.5s-14.5 63 -14.5 97v207c0 33.333 5 65 15 95s25 56.333 45 79s45 40.667 75 54s65.333 20 106 20zM287 657c-32.667 0 -61.165 -5.50098 -85.498 -16.501s-44.5 -26 -60.5 -45
s-28 -40.833 -36 -65.5s-12 -51 -12 -79v-207c0 -27.333 4 -53.5 12 -78.5s20 -47.167 36 -66.5s36.167 -34.666 60.5 -45.999s52.833 -17 85.5 -17c29.333 0 55.666 5.33301 78.999 16s43.166 25.334 59.499 44.001s28.833 41 37.5 67s13 54.333 13 85v203
c0 28.667 -4.33301 55.667 -13 81s-21 47.166 -37 65.499s-35.667 32.833 -59 43.5s-50 16 -80 16zM201.002 839.999c3.33301 -19.333 13.3262 -36.333 29.9932 -51s36.334 -22 59.001 -22c25.333 0 45.833 7.33301 61.5 22s24.834 31.667 27.501 51h38
c-2 -12.667 -5.66699 -25.5 -11 -38.5s-13 -24.833 -23 -35.5s-22.667 -19.334 -38 -26.001s-33.666 -10 -54.999 -10s-39.666 3.33301 -54.999 10s-28.166 15.334 -38.499 26.001s-18.166 22.5 -23.499 35.5s-8.66602 25.833 -9.99902 38.5h38z" />
    <glyph glyph-name="obreve" unicode="&#x14f;" horiz-adv-x="489" 
d="M156 674c3.33301 -22 13.4951 -39.667 30.4951 -53s36.167 -20 57.5 -20c22 0 41 5.83301 57 17.5s26.667 30.167 32 55.5h38c-2 -12.667 -5.66699 -25.5 -11 -38.5s-13 -24.833 -23 -35.5s-22.667 -19.334 -38 -26.001s-33.666 -10 -54.999 -10
s-39.666 3.33301 -54.999 10s-28.166 15.334 -38.499 26.001s-18.166 22.5 -23.499 35.5s-8.66602 25.833 -9.99902 38.5h39zM248.995 501c36 0 67.499 -7.00195 94.499 -21.002s48.833 -33.667 65.5 -59c11.333 -18.667 20 -41.5 26 -68.5s9 -63.167 9 -108.5
s-4.66699 -82.5 -14 -111.5s-21 -52.5 -35 -70.5c-18 -23.333 -40 -40.5 -66 -51.5s-55.333 -16.5 -88 -16.5c-61.333 0 -108.666 18.667 -141.999 56c-18 20.667 -31.667 46.834 -41 78.501s-14 71.834 -14 120.501c0 46 5 83.5 15 112.5s23 53.167 39 72.5
c17.333 20.667 38.5 37 63.5 49s54.167 18 87.5 18zM246.994 461.998c-25.333 0 -47.668 -5.16602 -67.001 -15.499s-35.666 -23.833 -48.999 -40.5s-23.833 -37 -31.5 -61s-11.5 -56.667 -11.5 -98c0 -42 3.83301 -75.333 11.5 -100s18.167 -45.334 31.5 -62.001
s29.333 -29.5 48 -38.5s40.334 -13.5 65.001 -13.5c25.333 0 48.166 5.33301 68.499 16s37.166 25.667 50.499 45c10.667 15.333 19.5 34 26.5 56s10.5 53.667 10.5 95c0 40.667 -2.5 72 -7.5 94s-11.5 39.667 -19.5 53c-13.333 22 -30.666 39.167 -51.999 51.5
s-46 18.5 -74 18.5z" />
    <glyph glyph-name="Ohungarumlaut" unicode="&#x150;" horiz-adv-x="571" 
d="M286 701c37.333 0 70.666 -6.16699 99.999 -18.5s54.333 -29.5 75 -51.5s36.334 -48.167 47.001 -78.5s16 -63.5 16 -99.5v-207c0 -38.667 -5.5 -73.667 -16.5 -105s-26.833 -58 -47.5 -80s-45.667 -38.833 -75 -50.5s-62.333 -17.5 -99 -17.5
c-41.333 0 -77.166 6.83301 -107.499 20.5s-55.333 32 -75 55s-34.334 49.833 -44.001 80.5s-14.5 63 -14.5 97v207c0 33.333 5 65 15 95s25 56.333 45 79s45 40.667 75 54s65.333 20 106 20zM287 657c-32.667 0 -61.165 -5.50098 -85.498 -16.501s-44.5 -26 -60.5 -45
s-28 -40.833 -36 -65.5s-12 -51 -12 -79v-207c0 -27.333 4 -53.5 12 -78.5s20 -47.167 36 -66.5s36.167 -34.666 60.5 -45.999s52.833 -17 85.5 -17c29.333 0 55.666 5.33301 78.999 16s43.166 25.334 59.499 44.001s28.833 41 37.5 67s13 54.333 13 85v203
c0 28.667 -4.33301 55.667 -13 81s-21 47.166 -37 65.499s-35.667 32.833 -59 43.5s-50 16 -80 16zM312.002 750.999l135 108l36 -37l-151 -93zM194.002 750.999l136 108l35 -37l-151 -93z" />
    <glyph glyph-name="ohungarumlaut" unicode="&#x151;" horiz-adv-x="489" 
d="M177 575l79 154l48 -19l-99 -147zM278 575l79 154l48 -19l-99 -147zM249 501c36 0 67.499 -7.00195 94.499 -21.002s48.833 -33.667 65.5 -59c11.333 -18.667 20 -41.5 26 -68.5s9 -63.167 9 -108.5s-4.66699 -82.5 -14 -111.5s-21 -52.5 -35 -70.5
c-18 -23.333 -40 -40.5 -66 -51.5s-55.333 -16.5 -88 -16.5c-61.333 0 -108.666 18.667 -141.999 56c-18 20.667 -31.667 46.834 -41 78.501s-14 71.834 -14 120.501c0 46 5 83.5 15 112.5s23 53.167 39 72.5c17.333 20.667 38.5 37 63.5 49s54.167 18 87.5 18z
M246.999 461.998c-25.333 0 -47.668 -5.16602 -67.001 -15.499s-35.666 -23.833 -48.999 -40.5s-23.833 -37 -31.5 -61s-11.5 -56.667 -11.5 -98c0 -42 3.83301 -75.333 11.5 -100s18.167 -45.334 31.5 -62.001s29.333 -29.5 48 -38.5s40.334 -13.5 65.001 -13.5
c25.333 0 48.166 5.33301 68.499 16s37.166 25.667 50.499 45c10.667 15.333 19.5 34 26.5 56s10.5 53.667 10.5 95c0 40.667 -2.5 72 -7.5 94s-11.5 39.667 -19.5 53c-13.333 22 -30.666 39.167 -51.999 51.5s-46 18.5 -74 18.5z" />
    <glyph glyph-name="OE" unicode="&#x152;" horiz-adv-x="790" 
d="M346 0c-10 -2 -20.166 -3.66699 -30.499 -5s-21.166 -2 -32.499 -2c-41.333 0 -77 6.83301 -107 20.5s-54.833 32 -74.5 55s-34.334 49.833 -44.001 80.5s-14.5 63 -14.5 97v207c0 33.333 5 65 15 95s25 56.333 45 79s45 40.667 75 54s65 20 105 20
c10.667 0 21.167 -0.333008 31.5 -1s20.166 -2 29.499 -4h419v-43h-375v-279h321v-42h-321v-289h375v-43h-417zM284.001 36c20 0 39 2.66602 57 7.99902v607c-17.333 4 -36.333 6 -57 6c-32.667 0 -61.167 -5.5 -85.5 -16.5s-44.5 -26 -60.5 -45s-28 -40.833 -36 -65.5
s-12 -51 -12 -79v-207c0 -27.333 4 -53.5 12 -78.5s20 -47.167 36 -66.5s36.167 -34.666 60.5 -45.999s52.833 -17 85.5 -17z" />
    <glyph glyph-name="oe" unicode="&#x153;" horiz-adv-x="829" 
d="M442 241c0 -20 1.16504 -39.166 3.49805 -57.499s6.5 -35.5 12.5 -51.5c12.667 -32 32.167 -56.5 58.5 -73.5s57.5 -25.5 93.5 -25.5c21.333 0 42.5 3.33301 63.5 10s40.167 16.667 57.5 30l27 -32c-21.333 -16.667 -44.166 -28.667 -68.499 -36s-49.5 -11 -75.5 -11
c-18.667 0 -37.667 1.66699 -57 5s-37.5 9.66602 -54.5 18.999s-32.667 22.166 -47 38.499s-25.833 37.5 -34.5 63.5c-5.33301 -16.667 -11.5 -31 -18.5 -43s-14.833 -22.333 -23.5 -31c-34 -34.667 -80.667 -52 -140 -52c-55.333 0 -99.666 15 -132.999 45
c-21.333 21.333 -37.5 48.333 -48.5 81s-16.5 75.667 -16.5 129c0 52 6.16699 94.5 18.5 127.5s30.166 59.167 53.499 78.5c17.333 14 36.5 25 57.5 33s45.167 12 72.5 12c72.667 0 126.334 -26.667 161.001 -80c3.33301 -5.33301 6.66602 -11.833 9.99902 -19.5
s6 -16.5 8 -26.5c8.66699 24 19.667 44.167 33 60.5s27.833 29.5 43.5 39.5s32.167 17 49.5 21s34.333 6 51 6c32.667 0 61.334 -5.83301 86.001 -17.5s45.167 -27.667 61.5 -48s28.5 -44.166 36.5 -71.499s12 -57 12 -89v-34h-353zM241.998 461.001
c-23.333 0 -44.001 -3.99902 -62.001 -11.999s-33.667 -19 -47 -33c-15.333 -18 -27.166 -39.833 -35.499 -65.5s-12.5 -60.167 -12.5 -103.5c0 -56 6.66699 -98.667 20 -128c12 -26.667 29.333 -47.834 52 -63.501s50.667 -23.5 84 -23.5
c22.667 0 43.167 3.83301 61.5 11.5s34.166 18.167 47.499 31.5c7.33301 7.33301 14 16 20 26s11 21.667 15 35c4.66699 14 7.83398 29.833 9.50098 47.5s2.5 38.167 2.5 61.5c0 40.667 -2.5 72 -7.5 94s-11.833 39.667 -20.5 53c-13.333 22 -30.833 39 -52.5 51
s-46.5 18 -74.5 18zM599.997 461.002c-47.333 0 -84.5 -15.833 -111.5 -47.5s-42.167 -77.167 -45.5 -136.5h306c-2 62.667 -16.167 109 -42.5 139s-61.833 45 -106.5 45z" />
    <glyph glyph-name="Racute" unicode="&#x154;" horiz-adv-x="585" 
d="M493 0l-165.001 322.998h-201v-323h-47v696h269c28.667 0 55.334 -4.16699 80.001 -12.5s45.667 -20.166 63 -35.499s31 -34.166 41 -56.499s15 -47.5 15 -75.5c0 -50 -15.333 -92 -46 -126s-71.667 -55.333 -123 -64l170 -326h-56zM497.999 515.998
c0 24.667 -4.49805 45.833 -13.498 63.5s-20.833 32 -35.5 43s-31.834 19.167 -51.501 24.5s-39.834 8 -60.501 8h-210v-290h207c23.333 0 45 3.16699 65 9.5s37.333 15.833 52 28.5s26.167 28.5 34.5 47.5s12.5 40.833 12.5 65.5zM217.001 750.997l136 108l35 -37l-151 -93
z" />
    <glyph glyph-name="racute" unicode="&#x155;" horiz-adv-x="340" 
d="M326 445c-11.333 5.33301 -22.5 9.16699 -33.5 11.5s-21.5 3.5 -31.5 3.5c-21.333 0 -41 -3.66699 -59 -11s-33.5 -17.833 -46.5 -31.5s-23.167 -30 -30.5 -49s-11 -40.5 -11 -64.5v-304h-43v496h43v-85h3c17.333 34.667 40 58.334 68 71.001s56.333 19 85 19
c14 0 27.333 -0.833008 40 -2.5s24 -4.83398 34 -9.50098zM143 575.001l78 154l49 -19l-100 -147z" />
    <glyph glyph-name="Rcommaaccent" unicode="&#x156;" horiz-adv-x="585" 
d="M493 0l-165.001 322.998h-201v-323h-47v696h269c28.667 0 55.334 -4.16699 80.001 -12.5s45.667 -20.166 63 -35.499s31 -34.166 41 -56.499s15 -47.5 15 -75.5c0 -50 -15.333 -92 -46 -126s-71.667 -55.333 -123 -64l170 -326h-56zM497.999 515.998
c0 24.667 -4.49805 45.833 -13.498 63.5s-20.833 32 -35.5 43s-31.834 19.167 -51.501 24.5s-39.834 8 -60.501 8h-210v-290h207c23.333 0 45 3.16699 65 9.5s37.333 15.833 52 28.5s26.167 28.5 34.5 47.5s12.5 40.833 12.5 65.5zM284.001 -216.003h-28l28 91h-18v66h60
v-67z" />
    <glyph glyph-name="rcommaaccent" unicode="&#x157;" horiz-adv-x="340" 
d="M326 445c-11.333 5.33301 -22.5 9.16699 -33.5 11.5s-21.5 3.5 -31.5 3.5c-21.333 0 -41 -3.66699 -59 -11s-33.5 -17.833 -46.5 -31.5s-23.167 -30 -30.5 -49s-11 -40.5 -11 -64.5v-304h-43v496h43v-85h3c17.333 34.667 40 58.334 68 71.001s56.333 19 85 19
c14 0 27.333 -0.833008 40 -2.5s24 -4.83398 34 -9.50098zM87 -235.999h-28l28 91h-18v66h60v-67z" />
    <glyph glyph-name="Rcaron" unicode="&#x158;" horiz-adv-x="585" 
d="M493 0l-165.001 322.998h-201v-323h-47v696h269c28.667 0 55.334 -4.16699 80.001 -12.5s45.667 -20.166 63 -35.499s31 -34.166 41 -56.499s15 -47.5 15 -75.5c0 -50 -15.333 -92 -46 -126s-71.667 -55.333 -123 -64l170 -326h-56zM497.999 515.998
c0 24.667 -4.49805 45.833 -13.498 63.5s-20.833 32 -35.5 43s-31.834 19.167 -51.501 24.5s-39.834 8 -60.501 8h-210v-290h207c23.333 0 45 3.16699 65 9.5s37.333 15.833 52 28.5s26.167 28.5 34.5 47.5s12.5 40.833 12.5 65.5zM402.001 860.997l18 -21l-126 -109h-37
l-131 110l17 21l130 -84z" />
    <glyph glyph-name="rcaron" unicode="&#x159;" horiz-adv-x="340" 
d="M326 445c-11.333 5.33301 -22.5 9.16699 -33.5 11.5s-21.5 3.5 -31.5 3.5c-21.333 0 -41 -3.66699 -59 -11s-33.5 -17.833 -46.5 -31.5s-23.167 -30 -30.5 -49s-11 -40.5 -11 -64.5v-304h-43v496h43v-85h3c17.333 34.667 40 58.334 68 71.001s56.333 19 85 19
c14 0 27.333 -0.833008 40 -2.5s24 -4.83398 34 -9.50098zM305 701.001l21 -20l-126 -124h-37l-131 124l21 21l127 -97z" />
    <glyph glyph-name="Sacute" unicode="&#x15a;" horiz-adv-x="530" 
d="M503 183c0 -28.667 -5.5 -54.6689 -16.5 -78.002s-27 -43.166 -48 -59.499s-46.333 -29 -76 -38s-63.167 -13.5 -100.5 -13.5c-44 0 -86.333 6.16699 -127 18.5s-78.667 31.166 -114 56.499l28 38c30.667 -22 64.334 -39 101.001 -51s75 -18 115 -18
c26.667 0 51.667 3 75 9s43.5 15 60.5 27s30.333 27.167 40 45.5s14.5 39.833 14.5 64.5c0 28 -5.66699 50.833 -17 68.5s-26 32 -44 43s-38.167 19.667 -60.5 26s-44.166 11.5 -65.499 15.5c-26 4.66699 -51.5 10.334 -76.5 17.001s-47.333 16.334 -67 29.001
s-35.667 29.334 -48 50.001s-18.5 47.667 -18.5 81c0 28.667 5.16699 54.667 15.5 78s25 43.166 44 59.499s41.833 28.833 68.5 37.5s56.667 13 90 13c77.333 0 143.666 -17.667 198.999 -53l-25 -40c-26.667 15.333 -54.667 27.333 -84 36s-60 13 -92 13
c-22 0 -43.333 -2.83301 -64 -8.5s-38.667 -14.334 -54 -26.001s-27.666 -26.5 -36.999 -44.5s-14 -39.667 -14 -65s5.33301 -45.833 16 -61.5s24.667 -28.167 42 -37.5s37.166 -16.666 59.499 -21.999s45.166 -10.333 68.499 -15c26.667 -5.33301 52.667 -11.833 78 -19.5
s48 -18.5 68 -32.5s36 -32.333 48 -55s18 -52 18 -88zM197 750.998l136 108l35 -37l-151 -93z" />
    <glyph glyph-name="sacute" unicode="&#x15b;" horiz-adv-x="446" 
d="M408 134c0 -20 -4.16797 -38.5039 -12.501 -55.5039s-20.5 -31.833 -36.5 -44.5s-35.833 -22.667 -59.5 -30s-51.167 -11 -82.5 -11c-36 0 -70.667 4.83301 -104 14.5s-63.666 25.167 -90.999 46.5l26 34c24 -19.333 50.833 -33.5 80.5 -42.5s61.5 -13.5 95.5 -13.5
c14.667 0 30.334 1.66699 47.001 5s31.834 9 45.501 17s25 18.667 34 32s13.5 30 13.5 50c0 17.333 -4 31.833 -12 43.5s-18.5 21.167 -31.5 28.5s-27.833 13.166 -44.5 17.499s-33.334 7.5 -50.001 9.5c-22 3.33301 -43.5 7.16602 -64.5 11.499s-39.667 10.833 -56 19.5
s-29.5 20.334 -39.5 35.001s-15 34 -15 58c0 22 4.33301 41.833 13 59.5s20.834 32.5 36.501 44.5s34.5 21.333 56.5 28s46 10 72 10c36 0 66.667 -3.66699 92 -11s49 -18.666 71 -33.999l-24 -35c-19.333 12 -40 21.667 -62 29s-46.667 11 -74 11
c-39.333 0 -71.833 -8.33301 -97.5 -25s-38.834 -41 -39.501 -73c0 -16.667 3.83301 -30.167 11.5 -40.5s18 -18.666 31 -24.999s28.167 -11.166 45.5 -14.499s35.666 -6.33301 54.999 -9c20 -3.33301 40.167 -7.66602 60.5 -12.999s38.5 -13.166 54.5 -23.499
s29.167 -23.833 39.5 -40.5s15.5 -37.667 15.5 -63zM194.999 574.996l78 154l49 -19l-100 -147z" />
    <glyph glyph-name="Scircumflex" unicode="&#x15c;" horiz-adv-x="530" 
d="M503 183c0 -28.667 -5.5 -54.6689 -16.5 -78.002s-27 -43.166 -48 -59.499s-46.333 -29 -76 -38s-63.167 -13.5 -100.5 -13.5c-44 0 -86.333 6.16699 -127 18.5s-78.667 31.166 -114 56.499l28 38c30.667 -22 64.334 -39 101.001 -51s75 -18 115 -18
c26.667 0 51.667 3 75 9s43.5 15 60.5 27s30.333 27.167 40 45.5s14.5 39.833 14.5 64.5c0 28 -5.66699 50.833 -17 68.5s-26 32 -44 43s-38.167 19.667 -60.5 26s-44.166 11.5 -65.499 15.5c-26 4.66699 -51.5 10.334 -76.5 17.001s-47.333 16.334 -67 29.001
s-35.667 29.334 -48 50.001s-18.5 47.667 -18.5 81c0 28.667 5.16699 54.667 15.5 78s25 43.166 44 59.499s41.833 28.833 68.5 37.5s56.667 13 90 13c77.333 0 143.666 -17.667 198.999 -53l-25 -40c-26.667 15.333 -54.667 27.333 -84 36s-60 13 -92 13
c-22 0 -43.333 -2.83301 -64 -8.5s-38.667 -14.334 -54 -26.001s-27.666 -26.5 -36.999 -44.5s-14 -39.667 -14 -65s5.33301 -45.833 16 -61.5s24.667 -28.167 42 -37.5s37.166 -16.666 59.499 -21.999s45.166 -10.333 68.499 -15c26.667 -5.33301 52.667 -11.833 78 -19.5
s48 -18.5 68 -32.5s36 -32.333 48 -55s18 -52 18 -88zM276 813.998l-130 -84l-18 21l131 109h37l127 -108l-18 -21z" />
    <glyph glyph-name="scircumflex" unicode="&#x15d;" horiz-adv-x="446" 
d="M408 134c0 -20 -4.16797 -38.5039 -12.501 -55.5039s-20.5 -31.833 -36.5 -44.5s-35.833 -22.667 -59.5 -30s-51.167 -11 -82.5 -11c-36 0 -70.667 4.83301 -104 14.5s-63.666 25.167 -90.999 46.5l26 34c24 -19.333 50.833 -33.5 80.5 -42.5s61.5 -13.5 95.5 -13.5
c14.667 0 30.334 1.66699 47.001 5s31.834 9 45.501 17s25 18.667 34 32s13.5 30 13.5 50c0 17.333 -4 31.833 -12 43.5s-18.5 21.167 -31.5 28.5s-27.833 13.166 -44.5 17.499s-33.334 7.5 -50.001 9.5c-22 3.33301 -43.5 7.16602 -64.5 11.499s-39.667 10.833 -56 19.5
s-29.5 20.334 -39.5 35.001s-15 34 -15 58c0 22 4.33301 41.833 13 59.5s20.834 32.5 36.501 44.5s34.5 21.333 56.5 28s46 10 72 10c36 0 66.667 -3.66699 92 -11s49 -18.666 71 -33.999l-24 -35c-19.333 12 -40 21.667 -62 29s-46.667 11 -74 11
c-39.333 0 -71.833 -8.33301 -97.5 -25s-38.834 -41 -39.501 -73c0 -16.667 3.83301 -30.167 11.5 -40.5s18 -18.666 31 -24.999s28.167 -11.166 45.5 -14.499s35.666 -6.33301 54.999 -9c20 -3.33301 40.167 -7.66602 60.5 -12.999s38.5 -13.166 54.5 -23.499
s29.167 -23.833 39.5 -40.5s15.5 -37.667 15.5 -63zM221.999 653.996l-127 -98l-21 21l132 124h37l126 -123l-21 -21z" />
    <glyph glyph-name="Scedilla" unicode="&#x15e;" horiz-adv-x="530" 
d="M503 183c0 -56.667 -20.1709 -101.672 -60.5039 -135.005s-95.833 -51.333 -166.5 -54c-2 -6 -4.16699 -12 -6.5 -18s-4.5 -12.333 -6.5 -19c19.333 -1.33301 35 -4.83301 47 -10.5s21.5 -12.167 28.5 -19.5s11.833 -15.166 14.5 -23.499s4 -16.166 4 -23.499
s-1.66699 -15.166 -5 -23.499s-8.66602 -16.166 -15.999 -23.499s-16.666 -13.333 -27.999 -18s-25.333 -7 -42 -7c-6 0 -16.5 0.666992 -31.5 2s-31.167 5 -48.5 11l10 25c12.667 -4.66699 24.834 -7.83398 36.501 -9.50098s22.167 -2.5 31.5 -2.5
c4.66699 0 10.334 0.833008 17.001 2.5s13 4.33398 19 8.00098s11 8.5 15 14.5s6 13.333 6 22c0 15.333 -7.5 27.5 -22.5 36.5s-33.833 13.5 -56.5 13.5h-4l-10 8l18 55c-40.667 1.33301 -80 8.16602 -118 20.499s-73.667 30.5 -107 54.5l28 38
c30.667 -22 64.334 -39 101.001 -51s75 -18 115 -18c26.667 0 51.667 3 75 9s43.5 15 60.5 27s30.333 27.167 40 45.5s14.5 39.833 14.5 64.5c0 28 -5.66699 50.833 -17 68.5s-26 32 -44 43s-38.167 19.667 -60.5 26s-44.166 11.5 -65.499 15.5
c-26 4.66699 -51.5 10.334 -76.5 17.001s-47.333 16.334 -67 29.001s-35.667 29.334 -48 50.001s-18.5 47.667 -18.5 81c0 28.667 5.16699 54.667 15.5 78s25 43.166 44 59.499s41.833 28.833 68.5 37.5s56.667 13 90 13c77.333 0 143.666 -17.667 198.999 -53l-25 -40
c-26.667 15.333 -54.667 27.333 -84 36s-60 13 -92 13c-22 0 -43.333 -2.83301 -64 -8.5s-38.667 -14.334 -54 -26.001s-27.666 -26.5 -36.999 -44.5s-14 -39.667 -14 -65s5.33301 -45.833 16 -61.5s24.667 -28.167 42 -37.5s37.166 -16.666 59.499 -21.999
s45.166 -10.333 68.499 -15c26.667 -5.33301 52.667 -11.833 78 -19.5s48 -18.5 68 -32.5s36 -32.333 48 -55s18 -52 18 -88z" />
    <glyph glyph-name="scedilla" unicode="&#x15f;" horiz-adv-x="446" 
d="M408 134c0 -38.667 -15.1689 -71.3408 -45.502 -98.0078s-74.833 -41 -133.5 -43l-12 -36c19.333 -1.33301 35 -4.83301 47 -10.5s21.5 -12.167 28.5 -19.5s11.833 -15.166 14.5 -23.499s4 -16.166 4 -23.499s-1.66699 -15.166 -5 -23.499
s-8.66602 -16.166 -15.999 -23.499s-16.666 -13.333 -27.999 -18s-25.333 -7 -42 -7c-6 0 -16.5 0.666992 -31.5 2s-31.167 5 -48.5 11l10 25c12.667 -4.66699 24.834 -7.83398 36.501 -9.50098s22.167 -2.5 31.5 -2.5c4.66699 0 10.334 0.833008 17.001 2.5
s13 4.33398 19 8.00098s11 8.5 15 14.5s6 13.333 6 22c0 15.333 -7.5 27.5 -22.5 36.5s-33.833 13.5 -56.5 13.5h-4l-10 8l18 55c-32.667 1.33301 -64.334 6.83301 -95.001 16.5s-58.334 24.167 -83.001 43.5l26 34c24 -19.333 50.833 -33.5 80.5 -42.5
s61.5 -13.5 95.5 -13.5c14.667 0 30.334 1.66699 47.001 5s31.834 9 45.501 17s25 18.667 34 32s13.5 30 13.5 50c0 17.333 -4 31.833 -12 43.5s-18.5 21.167 -31.5 28.5s-27.833 13.166 -44.5 17.499s-33.334 7.5 -50.001 9.5c-22 3.33301 -43.5 7.16602 -64.5 11.499
s-39.667 10.833 -56 19.5s-29.5 20.334 -39.5 35.001s-15 34 -15 58c0 22 4.33301 41.833 13 59.5s20.834 32.5 36.501 44.5s34.5 21.333 56.5 28s46 10 72 10c36 0 66.667 -3.66699 92 -11s49 -18.666 71 -33.999l-24 -35c-19.333 12 -40 21.667 -62 29s-46.667 11 -74 11
c-39.333 0 -71.833 -8.33301 -97.5 -25s-38.834 -41 -39.501 -73c0 -16.667 3.83301 -30.167 11.5 -40.5s18 -18.666 31 -24.999s28.167 -11.166 45.5 -14.499s35.666 -6.33301 54.999 -9c20 -3.33301 40.167 -7.66602 60.5 -12.999s38.5 -13.166 54.5 -23.499
s29.167 -23.833 39.5 -40.5s15.5 -37.667 15.5 -63z" />
    <glyph glyph-name="Scaron" unicode="&#x160;" horiz-adv-x="546" 
d="M509 181c0 -28.667 -5.66504 -54.5029 -16.998 -77.5029s-27.333 -42.667 -48 -59s-45.667 -28.833 -75 -37.5s-62 -13 -98 -13c-47.333 0 -90 5.66699 -128 17s-75 29.666 -111 54.999l28 37c30 -19.333 63 -35 99 -47s74 -18 114 -18c25.333 0 49.333 3.16699 72 9.5
s42.5 15.5 59.5 27.5s30.5 26.833 40.5 44.5s15 38.167 15 61.5c0 28 -5.83301 50.833 -17.5 68.5s-26.5 31.834 -44.5 42.501s-37.833 18.5 -59.5 23.5s-42.167 9.16699 -61.5 12.5c-31.333 4.66699 -60.833 10.834 -88.5 18.501s-51.667 18.334 -72 32.001
s-36.333 31.334 -48 53.001s-17.5 49.167 -17.5 82.5c0 26.667 4.83301 51.5 14.5 74.5s23.834 43 42.501 60s41.5 30.167 68.5 39.5s57.833 14 92.5 14c37.333 0 73 -4.5 107 -13.5s65.667 -22.167 95 -39.5l-27 -41c-27.333 14.667 -56.166 26.667 -86.499 36
s-61.5 14 -93.5 14c-20.667 0 -40.834 -3 -60.501 -9s-37.334 -15 -53.001 -27s-28.167 -27.167 -37.5 -45.5s-14 -39.833 -14 -64.5c0 -26 6 -47.333 18 -64s27.167 -30 45.5 -40s38.166 -17.5 59.499 -22.5s41.333 -9.16699 60 -12.5
c29.333 -5.33301 57.666 -12 84.999 -20s51.5 -19 72.5 -33s37.833 -32.167 50.5 -54.5s19 -50.5 19 -84.5zM400.002 860.997l18 -21l-126 -109h-37l-131 110l17 21l130 -84z" />
    <glyph glyph-name="scaron" unicode="&#x161;" horiz-adv-x="460" 
d="M420 133c0 -40 -16.8311 -73.332 -50.498 -99.999s-82.834 -40 -147.501 -40c-72 0 -135.667 20.667 -191 62l26 34c48.667 -38 106.667 -57 174 -57c15.333 0 31.333 1.66699 48 5s32 9 46 17s25.667 18.667 35 32s14 30 14 50s-4.5 36.167 -13.5 48.5
s-20.333 21.666 -34 27.999s-28.834 10.833 -45.501 13.5s-32.667 4.66699 -48 6c-20.667 2 -42 5 -64 9s-42.167 10.667 -60.5 20s-33.333 22 -45 38s-17.5 37 -17.5 63c0 22 4.33301 41.667 13 59s21 31.833 37 43.5s34.833 20.667 56.5 27s45.5 9.5 71.5 9.5
c36 0 66.833 -3.66699 92.5 -11s49.834 -18 72.501 -32l-24 -37c-21.333 12.667 -43.166 22.5 -65.499 29.5s-47.5 10.5 -75.5 10.5c-18.667 0 -36 -2.16699 -52 -6.5s-30 -10.833 -42 -19.5s-21.5 -19.167 -28.5 -31.5s-10.5 -26.5 -10.5 -42.5
c0 -18.667 5.16699 -33.5 15.5 -44.5s23.166 -19.333 38.499 -25s31.666 -9.66699 48.999 -12s33.333 -4.16602 48 -5.49902c20.667 -2 41.667 -5 63 -9s40.5 -11 57.5 -21s30.833 -23.833 41.5 -41.5s16 -40.834 16 -69.501zM341.002 701.001l21 -20l-126 -124h-37
l-132 124l21 21l127 -97z" />
    <glyph glyph-name="Tcommaaccent" unicode="&#x162;" horiz-adv-x="478" 
d="M264 655v-655h-46v655h-210v41h463v-41h-207zM229 -236h-28l28 91h-18v66h60v-67z" />
    <glyph glyph-name="tcommaaccent" unicode="&#x163;" horiz-adv-x="264" 
d="M96 -236l13.501 46.001c4.33301 15.333 9.16602 30.666 14.499 45.999h-18v66h60v-68l-21 -45l-21 -45h-28zM194.001 0.000976562c-38 0 -64.5 10.333 -79.5 31s-22.5 49 -22.5 85v343h-68v37h68v131h45v-131h92v-37h-92v-339c0 -11.333 0.833008 -22 2.5 -32
s5.16699 -18.667 10.5 -26s12.833 -13 22.5 -17s22.167 -6 37.5 -6h31v-39h-47z" />
    <glyph glyph-name="Tcaron" unicode="&#x164;" horiz-adv-x="478" 
d="M264 655v-655h-46v655h-210v41h463v-41h-207zM367 861l18 -21l-126 -109h-37l-131 110l17 21l130 -84z" />
    <glyph glyph-name="tcaron" unicode="&#x165;" horiz-adv-x="303" 
d="M194 0c-38 0 -64.5 10.333 -79.5 31s-22.5 49 -22.5 85v343h-68v37h68v131h45v-131h92v-37h-92v-339c0 -11.333 0.833008 -22 2.5 -32s5.16699 -18.667 10.5 -26s12.833 -13 22.5 -17s22.167 -6 37.5 -6h31v-39h-47zM206 572l29 92h-19v66h61v-68l-21 -45l-21 -45h-29z
" />
    <glyph glyph-name="Tbar" unicode="&#x166;" horiz-adv-x="478" 
d="M264 655v-265h154v-37h-154v-353h-46v353h-156v37h156v265h-210v41h463v-41h-207z" />
    <glyph glyph-name="tbar" unicode="&#x167;" horiz-adv-x="264" 
d="M21 298l71 0.00292969v161h-68v37h68v131h45v-131h92v-37h-92v-161h88v-35h-88v-143c0 -10.667 1 -20.834 3 -30.501s5.83301 -18.334 11.5 -26.001s13.167 -13.667 22.5 -18s21.333 -6.5 36 -6.5h31v-39h-45c-36 0 -62.333 9.66699 -79 29s-25 43.666 -25 72.999v161
h-71v35z" />
    <glyph glyph-name="Utilde" unicode="&#x168;" horiz-adv-x="606" 
d="M542 696l-0.000976562 -463.998c0 -36 -6 -68.667 -18 -98s-28.5 -54.333 -49.5 -75s-46.167 -36.667 -75.5 -48s-61.333 -17 -96 -17c-36 0 -68.5 6 -97.5 18s-54 28.833 -75 50.5s-37.167 47.5 -48.5 77.5s-17 63 -17 99v457h46v-446c0 -29.333 4.5 -57 13.5 -83
s21.833 -48.5 38.5 -67.5s36.834 -34 60.501 -45s50.167 -16.5 79.5 -16.5c28 0 53.667 4.66699 77 14s43.5 22.666 60.5 39.999s30.167 38.666 39.5 63.999s14 54 14 86v454h48zM373.999 758.002c-10 0 -20.4971 2.16504 -31.4971 6.49805s-22 9 -33 14
s-21.833 9.66699 -32.5 14s-20.667 6.5 -30 6.5c-12.667 0 -23.834 -3.16699 -33.501 -9.5s-19.834 -15.833 -30.501 -28.5l-28 16c26 43.333 56.667 65 92 65c10.667 0 21.5 -2.16699 32.5 -6.5s22 -9.16602 33 -14.499s21.667 -10.166 32 -14.499s19.833 -6.5 28.5 -6.5
c10 0 19.667 3 29 9s18.666 16.333 27.999 31l29 -17c-12.667 -23.333 -26 -40 -40 -50s-29 -15 -45 -15z" />
    <glyph glyph-name="utilde" unicode="&#x169;" horiz-adv-x="517" 
d="M402 0l-0.00292969 80.0029h-2c-8 -16 -18.167 -29.333 -30.5 -40s-25.666 -19.334 -39.999 -26.001s-29.166 -11.5 -44.499 -14.5s-30 -4.5 -44 -4.5c-26 0 -49.667 3.83301 -71 11.5s-39.833 18.667 -55.5 33s-27.834 31.833 -36.501 52.5s-13 44 -13 70v334h44v-317
c0 -46.667 12.833 -82.334 38.5 -107.001s59.834 -37 102.501 -37c21.333 0 41.333 3.83301 60 11.5s34.834 18.5 48.501 32.5s24.5 30.667 32.5 50s12 40.666 12 63.999v303h42v-496h-43zM330.997 588.003c-10 0 -20.4971 2.16504 -31.4971 6.49805s-22 9 -33 14
s-21.833 9.66699 -32.5 14s-20.667 6.5 -30 6.5c-12.667 0 -23.834 -3.16699 -33.501 -9.5s-19.834 -15.833 -30.501 -28.5l-28 16c26 43.333 56.667 65 92 65c10.667 0 21.5 -2.16699 32.5 -6.5s22 -9.16602 33 -14.499s21.667 -10.166 32 -14.499s19.833 -6.5 28.5 -6.5
c10 0 19.667 3 29 9s18.666 16.333 27.999 31l29 -17c-12.667 -23.333 -26 -40 -40 -50s-29 -15 -45 -15z" />
    <glyph glyph-name="Umacron" unicode="&#x16a;" horiz-adv-x="606" 
d="M542 696l-0.000976562 -463.998c0 -36 -6 -68.667 -18 -98s-28.5 -54.333 -49.5 -75s-46.167 -36.667 -75.5 -48s-61.333 -17 -96 -17c-36 0 -68.5 6 -97.5 18s-54 28.833 -75 50.5s-37.167 47.5 -48.5 77.5s-17 63 -17 99v457h46v-446c0 -29.333 4.5 -57 13.5 -83
s21.833 -48.5 38.5 -67.5s36.834 -34 60.501 -45s50.167 -16.5 79.5 -16.5c28 0 53.667 4.66699 77 14s43.5 22.666 60.5 39.999s30.167 38.666 39.5 63.999s14 54 14 86v454h48zM164.999 769.002v41h255v-41h-255z" />
    <glyph glyph-name="umacron" unicode="&#x16b;" horiz-adv-x="517" 
d="M402 0l0.000976562 80.0029h-2c-8 -16 -18 -29.333 -30 -40s-24.833 -19.334 -38.5 -26.001s-27.834 -11.5 -42.501 -14.5s-29 -4.5 -43 -4.5c-25.333 0 -49 3.83301 -71 11.5s-41.167 18.667 -57.5 33s-29.166 31.833 -38.499 52.5s-14 44 -14 70v334h44v-317
c0 -46.667 13.667 -82.334 41 -107.001s62.333 -37 105 -37c21.333 0 41 3.83301 59 11.5s33.667 18.5 47 32.5s23.666 30.667 30.999 50s11 40.666 11 63.999v303h42v-496h-43zM129.001 593.003v41h255v-41h-255z" />
    <glyph glyph-name="Ubreve" unicode="&#x16c;" horiz-adv-x="606" 
d="M542 696l-0.000976562 -463.998c0 -36 -6 -68.667 -18 -98s-28.5 -54.333 -49.5 -75s-46.167 -36.667 -75.5 -48s-61.333 -17 -96 -17c-36 0 -68.5 6 -97.5 18s-54 28.833 -75 50.5s-37.167 47.5 -48.5 77.5s-17 63 -17 99v457h46v-446c0 -29.333 4.5 -57 13.5 -83
s21.833 -48.5 38.5 -67.5s36.834 -34 60.501 -45s50.167 -16.5 79.5 -16.5c28 0 53.667 4.66699 77 14s43.5 22.666 60.5 39.999s30.167 38.666 39.5 63.999s14 54 14 86v454h48zM209.999 824.002c3.33301 -22 13.4951 -39.667 30.4951 -53s36.167 -20 57.5 -20
c22 0 41 5.83301 57 17.5s26.667 30.167 32 55.5h38c-2 -12.667 -5.66699 -25.5 -11 -38.5s-13 -24.833 -23 -35.5s-22.667 -19.334 -38 -26.001s-33.666 -10 -54.999 -10s-39.666 3.33301 -54.999 10s-28.166 15.334 -38.499 26.001s-18.166 22.5 -23.499 35.5
s-8.66602 25.833 -9.99902 38.5h39z" />
    <glyph glyph-name="ubreve" unicode="&#x16d;" horiz-adv-x="517" 
d="M402 0l0.000976562 80.0029h-2c-8 -16 -18 -29.333 -30 -40s-24.833 -19.334 -38.5 -26.001s-27.834 -11.5 -42.501 -14.5s-29 -4.5 -43 -4.5c-25.333 0 -49 3.83301 -71 11.5s-41.167 18.667 -57.5 33s-29.166 31.833 -38.499 52.5s-14 44 -14 70v334h44v-317
c0 -46.667 13.667 -82.334 41 -107.001s62.333 -37 105 -37c21.333 0 41 3.83301 59 11.5s33.667 18.5 47 32.5s23.666 30.667 30.999 50s11 40.666 11 63.999v303h42v-496h-43zM168.001 674.003c3.33301 -22 13.4951 -39.667 30.4951 -53s36.167 -20 57.5 -20
c22 0 41 5.83301 57 17.5s26.667 30.167 32 55.5h38c-2 -12.667 -5.66699 -25.5 -11 -38.5s-13 -24.833 -23 -35.5s-22.667 -19.334 -38 -26.001s-33.666 -10 -54.999 -10s-39.666 3.33301 -54.999 10s-28.166 15.334 -38.499 26.001s-18.166 22.5 -23.499 35.5
s-8.66602 25.833 -9.99902 38.5h39z" />
    <glyph glyph-name="Uring" unicode="&#x16e;" horiz-adv-x="606" 
d="M542 696l-0.000976562 -463.998c0 -36 -6 -68.667 -18 -98s-28.5 -54.333 -49.5 -75s-46.167 -36.667 -75.5 -48s-61.333 -17 -96 -17c-36 0 -68.5 6 -97.5 18s-54 28.833 -75 50.5s-37.167 47.5 -48.5 77.5s-17 63 -17 99v457h46v-446c0 -29.333 4.5 -57 13.5 -83
s21.833 -48.5 38.5 -67.5s36.834 -34 60.501 -45s50.167 -16.5 79.5 -16.5c28 0 53.667 4.66699 77 14s43.5 22.666 60.5 39.999s30.167 38.666 39.5 63.999s14 54 14 86v454h48zM303.999 715.002c-25.333 0 -46.833 8.83301 -64.5 26.5s-26.5 38.834 -26.5 63.501
c0 25.333 8.83301 46.666 26.5 63.999s39.167 26 64.5 26s46.666 -8.66699 63.999 -26s26 -38.666 26 -63.999c0 -24.667 -8.66699 -45.834 -26 -63.501s-38.666 -26.5 -63.999 -26.5zM303.999 868.002c-17.333 0 -32.166 -6.16699 -44.499 -18.5
s-18.5 -27.166 -18.5 -44.499s6.16699 -32.166 18.5 -44.499s27.166 -18.5 44.499 -18.5s32.166 6.16699 44.499 18.5s18.5 27.166 18.5 44.499s-6.16699 32.166 -18.5 44.499s-27.166 18.5 -44.499 18.5z" />
    <glyph glyph-name="uring" unicode="&#x16f;" horiz-adv-x="517" 
d="M402 0l0.000976562 80.0029h-2c-8 -16 -18 -29.333 -30 -40s-24.833 -19.334 -38.5 -26.001s-27.834 -11.5 -42.501 -14.5s-29 -4.5 -43 -4.5c-25.333 0 -49 3.83301 -71 11.5s-41.167 18.667 -57.5 33s-29.166 31.833 -38.499 52.5s-14 44 -14 70v334h44v-317
c0 -46.667 13.667 -82.334 41 -107.001s62.333 -37 105 -37c21.333 0 41 3.83301 59 11.5s33.667 18.5 47 32.5s23.666 30.667 30.999 50s11 40.666 11 63.999v303h42v-496h-43zM252.001 553.003c-25.333 0 -46.833 8.83301 -64.5 26.5s-26.5 38.834 -26.5 63.501
c0 25.333 8.83301 46.666 26.5 63.999s39.167 26 64.5 26s46.666 -8.66699 63.999 -26s26 -38.666 26 -63.999c0 -24.667 -8.66699 -45.834 -26 -63.501s-38.666 -26.5 -63.999 -26.5zM252.001 706.003c-17.333 0 -32.166 -6.16699 -44.499 -18.5
s-18.5 -27.166 -18.5 -44.499s6.16699 -32.166 18.5 -44.499s27.166 -18.5 44.499 -18.5s32.166 6.16699 44.499 18.5s18.5 27.166 18.5 44.499s-6.16699 32.166 -18.5 44.499s-27.166 18.5 -44.499 18.5z" />
    <glyph glyph-name="Uhungarumlaut" unicode="&#x170;" horiz-adv-x="606" 
d="M542 696l-0.000976562 -463.998c0 -36 -6 -68.667 -18 -98s-28.5 -54.333 -49.5 -75s-46.167 -36.667 -75.5 -48s-61.333 -17 -96 -17c-36 0 -68.5 6 -97.5 18s-54 28.833 -75 50.5s-37.167 47.5 -48.5 77.5s-17 63 -17 99v457h46v-446c0 -29.333 4.5 -57 13.5 -83
s21.833 -48.5 38.5 -67.5s36.834 -34 60.501 -45s50.167 -16.5 79.5 -16.5c28 0 53.667 4.66699 77 14s43.5 22.666 60.5 39.999s30.167 38.666 39.5 63.999s14 54 14 86v454h48zM318.999 751.002l136 108l35 -37l-151 -93zM201.999 751.002l135 108l36 -37l-152 -93z" />
    <glyph glyph-name="uhungarumlaut" unicode="&#x171;" horiz-adv-x="517" 
d="M402 0l0.000976562 80.0029h-2c-8 -16 -18 -29.333 -30 -40s-24.833 -19.334 -38.5 -26.001s-27.834 -11.5 -42.501 -14.5s-29 -4.5 -43 -4.5c-25.333 0 -49 3.83301 -71 11.5s-41.167 18.667 -57.5 33s-29.166 31.833 -38.499 52.5s-14 44 -14 70v334h44v-317
c0 -46.667 13.667 -82.334 41 -107.001s62.333 -37 105 -37c21.333 0 41 3.83301 59 11.5s33.667 18.5 47 32.5s23.666 30.667 30.999 50s11 40.666 11 63.999v303h42v-496h-43zM177.001 575.003l79 154l48 -19l-99 -147zM278.001 575.003l79 154l48 -19l-99 -147z" />
    <glyph glyph-name="Uogonek" unicode="&#x172;" horiz-adv-x="606" 
d="M255 -91c0 12 2.5 25.334 7.5 40.001s13.833 29.667 26.5 45c-34 2 -64.667 9.33301 -92 22s-50.833 29.667 -70.5 51s-34.834 46.666 -45.501 75.999s-16 61.333 -16 96v457h46v-446c0 -29.333 4.5 -57 13.5 -83s21.833 -48.5 38.5 -67.5s36.834 -34 60.501 -45
s50.167 -16.5 79.5 -16.5c28 0 53.667 4.66699 77 14s43.5 22.666 60.5 39.999s30.167 38.666 39.5 63.999s14 54 14 86v454h48v-464c0 -34 -5.33301 -65 -16 -93s-25.5 -52.167 -44.5 -72.5s-41.667 -36.666 -68 -48.999s-55.166 -19.5 -86.499 -21.5
c-10.667 -14 -18.834 -28 -24.501 -42s-8.5 -26.667 -8.5 -38c0 -18 5.16699 -31.167 15.5 -39.5s23.5 -12.5 39.5 -12.5c16.667 0 35.667 5.33301 57 16l13 -30c-9.33301 -5.33301 -20.833 -10.166 -34.5 -14.499s-28.167 -6.5 -43.5 -6.5c-26.667 0 -47.667 8 -63 24
s-23 34.667 -23 56z" />
    <glyph glyph-name="uogonek" unicode="&#x173;" horiz-adv-x="517" 
d="M360 -92c0 13.333 2.99805 28.168 8.99805 44.501s16.667 32.5 32 48.5v79h-2c-8 -16 -18 -29.333 -30 -40s-24.667 -19.334 -38 -26.001s-27.333 -11.5 -42 -14.5s-29 -4.5 -43 -4.5c-25.333 0 -49 3.83301 -71 11.5s-41.167 18.667 -57.5 33
s-29.166 31.833 -38.499 52.5s-14 44 -14 70v334h44v-318c0 -46 13.5 -81.333 40.5 -106s62.167 -37 105.5 -37c21.333 0 41 3.83301 59 11.5s33.5 18.334 46.5 32.001s23.167 30.167 30.5 49.5s11 40.666 11 63.999v304h42v-496c-15.333 -14 -26.666 -28.833 -33.999 -44.5
s-11 -29.167 -11 -40.5c0 -18 5.16699 -31.167 15.5 -39.5s23.5 -12.5 39.5 -12.5c16.667 0 35.667 5.33301 57 16l13 -29c-9.33301 -6 -21 -11.167 -35 -15.5s-28.333 -6.5 -43 -6.5c-26.667 0 -47.667 8 -63 24s-23 34.667 -23 56z" />
    <glyph glyph-name="Wcircumflex" unicode="&#x174;" horiz-adv-x="809" 
d="M619 0h-43l-105 376l-33.5 119l-33.5 119h-1l-169 -614h-44l-85.5 348l-84.5 348h48l44.5 -189.5l44.5 -188.5l56 -239h2l32 120l33 119l105 378h40l53 -190.5l53 -189.5l66 -237h1l54 236l89 381h49zM534 730l-64 42l-65 41l-129 -84l-18 21l131 110h37l126 -109z" />
    <glyph glyph-name="wcircumflex" unicode="&#x175;" horiz-adv-x="703" 
d="M539 0h-44l-44 130.5l-44 130.5l-57 166l-28 -83.5l-28 -82.5l-43.5 -130.5l-44.5 -130.5h-44l-154 494h48l80 -271l48 -160h2l53 159l45.5 136l44.5 136h44l45 -135.5l44 -135.5l53 -162h3l48 163l80 270h48zM350 653l-63 -49l-63 -48l-10.5 10.5l-10.5 10.5l131 124h37
l126 -124l-21 -20z" />
    <glyph glyph-name="Ycircumflex" unicode="&#x176;" horiz-adv-x="475" 
d="M259 0l-43.999 -0.000976562v288l-209 408h49l21.5 -42l33 -66l39 -78l38 -77l31.5 -63.5c9.33301 -18.333 15.666 -31.166 18.999 -38.499l37 73.5l36 74.5l55.5 108l53.5 109h48l-104.5 -204l-103.5 -204v-288zM366.001 729.999l-65 42l-64 41l-130 -84l-18 21l131 110
h37l127 -109z" />
    <glyph glyph-name="ycircumflex" unicode="&#x177;" horiz-adv-x="419" 
d="M197 -111c-10.667 -30.667 -26.3311 -53.167 -46.998 -67.5s-43 -21.5 -67 -21.5h-21v39h20c16.667 0 32.167 6 46.5 18s25.166 29.667 32.499 53l13.5 42c4.33301 14 9.16602 28 14.499 42l-92.5 249.5l-92.5 250.5h49l84 -233l36.5 -105l36.5 -105h2l17 48l27.5 78.5
l33 94l33 94l27.5 79l17 49.5h46zM215.003 653l-63 -49l-63 -48l-10.5 10.5l-10.5 10.5l131 124h37l126 -124l-21 -20z" />
    <glyph glyph-name="Ydieresis" unicode="&#x178;" horiz-adv-x="475" 
d="M259 0l-43.999 -0.000976562v288l-209 408h49l21.5 -42l33 -66l39 -78l38 -77l31.5 -63.5c9.33301 -18.333 15.666 -31.166 18.999 -38.499l37 73.5l36 74.5l55.5 108l53.5 109h48l-104.5 -204l-103.5 -204v-288zM308.001 810.999h55v-53h-55v53zM130.001 810.999h54v-53
h-54v53z" />
    <glyph glyph-name="Zacute" unicode="&#x179;" horiz-adv-x="488" 
d="M33 0v42l370 613h-354v41h406v-40l-370 -613h370v-43h-422zM202 751l135 108l36 -37l-151 -93z" />
    <glyph glyph-name="zacute" unicode="&#x17a;" horiz-adv-x="421" 
d="M35 0v36l300 421h-285v38h335v-37l-298 -419h298v-39h-350zM199 575l79 154l48 -19l-99 -147z" />
    <glyph glyph-name="Zdotaccent" unicode="&#x17b;" horiz-adv-x="488" 
d="M33 0v42l370 613h-354v41h406v-40l-370 -613h370v-43h-422zM231 765v53h55v-53h-55z" />
    <glyph glyph-name="zdotaccent" unicode="&#x17c;" horiz-adv-x="421" 
d="M35 0v36l300 421h-285v38h335v-37l-298 -419h298v-39h-350zM193 608v54h55v-54h-55z" />
    <glyph glyph-name="Zcaron" unicode="&#x17d;" horiz-adv-x="488" 
d="M33 0v42l370 613h-354v41h406v-40l-370 -613h370v-43h-422zM386 861l18 -21l-126 -109h-37l-131 110l17 21l130 -84z" />
    <glyph glyph-name="zcaron" unicode="&#x17e;" horiz-adv-x="421" 
d="M35 0v36l300 421h-285v38h335v-37l-298 -419h298v-39h-350zM338 701l21 -20l-126 -124h-37l-132 124l21 21l127 -97z" />
    <glyph glyph-name="florin" unicode="&#x192;" horiz-adv-x="467" 
d="M125 407l97 -0.000976562c5.33301 38.667 10.833 75.834 16.5 111.501s14.5 67 26.5 94s28.667 48.5 50 64.5s50 24 86 24c25.333 0 49.666 -3.66699 72.999 -11l-12 -41c-20 6.66699 -40.667 10 -62 10c-24.667 0 -44.334 -5.5 -59.001 -16.5s-26.5 -27.167 -35.5 -48.5
s-16.167 -47.666 -21.5 -78.999s-10.666 -67.333 -15.999 -108h111v-38h-116l-34 -243c-4.66699 -33.333 -10.5 -63.5 -17.5 -90.5s-16.667 -50 -29 -69s-28 -33.667 -47 -44s-42.5 -15.5 -70.5 -15.5c-10.667 0 -23.167 1.16699 -37.5 3.5s-27.166 5.16602 -38.499 8.49902
c1.33301 4.66699 2.83301 9.5 4.5 14.5s4.16699 13.167 7.5 24.5c22 -7.33301 42.333 -11 61 -11c32 0 57.5 11.333 76.5 34s32.167 60.667 39.5 114l39 274h-92v38z" />
    <glyph glyph-name="Ohorn" unicode="&#x1a0;" horiz-adv-x="574" 
d="M286 701c33.333 0 63.333 -5.00293 90 -15.0029s50 -23.667 70 -41c24 0.666992 42.333 8.83398 55 24.501s19 40.5 19 74.5v26h42v-28c0 -32 -6.33301 -60.167 -19 -84.5s-34.667 -40.166 -66 -47.499c15.333 -21.333 27 -45.166 35 -71.499s12 -54.833 12 -85.5v-207
c0 -38.667 -5.5 -73.667 -16.5 -105s-26.833 -58 -47.5 -80s-45.667 -38.833 -75 -50.5s-62.333 -17.5 -99 -17.5c-41.333 0 -77.166 6.83301 -107.499 20.5s-55.333 32 -75 55s-34.334 49.833 -44.001 80.5s-14.5 63 -14.5 97v207c0 33.333 5 65 15 95s25 56.333 45 79
s45 40.667 75 54s65.333 20 106 20zM287 656.997c-32.667 0 -61.165 -5.50098 -85.498 -16.501s-44.5 -26 -60.5 -45s-28 -40.833 -36 -65.5s-12 -51 -12 -79v-207c0 -27.333 4 -53.5 12 -78.5s20 -47.167 36 -66.5s36.167 -34.666 60.5 -45.999s52.833 -17 85.5 -17
c29.333 0 55.666 5.33301 78.999 16s43.166 25.334 59.499 44.001s28.833 41 37.5 67s13 54.333 13 85v203c0 28.667 -4.33301 55.667 -13 81s-21 47.166 -37 65.499s-35.667 32.833 -59 43.5s-50 16 -80 16z" />
    <glyph glyph-name="ohorn" unicode="&#x1a1;" horiz-adv-x="511" 
d="M248 501c30 0 57.166 -5 81.499 -15s45.166 -24.667 62.499 -44h2c25.333 0 44.5 8 57.5 24s19.5 41 19.5 75v26h42v-28c0 -34 -7.16699 -63.5 -21.5 -88.5s-39.166 -40.167 -74.499 -45.5c8.66699 -16.667 15.334 -37 20.001 -61s7 -55 7 -93
c0 -48 -4.33301 -87.167 -13 -117.5s-20.334 -54.5 -35.001 -72.5c-16.667 -21.333 -38.167 -37.833 -64.5 -49.5s-56.5 -17.5 -90.5 -17.5c-61.333 0 -108.666 18.667 -141.999 56c-17.333 20 -30.833 45.667 -40.5 77s-14.5 72 -14.5 122c0 46 5 83.5 15 112.5
s23.333 52.833 40 71.5c16.667 21.333 37.5 38 62.5 50s53.833 18 86.5 18zM246.999 462c-25.333 0 -47.834 -5 -67.501 -15s-35.834 -23.667 -48.501 -41c-13.333 -16 -23.833 -36.167 -31.5 -60.5s-11.5 -57.166 -11.5 -98.499c0 -42 3.83301 -75.333 11.5 -100
s18.167 -45.334 31.5 -62.001c12.667 -16.667 28.5 -29.5 47.5 -38.5s40.833 -13.5 65.5 -13.5c25.333 0 48.333 5.16699 69 15.5s37.334 25.5 50.001 45.5c11.333 14.667 20.333 33.5 27 56.5s10 56.5 10 100.5c0 39.333 -2.5 69.333 -7.5 90s-11.5 37.667 -19.5 51
c-13.333 22 -30.666 39.167 -51.999 51.5s-46 18.5 -74 18.5z" />
    <glyph glyph-name="Uhorn" unicode="&#x1af;" horiz-adv-x="638" 
d="M542 696l-0.000976562 -50.998c24.667 0 43.667 8 57 24s20 41 20 75v26h41v-28c0 -38 -8.66699 -69.833 -26 -95.5s-48 -39.167 -92 -40.5v-374c0 -36 -6 -68.667 -18 -98s-28.5 -54.333 -49.5 -75s-46.167 -36.667 -75.5 -48s-61.333 -17 -96 -17
c-36 0 -68.5 6 -97.5 18s-54 28.833 -75 50.5s-37.167 47.5 -48.5 77.5s-17 63 -17 99v457h46v-446c0 -29.333 4.5 -57 13.5 -83s21.833 -48.5 38.5 -67.5s36.834 -34 60.501 -45s50.167 -16.5 79.5 -16.5c28 0 53.667 4.66699 77 14s43.5 22.666 60.5 39.999
s30.167 38.666 39.5 63.999s14 54 14 86v454h48z" />
    <glyph glyph-name="uhorn" unicode="&#x1b0;" horiz-adv-x="549" 
d="M402 0l0.000976562 80h-2c-8 -16 -18 -29.333 -30 -40s-24.833 -19.334 -38.5 -26.001s-27.834 -11.5 -42.501 -14.5s-29 -4.5 -43 -4.5c-25.333 0 -49 3.66699 -71 11s-41.167 18 -57.5 32s-29.166 31.5 -38.499 52.5s-14 45.167 -14 72.5v333h44v-317
c0 -48 13.667 -84 41 -108s62.333 -36 105 -36c21.333 0 41 3.83301 59 11.5s33.667 18.5 47 32.5s23.666 30.667 30.999 50s11 40.666 11 63.999v303h42v-54c24 0.666992 42.5 8.83398 55.5 24.501s19.5 40.5 19.5 74.5v26h42v-28c0 -18.667 -2 -36 -6 -52
s-10.667 -30.167 -20 -42.5s-21.333 -22.166 -36 -29.499s-33 -11.333 -55 -12v-403h-43z" />
    <glyph glyph-name="AEacute" unicode="&#x1fc;" horiz-adv-x="919" 
d="M464 0v185h-292l-117 -185h-51l439 696h443v-43h-374v-279h320v-42h-320v-289h374v-43h-422zM199 226h265v425zM586 751l136 108l35 -37l-151 -93z" />
    <glyph glyph-name="aeacute" unicode="&#x1fd;" horiz-adv-x="799" 
d="M420 238c0 -28.667 2.83301 -55.4971 8.5 -80.4971s15 -46.833 28 -65.5s30.5 -33.5 52.5 -44.5s49 -16.5 81 -16.5c20 0 40.5 3.66699 61.5 11s40.167 17.666 57.5 30.999l27 -32c-21.333 -16.667 -44 -28.667 -68 -36s-49.333 -11 -76 -11c-17.333 0 -35 1.5 -53 4.5
s-35.167 8.5 -51.5 16.5s-31.5 18.833 -45.5 32.5s-26 31.167 -36 52.5c-5.33301 -13.333 -13.166 -26.333 -23.499 -39s-23.5 -24 -39.5 -34s-35 -18 -57 -24s-47.333 -9 -76 -9c-24 0 -46.5 2.66699 -67.5 8s-39.333 13.666 -55 24.999s-28.167 25.5 -37.5 42.5
s-14 37.5 -14 61.5c0 20 3.33301 38.667 10 56s16.667 32.5 30 45.5s30 23.167 50 30.5s43 11 69 11h182v75c0 35.333 -10.5 62.666 -31.5 81.999s-54.167 29 -99.5 29c-24.667 0 -50.167 -3.16699 -76.5 -9.5s-49.833 -18.166 -70.5 -35.499l-27 31
c24.667 21.333 52.5 35.833 83.5 43.5s59.833 11.5 86.5 11.5c20.667 0 40.167 -1.5 58.5 -4.5s35 -8.33301 50 -16s27.667 -18 38 -31s18.166 -29.167 23.499 -48.5c9.33301 18.667 20.333 34.5 33 47.5s26.334 23.333 41.001 31s29.667 13.167 45 16.5s30.666 5 45.999 5
c33.333 0 62.333 -6 87 -18s45 -28.167 61 -48.5s28 -44.333 36 -72s12 -56.834 12 -87.501v-37h-353zM207 238.003c-36.667 0 -67.168 -8.33301 -91.501 -25s-36.5 -42 -36.5 -76s12.333 -60 37 -78s58 -27 100 -27c22 0 42.833 2.66699 62.5 8s36.834 13.5 51.501 24.5
s26.167 24.5 34.5 40.5s12.5 35 12.5 57v76h-170zM577.999 461.003c-47.333 0 -84.5 -16.333 -111.5 -49s-41.833 -78.667 -44.5 -138h306c-2.66699 62.667 -17.167 109.5 -43.5 140.5s-61.833 46.5 -106.5 46.5zM432.999 563.003c-5.33301 2 -10 3.83203 -14 5.49902
s-8.66699 3.83398 -14 6.50098l79 153l48 -19z" />
    <glyph glyph-name="Oslashacute" unicode="&#x1fe;" horiz-adv-x="571" 
d="M286 701c35.333 0 66.833 -5.49902 94.5 -16.499s51.834 -26.5 72.501 -46.5l41 62l27 -18l-45 -70c15.333 -20.667 27.166 -44.334 35.499 -71.001s12.5 -56 12.5 -88v-207c0 -38.667 -5.5 -73.667 -16.5 -105s-26.833 -58 -47.5 -80s-45.667 -38.833 -75 -50.5
s-62.333 -17.5 -99 -17.5c-39.333 0 -73.5 6 -102.5 18s-53.167 28.667 -72.5 50l-43 -64l-27 18l48 72c-15.333 22 -26.5 46.5 -33.5 73.5s-10.5 55.5 -10.5 85.5v207c0 33.333 5 65 15 95s25 56.333 45 79s45 40.667 75 54s65.333 20 106 20zM476 451.001
c0 22 -2.66602 42.999 -7.99902 62.999s-12.666 38 -21.999 54l-308 -465c16.667 -20.667 37.167 -37 61.5 -49s53.5 -18 87.5 -18c29.333 0 55.666 5.33301 78.999 16s43.166 25.334 59.499 44.001s28.833 41 37.5 67s13 54.333 13 85v203zM287.001 657
c-32.667 0 -61.166 -5.5 -85.499 -16.5s-44.5 -26 -60.5 -45s-28 -40.833 -36 -65.5s-12 -51 -12 -79v-207c0 -20 2.16699 -39.5 6.5 -58.5s11.166 -36.5 20.499 -52.5l306 464c-16.667 18 -36.5 32.5 -59.5 43.5s-49.5 16.5 -79.5 16.5zM240.002 751l135 108l36 -37
l-152 -93z" />
    <glyph glyph-name="oslashacute" unicode="&#x1ff;" horiz-adv-x="489" 
d="M246 501c28 0 53.001 -4.33203 75.001 -12.999s41.333 -20.667 58 -36l41 56l24 -18l-45 -60c28 -37.333 42 -83 42 -137v-88c0 -31.333 -4.33301 -60 -13 -86s-21.5 -48.167 -38.5 -66.5s-37.833 -32.666 -62.5 -42.999s-53 -15.5 -85 -15.5
c-30 0 -55.833 4.16699 -77.5 12.5s-40.167 19.833 -55.5 34.5l-38 -51l-24 18l41 55c-14 19.333 -24.167 41.166 -30.5 65.499s-9.5 49.833 -9.5 76.5v88c0 27.333 4.16699 53.5 12.5 78.5s20.666 47.167 36.999 66.5s36.833 34.666 61.5 45.999s53.667 17 87 17z
M397.001 298.001c0 35.333 -8.66602 66.666 -25.999 93.999l-235 -314c12.667 -13.333 28.167 -24.166 46.5 -32.499s39.166 -12.5 62.499 -12.5c22.667 0 43.5 4.16699 62.5 12.5s35 19.833 48 34.5s23.167 32 30.5 52s11 41.667 11 65v101zM245.002 461.001
c-25.333 0 -47.5 -4.66602 -66.5 -13.999s-35 -21.833 -48 -37.5s-22.667 -33.334 -29 -53.001s-9.5 -39.834 -9.5 -60.501v-97c0 -17.333 2 -34.166 6 -50.499s10.333 -31.5 19 -45.5l235 313c-13.333 14 -29 25 -47 33s-38 12 -60 12zM220.002 575.002l79 154l48 -19
l-99 -147z" />
    <glyph glyph-name="Scommaaccent" unicode="&#x218;" horiz-adv-x="530" 
d="M503 183c0 -28.667 -5.5 -54.6689 -16.5 -78.002s-27 -43.166 -48 -59.499s-46.333 -29 -76 -38s-63.167 -13.5 -100.5 -13.5c-44 0 -86.333 6.16699 -127 18.5s-78.667 31.166 -114 56.499l28 38c30.667 -22 64.334 -39 101.001 -51s75 -18 115 -18
c26.667 0 51.667 3 75 9s43.5 15 60.5 27s30.333 27.167 40 45.5s14.5 39.833 14.5 64.5c0 28 -5.66699 50.833 -17 68.5s-26 32 -44 43s-38.167 19.667 -60.5 26s-44.166 11.5 -65.499 15.5c-26 4.66699 -51.5 10.334 -76.5 17.001s-47.333 16.334 -67 29.001
s-35.667 29.334 -48 50.001s-18.5 47.667 -18.5 81c0 28.667 5.16699 54.667 15.5 78s25 43.166 44 59.499s41.833 28.833 68.5 37.5s56.667 13 90 13c77.333 0 143.666 -17.667 198.999 -53l-25 -40c-26.667 15.333 -54.667 27.333 -84 36s-60 13 -92 13
c-22 0 -43.333 -2.83301 -64 -8.5s-38.667 -14.334 -54 -26.001s-27.666 -26.5 -36.999 -44.5s-14 -39.667 -14 -65s5.33301 -45.833 16 -61.5s24.667 -28.167 42 -37.5s37.166 -16.666 59.499 -21.999s45.166 -10.333 68.499 -15c26.667 -5.33301 52.667 -11.833 78 -19.5
s48 -18.5 68 -32.5s36 -32.333 48 -55s18 -52 18 -88zM261 -236.002h-28l28 91h-18v66h60v-67z" />
    <glyph glyph-name="scommaaccent" unicode="&#x219;" horiz-adv-x="446" 
d="M408 134c0 -20 -4.16797 -38.5039 -12.501 -55.5039s-20.5 -31.833 -36.5 -44.5s-35.833 -22.667 -59.5 -30s-51.167 -11 -82.5 -11c-36 0 -70.667 4.83301 -104 14.5s-63.666 25.167 -90.999 46.5l26 34c24 -19.333 50.833 -33.5 80.5 -42.5s61.5 -13.5 95.5 -13.5
c14.667 0 30.334 1.66699 47.001 5s31.834 9 45.501 17s25 18.667 34 32s13.5 30 13.5 50c0 17.333 -4 31.833 -12 43.5s-18.5 21.167 -31.5 28.5s-27.833 13.166 -44.5 17.499s-33.334 7.5 -50.001 9.5c-22 3.33301 -43.5 7.16602 -64.5 11.499s-39.667 10.833 -56 19.5
s-29.5 20.334 -39.5 35.001s-15 34 -15 58c0 22 4.33301 41.833 13 59.5s20.834 32.5 36.501 44.5s34.5 21.333 56.5 28s46 10 72 10c36 0 66.667 -3.66699 92 -11s49 -18.666 71 -33.999l-24 -35c-19.333 12 -40 21.667 -62 29s-46.667 11 -74 11
c-39.333 0 -71.833 -8.33301 -97.5 -25s-38.834 -41 -39.501 -73c0 -16.667 3.83301 -30.167 11.5 -40.5s18 -18.666 31 -24.999s28.167 -11.166 45.5 -14.499s35.666 -6.33301 54.999 -9c20 -3.33301 40.167 -7.66602 60.5 -12.999s38.5 -13.166 54.5 -23.499
s29.167 -23.833 39.5 -40.5s15.5 -37.667 15.5 -63zM213.999 -236.004h-28l28 91h-18v66h60v-67z" />
    <glyph glyph-name="schwa" unicode="&#x259;" horiz-adv-x="474" 
d="M397 253c0.666992 28 -1.83398 54.8359 -7.50098 80.5029s-15.167 48 -28.5 67s-31 34.167 -53 45.5s-49 17 -81 17c-20 0 -40.5 -3.66699 -61.5 -11s-40.167 -17.333 -57.5 -30l-27 30c21.333 17.333 44.166 29.833 68.499 37.5s49.5 11.5 75.5 11.5
c24.667 0 49.834 -3.33301 75.501 -10s48.667 -19.334 69 -38.001s37 -44.334 50 -77.001s19.5 -75 19.5 -127c0 -50 -6 -91.5 -18 -124.5s-27.667 -59.333 -47 -79s-40.833 -33.334 -64.5 -41.001s-46.834 -11.5 -69.501 -11.5c-32.667 0 -61.167 5.83301 -85.5 17.5
s-44.666 27.5 -60.999 47.5s-28.666 43.833 -36.999 71.5s-12.5 57.5 -12.5 89.5v34h353zM89.999 217.003c2 -62.667 16.167 -109.167 42.5 -139.5s61.833 -45.5 106.5 -45.5c47.333 0 84.5 16 111.5 48s42.167 77.667 45.5 137h-306z" />
    <glyph glyph-name="primemod" unicode="&#x2b9;" horiz-adv-x="194" 
d="M187 671l-123 -248l-33 8l94 255z" />
    <glyph glyph-name="circumflex" unicode="&#x2c6;" horiz-adv-x="482" 
d="M242 654l-127 -98l-21 21l132 124h37l126 -123l-21 -21z" />
    <glyph glyph-name="caron" unicode="&#x2c7;" horiz-adv-x="482" 
d="M368 701l21 -20l-126 -124h-37l-132 124l21 21l127 -97z" />
    <glyph glyph-name="breve" unicode="&#x2d8;" horiz-adv-x="498" 
d="M165 674c4 -22 14.498 -39.667 31.498 -53s36.167 -20 57.5 -20c22 0 40.833 5.83301 56.5 17.5s26.167 30.167 31.5 55.5h39c-2 -12.667 -5.83301 -25.5 -11.5 -38.5s-13.5 -24.833 -23.5 -35.5s-22.667 -19.334 -38 -26.001s-33.333 -10 -54 -10
c-21.333 0 -39.666 3.33301 -54.999 10s-28.333 15.334 -39 26.001s-18.667 22.5 -24 35.5s-8.66602 25.833 -9.99902 38.5h39z" />
    <glyph glyph-name="dotaccent" unicode="&#x2d9;" horiz-adv-x="474" 
d="M218 608v54h55v-54h-55z" />
    </font>
</defs>
</svg>
